<svg width="765" height="377" viewBox="0 0 765 377" fill="none" xmlns="http://www.w3.org/2000/svg">
<path opacity="0.5" d="M423.731 288.795C478.214 288.795 522.382 281.377 522.382 272.225C522.382 263.074 478.214 255.655 423.731 255.655C369.248 255.655 325.081 263.074 325.081 272.225C325.081 281.377 369.248 288.795 423.731 288.795Z" fill="#DEE3F3"/>
<path opacity="0.5" d="M538.597 22.2888C544.752 22.2888 549.741 17.2993 549.741 11.1444C549.741 4.98952 544.752 0 538.597 0C532.442 0 527.453 4.98952 527.453 11.1444C527.453 17.2993 532.442 22.2888 538.597 22.2888Z" fill="#3DA5D9"/>
<path opacity="0.5" d="M323.416 31.3481H320.765C321.242 31.3263 321.693 31.1213 322.023 30.7757C322.354 30.4301 322.538 29.9706 322.538 29.4926C322.538 29.0146 322.354 28.555 322.023 28.2095C321.693 27.8639 321.242 27.6589 320.765 27.6371H299.289C299.039 27.6257 298.788 27.6652 298.553 27.7533C298.318 27.8414 298.103 27.9762 297.922 28.1496C297.74 28.3231 297.596 28.5315 297.497 28.7623C297.398 28.9931 297.347 29.2415 297.347 29.4926C297.347 29.7436 297.398 29.9921 297.497 30.2229C297.596 30.4537 297.74 30.6621 297.922 30.8355C298.103 31.009 298.318 31.1438 298.553 31.2319C298.788 31.32 299.039 31.3595 299.289 31.3481H301.941C301.463 31.3698 301.012 31.5748 300.682 31.9204C300.352 32.266 300.168 32.7256 300.168 33.2035C300.168 33.6815 300.352 34.1411 300.682 34.4867C301.012 34.8323 301.463 35.0372 301.941 35.059H298.23C297.979 35.0476 297.728 35.0871 297.493 35.1752C297.258 35.2633 297.043 35.3981 296.862 35.5715C296.68 35.745 296.536 35.9534 296.437 36.1842C296.338 36.415 296.288 36.6634 296.288 36.9145C296.288 37.1655 296.338 37.414 296.437 37.6448C296.536 37.8756 296.68 38.084 296.862 38.2574C297.043 38.4309 297.258 38.5657 297.493 38.6538C297.728 38.7419 297.979 38.7814 298.23 38.77H319.69C320.167 38.7482 320.618 38.5432 320.948 38.1976C321.278 37.852 321.463 37.3925 321.463 36.9145C321.463 36.4365 321.278 35.9769 320.948 35.6314C320.618 35.2858 320.167 35.0808 319.69 35.059H323.401C323.878 35.0372 324.329 34.8323 324.659 34.4867C324.989 34.1411 325.174 33.6815 325.174 33.2035C325.174 32.7256 324.989 32.266 324.659 31.9204C324.329 31.5748 323.878 31.3698 323.401 31.3481H323.416Z" fill="#DEE3F3"/>
<path opacity="0.5" d="M537.183 9.80309H535.163C535.525 9.78418 535.866 9.62714 536.115 9.36435C536.365 9.10157 536.504 8.75308 536.504 8.39077C536.504 8.02847 536.365 7.67998 536.115 7.41719C535.866 7.1544 535.525 6.99736 535.163 6.97845H518.821C518.459 6.99736 518.118 7.1544 517.869 7.41719C517.619 7.67998 517.48 8.02847 517.48 8.39077C517.48 8.75308 517.619 9.10157 517.869 9.36435C518.118 9.62714 518.459 9.78418 518.821 9.80309H520.844C520.652 9.79307 520.46 9.82218 520.28 9.88863C520.1 9.95509 519.936 10.0575 519.796 10.1896C519.657 10.3218 519.546 10.4808 519.471 10.6572C519.395 10.8335 519.356 11.0235 519.356 11.2154C519.356 11.4073 519.395 11.5973 519.471 11.7736C519.546 11.95 519.657 12.1091 519.796 12.2412C519.936 12.3733 520.1 12.4757 520.28 12.5422C520.46 12.6086 520.652 12.6377 520.844 12.6277H518.019C517.657 12.6466 517.317 12.8037 517.067 13.0665C516.818 13.3293 516.679 13.6777 516.679 14.04C516.679 14.4023 516.818 14.7508 517.067 15.0136C517.317 15.2764 517.657 15.4335 518.019 15.4524H534.366C534.557 15.4624 534.749 15.4333 534.929 15.3668C535.109 15.3004 535.274 15.198 535.413 15.0658C535.552 14.9337 535.663 14.7746 535.739 14.5983C535.815 14.4219 535.854 14.232 535.854 14.04C535.854 13.8481 535.815 13.6582 535.739 13.4818C535.663 13.3055 535.552 13.1464 535.413 13.0143C535.274 12.8821 535.109 12.7797 534.929 12.7133C534.749 12.6468 534.557 12.6177 534.366 12.6277H537.19C537.382 12.6377 537.574 12.6086 537.754 12.5422C537.934 12.4757 538.099 12.3733 538.238 12.2412C538.377 12.1091 538.488 11.95 538.564 11.7736C538.639 11.5973 538.678 11.4073 538.678 11.2154C538.678 11.0235 538.639 10.8335 538.564 10.6572C538.488 10.4808 538.377 10.3218 538.238 10.1896C538.099 10.0575 537.934 9.95509 537.754 9.88863C537.574 9.82218 537.382 9.79307 537.19 9.80309H537.183Z" fill="#DEE3F3"/>
<path opacity="0.5" d="M374.283 5.14453H371.632C371.882 5.15596 372.133 5.11644 372.368 5.02835C372.603 4.94026 372.818 4.80543 372.999 4.63201C373.181 4.45859 373.325 4.25017 373.424 4.01935C373.523 3.78853 373.574 3.5401 373.574 3.28906C373.574 3.03802 373.523 2.78958 373.424 2.55876C373.325 2.32794 373.181 2.11953 372.999 1.94611C372.818 1.77268 372.603 1.63786 372.368 1.54977C372.133 1.46168 371.882 1.42215 371.632 1.43358H350.156C349.905 1.42215 349.655 1.46168 349.42 1.54977C349.185 1.63786 348.97 1.77268 348.788 1.94611C348.607 2.11953 348.462 2.32794 348.364 2.55876C348.265 2.78958 348.214 3.03802 348.214 3.28906C348.214 3.5401 348.265 3.78853 348.364 4.01935C348.462 4.25017 348.607 4.45859 348.788 4.63201C348.97 4.80543 349.185 4.94026 349.42 5.02835C349.655 5.11644 349.905 5.15596 350.156 5.14453H352.807C352.33 5.16629 351.879 5.37129 351.549 5.71687C351.219 6.06246 351.034 6.52203 351.034 7C351.034 7.47797 351.219 7.93754 351.549 8.28313C351.879 8.62871 352.33 8.83371 352.807 8.85547H349.096C348.845 8.84404 348.595 8.88357 348.36 8.97166C348.125 9.05975 347.91 9.19458 347.729 9.368C347.547 9.54142 347.403 9.74984 347.304 9.98066C347.205 10.2115 347.154 10.4599 347.154 10.7109C347.154 10.962 347.205 11.2104 347.304 11.4412C347.403 11.6721 347.547 11.8805 347.729 12.0539C347.91 12.2273 348.125 12.3621 348.36 12.4502C348.595 12.5383 348.845 12.5779 349.096 12.5664H370.557C371.034 12.5447 371.485 12.3397 371.815 11.9941C372.145 11.6485 372.329 11.1889 372.329 10.7109C372.329 10.233 372.145 9.77341 371.815 9.42782C371.485 9.08224 371.034 8.87724 370.557 8.85547H374.268C374.745 8.83371 375.196 8.62871 375.526 8.28313C375.856 7.93754 376.04 7.47797 376.04 7C376.04 6.52203 375.856 6.06246 375.526 5.71687C375.196 5.37129 374.745 5.16629 374.268 5.14453H374.283Z" fill="#DEE3F3"/>
<path d="M439.3 208.114H446.621V203.578V202.788H386.699V203.578V208.114H394.021V213.443H382.036V220.098H451.284V213.443H439.3V208.114Z" fill="url(#paint0_linear)"/>
<path d="M488.355 212.992C488.879 205.825 488.694 199.655 487.969 194.341C487.149 188.226 485.626 183.251 483.696 179.204C479.842 171.112 474.351 166.723 469.53 164.338C466.303 162.701 462.776 161.738 459.164 161.509C459.006 160.401 458.454 159.388 457.61 158.654C456.765 157.92 455.685 157.515 454.566 157.512C453.447 157.51 452.365 157.911 451.517 158.641C450.669 159.371 450.113 160.383 449.95 161.49V149.521H424.648V142.862H458.744C459.766 142.862 460.746 142.456 461.469 141.733C462.192 141.01 462.598 140.03 462.598 139.008V104.107C462.598 103.085 462.192 102.105 461.469 101.382C460.746 100.659 459.766 100.253 458.744 100.253H445.8V65.8491C446.711 65.4377 447.483 64.7725 448.025 63.9332C448.567 63.0939 448.856 62.1161 448.856 61.1169C448.856 61.0668 448.856 61.0168 448.856 60.9628C448.856 60.9089 448.856 60.8626 448.856 60.8087C448.856 59.4289 448.308 58.1057 447.332 57.1301C446.357 56.1545 445.034 55.6064 443.654 55.6064C442.274 55.6064 440.951 56.1545 439.975 57.1301C439 58.1057 438.452 59.4289 438.452 60.8087C438.452 60.8588 438.452 60.9089 438.452 60.9628C438.452 61.0168 438.452 61.063 438.452 61.1169C438.451 62.0589 438.707 62.9833 439.192 63.7911C439.676 64.5988 440.372 65.2596 441.203 65.7026V100.25H393.219V65.7026C394.05 65.2596 394.745 64.5988 395.23 63.7911C395.715 62.9833 395.971 62.0589 395.97 61.1169C395.97 61.0668 395.97 61.0168 395.97 60.9628C395.97 60.9089 395.97 60.8626 395.97 60.8087C395.97 59.4289 395.422 58.1057 394.447 57.1301C393.471 56.1545 392.148 55.6064 390.768 55.6064C389.388 55.6064 388.065 56.1545 387.089 57.1301C386.114 58.1057 385.566 59.4289 385.566 60.8087C385.566 60.8588 385.566 60.9089 385.566 60.9628C385.566 61.0168 385.566 61.063 385.566 61.1169C385.566 62.1161 385.855 63.0939 386.397 63.9332C386.939 64.7725 387.711 65.4377 388.622 65.8491V100.246H374.575C373.553 100.246 372.573 100.652 371.851 101.374C371.128 102.097 370.722 103.077 370.722 104.099V138.997C370.722 140.019 371.128 140.999 371.851 141.722C372.573 142.444 373.553 142.85 374.575 142.85H408.671V149.509H383.369V159.32C383.157 158.697 382.814 158.125 382.363 157.644L382.252 157.532C381.6 156.88 380.77 156.437 379.866 156.257C378.962 156.077 378.025 156.169 377.174 156.522C376.323 156.875 375.595 157.472 375.083 158.238C374.571 159.004 374.298 159.905 374.298 160.827V161.494C374.298 161.494 369.512 161.494 363.789 164.326C358.969 166.711 353.481 171.1 349.624 179.193C347.697 183.239 346.156 188.218 345.35 194.33C344.634 199.64 344.445 205.813 344.965 212.981C334.279 221.844 347.662 234.738 347.662 234.738C358.626 234.738 358.383 216.537 358.26 213.431H358.314C358.314 213.431 358.283 213.277 358.237 212.992C357.437 207.908 357.216 202.75 357.578 197.617C357.882 193.698 358.633 189.551 360.175 185.821C361.327 182.881 363.129 180.24 365.446 178.095C367.948 175.878 371.017 174.401 374.31 173.829V176.823C374.31 177.926 374.701 178.993 375.414 179.835C376.128 180.677 377.117 181.238 378.205 181.419C379.293 181.599 380.41 181.388 381.357 180.823C382.304 180.257 383.02 179.374 383.377 178.33V202.796H449.939V178.831C450.074 179.758 450.487 180.623 451.122 181.312L451.249 181.447C451.901 182.105 452.734 182.554 453.643 182.737C454.551 182.919 455.493 182.826 456.348 182.471C457.204 182.115 457.934 181.512 458.445 180.74C458.956 179.967 459.225 179.06 459.218 178.133V173.863C462.435 174.462 465.428 175.927 467.873 178.102C470.19 180.247 471.993 182.889 473.145 185.829C474.686 189.563 475.434 193.705 475.742 197.624C476.104 202.758 475.882 207.916 475.083 213C475.037 213.285 475.006 213.439 475.006 213.439H475.06C474.937 216.545 474.694 234.745 485.657 234.745C485.657 234.749 499.041 221.863 488.355 212.992Z" fill="url(#paint1_linear)"/>
<path d="M385.366 220.711V226.761H393.358V236.079V244.071V256.055V262.714V266.71H384.032V276.028H409.334V266.71H405.342V262.714V256.055V244.071V236.079V226.761H414.66V220.711V220.102H385.366V220.711Z" fill="url(#paint2_linear)"/>
<path d="M417.327 220.711V226.761H429.311V236.079V244.071V256.055V262.714V266.71H419.989V276.028H445.292V266.71H441.296V262.714V256.055V244.071V236.079V226.761H446.621V220.711V220.102H417.327V220.711Z" fill="url(#paint3_linear)"/>
<path d="M456.367 102.018H376.957C374.197 102.018 371.959 104.256 371.959 107.016V138.484C371.959 141.244 374.197 143.482 376.957 143.482H456.367C459.127 143.482 461.365 141.244 461.365 138.484V107.016C461.365 104.256 459.127 102.018 456.367 102.018Z" fill="#3DA5D9"/>
<path opacity="0.1" d="M454.236 137.12H379.084V137.898H454.236V137.12Z" fill="black"/>
<path opacity="0.3" d="M454.236 108.496H379.084V137.001H454.236V108.496Z" fill="black"/>
<path opacity="0.1" d="M396.575 133.709C402.3 133.709 406.941 129.068 406.941 123.344C406.941 117.619 402.3 112.978 396.575 112.978C390.85 112.978 386.209 117.619 386.209 123.344C386.209 129.068 390.85 133.709 396.575 133.709Z" fill="black"/>
<path d="M396.575 133.116C402.3 133.116 406.941 128.475 406.941 122.75C406.941 117.025 402.3 112.384 396.575 112.384C390.85 112.384 386.209 117.025 386.209 122.75C386.209 128.475 390.85 133.116 396.575 133.116Z" fill="#DEE3F3"/>
<path opacity="0.1" d="M436.744 133.709C442.469 133.709 447.11 129.068 447.11 123.344C447.11 117.619 442.469 112.978 436.744 112.978C431.019 112.978 426.378 117.619 426.378 123.344C426.378 129.068 431.019 133.709 436.744 133.709Z" fill="black"/>
<path d="M436.744 133.116C442.469 133.116 447.11 128.475 447.11 122.75C447.11 117.025 442.469 112.384 436.744 112.384C431.019 112.384 426.378 117.025 426.378 122.75C426.378 128.475 431.019 133.116 436.744 133.116Z" fill="#DEE3F3"/>
<path d="M424.433 143.483H408.884V152.554H424.433V143.483Z" fill="#3DA5D9"/>
<path d="M449.053 149.96H384.267V201.79H449.053V149.96Z" fill="#3DA5D9"/>
<path d="M445.816 201.79V206.973H438.687V212.156H394.63V206.973H387.508V201.79H445.816Z" fill="#3DA5D9"/>
<path opacity="0.3" d="M445.816 201.79V206.973H438.687V212.156H394.63V206.973H387.508V201.79H445.816Z" fill="black"/>
<path d="M450.352 212.155H382.973V218.633H450.352V212.155Z" fill="#3DA5D9"/>
<path d="M414.714 218.638H386.209V225.115H414.714V218.638Z" fill="#3DA5D9"/>
<path d="M445.812 218.638H417.308V225.115H445.812V218.638Z" fill="#3DA5D9"/>
<path d="M409.535 263.986H384.915V273.057H409.535V263.986Z" fill="#3DA5D9"/>
<path d="M393.986 234.183V241.959V253.62V260.098V263.986H405.647V260.098V253.62V241.959V234.183V225.111H393.986V234.183Z" fill="#3DA5D9"/>
<path d="M428.968 225.111V234.183V241.959V253.62V260.098V263.986H440.633V260.098V253.62V241.959V234.183V225.111H428.968Z" fill="#3DA5D9"/>
<path d="M444.521 263.986H419.901V273.057H444.521V263.986Z" fill="#3DA5D9"/>
<path d="M384.514 160.973V176.522C384.514 176.638 384.514 176.757 384.514 176.869C384.418 178.033 383.876 179.116 383.002 179.891C382.127 180.666 380.987 181.073 379.82 181.028C378.652 180.984 377.547 180.49 376.735 179.651C375.922 178.811 375.465 177.69 375.458 176.522V160.973C375.457 160.076 375.723 159.199 376.221 158.454C376.719 157.708 377.427 157.126 378.255 156.783C379.084 156.44 379.995 156.35 380.875 156.525C381.754 156.7 382.562 157.132 383.196 157.767L383.304 157.879C384.007 158.63 384.433 159.6 384.51 160.626C384.506 160.738 384.514 160.857 384.514 160.973Z" fill="#3DA5D9"/>
<path d="M458.07 162.268V177.821C458.072 178.719 457.808 179.598 457.309 180.345C456.811 181.093 456.102 181.675 455.272 182.019C454.442 182.363 453.528 182.452 452.647 182.275C451.766 182.098 450.958 181.664 450.325 181.027L450.201 180.896C449.424 180.058 448.993 178.956 448.995 177.813V162.268C448.995 161.065 449.473 159.911 450.324 159.061C451.174 158.21 452.328 157.732 453.531 157.732C454.734 157.732 455.887 158.21 456.738 159.061C457.588 159.911 458.066 161.065 458.066 162.268H458.07Z" fill="#3DA5D9"/>
<path d="M375.443 161.621V173.605C372.244 174.162 369.262 175.596 366.83 177.748C364.571 179.838 362.815 182.412 361.693 185.278C360.194 188.908 359.466 192.942 359.169 196.757C358.801 201.906 359.042 207.079 359.886 212.171H346.934C346.383 205.008 346.549 198.865 347.273 193.586C348.075 187.636 349.555 182.796 351.431 178.858C355.185 170.985 360.526 166.711 365.215 164.392C370.788 161.621 375.443 161.621 375.443 161.621Z" fill="#3DA5D9"/>
<path d="M349.528 232.888C349.528 232.888 336.507 220.353 346.903 211.721H359.817C359.817 211.721 361.188 232.888 349.528 232.888Z" fill="#3DA5D9"/>
<path opacity="0.3" d="M349.528 232.888C349.528 232.888 336.507 220.353 346.903 211.721H359.817C359.817 211.721 361.188 232.888 349.528 232.888Z" fill="black"/>
<path opacity="0.3" d="M438.687 157.736H394.633V191.424H438.687V157.736Z" fill="black"/>
<path opacity="0.3" d="M405.647 225.111H393.986V234.183H405.647V225.111Z" fill="black"/>
<path opacity="0.3" d="M405.647 241.959H393.986V253.62H405.647V241.959Z" fill="black"/>
<path opacity="0.3" d="M405.647 260.098H393.986V263.986H405.647V260.098Z" fill="black"/>
<path opacity="0.3" d="M440.629 225.111H428.968V234.183H440.629V225.111Z" fill="black"/>
<path opacity="0.3" d="M440.629 241.959H428.968V253.62H440.629V241.959Z" fill="black"/>
<path opacity="0.3" d="M440.629 260.098H428.968V263.986H440.629V260.098Z" fill="black"/>
<path opacity="0.3" d="M375.443 161.621V173.605C372.243 174.162 369.262 175.596 366.83 177.748L365.219 164.365C370.788 161.621 375.443 161.621 375.443 161.621Z" fill="black"/>
<path opacity="0.3" d="M361.693 185.278C360.194 188.908 359.466 192.942 359.169 196.757L347.27 193.57C348.071 187.621 349.551 182.78 351.427 178.842L361.693 185.278Z" fill="black"/>
<path d="M457.881 161.621V173.605C461.086 174.159 464.073 175.593 466.509 177.748C468.764 179.835 470.517 182.405 471.638 185.266C473.137 188.896 473.866 192.931 474.162 196.746C474.531 201.894 474.29 207.068 473.446 212.16H486.401C486.952 204.996 486.787 198.854 486.062 193.574C485.261 187.624 483.781 182.784 481.904 178.846C478.151 170.973 472.81 166.7 468.12 164.38C462.536 161.621 457.881 161.621 457.881 161.621Z" fill="#3DA5D9"/>
<path d="M483.796 232.888C483.796 232.888 496.817 220.353 486.421 211.721H473.504C473.504 211.721 472.135 232.888 483.796 232.888Z" fill="#3DA5D9"/>
<path opacity="0.3" d="M483.796 232.888C483.796 232.888 496.817 220.353 486.421 211.721H473.504C473.504 211.721 472.135 232.888 483.796 232.888Z" fill="black"/>
<path opacity="0.3" d="M457.881 161.621V173.605C461.086 174.159 464.073 175.593 466.509 177.748L468.12 164.365C462.536 161.621 457.881 161.621 457.881 161.621Z" fill="black"/>
<path opacity="0.3" d="M471.623 185.278C473.122 188.908 473.85 192.942 474.147 196.757L486.047 193.57C485.245 187.621 483.765 182.78 481.889 178.842L471.623 185.278Z" fill="black"/>
<path opacity="0.1" d="M424.433 143.483H408.884V144.558H424.433V143.483Z" fill="black"/>
<path opacity="0.1" d="M450.205 159.197V180.896C449.428 180.058 448.997 178.957 448.999 177.813V162.268C448.999 161.129 449.43 160.032 450.205 159.197Z" fill="black"/>
<path opacity="0.1" d="M384.499 160.627V176.869C384.421 177.896 383.996 178.865 383.292 179.617V157.879C383.996 158.631 384.421 159.6 384.499 160.627Z" fill="black"/>
<path opacity="0.1" d="M445.816 201.79H387.508V202.557H445.816V201.79Z" fill="black"/>
<path opacity="0.1" d="M414.714 218.638H386.209V219.231H414.714V218.638Z" fill="black"/>
<path opacity="0.1" d="M445.812 218.638H417.308V219.231H445.812V218.638Z" fill="black"/>
<path d="M393.851 63.6485H389.389V102.022H393.851V63.6485Z" fill="#3DA5D9"/>
<path d="M445.014 63.6485H440.552V102.022H445.014V63.6485Z" fill="#3DA5D9"/>
<path opacity="0.1" d="M391.473 69.0008C394.266 69.0008 396.529 66.7372 396.529 63.945C396.529 61.1527 394.266 58.8892 391.473 58.8892C388.681 58.8892 386.417 61.1527 386.417 63.945C386.417 66.7372 388.681 69.0008 391.473 69.0008Z" fill="black"/>
<path d="M391.473 68.7044C394.266 68.7044 396.529 66.4409 396.529 63.6486C396.529 60.8563 394.266 58.5928 391.473 58.5928C388.681 58.5928 386.417 60.8563 386.417 63.6486C386.417 66.4409 388.681 68.7044 391.473 68.7044Z" fill="#3DA5D9"/>
<path opacity="0.1" d="M442.933 69.0008C445.726 69.0008 447.989 66.7372 447.989 63.945C447.989 61.1527 445.726 58.8892 442.933 58.8892C440.141 58.8892 437.877 61.1527 437.877 63.945C437.877 66.7372 440.141 69.0008 442.933 69.0008Z" fill="black"/>
<path d="M442.933 68.7044C445.726 68.7044 447.989 66.4409 447.989 63.6486C447.989 60.8563 445.726 58.5928 442.933 58.5928C440.141 58.5928 437.877 60.8563 437.877 63.6486C437.877 66.4409 440.141 68.7044 442.933 68.7044Z" fill="#3DA5D9"/>
<path d="M284.723 181.216C284.723 181.216 299.52 210.264 287.463 226.156C275.405 242.048 288.557 285.346 288.557 285.346" stroke="#FC6681" stroke-width="2" stroke-miterlimit="10"/>
<path d="M289.104 172.152C289.104 177.748 285.008 182.295 285.008 182.295C285.008 182.295 280.885 177.748 280.885 172.152C280.885 166.557 285.008 162.014 285.008 162.014C285.008 162.014 289.104 166.572 289.104 172.152Z" fill="#FC6681"/>
<path d="M292.395 181.216C292.395 181.216 277.598 210.264 289.655 226.156C301.713 242.048 288.561 285.346 288.561 285.346" stroke="#FFD037" stroke-width="2" stroke-miterlimit="10"/>
<path d="M288.01 172.152C288.01 177.751 292.122 182.291 292.122 182.291C292.122 182.291 296.234 177.751 296.234 172.152C296.234 166.553 292.122 162.014 292.122 162.014C292.122 162.014 288.01 166.572 288.01 172.152Z" fill="#FFD037"/>
<path d="M298.422 181.216C298.422 181.216 313.22 210.264 301.162 226.156C289.104 242.048 302.256 285.346 302.256 285.346" stroke="#FC6681" stroke-width="2" stroke-miterlimit="10"/>
<path d="M302.807 172.152C302.807 177.751 298.696 182.291 298.696 182.291C298.696 182.291 294.588 177.748 294.588 172.152C294.588 166.557 298.7 162.014 298.7 162.014C298.7 162.014 302.807 166.572 302.807 172.152Z" fill="#FC6681"/>
<path d="M300.503 195.428C296.623 199.462 290.511 199.886 290.511 199.886C290.511 199.886 290.696 193.767 294.577 189.728C298.457 185.69 304.569 185.27 304.569 185.27C304.569 185.27 304.384 191.393 300.503 195.428Z" fill="#FC6681"/>
<path d="M300.889 215.466C297.008 219.501 290.896 219.925 290.896 219.925C290.896 219.925 291.081 213.805 294.962 209.767C298.842 205.728 304.954 205.308 304.954 205.308C304.954 205.308 304.769 211.432 300.889 215.466Z" fill="#FC6681"/>
<path d="M279.837 226.491C283.509 230.729 283.378 236.841 283.378 236.841C283.378 236.841 277.297 236.109 273.629 231.882C269.96 227.654 270.087 221.531 270.087 221.531C270.087 221.531 276.164 222.263 279.837 226.491Z" fill="#FC6681"/>
<path d="M283.243 183.755C287.91 186.838 289.409 192.784 289.409 192.784C289.409 192.784 283.355 193.701 278.689 190.611C274.022 187.52 272.523 181.582 272.523 181.582C272.523 181.582 278.573 180.665 283.243 183.755Z" fill="#FC6681"/>
<path d="M306.095 181.216C306.095 181.216 291.297 210.264 303.355 226.156C315.413 242.048 302.261 285.346 302.261 285.346" stroke="#FFD037" stroke-width="2" stroke-miterlimit="10"/>
<path d="M301.713 172.152C301.713 177.748 305.817 182.295 305.817 182.295C305.817 182.295 309.929 177.755 309.929 172.156C309.929 166.557 305.817 162.014 305.817 162.014C305.817 162.014 301.713 166.572 301.713 172.152Z" fill="#FFD037"/>
<path d="M302.892 195.859C298.962 199.848 298.704 205.967 298.704 205.967C298.704 205.967 304.819 205.62 308.75 201.632C312.68 197.644 312.939 191.524 312.939 191.524C312.939 191.524 306.823 191.871 302.892 195.859Z" fill="#FFD037"/>
<path d="M310.599 223.605C306.669 227.593 306.411 233.712 306.411 233.712C306.411 233.712 312.526 233.366 316.457 229.377C320.387 225.389 320.646 219.269 320.646 219.269C320.646 219.269 314.53 219.616 310.599 223.605Z" fill="#FFD037"/>
<path d="M299.266 217.505C299.266 217.505 308.175 203.463 320.676 203.162" stroke="#FFD037" stroke-width="2" stroke-miterlimit="10"/>
<path d="M292.33 209.027C292.33 209.027 283.417 194.989 270.916 194.703" stroke="#FC6681" stroke-width="2" stroke-miterlimit="10"/>
<path d="M291.174 229.065C291.174 229.065 300.083 215.023 312.584 214.722" stroke="#FFD037" stroke-width="2" stroke-miterlimit="10"/>
<path d="M320.264 205.366C321.541 205.366 322.576 204.331 322.576 203.054C322.576 201.777 321.541 200.742 320.264 200.742C318.987 200.742 317.952 201.777 317.952 203.054C317.952 204.331 318.987 205.366 320.264 205.366Z" fill="#FFD037"/>
<path d="M271.131 197.081C272.408 197.081 273.444 196.046 273.444 194.769C273.444 193.492 272.408 192.457 271.131 192.457C269.855 192.457 268.819 193.492 268.819 194.769C268.819 196.046 269.855 197.081 271.131 197.081Z" fill="#FC6681"/>
<path d="M297.725 233.689C297.725 233.689 288.811 219.651 276.311 219.366" stroke="#FC6681" stroke-width="2" stroke-miterlimit="10"/>
<path d="M276.526 221.744C277.803 221.744 278.839 220.709 278.839 219.432C278.839 218.155 277.803 217.12 276.526 217.12C275.25 217.12 274.214 218.155 274.214 219.432C274.214 220.709 275.25 221.744 276.526 221.744Z" fill="#FC6681"/>
<path d="M312.75 217.119C314.027 217.119 315.062 216.084 315.062 214.807C315.062 213.53 314.027 212.495 312.75 212.495C311.473 212.495 310.438 213.53 310.438 214.807C310.438 216.084 311.473 217.119 312.75 217.119Z" fill="#FFD037"/>
<path d="M346.957 268.464C346.957 268.464 325.493 264.171 319.767 258.444C314.041 252.718 288.284 242.703 285.421 249.859C282.557 257.015 246.785 281.342 271.112 285.646C295.44 289.951 328.353 291.369 335.509 288.51C342.665 285.65 346.957 268.464 346.957 268.464Z" fill="#A8A8A8"/>
<path opacity="0.2" d="M271.113 282.976C295.44 287.269 328.353 288.698 335.509 285.839C340.958 283.658 344.757 273.188 346.241 268.313L346.958 268.464C346.958 268.464 342.665 285.635 335.509 288.502C328.353 291.369 295.432 289.932 271.113 285.639C264.091 284.398 262.084 281.488 262.839 277.804C263.429 280.205 265.887 282.055 271.113 282.976Z" fill="black"/>
<path d="M578.793 186.326C578.793 186.326 583.938 193.05 576.42 203.208C568.901 213.366 562.705 221.936 565.21 228.256C565.21 228.256 576.551 209.397 585.784 209.135C595.017 208.873 588.951 197.667 578.793 186.326Z" fill="#FC6681"/>
<path opacity="0.1" d="M578.793 186.326C579.242 186.975 579.596 187.685 579.845 188.434C588.851 199.016 593.652 208.892 584.993 209.139C576.928 209.37 567.267 223.782 564.955 227.431C565.031 227.712 565.122 227.989 565.229 228.26C565.229 228.26 576.57 209.401 585.803 209.139C595.036 208.877 588.951 197.667 578.793 186.326Z" fill="black"/>
<path d="M588.358 194.896C588.358 197.262 588.092 199.181 587.764 199.181C587.437 199.181 587.171 197.254 587.171 194.896C587.171 192.538 587.502 193.644 587.83 193.644C588.157 193.644 588.358 192.53 588.358 194.896Z" fill="#FFD037"/>
<path d="M591.637 197.725C589.56 198.857 587.745 199.543 587.591 199.266C587.437 198.988 588.994 197.825 591.059 196.692C593.125 195.559 592.319 196.383 592.474 196.673C592.628 196.962 593.714 196.592 591.637 197.725Z" fill="#FFD037"/>
<path d="M551.63 186.326C551.63 186.326 546.485 193.05 554.004 203.208C561.522 213.366 567.718 221.936 565.214 228.256C565.214 228.256 553.873 209.397 544.64 209.135C535.407 208.873 541.472 197.667 551.63 186.326Z" fill="#FC6681"/>
<path opacity="0.1" d="M551.63 186.326C551.181 186.975 550.827 187.685 550.578 188.434C541.572 199.016 536.77 208.892 545.429 209.139C553.495 209.37 563.156 223.782 565.468 227.431C565.392 227.712 565.301 227.989 565.194 228.26C565.194 228.26 553.853 209.401 544.62 209.139C535.387 208.877 541.472 197.667 551.63 186.326Z" fill="black"/>
<path d="M542.065 194.896C542.065 197.262 542.331 199.181 542.659 199.181C542.986 199.181 543.252 197.254 543.252 194.896C543.252 192.538 542.921 193.644 542.593 193.644C542.266 193.644 542.065 192.53 542.065 194.896Z" fill="#FFD037"/>
<path d="M538.786 197.725C540.863 198.857 542.678 199.543 542.832 199.266C542.987 198.988 541.43 197.825 539.364 196.692C537.299 195.559 538.104 196.383 537.95 196.673C537.796 196.962 536.709 196.592 538.786 197.725Z" fill="#FFD037"/>
<path d="M543.703 227.381C543.703 227.381 558.084 226.938 562.416 223.851C566.747 220.765 584.535 217.081 585.61 222.029C586.685 226.976 607.221 246.645 590.986 246.776C574.751 246.907 553.264 244.248 548.936 241.612C544.609 238.976 543.703 227.381 543.703 227.381Z" fill="#A8A8A8"/>
<path opacity="0.2" d="M591.279 245.058C575.044 245.189 553.557 242.53 549.229 239.894C545.934 237.886 544.605 230.688 544.185 227.366H543.703C543.703 227.366 544.613 238.965 548.94 241.597C553.268 244.229 574.759 246.892 590.99 246.761C595.676 246.722 597.294 245.058 597.205 242.587C596.554 244.098 594.766 245.027 591.279 245.058Z" fill="black"/>
<g opacity="0.25">
<path d="M223.262 233.917H259.178V297.013H223.262V372H141.48V297.013H4.85352L0 247.022L141.48 19.3921V18.6641H223.262V233.917ZM77.8989 233.917H141.48V125.199L136.384 133.45L77.8989 233.917Z" fill="#D8D8D8"/>
<path d="M540.439 227.608C540.439 275.334 529.68 312.14 508.163 338.025C486.808 363.911 456.635 376.854 417.645 376.854C378.332 376.854 347.916 363.83 326.399 337.783C304.882 311.736 294.123 275.011 294.123 227.608V163.056C294.123 115.33 304.801 78.5241 326.156 52.6387C347.673 26.7533 378.008 13.8105 417.16 13.8105C456.311 13.8105 486.646 26.8341 508.163 52.8813C529.68 78.9286 540.439 115.734 540.439 163.299V227.608ZM458.657 152.621C458.657 127.221 455.341 108.292 448.708 95.835C442.074 83.2158 431.558 76.9062 417.16 76.9062C403.084 76.9062 392.811 82.7305 386.34 94.3789C380.03 106.027 376.633 123.662 376.147 147.282V237.558C376.147 263.928 379.464 283.262 386.097 295.557C392.73 307.691 403.246 313.758 417.645 313.758C431.558 313.758 441.832 307.853 448.465 296.042C455.098 284.07 458.495 265.384 458.657 239.984V152.621Z" fill="#D8D8D8"/>
<path d="M764.186 372H682.162V110.881L601.593 134.42V72.2954L756.663 18.6641H764.186V372Z" fill="#D8D8D8"/>
</g>
<defs>
<linearGradient id="paint0_linear" x1="416.66" y1="220.098" x2="416.66" y2="202.788" gradientUnits="userSpaceOnUse">
<stop stop-color="#808080" stop-opacity="0.25"/>
<stop offset="0.54" stop-color="#808080" stop-opacity="0.12"/>
<stop offset="1" stop-color="#808080" stop-opacity="0.1"/>
</linearGradient>
<linearGradient id="paint1_linear" x1="88252.7" y1="122393" x2="88252.7" y2="39118.6" gradientUnits="userSpaceOnUse">
<stop stop-color="#808080" stop-opacity="0.25"/>
<stop offset="0.54" stop-color="#808080" stop-opacity="0.12"/>
<stop offset="1" stop-color="#808080" stop-opacity="0.1"/>
</linearGradient>
<linearGradient id="paint2_linear" x1="14135.3" y1="40280.1" x2="14135.3" y2="32163.5" gradientUnits="userSpaceOnUse">
<stop stop-color="#808080" stop-opacity="0.25"/>
<stop offset="0.54" stop-color="#808080" stop-opacity="0.12"/>
<stop offset="1" stop-color="#808080" stop-opacity="0.1"/>
</linearGradient>
<linearGradient id="paint3_linear" x1="16050.3" y1="40280.1" x2="16050.3" y2="32163.5" gradientUnits="userSpaceOnUse">
<stop stop-color="#808080" stop-opacity="0.25"/>
<stop offset="0.54" stop-color="#808080" stop-opacity="0.12"/>
<stop offset="1" stop-color="#808080" stop-opacity="0.1"/>
</linearGradient>
</defs>
</svg>
