<svg width="842" height="378" viewBox="0 0 842 378" fill="none" xmlns="http://www.w3.org/2000/svg">
<g opacity="0.25">
<path d="M269.01 299.235H226.047V373.123H152.325V299.235H0V246.807L156.475 16.6086H226.047V240.71H269.01V299.235ZM152.325 240.71V180.235C152.325 170.155 152.732 155.524 153.546 136.341C154.359 117.158 155.01 106.022 155.499 102.933H153.546C147.524 116.264 140.282 129.269 131.82 141.949L66.3981 240.71H152.325Z" fill="#D8D8D8"/>
<path d="M545.497 194.866C545.497 257.13 535.244 303.218 514.739 333.131C494.396 363.044 462.987 378 420.512 378C379.338 378 348.255 362.556 327.261 331.668C306.431 300.78 296.015 255.179 296.015 194.866C296.015 131.951 306.187 85.6193 326.529 55.8691C346.872 25.9564 378.199 11 420.512 11C461.685 11 492.769 26.6066 513.762 57.8199C534.918 89.0332 545.497 134.715 545.497 194.866ZM370.957 194.866C370.957 238.597 374.7 269.973 382.186 288.993C389.835 307.851 402.61 317.28 420.512 317.28C438.088 317.28 450.782 307.689 458.593 288.506C466.405 269.322 470.31 238.109 470.31 194.866C470.31 151.135 466.323 119.759 458.349 100.738C450.537 81.555 437.925 71.9635 420.512 71.9635C402.773 71.9635 390.079 81.555 382.431 100.738C374.782 119.759 370.957 151.135 370.957 194.866Z" fill="#D8D8D8"/>
<path d="M842 299.235H799.036V373.123H725.315V299.235H572.99V246.807L729.465 16.6086H799.036V240.71H842V299.235ZM725.315 240.71V180.235C725.315 170.155 725.722 155.524 726.536 136.341C727.349 117.158 728 106.022 728.489 102.933H726.536C720.514 116.264 713.272 129.269 704.81 141.949L639.388 240.71H725.315Z" fill="#D8D8D8"/>
</g>
<path opacity="0.5" d="M427.049 288.795C481.532 288.795 525.699 281.377 525.699 272.225C525.699 263.074 481.532 255.655 427.049 255.655C372.566 255.655 328.399 263.074 328.399 272.225C328.399 281.377 372.566 288.795 427.049 288.795Z" fill="#DEE3F3"/>
<path opacity="0.5" d="M541.915 22.2888C548.07 22.2888 553.059 17.2993 553.059 11.1444C553.059 4.98952 548.07 0 541.915 0C535.76 0 530.771 4.98952 530.771 11.1444C530.771 17.2993 535.76 22.2888 541.915 22.2888Z" fill="#3DA5D9"/>
<path opacity="0.5" d="M326.734 31.348H324.083C324.56 31.3262 325.011 31.1212 325.341 30.7757C325.671 30.4301 325.856 29.9705 325.856 29.4925C325.856 29.0146 325.671 28.555 325.341 28.2094C325.011 27.8638 324.56 27.6588 324.083 27.6371H302.607C302.356 27.6256 302.106 27.6651 301.871 27.7532C301.636 27.8413 301.421 27.9762 301.239 28.1496C301.058 28.323 300.913 28.5314 300.815 28.7622C300.716 28.9931 300.665 29.2415 300.665 29.4925C300.665 29.7436 300.716 29.992 300.815 30.2228C300.913 30.4536 301.058 30.6621 301.239 30.8355C301.421 31.0089 301.636 31.1437 301.871 31.2318C302.106 31.3199 302.356 31.3594 302.607 31.348H305.258C304.781 31.3698 304.33 31.5748 304 31.9203C303.67 32.2659 303.486 32.7255 303.486 33.2035C303.486 33.6814 303.67 34.141 304 34.4866C304.33 34.8322 304.781 35.0372 305.258 35.0589H301.547C301.297 35.0475 301.046 35.087 300.811 35.1751C300.576 35.2632 300.361 35.398 300.18 35.5715C299.998 35.7449 299.854 35.9533 299.755 36.1841C299.656 36.415 299.605 36.6634 299.605 36.9144C299.605 37.1655 299.656 37.4139 299.755 37.6447C299.854 37.8755 299.998 38.0839 300.18 38.2574C300.361 38.4308 300.576 38.5656 300.811 38.6537C301.046 38.7418 301.297 38.7813 301.547 38.7699H323.008C323.485 38.7481 323.936 38.5431 324.266 38.1975C324.596 37.852 324.781 37.3924 324.781 36.9144C324.781 36.4365 324.596 35.9769 324.266 35.6313C323.936 35.2857 323.485 35.0807 323.008 35.0589H326.719C327.196 35.0372 327.647 34.8322 327.977 34.4866C328.307 34.141 328.491 33.6814 328.491 33.2035C328.491 32.7255 328.307 32.2659 327.977 31.9203C327.647 31.5748 327.196 31.3698 326.719 31.348H326.734Z" fill="#DEE3F3"/>
<path opacity="0.5" d="M540.501 9.80315H538.482C538.843 9.78425 539.184 9.6272 539.434 9.36441C539.683 9.10163 539.822 8.75314 539.822 8.39083C539.822 8.02853 539.683 7.68004 539.434 7.41725C539.184 7.15447 538.843 6.99742 538.482 6.97852H522.139C521.777 6.99742 521.436 7.15447 521.187 7.41725C520.937 7.68004 520.798 8.02853 520.798 8.39083C520.798 8.75314 520.937 9.10163 521.187 9.36441C521.436 9.6272 521.777 9.78425 522.139 9.80315H524.162C523.97 9.79314 523.779 9.82224 523.598 9.88869C523.418 9.95515 523.254 10.0576 523.115 10.1897C522.975 10.3218 522.864 10.4809 522.789 10.6573C522.713 10.8336 522.674 11.0235 522.674 11.2155C522.674 11.4074 522.713 11.5973 522.789 11.7737C522.864 11.95 522.975 12.1091 523.115 12.2412C523.254 12.3734 523.418 12.4758 523.598 12.5422C523.779 12.6087 523.97 12.6378 524.162 12.6278H521.337C520.975 12.6467 520.635 12.8037 520.385 13.0665C520.136 13.3293 519.997 13.6778 519.997 14.0401C519.997 14.4024 520.136 14.7509 520.385 15.0137C520.635 15.2765 520.975 15.4335 521.337 15.4524H537.684C537.876 15.4624 538.067 15.4333 538.247 15.3669C538.427 15.3004 538.592 15.198 538.731 15.0659C538.871 14.9338 538.981 14.7747 539.057 14.5983C539.133 14.422 539.172 14.232 539.172 14.0401C539.172 13.8482 539.133 13.6582 539.057 13.4819C538.981 13.3055 538.871 13.1465 538.731 13.0143C538.592 12.8822 538.427 12.7798 538.247 12.7133C538.067 12.6469 537.876 12.6178 537.684 12.6278H540.509C540.7 12.6378 540.892 12.6087 541.072 12.5422C541.252 12.4758 541.417 12.3734 541.556 12.2412C541.695 12.1091 541.806 11.95 541.882 11.7737C541.958 11.5973 541.997 11.4074 541.997 11.2155C541.997 11.0235 541.958 10.8336 541.882 10.6573C541.806 10.4809 541.695 10.3218 541.556 10.1897C541.417 10.0576 541.252 9.95515 541.072 9.88869C540.892 9.82224 540.7 9.79314 540.509 9.80315H540.501Z" fill="#DEE3F3"/>
<path opacity="0.5" d="M377.601 5.14451H374.949C375.2 5.15594 375.451 5.11642 375.686 5.02833C375.921 4.94024 376.136 4.80541 376.317 4.63199C376.499 4.45857 376.643 4.25015 376.742 4.01933C376.841 3.78851 376.891 3.54008 376.891 3.28904C376.891 3.038 376.841 2.78957 376.742 2.55875C376.643 2.32793 376.499 2.11951 376.317 1.94609C376.136 1.77267 375.921 1.63784 375.686 1.54975C375.451 1.46166 375.2 1.42214 374.949 1.43357H353.474C353.223 1.42214 352.972 1.46166 352.737 1.54975C352.502 1.63784 352.288 1.77267 352.106 1.94609C351.925 2.11951 351.78 2.32793 351.681 2.55875C351.583 2.78957 351.532 3.038 351.532 3.28904C351.532 3.54008 351.583 3.78851 351.681 4.01933C351.78 4.25015 351.925 4.45857 352.106 4.63199C352.288 4.80541 352.502 4.94024 352.737 5.02833C352.972 5.11642 353.223 5.15594 353.474 5.14451H356.125C355.648 5.16628 355.197 5.37127 354.867 5.71686C354.536 6.06244 354.352 6.52202 354.352 6.99999C354.352 7.47796 354.536 7.93753 354.867 8.28311C355.197 8.6287 355.648 8.83369 356.125 8.85546H352.414C352.163 8.84403 351.913 8.88355 351.678 8.97164C351.443 9.05973 351.228 9.19456 351.046 9.36798C350.865 9.5414 350.72 9.74982 350.622 9.98064C350.523 10.2115 350.472 10.4599 350.472 10.7109C350.472 10.962 350.523 11.2104 350.622 11.4412C350.72 11.672 350.865 11.8805 351.046 12.0539C351.228 12.2273 351.443 12.3621 351.678 12.4502C351.913 12.5383 352.163 12.5778 352.414 12.5664H373.874C374.352 12.5446 374.802 12.3396 375.133 11.9941C375.463 11.6485 375.647 11.1889 375.647 10.7109C375.647 10.233 375.463 9.77339 375.133 9.42781C374.802 9.08222 374.352 8.87722 373.874 8.85546H377.585C378.063 8.83369 378.513 8.6287 378.844 8.28311C379.174 7.93753 379.358 7.47796 379.358 6.99999C379.358 6.52202 379.174 6.06244 378.844 5.71686C378.513 5.37127 378.063 5.16628 377.585 5.14451H377.601Z" fill="#DEE3F3"/>
<path d="M442.617 208.114H449.939V203.578V202.788H390.017V203.578V208.114H397.338V213.443H385.354V220.098H454.602V213.443H442.617V208.114Z" fill="url(#paint0_linear)"/>
<path d="M491.673 212.992C492.197 205.825 492.012 199.655 491.287 194.341C490.467 188.226 488.945 183.251 487.014 179.204C483.16 171.112 477.669 166.723 472.848 164.338C469.621 162.701 466.094 161.738 462.482 161.509C462.324 160.401 461.772 159.388 460.928 158.654C460.083 157.92 459.003 157.515 457.884 157.512C456.765 157.51 455.683 157.911 454.835 158.641C453.988 159.372 453.431 160.383 453.269 161.49V149.521H427.966V142.862H462.062C463.084 142.862 464.065 142.456 464.787 141.733C465.51 141.01 465.916 140.03 465.916 139.008V104.107C465.916 103.085 465.51 102.105 464.787 101.382C464.065 100.659 463.084 100.253 462.062 100.253H449.118V65.8491C450.029 65.4378 450.801 64.7726 451.343 63.9332C451.885 63.0939 452.174 62.1161 452.174 61.117C452.174 61.0669 452.174 61.0168 452.174 60.9629C452.174 60.9089 452.174 60.8627 452.174 60.8087C452.174 59.429 451.626 58.1058 450.65 57.1302C449.675 56.1545 448.352 55.6064 446.972 55.6064C445.592 55.6064 444.269 56.1545 443.293 57.1302C442.318 58.1058 441.77 59.429 441.77 60.8087C441.77 60.8588 441.77 60.9089 441.77 60.9629C441.77 61.0168 441.77 61.063 441.77 61.117C441.769 62.059 442.025 62.9833 442.51 63.7911C442.995 64.5989 443.69 65.2596 444.521 65.7027V100.25H396.537V65.7027C397.368 65.2596 398.063 64.5989 398.548 63.7911C399.033 62.9833 399.289 62.059 399.288 61.117C399.288 61.0669 399.288 61.0168 399.288 60.9629C399.288 60.9089 399.288 60.8627 399.288 60.8087C399.288 59.429 398.74 58.1058 397.765 57.1302C396.789 56.1545 395.466 55.6064 394.086 55.6064C392.706 55.6064 391.383 56.1545 390.408 57.1302C389.432 58.1058 388.884 59.429 388.884 60.8087C388.884 60.8588 388.884 60.9089 388.884 60.9629C388.884 61.0168 388.884 61.063 388.884 61.117C388.884 62.1161 389.173 63.0939 389.715 63.9332C390.257 64.7726 391.029 65.4378 391.94 65.8491V100.246H377.894C376.872 100.246 375.891 100.652 375.169 101.374C374.446 102.097 374.04 103.077 374.04 104.099V138.997C374.04 140.019 374.446 140.999 375.169 141.722C375.891 142.444 376.872 142.85 377.894 142.85H411.99V149.509H386.687V159.32C386.475 158.697 386.132 158.125 385.682 157.644L385.57 157.532C384.918 156.88 384.088 156.437 383.184 156.257C382.28 156.077 381.343 156.169 380.492 156.522C379.641 156.875 378.913 157.472 378.401 158.238C377.889 159.004 377.616 159.905 377.616 160.827V161.494C377.616 161.494 372.83 161.494 367.108 164.326C362.287 166.711 356.799 171.1 352.942 179.193C351.015 183.239 349.474 188.218 348.668 194.33C347.952 199.64 347.763 205.813 348.283 212.981C337.597 221.844 350.981 234.738 350.981 234.738C361.944 234.738 361.701 216.537 361.578 213.431H361.632C361.632 213.431 361.601 213.277 361.555 212.992C360.755 207.908 360.534 202.75 360.896 197.617C361.2 193.698 361.952 189.551 363.493 185.821C364.645 182.881 366.447 180.24 368.765 178.095C371.266 175.878 374.335 174.401 377.628 173.829V176.823C377.628 177.926 378.019 178.993 378.733 179.835C379.446 180.677 380.435 181.238 381.523 181.419C382.611 181.599 383.728 181.388 384.675 180.823C385.623 180.257 386.338 179.374 386.695 178.33V202.796H453.257V178.831C453.392 179.758 453.805 180.623 454.44 181.312L454.567 181.447C455.219 182.105 456.052 182.554 456.961 182.737C457.869 182.919 458.811 182.826 459.666 182.471C460.522 182.115 461.252 181.512 461.763 180.74C462.274 179.967 462.543 179.06 462.536 178.133V173.863C465.754 174.462 468.746 175.927 471.191 178.102C473.508 180.247 475.311 182.889 476.463 185.829C478.004 189.563 478.752 193.705 479.06 197.624C479.422 202.758 479.201 207.916 478.401 213C478.355 213.285 478.324 213.439 478.324 213.439H478.378C478.255 216.545 478.012 234.745 488.975 234.745C488.975 234.749 502.359 221.863 491.673 212.992Z" fill="url(#paint1_linear)"/>
<path d="M388.683 220.711V226.761H396.676V236.079V244.071V256.055V262.714V266.71H387.35V276.028H412.652V266.71H408.66V262.714V256.055V244.071V236.079V226.761H417.978V220.711V220.102H388.683V220.711Z" fill="url(#paint2_linear)"/>
<path d="M420.645 220.711V226.761H432.629V236.079V244.071V256.055V262.714V266.71H423.307V276.028H448.61V266.71H444.613V262.714V256.055V244.071V236.079V226.761H449.939V220.711V220.102H420.645V220.711Z" fill="url(#paint3_linear)"/>
<path d="M459.685 102.018H380.275C377.515 102.018 375.277 104.256 375.277 107.016V138.484C375.277 141.244 377.515 143.482 380.275 143.482H459.685C462.445 143.482 464.683 141.244 464.683 138.484V107.016C464.683 104.256 462.445 102.018 459.685 102.018Z" fill="#3DA5D9"/>
<path opacity="0.1" d="M457.554 137.12H382.402V137.898H457.554V137.12Z" fill="black"/>
<path opacity="0.3" d="M457.554 108.496H382.402V137.001H457.554V108.496Z" fill="black"/>
<path opacity="0.1" d="M399.893 133.71C405.618 133.71 410.259 129.068 410.259 123.344C410.259 117.619 405.618 112.978 399.893 112.978C394.168 112.978 389.527 117.619 389.527 123.344C389.527 129.068 394.168 133.71 399.893 133.71Z" fill="black"/>
<path d="M399.893 133.116C405.618 133.116 410.259 128.475 410.259 122.75C410.259 117.025 405.618 112.384 399.893 112.384C394.168 112.384 389.527 117.025 389.527 122.75C389.527 128.475 394.168 133.116 399.893 133.116Z" fill="#DEE3F3"/>
<path opacity="0.1" d="M440.063 133.71C445.788 133.71 450.428 129.068 450.428 123.344C450.428 117.619 445.788 112.978 440.063 112.978C434.338 112.978 429.697 117.619 429.697 123.344C429.697 129.068 434.338 133.71 440.063 133.71Z" fill="black"/>
<path d="M440.063 133.116C445.788 133.116 450.428 128.475 450.428 122.75C450.428 117.025 445.788 112.384 440.063 112.384C434.338 112.384 429.697 117.025 429.697 122.75C429.697 128.475 434.338 133.116 440.063 133.116Z" fill="#DEE3F3"/>
<path d="M427.751 143.483H412.202V152.554H427.751V143.483Z" fill="#3DA5D9"/>
<path d="M452.371 149.96H387.585V201.79H452.371V149.96Z" fill="#3DA5D9"/>
<path d="M449.134 201.79V206.973H442.005V212.156H397.947V206.973H390.826V201.79H449.134Z" fill="#3DA5D9"/>
<path opacity="0.3" d="M449.134 201.79V206.973H442.005V212.156H397.947V206.973H390.826V201.79H449.134Z" fill="black"/>
<path d="M453.669 212.156H386.29V218.633H453.669V212.156Z" fill="#3DA5D9"/>
<path d="M418.032 218.638H389.527V225.115H418.032V218.638Z" fill="#3DA5D9"/>
<path d="M449.13 218.638H420.625V225.115H449.13V218.638Z" fill="#3DA5D9"/>
<path d="M412.853 263.986H388.233V273.057H412.853V263.986Z" fill="#3DA5D9"/>
<path d="M397.304 234.183V241.959V253.62V260.098V263.986H408.964V260.098V253.62V241.959V234.183V225.111H397.304V234.183Z" fill="#3DA5D9"/>
<path d="M432.286 225.111V234.183V241.959V253.62V260.098V263.986H443.951V260.098V253.62V241.959V234.183V225.111H432.286Z" fill="#3DA5D9"/>
<path d="M447.839 263.986H423.219V273.057H447.839V263.986Z" fill="#3DA5D9"/>
<path d="M387.832 160.973V176.522C387.832 176.638 387.832 176.757 387.832 176.869C387.736 178.033 387.194 179.116 386.32 179.891C385.445 180.666 384.305 181.073 383.138 181.028C381.97 180.984 380.865 180.49 380.053 179.651C379.24 178.811 378.783 177.69 378.776 176.522V160.973C378.775 160.076 379.041 159.199 379.539 158.454C380.037 157.708 380.745 157.126 381.573 156.783C382.402 156.44 383.313 156.35 384.193 156.525C385.072 156.7 385.88 157.132 386.514 157.767L386.622 157.879C387.325 158.63 387.751 159.6 387.828 160.626C387.824 160.738 387.832 160.857 387.832 160.973Z" fill="#3DA5D9"/>
<path d="M461.388 162.268V177.821C461.39 178.719 461.125 179.598 460.627 180.345C460.129 181.093 459.419 181.675 458.589 182.019C457.759 182.363 456.846 182.452 455.965 182.275C455.084 182.098 454.276 181.664 453.642 181.027L453.519 180.896C452.742 180.058 452.311 178.956 452.313 177.813V162.268C452.313 161.065 452.791 159.911 453.641 159.061C454.492 158.21 455.646 157.732 456.848 157.732C458.051 157.732 459.205 158.21 460.056 159.061C460.906 159.911 461.384 161.065 461.384 162.268H461.388Z" fill="#3DA5D9"/>
<path d="M378.761 161.621V173.605C375.562 174.162 372.58 175.596 370.148 177.748C367.889 179.838 366.133 182.412 365.011 185.278C363.512 188.908 362.784 192.942 362.487 196.757C362.119 201.906 362.36 207.079 363.204 212.171H350.252C349.701 205.008 349.867 198.865 350.591 193.586C351.393 187.636 352.873 182.796 354.749 178.858C358.503 170.985 363.844 166.711 368.533 164.392C374.106 161.621 378.761 161.621 378.761 161.621Z" fill="#3DA5D9"/>
<path d="M352.846 232.888C352.846 232.888 339.825 220.353 350.221 211.721H363.135C363.135 211.721 364.506 232.888 352.846 232.888Z" fill="#3DA5D9"/>
<path opacity="0.3" d="M352.846 232.888C352.846 232.888 339.825 220.353 350.221 211.721H363.135C363.135 211.721 364.506 232.888 352.846 232.888Z" fill="black"/>
<path opacity="0.3" d="M442.005 157.736H397.951V191.424H442.005V157.736Z" fill="black"/>
<path opacity="0.3" d="M408.964 225.111H397.304V234.183H408.964V225.111Z" fill="black"/>
<path opacity="0.3" d="M408.964 241.959H397.304V253.62H408.964V241.959Z" fill="black"/>
<path opacity="0.3" d="M408.964 260.098H397.304V263.986H408.964V260.098Z" fill="black"/>
<path opacity="0.3" d="M443.947 225.111H432.286V234.183H443.947V225.111Z" fill="black"/>
<path opacity="0.3" d="M443.947 241.959H432.286V253.62H443.947V241.959Z" fill="black"/>
<path opacity="0.3" d="M443.947 260.098H432.286V263.986H443.947V260.098Z" fill="black"/>
<path opacity="0.3" d="M378.761 161.621V173.605C375.561 174.162 372.58 175.596 370.148 177.748L368.537 164.365C374.106 161.621 378.761 161.621 378.761 161.621Z" fill="black"/>
<path opacity="0.3" d="M365.011 185.278C363.512 188.908 362.784 192.942 362.487 196.757L350.588 193.57C351.389 187.62 352.869 182.78 354.745 178.842L365.011 185.278Z" fill="black"/>
<path d="M461.199 161.621V173.605C464.404 174.159 467.391 175.593 469.827 177.748C472.082 179.835 473.835 182.405 474.956 185.266C476.455 188.896 477.184 192.931 477.48 196.746C477.848 201.894 477.608 207.068 476.763 212.16H489.719C490.27 204.996 490.104 198.854 489.38 193.574C488.578 187.624 487.099 182.784 485.222 178.846C481.469 170.973 476.128 166.7 471.438 164.38C465.854 161.621 461.199 161.621 461.199 161.621Z" fill="#3DA5D9"/>
<path d="M487.114 232.888C487.114 232.888 500.135 220.353 489.738 211.721H476.821C476.821 211.721 475.453 232.888 487.114 232.888Z" fill="#3DA5D9"/>
<path opacity="0.3" d="M487.114 232.888C487.114 232.888 500.135 220.353 489.738 211.721H476.821C476.821 211.721 475.453 232.888 487.114 232.888Z" fill="black"/>
<path opacity="0.3" d="M461.199 161.621V173.605C464.404 174.159 467.391 175.593 469.827 177.748L471.438 164.365C465.854 161.621 461.199 161.621 461.199 161.621Z" fill="black"/>
<path opacity="0.3" d="M474.941 185.278C476.44 188.908 477.168 192.942 477.465 196.757L489.365 193.57C488.563 187.62 487.083 182.78 485.207 178.842L474.941 185.278Z" fill="black"/>
<path opacity="0.1" d="M427.751 143.483H412.202V144.558H427.751V143.483Z" fill="black"/>
<path opacity="0.1" d="M453.523 159.197V180.896C452.745 180.058 452.314 178.957 452.317 177.813V162.268C452.317 161.129 452.747 160.032 453.523 159.197Z" fill="black"/>
<path opacity="0.1" d="M387.816 160.627V176.869C387.739 177.896 387.314 178.865 386.61 179.617V157.879C387.314 158.631 387.739 159.6 387.816 160.627Z" fill="black"/>
<path opacity="0.1" d="M449.134 201.79H390.826V202.557H449.134V201.79Z" fill="black"/>
<path opacity="0.1" d="M418.032 218.638H389.527V219.231H418.032V218.638Z" fill="black"/>
<path opacity="0.1" d="M449.13 218.638H420.625V219.231H449.13V218.638Z" fill="black"/>
<path d="M397.169 63.6486H392.707V102.022H397.169V63.6486Z" fill="#3DA5D9"/>
<path d="M448.332 63.6486H443.87V102.022H448.332V63.6486Z" fill="#3DA5D9"/>
<path opacity="0.1" d="M394.791 69.0008C397.584 69.0008 399.847 66.7372 399.847 63.945C399.847 61.1527 397.584 58.8892 394.791 58.8892C391.999 58.8892 389.735 61.1527 389.735 63.945C389.735 66.7372 391.999 69.0008 394.791 69.0008Z" fill="black"/>
<path d="M394.791 68.7044C397.584 68.7044 399.847 66.4409 399.847 63.6486C399.847 60.8563 397.584 58.5928 394.791 58.5928C391.999 58.5928 389.735 60.8563 389.735 63.6486C389.735 66.4409 391.999 68.7044 394.791 68.7044Z" fill="#3DA5D9"/>
<path opacity="0.1" d="M446.251 69.0008C449.044 69.0008 451.307 66.7372 451.307 63.945C451.307 61.1527 449.044 58.8892 446.251 58.8892C443.459 58.8892 441.195 61.1527 441.195 63.945C441.195 66.7372 443.459 69.0008 446.251 69.0008Z" fill="black"/>
<path d="M446.251 68.7044C449.044 68.7044 451.307 66.4409 451.307 63.6486C451.307 60.8563 449.044 58.5928 446.251 58.5928C443.459 58.5928 441.195 60.8563 441.195 63.6486C441.195 66.4409 443.459 68.7044 446.251 68.7044Z" fill="#3DA5D9"/>
<path d="M288.041 181.216C288.041 181.216 302.838 210.264 290.781 226.156C278.723 242.048 291.875 285.346 291.875 285.346" stroke="#FC6681" stroke-width="2" stroke-miterlimit="10"/>
<path d="M292.422 172.152C292.422 177.748 288.326 182.295 288.326 182.295C288.326 182.295 284.203 177.748 284.203 172.152C284.203 166.557 288.326 162.014 288.326 162.014C288.326 162.014 292.422 166.572 292.422 172.152Z" fill="#FC6681"/>
<path d="M295.713 181.216C295.713 181.216 280.916 210.264 292.973 226.156C305.031 242.048 291.879 285.346 291.879 285.346" stroke="#FFD037" stroke-width="2" stroke-miterlimit="10"/>
<path d="M291.328 172.152C291.328 177.751 295.44 182.291 295.44 182.291C295.44 182.291 299.551 177.751 299.551 172.152C299.551 166.553 295.44 162.014 295.44 162.014C295.44 162.014 291.328 166.572 291.328 172.152Z" fill="#FFD037"/>
<path d="M301.74 181.216C301.74 181.216 316.538 210.264 304.48 226.156C292.422 242.048 305.574 285.346 305.574 285.346" stroke="#FC6681" stroke-width="2" stroke-miterlimit="10"/>
<path d="M306.125 172.152C306.125 177.751 302.014 182.291 302.014 182.291C302.014 182.291 297.906 177.748 297.906 172.152C297.906 166.557 302.018 162.014 302.018 162.014C302.018 162.014 306.125 166.572 306.125 172.152Z" fill="#FC6681"/>
<path d="M303.821 195.428C299.941 199.462 293.829 199.886 293.829 199.886C293.829 199.886 294.014 193.767 297.894 189.728C301.775 185.69 307.887 185.27 307.887 185.27C307.887 185.27 307.702 191.393 303.821 195.428Z" fill="#FC6681"/>
<path d="M304.206 215.466C300.326 219.501 294.214 219.925 294.214 219.925C294.214 219.925 294.399 213.805 298.28 209.767C302.16 205.728 308.272 205.308 308.272 205.308C308.272 205.308 308.087 211.432 304.206 215.466Z" fill="#FC6681"/>
<path d="M283.155 226.491C286.827 230.729 286.696 236.841 286.696 236.841C286.696 236.841 280.615 236.109 276.947 231.882C273.278 227.654 273.405 221.531 273.405 221.531C273.405 221.531 279.482 222.263 283.155 226.491Z" fill="#FC6681"/>
<path d="M286.561 183.755C291.228 186.838 292.727 192.784 292.727 192.784C292.727 192.784 286.673 193.701 282.006 190.611C277.34 187.52 275.841 181.582 275.841 181.582C275.841 181.582 281.891 180.665 286.561 183.755Z" fill="#FC6681"/>
<path d="M309.412 181.216C309.412 181.216 294.615 210.264 306.673 226.156C318.73 242.048 305.578 285.346 305.578 285.346" stroke="#FFD037" stroke-width="2" stroke-miterlimit="10"/>
<path d="M305.031 172.152C305.031 177.748 309.135 182.295 309.135 182.295C309.135 182.295 313.247 177.755 313.247 172.156C313.247 166.557 309.135 162.014 309.135 162.014C309.135 162.014 305.031 166.572 305.031 172.152Z" fill="#FFD037"/>
<path d="M306.21 195.859C302.28 199.848 302.021 205.967 302.021 205.967C302.021 205.967 308.137 205.62 312.068 201.632C315.998 197.644 316.256 191.524 316.256 191.524C316.256 191.524 310.141 191.871 306.21 195.859Z" fill="#FFD037"/>
<path d="M313.917 223.605C309.987 227.593 309.729 233.712 309.729 233.712C309.729 233.712 315.844 233.366 319.775 229.377C323.705 225.389 323.963 219.269 323.963 219.269C323.963 219.269 317.848 219.616 313.917 223.605Z" fill="#FFD037"/>
<path d="M302.584 217.505C302.584 217.505 311.493 203.463 323.994 203.162" stroke="#FFD037" stroke-width="2" stroke-miterlimit="10"/>
<path d="M295.648 209.027C295.648 209.027 286.735 194.989 274.234 194.703" stroke="#FC6681" stroke-width="2" stroke-miterlimit="10"/>
<path d="M294.492 229.065C294.492 229.065 303.401 215.023 315.902 214.722" stroke="#FFD037" stroke-width="2" stroke-miterlimit="10"/>
<path d="M323.582 205.366C324.859 205.366 325.894 204.331 325.894 203.054C325.894 201.777 324.859 200.742 323.582 200.742C322.305 200.742 321.27 201.777 321.27 203.054C321.27 204.331 322.305 205.366 323.582 205.366Z" fill="#FFD037"/>
<path d="M274.45 197.081C275.727 197.081 276.762 196.046 276.762 194.769C276.762 193.492 275.727 192.457 274.45 192.457C273.173 192.457 272.137 193.492 272.137 194.769C272.137 196.046 273.173 197.081 274.45 197.081Z" fill="#FC6681"/>
<path d="M301.043 233.689C301.043 233.689 292.13 219.651 279.629 219.366" stroke="#FC6681" stroke-width="2" stroke-miterlimit="10"/>
<path d="M279.844 221.744C281.121 221.744 282.157 220.709 282.157 219.432C282.157 218.155 281.121 217.12 279.844 217.12C278.568 217.12 277.532 218.155 277.532 219.432C277.532 220.709 278.568 221.744 279.844 221.744Z" fill="#FC6681"/>
<path d="M316.068 217.119C317.345 217.119 318.38 216.084 318.38 214.807C318.38 213.53 317.345 212.495 316.068 212.495C314.791 212.495 313.755 213.53 313.755 214.807C313.755 216.084 314.791 217.119 316.068 217.119Z" fill="#FFD037"/>
<path d="M350.275 268.463C350.275 268.463 328.811 264.171 323.085 258.444C317.359 252.718 291.602 242.703 288.738 249.859C285.875 257.015 250.103 281.342 274.43 285.646C298.758 289.951 331.671 291.369 338.827 288.51C345.983 285.65 350.275 268.463 350.275 268.463Z" fill="#A8A8A8"/>
<path opacity="0.2" d="M274.43 282.976C298.758 287.269 331.671 288.698 338.827 285.839C344.275 283.658 348.075 273.188 349.559 268.313L350.275 268.464C350.275 268.464 345.983 285.635 338.827 288.502C331.671 291.369 298.75 289.931 274.43 285.639C267.409 284.398 265.401 281.488 266.157 277.804C266.746 280.205 269.205 282.055 274.43 282.976Z" fill="black"/>
<path d="M582.111 186.326C582.111 186.326 587.256 193.05 579.737 203.208C572.219 213.366 566.023 221.936 568.527 228.256C568.527 228.256 579.868 209.397 589.101 209.135C598.335 208.873 592.269 197.667 582.111 186.326Z" fill="#FC6681"/>
<path opacity="0.1" d="M582.111 186.326C582.56 186.975 582.914 187.685 583.163 188.434C592.169 199.015 596.97 208.892 588.312 209.139C580.246 209.37 570.585 223.782 568.273 227.431C568.349 227.712 568.44 227.989 568.547 228.26C568.547 228.26 579.888 209.401 589.121 209.139C598.354 208.877 592.269 197.667 582.111 186.326Z" fill="black"/>
<path d="M591.676 194.896C591.676 197.262 591.41 199.181 591.082 199.181C590.755 199.181 590.489 197.254 590.489 194.896C590.489 192.538 590.82 193.644 591.148 193.644C591.475 193.644 591.676 192.53 591.676 194.896Z" fill="#FFD037"/>
<path d="M594.955 197.725C592.878 198.857 591.063 199.543 590.909 199.266C590.755 198.989 592.311 197.825 594.377 196.692C596.442 195.559 595.637 196.384 595.791 196.673C595.945 196.962 597.032 196.592 594.955 197.725Z" fill="#FFD037"/>
<path d="M554.948 186.326C554.948 186.326 549.803 193.05 557.321 203.208C564.84 213.366 571.036 221.936 568.531 228.256C568.531 228.256 557.19 209.397 547.957 209.135C538.724 208.873 544.79 197.667 554.948 186.326Z" fill="#FC6681"/>
<path opacity="0.1" d="M554.948 186.326C554.499 186.975 554.145 187.685 553.896 188.434C544.89 199.015 540.088 208.892 548.747 209.139C556.813 209.37 566.474 223.782 568.786 227.431C568.71 227.712 568.619 227.989 568.512 228.26C568.512 228.26 557.171 209.401 547.938 209.139C538.705 208.877 544.79 197.667 554.948 186.326Z" fill="black"/>
<path d="M545.383 194.896C545.383 197.262 545.649 199.181 545.977 199.181C546.304 199.181 546.57 197.254 546.57 194.896C546.57 192.538 546.239 193.644 545.911 193.644C545.584 193.644 545.383 192.53 545.383 194.896Z" fill="#FFD037"/>
<path d="M542.104 197.725C544.181 198.857 545.996 199.543 546.15 199.266C546.304 198.989 544.747 197.825 542.682 196.692C540.616 195.559 541.422 196.384 541.268 196.673C541.114 196.962 540.027 196.592 542.104 197.725Z" fill="#FFD037"/>
<path d="M547.021 227.381C547.021 227.381 561.402 226.938 565.734 223.851C570.065 220.765 587.853 217.081 588.928 222.029C590.003 226.977 610.539 246.645 594.304 246.776C578.069 246.907 556.582 244.248 552.254 241.612C547.927 238.976 547.021 227.381 547.021 227.381Z" fill="#A8A8A8"/>
<path opacity="0.2" d="M594.597 245.057C578.362 245.189 556.874 242.53 552.547 239.894C549.252 237.886 547.923 230.688 547.503 227.366H547.021C547.021 227.366 547.93 238.965 552.258 241.597C556.585 244.229 578.077 246.892 594.308 246.761C598.994 246.722 600.612 245.058 600.523 242.587C599.872 244.098 598.084 245.027 594.597 245.057Z" fill="black"/>
<defs>
<linearGradient id="paint0_linear" x1="419.978" y1="220.098" x2="419.978" y2="202.788" gradientUnits="userSpaceOnUse">
<stop stop-color="#808080" stop-opacity="0.25"/>
<stop offset="0.54" stop-color="#808080" stop-opacity="0.12"/>
<stop offset="1" stop-color="#808080" stop-opacity="0.1"/>
</linearGradient>
<linearGradient id="paint1_linear" x1="88256.1" y1="122393" x2="88256.1" y2="39118.6" gradientUnits="userSpaceOnUse">
<stop stop-color="#808080" stop-opacity="0.25"/>
<stop offset="0.54" stop-color="#808080" stop-opacity="0.12"/>
<stop offset="1" stop-color="#808080" stop-opacity="0.1"/>
</linearGradient>
<linearGradient id="paint2_linear" x1="14138.6" y1="40280.1" x2="14138.6" y2="32163.5" gradientUnits="userSpaceOnUse">
<stop stop-color="#808080" stop-opacity="0.25"/>
<stop offset="0.54" stop-color="#808080" stop-opacity="0.12"/>
<stop offset="1" stop-color="#808080" stop-opacity="0.1"/>
</linearGradient>
<linearGradient id="paint3_linear" x1="16053.6" y1="40280.1" x2="16053.6" y2="32163.5" gradientUnits="userSpaceOnUse">
<stop stop-color="#808080" stop-opacity="0.25"/>
<stop offset="0.54" stop-color="#808080" stop-opacity="0.12"/>
<stop offset="1" stop-color="#808080" stop-opacity="0.1"/>
</linearGradient>
</defs>
</svg>
