<svg width="810" height="363" viewBox="0 0 810 363" fill="none" xmlns="http://www.w3.org/2000/svg">
<path opacity="0.1" d="M496.094 352.808C521.213 352.808 541.576 350.801 541.576 348.325C541.576 345.849 521.213 343.842 496.094 343.842C470.975 343.842 450.612 345.849 450.612 348.325C450.612 350.801 470.975 352.808 496.094 352.808Z" fill="#3DA5D9"/>
<path opacity="0.1" d="M381.579 13.7004C398.181 7.528 418.391 12.8365 435.651 20.5787C489.859 44.9008 529.35 91.0709 560.727 138.109C572.087 155.141 582.878 172.923 587.149 191.936C595.845 230.636 573.164 270.7 534.591 284.74C521.474 289.519 507.063 291.478 492.63 292.57C466.965 294.515 440.392 293.743 414.933 286.541C396.777 281.394 379.602 273.116 363.129 263.969C317.124 238.412 275.111 205.222 244.859 164.681C231.591 146.899 220.367 126.852 220.043 106.335C219.72 85.8176 233.087 65.2011 255.081 61.7124C264.173 60.2713 273.792 61.7712 283.175 63.3152C296.991 65.5908 310.994 67.9841 324.651 66.9915C338.761 65.9584 357.112 60.444 359.685 46.9706C362.408 32.5045 364.999 19.8655 381.579 13.7004Z" fill="#3DA5D9"/>
<path d="M287.896 322.671C287.896 322.671 309.298 321.381 306.775 336.379C306.775 336.379 307.276 339.039 304.872 340.232C304.872 340.232 304.837 339.119 302.677 339.496C301.91 339.628 301.13 339.667 300.353 339.611C299.303 339.539 298.306 339.126 297.511 338.436V338.436C297.511 338.436 291.493 335.953 289.156 326.117C289.156 326.117 287.422 323.975 287.493 323.421L291.103 324.964C291.103 324.964 289.87 327.571 290.841 329.736C290.841 329.736 290.956 325.061 291.653 325.168C291.79 325.19 293.528 326.055 293.528 326.055C293.528 326.055 291.404 330.591 293.005 333.891C293.005 333.891 292.398 328.299 294.189 326.383L296.735 327.869C296.735 327.869 294.251 332.556 295.937 336.379C295.937 336.379 295.493 330.512 297.267 328.228L299.573 330.002C299.573 330.002 297.24 334.623 298.664 337.798C298.664 337.798 298.846 330.964 300.07 330.45C300.07 330.45 302.087 332.223 302.393 332.96C302.393 332.96 300.797 336.312 301.786 338.082C301.786 338.082 302.393 333.532 302.894 333.509C302.894 333.509 304.899 336.525 305.112 338.592C305.112 338.592 305.023 335.518 303.378 333.221C303.378 333.221 305.32 333.554 306.455 334.813C306.455 334.813 306.141 332.68 302.886 332.494C302.886 332.494 301.227 330.21 300.779 330.068C300.779 330.068 304.021 329.798 305.985 330.671C305.985 330.671 304.256 328.658 300.185 329.571L297.91 327.718C297.91 327.718 302.18 327.132 303.985 327.78C303.985 327.78 301.906 326.006 297.298 327.296L294.823 325.815C294.823 325.815 298.46 325.03 300.628 325.314C300.628 325.314 298.34 324.081 294.096 325.416L292.322 324.622C292.322 324.622 294.983 324.099 295.768 324.015C296.553 323.931 296.588 323.718 296.588 323.718C294.9 323.435 293.167 323.627 291.582 324.272C291.582 324.272 287.83 322.928 287.896 322.671Z" fill="#3DA5D9"/>
<path opacity="0.1" d="M302.637 344.099C311.004 344.099 317.786 342.954 317.786 341.54C317.786 340.127 311.004 338.982 302.637 338.982C294.271 338.982 287.488 340.127 287.488 341.54C287.488 342.954 294.271 344.099 302.637 344.099Z" fill="#3DA5D9"/>
<path d="M259.227 312.582C259.227 312.582 271.293 311.855 269.87 320.312C269.945 320.741 269.882 321.182 269.69 321.573C269.498 321.963 269.186 322.283 268.801 322.485C268.801 322.485 268.779 321.86 267.564 322.073C267.132 322.146 266.692 322.167 266.255 322.135C265.662 322.098 265.097 321.866 264.65 321.474V321.474C264.65 321.474 261.262 320.068 259.932 314.525C259.932 314.525 258.956 313.314 258.992 313.004L261.031 313.891C261.031 313.891 260.335 315.363 260.881 316.582C260.881 316.582 260.947 313.944 261.324 314.006C261.404 314.006 262.384 314.516 262.384 314.516C262.384 314.516 261.187 317.075 262.091 318.951C262.091 318.951 261.745 315.798 262.757 314.715L264.189 315.554C264.189 315.554 262.792 318.214 263.745 320.352C263.745 320.352 263.502 317.044 264.495 315.758L265.794 316.769C265.794 316.769 264.464 319.372 265.284 321.163C265.284 321.163 265.386 317.31 266.078 317.022C266.078 317.022 267.213 318.024 267.386 318.436C267.386 318.436 266.499 320.325 267.045 321.323C267.045 321.323 267.386 318.76 267.67 318.747C267.67 318.747 268.801 320.445 268.916 321.611C268.86 320.534 268.523 319.49 267.941 318.583C268.593 318.702 269.196 319.01 269.675 319.469C269.675 319.469 269.502 318.268 267.661 318.161C267.661 318.161 266.726 316.871 266.477 316.795C266.477 316.795 268.304 316.64 269.413 317.132C269.413 317.132 268.437 315.997 266.14 316.512L264.859 315.465C264.859 315.465 267.267 315.137 268.287 315.5C268.287 315.5 267.111 314.498 264.513 315.23L263.12 314.392C264.193 314.157 265.292 314.064 266.388 314.112C266.388 314.112 265.102 313.416 262.708 314.17L261.71 313.727C261.71 313.727 263.213 313.429 263.652 313.385C264.091 313.341 264.118 313.217 264.118 313.217C263.165 313.059 262.188 313.168 261.293 313.531C261.293 313.531 259.191 312.729 259.227 312.582Z" fill="#3DA5D9"/>
<path opacity="0.1" d="M267.537 324.662C272.254 324.662 276.078 324.015 276.078 323.217C276.078 322.418 272.254 321.771 267.537 321.771C262.82 321.771 258.996 322.418 258.996 323.217C258.996 324.015 262.82 324.662 267.537 324.662Z" fill="#3DA5D9"/>
<path d="M556.086 320.711C556.086 320.711 570.654 319.824 568.947 330.024C569.034 330.542 568.956 331.075 568.723 331.546C568.491 332.017 568.116 332.403 567.652 332.649C567.652 332.649 567.625 331.891 566.157 332.148C565.635 332.237 565.103 332.262 564.574 332.223C563.859 332.177 563.18 331.896 562.641 331.425V331.425C562.641 331.425 558.543 329.736 556.951 323.039C556.951 323.039 555.771 321.58 555.82 321.208L558.277 322.254C558.277 322.254 557.439 324.028 558.099 325.505C558.099 325.505 558.179 322.321 558.649 322.401C558.747 322.401 559.927 323.013 559.927 323.013C559.927 323.013 558.481 326.117 559.572 328.334C559.572 328.334 559.159 324.529 560.379 323.226L562.108 324.232C562.108 324.232 560.419 327.425 561.567 330.028C561.567 330.028 561.27 326.037 562.454 324.481L564.024 325.705C564.024 325.705 562.437 328.849 563.403 331.026C563.403 331.026 563.532 326.379 564.366 326.024C564.366 326.024 565.736 327.234 565.944 327.731C565.944 327.731 564.858 330.015 565.532 331.221C565.532 331.221 565.944 328.117 566.286 328.117C566.286 328.117 567.652 330.17 567.794 331.576C567.728 330.276 567.322 329.016 566.618 327.922C567.407 328.071 568.134 328.447 568.712 329.004C568.712 329.004 568.499 327.554 566.277 327.425C566.277 327.425 565.151 325.869 564.849 325.775C564.849 325.775 567.066 325.589 568.397 326.183C568.397 326.183 567.217 324.818 564.445 325.438L562.898 324.175C562.898 324.175 565.802 323.775 567.035 324.214C567.035 324.214 565.616 323.004 562.481 323.886L560.796 322.88C560.796 322.88 563.27 322.347 564.747 322.538C564.747 322.538 563.19 321.7 560.312 322.609L559.106 322.068C559.106 322.068 560.92 321.709 561.452 321.656C561.984 321.602 562.011 321.452 562.011 321.452C560.863 321.26 559.684 321.391 558.605 321.829C558.605 321.829 556.042 320.88 556.086 320.711Z" fill="#3DA5D9"/>
<path opacity="0.1" d="M566.117 335.301C571.812 335.301 576.428 334.521 576.428 333.558C576.428 332.595 571.812 331.815 566.117 331.815C560.423 331.815 555.807 332.595 555.807 333.558C555.807 334.521 560.423 335.301 566.117 335.301Z" fill="#3DA5D9"/>
<path d="M419.969 262.75H389.295V232.523H419.991L419.969 262.75ZM419.526 217.175H389.738C389.738 170.203 434.386 172.948 434.386 143.232C434.386 126.864 420.989 113.75 404.621 113.75C388.253 113.75 374.86 127.888 374.86 143.697H345.095C345.081 135.877 346.612 128.13 349.598 120.902C352.585 113.674 356.969 107.106 362.499 101.576C368.03 96.0459 374.597 91.6617 381.825 88.675C389.053 85.6883 396.8 84.1578 404.621 84.1712C437.499 84.1712 464.147 110.402 464.147 143.232C464.147 180.39 419.503 184.62 419.503 217.175H419.526Z" fill="#3DA5D9"/>
<path opacity="0.1" d="M266.351 134.774L260.449 129.505L265.653 123.676L271.555 128.945L266.351 134.774ZM274.088 125.928L268.365 120.818C276.428 111.787 284.543 119.977 289.649 114.258C290.314 113.506 290.825 112.632 291.152 111.683C291.478 110.735 291.615 109.731 291.554 108.73C291.493 107.728 291.235 106.749 290.795 105.847C290.356 104.946 289.743 104.139 288.991 103.475C287.449 102.16 285.457 101.495 283.434 101.618C281.411 101.74 279.515 102.642 278.142 104.133L272.419 99.0239C275.139 96.0543 278.916 94.2724 282.937 94.0622C286.959 93.852 290.901 95.2305 293.915 97.9004C296.93 100.57 298.774 104.318 299.051 108.335C299.327 112.352 298.014 116.317 295.394 119.375C288.999 126.506 279.688 119.656 274.1 125.914L274.088 125.928Z" fill="#3DA5D9"/>
<path opacity="0.1" d="M557.124 186.628L559.434 194.194L551.96 196.476L549.65 188.909L557.124 186.628ZM545.919 190.173L548.159 197.511C536.58 201.045 533.894 189.833 526.561 192.072C525.603 192.369 524.712 192.851 523.94 193.492C523.169 194.133 522.531 194.92 522.063 195.808C521.596 196.695 521.308 197.666 521.216 198.665C521.124 199.664 521.229 200.672 521.527 201.63C522.163 203.554 523.52 205.157 525.313 206.102C527.105 207.047 529.195 207.26 531.142 206.698L533.381 214.035C529.516 215.162 525.362 214.725 521.816 212.817C518.27 210.91 515.615 207.685 514.424 203.839C513.234 199.992 513.602 195.832 515.451 192.254C517.299 188.677 520.48 185.97 524.306 184.715C533.474 181.94 537.877 192.628 545.902 190.178L545.919 190.173Z" fill="#3DA5D9"/>
<path opacity="0.1" d="M350.463 208.515L344.647 213.878L339.365 208.15L345.181 202.787L350.463 208.515ZM342.415 199.957L336.775 205.158C328.565 196.254 337.506 188.974 332.308 183.338C331.625 182.603 330.804 182.01 329.892 181.593C328.98 181.176 327.994 180.943 326.992 180.907C325.99 180.871 324.99 181.033 324.05 181.384C323.111 181.734 322.249 182.267 321.515 182.95C320.045 184.356 319.178 186.28 319.1 188.313C319.022 190.346 319.738 192.33 321.096 193.845L315.456 199.046C312.764 196.052 311.356 192.119 311.537 188.097C311.718 184.074 313.472 180.283 316.421 177.542C319.371 174.801 323.28 173.329 327.305 173.443C331.33 173.557 335.149 175.248 337.938 178.152C344.441 185.185 336.727 193.789 342.415 199.957Z" fill="#3DA5D9"/>
<path opacity="0.1" d="M397.04 56.9386L391.397 57.9581L390.395 52.4115L396.038 51.392L397.04 56.9386ZM395.442 48.5704L389.97 49.5591C388.41 40.9271 396.71 39.9459 395.722 34.4822C395.59 33.7676 395.318 33.0861 394.922 32.4767C394.526 31.8673 394.013 31.3418 393.414 30.9303C392.815 30.5188 392.141 30.2294 391.43 30.0785C390.719 29.9276 389.985 29.9182 389.271 30.0508C387.828 30.3418 386.554 31.1818 385.719 32.3938C384.884 33.6058 384.552 35.0949 384.793 36.5469L379.321 37.5356C378.785 34.6349 379.423 31.6401 381.095 29.21C382.767 26.7799 385.336 25.1135 388.237 24.5775C391.137 24.0415 394.132 24.6797 396.562 26.3518C398.992 28.0239 400.659 30.5928 401.195 33.4935C402.42 40.3247 394.361 42.5873 395.442 48.5704V48.5704Z" fill="#3DA5D9"/>
<path opacity="0.1" d="M496.23 98.6259L499.458 98.9303L499.158 102.109L495.931 101.805L496.23 98.6259ZM495.827 103.421L498.975 103.718C498.51 108.654 493.843 107.924 493.549 111.05C493.51 111.459 493.553 111.871 493.675 112.263C493.797 112.656 493.995 113.02 494.259 113.334C494.523 113.649 494.846 113.909 495.211 114.098C495.575 114.287 495.974 114.401 496.383 114.435C497.212 114.496 498.033 114.233 498.673 113.701C499.312 113.169 499.72 112.409 499.81 111.583L502.94 111.878C502.75 113.506 501.931 114.995 500.659 116.029C499.387 117.062 497.761 117.558 496.128 117.41C494.496 117.263 492.986 116.483 491.919 115.239C490.853 113.994 490.315 112.382 490.419 110.746C490.768 106.863 495.504 106.843 495.827 103.421V103.421Z" fill="#3DA5D9"/>
<path opacity="0.1" d="M548.184 262.67H544.942V259.477H548.184V262.67ZM548.135 257.858H544.991C544.991 252.896 549.709 253.189 549.709 250.049C549.703 249.221 549.369 248.428 548.779 247.846C548.19 247.264 547.393 246.94 546.565 246.945C545.733 246.961 544.94 247.3 544.353 247.89C543.766 248.48 543.432 249.275 543.421 250.107H540.277C540.313 248.468 540.988 246.908 542.158 245.76C543.328 244.612 544.9 243.966 546.539 243.959C548.178 243.953 549.755 244.587 550.934 245.726C552.112 246.865 552.799 248.419 552.849 250.058C552.867 253.974 548.152 254.422 548.152 257.858H548.135Z" fill="#3DA5D9"/>
<g opacity="0.25">
<path d="M124.234 132.899C158.394 132.899 185.546 142.466 205.687 161.601C225.99 180.736 236.142 206.946 236.142 240.231C236.142 279.627 223.976 309.937 199.645 331.162C175.314 352.387 140.509 363 95.23 363C55.9134 363 24.1701 356.649 0 343.946V279.546C12.7296 286.3 27.5539 291.847 44.4729 296.189C61.392 300.369 77.4248 302.46 92.5713 302.46C138.172 302.46 160.973 283.807 160.973 246.502C160.973 210.966 137.367 193.198 90.1543 193.198C81.6142 193.198 72.1879 194.082 61.8754 195.851C51.5628 197.459 43.1838 199.228 36.7385 201.157L7.00932 185.239L20.3029 5.54751H211.971V68.7409H85.8037L79.2778 137.964L87.7373 136.276C97.5665 134.025 109.732 132.899 124.234 132.899Z" fill="#D8D8D8"/>
<path d="M524.4 181.862C524.4 243.447 514.249 289.033 493.946 318.62C473.804 348.207 442.705 363 400.649 363C359.883 363 329.106 347.724 308.32 317.173C287.695 286.621 277.382 241.518 277.382 181.862C277.382 119.633 287.453 73.806 307.595 44.3801C327.736 14.7934 358.755 0 400.649 0C441.416 0 472.193 15.4365 492.979 46.3096C513.926 77.1827 524.4 122.367 524.4 181.862ZM351.584 181.862C351.584 225.116 355.29 256.15 362.702 274.963C370.276 293.616 382.925 302.942 400.649 302.942C418.052 302.942 430.62 293.455 438.355 274.481C446.089 255.507 449.956 224.634 449.956 181.862C449.956 138.607 446.009 107.573 438.113 88.7601C430.379 69.786 417.891 60.299 400.649 60.299C383.086 60.299 370.517 69.786 362.944 88.7601C355.371 107.573 351.584 138.607 351.584 181.862Z" fill="#D8D8D8"/>
<path d="M810 358.176H562.982V306.319L651.686 216.835C677.951 189.982 695.112 171.41 703.168 161.119C711.225 150.667 717.026 141.019 720.571 132.175C724.116 123.332 725.888 114.166 725.888 104.679C725.888 90.5289 721.94 79.9967 714.045 73.0824C706.31 66.1681 695.917 62.711 682.865 62.711C669.169 62.711 655.876 65.8465 642.985 72.1176C630.094 78.3887 616.64 87.313 602.621 98.8904L562.015 50.8924C579.418 36.099 593.839 25.6472 605.28 19.5369C616.72 13.4266 629.208 8.76346 642.743 5.54751C656.278 2.17076 671.425 0.482392 688.183 0.482392C710.258 0.482392 729.755 4.50233 746.674 12.5422C763.593 20.5821 776.726 31.8379 786.072 46.3096C795.417 60.7814 800.09 77.3435 800.09 95.996C800.09 112.237 797.19 127.512 791.389 141.823C785.749 155.973 776.887 170.526 764.802 185.48C752.878 200.434 731.77 221.74 701.476 249.397L656.037 292.088V295.465H810V358.176Z" fill="#D8D8D8"/>
</g>
</svg>
