<svg width="408" height="291" viewBox="0 0 408 291" fill="none" xmlns="http://www.w3.org/2000/svg">
<g clip-path="url(#clip0)">
<path opacity="0.1" d="M209.908 91.5118C194.058 90.9617 178.962 85.8289 164.546 80.2148C150.131 74.6007 135.853 68.3825 120.382 65.4084C110.431 63.4953 99.0502 63.2227 91.0343 68.5667C83.3172 73.724 80.8241 82.6019 79.4844 90.8463C78.4754 97.0498 77.8827 103.58 80.6453 109.388C82.5654 113.421 85.9696 116.81 88.3256 120.673C96.5228 134.111 90.7282 150.683 81.8478 163.805C77.6843 169.96 72.8474 175.839 69.6317 182.384C66.4161 188.929 64.9295 196.453 67.7435 203.148C70.5305 209.779 77.1749 214.75 84.3728 218.249C98.9914 225.359 116.211 227.392 133.014 228.547C170.199 231.096 207.579 229.993 244.862 228.886C258.66 228.478 272.517 228.063 286.09 225.924C293.628 224.735 301.409 222.849 306.883 218.296C313.828 212.517 315.55 202.733 310.894 195.488C303.087 183.332 281.505 180.313 276.041 167.27C273.039 160.089 276.122 152.093 280.489 145.435C289.854 131.149 305.55 118.617 306.376 102.291C306.944 91.0771 299.398 79.8465 287.731 74.5393C275.502 68.9768 258.542 69.6767 249.525 78.8838C240.231 88.3536 223.905 92.0005 209.908 91.5118Z" fill="#9B9B9B"/>
<path opacity="0.1" d="M109.972 141.711C109.972 141.711 107.617 146.525 109.064 146.199C110.512 145.873 109.972 141.711 109.972 141.711Z" fill="black"/>
<g opacity="0.1">
<path opacity="0.1" d="M88.6639 66.1987C88.7146 65.6066 88.6245 65.0109 88.4008 64.4602C88.4008 64.5055 88.36 64.5508 88.3464 64.596C88.1513 65.2027 88.4144 65.832 88.5822 66.4613C88.6183 66.3768 88.6456 66.2888 88.6639 66.1987V66.1987Z" fill="black"/>
<path opacity="0.1" d="M89.7446 58.7852C89.6979 59.4112 89.7101 60.0402 89.7808 60.664C89.8273 60.038 89.8152 59.409 89.7446 58.7852Z" fill="black"/>
<path opacity="0.1" d="M121.255 54.5503C120.778 55.5045 120.1 56.3448 119.268 57.0142C118.22 57.7615 116.9 57.9698 115.638 58.2733C114.377 58.5767 113.075 59.0614 112.358 60.1303C111.97 60.8177 111.71 61.5696 111.591 62.3496C111.473 63.131 111.161 63.8705 110.684 64.501C110.162 65.0898 109.245 65.4068 108.565 65.0082C108.184 64.7512 107.895 64.3801 107.739 63.9484C107.226 62.7844 107.09 61.4981 106.886 60.239C106.682 58.9798 106.378 57.6935 105.607 56.6835C104.835 55.6735 103.47 55.0077 102.258 55.4017C101.853 55.5583 101.484 55.7945 101.172 56.0964C100.86 56.3983 100.612 56.7597 100.443 57.1591C100.107 57.959 99.8785 58.7996 99.7627 59.6592C99.197 62.7361 98.5316 65.7918 97.7663 68.8264C97.7451 68.9515 97.6937 69.0696 97.6166 69.1706C97.4951 69.2899 97.3332 69.3594 97.1629 69.3653C96.1465 69.4967 95.171 68.7901 94.1502 68.8626C92.8934 68.9532 91.9723 70.167 90.7336 70.3663C89.9436 70.437 89.1509 70.2614 88.465 69.8636C88.1497 69.7281 87.8667 69.5274 87.6347 69.2748C87.5286 69.4265 87.4583 69.6003 87.4292 69.7831C87.4001 69.9659 87.413 70.1529 87.4669 70.3301C87.6667 70.7517 88.0255 71.0774 88.465 71.2359C89.1509 71.6337 89.9436 71.8094 90.7336 71.7386C91.9723 71.5394 92.8934 70.3255 94.1502 70.235C95.171 70.1625 96.1465 70.869 97.1629 70.7377C97.3332 70.7318 97.4951 70.6623 97.6166 70.5429C97.6937 70.442 97.7451 70.3239 97.7663 70.1987C98.5286 67.1792 99.194 64.1235 99.7627 61.0316C99.8785 60.172 100.107 59.3314 100.443 58.5314C100.612 58.132 100.86 57.7706 101.172 57.4687C101.484 57.1668 101.853 56.9306 102.258 56.7741C103.47 56.3801 104.831 57.0459 105.607 58.0559C106.382 59.0659 106.677 60.3567 106.886 61.6113C107.095 62.8659 107.226 64.1567 107.739 65.3207C107.895 65.7525 108.184 66.1236 108.565 66.3806C109.245 66.7746 110.162 66.4621 110.684 65.8733C111.161 65.2429 111.473 64.5033 111.591 63.7219C111.71 62.942 111.97 62.19 112.358 61.5026C113.075 60.4337 114.386 59.9536 115.638 59.6456C116.891 59.3376 118.211 59.1338 119.268 58.3865C120.1 57.7172 120.778 56.8768 121.255 55.9226C121.927 54.7586 122.553 53.4904 122.499 52.1452C122.49 51.9723 122.471 51.7999 122.444 51.6289C122.225 52.6656 121.823 53.6549 121.255 54.5503V54.5503Z" fill="black"/>
</g>
<path d="M117.236 149.758L182.158 139.212V200.569L120.474 197.346L117.236 149.758Z" fill="#3DA5D9"/>
<path opacity="0.05" d="M117.236 149.758L182.158 139.212V200.569L120.474 197.346L117.236 149.758Z" fill="black"/>
<path d="M182.157 139.212L260.013 145.028L255.704 198.423L182.157 200.569V139.212Z" fill="#3DA5D9"/>
<path opacity="0.1" d="M182.157 139.212L260.013 145.028L255.704 198.423L182.157 200.569V139.212Z" fill="black"/>
<path d="M206.094 120.485L182.157 139.212L260.013 145.028L272.736 125.863L206.094 120.485Z" fill="#3DA5D9"/>
<path d="M93.7275 129.306L152.174 122.202L182.156 139.212L117.234 149.758L93.7275 129.306Z" fill="#3DA5D9"/>
<path d="M196.39 155.145V239.033L165.978 235.918L152.749 234.572L148.719 234.151L135.499 232.796L117.236 230.927V149.758L182.15 154.168L196.39 155.145Z" fill="#3DA5D9"/>
<path d="M260.014 145.028V226.837L235.639 231.508L223.784 233.781L196.391 239.033V155.145L260.014 145.028Z" fill="#3DA5D9"/>
<path opacity="0.05" d="M260.014 145.028V226.837L235.639 231.508L223.784 233.781L196.391 239.033V155.145L260.014 145.028Z" fill="black"/>
<path d="M93.7275 167.416L117.234 149.758L196.388 155.145L184.736 174.738L93.7275 167.416Z" fill="#3DA5D9"/>
<path opacity="0.1" d="M93.7275 167.416L117.234 149.758L196.388 155.145L184.736 174.738L93.7275 167.416Z" fill="white"/>
<path d="M260.014 145.028L196.391 155.145L217.098 173.661L285.249 162.248L260.014 145.028Z" fill="#3DA5D9"/>
<path opacity="0.1" d="M260.014 145.028L196.391 155.145L217.098 173.661L285.249 162.248L260.014 145.028Z" fill="white"/>
<path opacity="0.1" d="M235.637 231.508L223.782 233.781V216.299L234.886 213.505L235.637 231.508Z" fill="white"/>
<path opacity="0.1" d="M165.975 224.354V235.918L152.746 234.572V224.354H165.975Z" fill="white"/>
<path opacity="0.1" d="M148.717 227.998V234.151L135.497 232.796V227.998H148.717Z" fill="white"/>
<path d="M257.575 45.0252C257.575 45.0252 240.334 43.988 242.348 56.0629C242.348 56.0629 241.944 58.1962 243.882 59.1655C243.882 59.1655 243.914 58.2596 245.651 58.5721C246.27 58.6761 246.899 58.7065 247.525 58.6627C248.374 58.6062 249.18 58.2737 249.821 57.7161V57.7161C249.821 57.7161 254.671 55.7187 256.559 47.8016C256.559 47.8016 257.956 46.0715 257.92 45.6276L255.007 46.8731C255.007 46.8731 256.001 48.9702 255.216 50.7139C255.216 50.7139 255.125 46.9501 254.562 47.0362C254.449 47.0362 253.052 47.7654 253.052 47.7654C253.052 47.7654 254.762 51.416 253.469 54.0746C253.469 54.0746 253.959 49.5726 252.516 48.0281L250.465 49.2238C250.465 49.2238 252.466 52.9967 251.11 56.0765C251.11 56.0765 251.459 51.3525 250.034 49.5137L248.174 50.9585C248.174 50.9585 250.057 54.6815 248.909 57.236C248.909 57.236 248.759 51.7375 247.77 51.3208C247.77 51.3208 246.146 52.7521 245.901 53.3409C245.901 53.3409 247.185 56.0584 246.386 57.467C246.386 57.467 245.896 53.8029 245.479 53.7847C245.479 53.7847 243.859 56.2124 243.691 57.861C243.77 56.3241 244.25 54.8344 245.084 53.5402C244.151 53.7165 243.289 54.1621 242.607 54.8219C242.607 54.8219 242.856 53.1054 245.483 52.9559C245.483 52.9559 246.845 51.1125 247.18 50.9993C247.18 50.9993 244.567 50.7819 242.984 51.4839C242.984 51.4839 244.376 49.867 247.661 50.578L249.476 49.0834C249.476 49.0834 246.037 48.6305 244.576 49.1332C244.576 49.1332 246.255 47.702 249.971 48.7437L251.967 47.5525C251.967 47.5525 249.036 46.9184 247.289 47.1494C247.289 47.1494 249.131 46.1575 252.552 47.231L253.982 46.5923C253.982 46.5923 251.831 46.1711 251.205 46.1032C250.579 46.0352 250.542 45.8631 250.542 45.8631C251.903 45.6371 253.3 45.7939 254.576 46.3161C254.576 46.3161 257.639 45.2155 257.575 45.0252Z" fill="#3DA5D9"/>
<path opacity="0.1" d="M309.961 105.418C309.961 105.418 292.72 104.381 294.734 116.456C294.734 116.456 294.33 118.589 296.268 119.558C296.268 119.558 296.299 118.652 298.042 118.965C298.66 119.069 299.29 119.099 299.916 119.056C300.754 118.995 301.55 118.664 302.184 118.113V118.113C302.184 118.113 307.039 116.112 308.926 108.194C308.926 108.194 310.319 106.469 310.265 106.025L307.352 107.266C307.352 107.266 308.346 109.363 307.565 111.107C307.565 111.107 307.47 107.343 306.912 107.429C306.798 107.429 305.396 108.158 305.396 108.158C305.396 108.158 307.112 111.813 305.818 114.467C305.818 114.467 306.308 109.965 304.861 108.421L302.833 109.603C302.833 109.603 304.834 113.376 303.477 116.456C303.477 116.456 303.827 111.732 302.402 109.893L300.546 111.342C300.546 111.342 302.425 115.061 301.281 117.615C301.281 117.615 301.131 112.117 300.142 111.7C300.142 111.7 298.518 113.131 298.269 113.72C298.269 113.72 299.557 116.438 298.759 117.846C298.759 117.846 298.269 114.182 297.851 114.164C297.851 114.164 296.231 116.592 296.063 118.24C296.144 116.703 296.626 115.214 297.461 113.919C296.526 114.096 295.664 114.542 294.979 115.201C294.979 115.201 295.233 113.485 297.86 113.335C297.86 113.335 299.199 111.492 299.557 111.379C299.557 111.379 296.944 111.161 295.36 111.863C295.36 111.863 296.753 110.246 300.033 110.98L301.848 109.485C301.848 109.485 298.405 109.032 296.948 109.535C296.948 109.535 298.627 108.104 302.343 109.146L304.339 107.954C304.339 107.954 301.404 107.325 299.657 107.551C299.657 107.551 301.504 106.559 304.925 107.633L306.354 106.994C306.354 106.994 304.203 106.573 303.573 106.505C302.942 106.437 302.91 106.265 302.91 106.265C304.272 106.039 305.67 106.196 306.948 106.718C306.948 106.718 310.015 105.608 309.961 105.418Z" fill="#3DA5D9"/>
<path opacity="0.1" d="M205.22 94.6971C205.22 94.6971 209.19 77.8982 196.921 77.8393C196.921 77.8393 194.884 77.0784 193.6 78.8176C193.6 78.8176 194.476 79.0033 193.882 80.661C193.676 81.2472 193.539 81.8551 193.473 82.4727C193.385 83.3146 193.575 84.1621 194.013 84.8868V84.8868C194.013 84.8868 195.161 90.0048 202.634 93.2115C202.634 93.2115 204.104 94.8782 204.549 94.8963L203.823 91.821C203.823 91.821 201.581 92.4415 199.993 91.3681C199.993 91.3681 203.727 91.9161 203.732 91.3681C203.732 91.2548 203.278 89.7557 203.278 89.7557C203.278 89.7557 199.381 90.8155 196.976 89.0899C196.976 89.0899 201.336 90.34 203.11 89.185L202.293 86.9566C202.293 86.9566 198.21 88.2837 195.415 86.4222C195.415 86.4222 200.02 87.5726 202.08 86.4856L200.969 84.4112C200.969 84.4112 196.976 85.625 194.648 84.0624C194.648 84.0624 200.093 84.8505 200.683 83.9537C200.683 83.9537 199.548 82.1103 199.009 81.7661C199.009 81.7661 196.123 82.5723 194.852 81.5442C194.852 81.5442 198.55 81.6846 198.636 81.2951C198.636 81.2951 196.518 79.2886 194.902 78.8357C196.408 79.1778 197.798 79.9052 198.936 80.9463C198.919 79.9971 198.626 79.0733 198.092 78.2877C198.092 78.2877 199.744 78.8312 199.453 81.4581C199.453 81.4581 201.041 83.0887 201.091 83.4601C201.091 83.4601 201.749 80.9282 201.327 79.2479C201.327 79.2479 202.688 80.8965 201.404 83.999L202.566 86.0598C202.566 86.0598 203.618 82.7535 203.351 81.2317C203.351 81.2317 204.48 83.1249 202.815 86.6033L203.655 88.7728C203.655 88.7728 204.775 85.9919 204.848 84.2436C204.848 84.2436 205.515 86.2274 203.868 89.4115L204.258 90.9242C204.258 90.9242 205.039 88.8815 205.211 88.2746C205.383 87.6677 205.56 87.6632 205.56 87.6632C205.553 89.0411 205.162 90.3899 204.431 91.5583C204.431 91.5583 205.025 94.7197 205.22 94.6971Z" fill="#3DA5D9"/>
<path opacity="0.1" d="M167.462 100.422C167.462 100.422 153.614 90.0822 148.664 101.283C148.664 101.283 147.153 102.846 148.237 104.716C148.237 104.716 148.755 103.987 150.052 105.196C150.512 105.623 151.021 105.994 151.568 106.301C152.309 106.713 153.164 106.872 154.004 106.754V106.754C154.004 106.754 159.158 107.746 165.093 102.171C165.093 102.171 167.212 101.491 167.412 101.093L164.286 100.545C164.286 100.545 163.959 102.841 162.348 103.869C162.348 103.869 164.34 100.672 163.823 100.441C163.718 100.391 162.158 100.214 162.158 100.214C162.158 100.214 161.577 104.209 159.036 105.717C159.036 105.717 161.926 102.225 161.568 100.142L159.195 100.015C159.195 100.015 158.791 104.268 155.96 106.098C155.96 106.098 158.85 102.343 158.682 100.024L156.332 100.214C156.332 100.214 155.855 104.349 153.492 105.853C153.492 105.853 156.391 101.179 155.796 100.291C155.796 100.291 153.65 100.595 153.119 100.948C153.119 100.948 152.707 103.91 151.255 104.662C151.255 104.662 152.865 101.333 152.539 101.102C152.539 101.102 149.848 102.239 148.791 103.534C149.705 102.294 150.929 101.313 152.339 100.69C151.461 100.326 150.496 100.225 149.562 100.4C149.562 100.4 150.715 99.1044 152.992 100.422C152.992 100.422 155.125 99.6208 155.488 99.7204C155.488 99.7204 153.423 98.1035 151.713 97.8227C151.713 97.8227 153.773 97.2339 156.109 99.6344L158.464 99.3943C158.464 99.3943 155.846 97.1297 154.345 96.7492C154.345 96.7492 156.536 96.4729 159.063 99.3807L161.386 99.4849C161.386 99.4849 159.286 97.3471 157.702 96.5771C157.702 96.5771 159.785 96.7583 162.053 99.5347L163.6 99.7838C163.6 99.7838 162.035 98.2529 161.545 97.8544C161.055 97.4558 161.123 97.2882 161.123 97.2882C162.385 97.8462 163.468 98.7431 164.249 99.8789C164.249 99.8789 167.403 100.608 167.462 100.422Z" fill="#3DA5D9"/>
<path opacity="0.1" d="M213.564 4.35292C213.564 4.35292 199.717 -5.99184 194.766 5.21347C194.766 5.21347 193.256 6.77605 194.34 8.64662C194.34 8.64662 194.857 7.91742 196.155 9.12672C196.617 9.55137 197.127 9.92073 197.675 10.2273C198.416 10.6395 199.271 10.7986 200.111 10.6802V10.6802C200.111 10.6802 205.266 11.6721 211.2 6.09214C211.2 6.09214 213.319 5.41728 213.514 5.01418L210.388 4.4752C210.388 4.4752 210.066 6.77152 208.451 7.79966C208.451 7.79966 210.447 4.60202 209.93 4.37103C209.825 4.32121 208.265 4.14457 208.265 4.14457C208.265 4.14457 207.666 8.1484 205.125 9.64758C205.125 9.64758 208.011 6.15555 207.657 4.0721L205.284 3.94528C205.284 3.94528 204.875 8.19823 202.049 10.0235C202.049 10.0235 204.939 6.26878 204.771 3.94982L202.425 4.14004C202.425 4.14004 201.944 8.27975 199.58 9.78345C199.58 9.78345 202.484 5.1093 201.89 4.22157C201.89 4.22157 199.744 4.52502 199.213 4.8783C199.213 4.8783 198.8 7.84042 197.348 8.59227C197.348 8.59227 198.959 5.26329 198.632 5.02777C198.632 5.02777 195.942 6.16913 194.884 7.46449C195.798 6.2229 197.021 5.24214 198.433 4.62014C197.554 4.2533 196.587 4.15249 195.651 4.33027C195.651 4.33027 196.808 3.03491 199.086 4.35292C199.086 4.35292 201.218 3.54671 201.581 3.65088C201.581 3.65088 199.517 2.03395 197.806 1.74861C197.806 1.74861 199.862 1.16434 202.198 3.5603L204.553 3.32025C204.553 3.32025 201.94 1.05564 200.433 0.670654C200.433 0.670654 202.625 0.398901 205.157 3.30666L207.48 3.40631C207.48 3.40631 205.379 1.26851 203.791 0.503075C203.791 0.503075 205.878 0.684244 208.147 3.46066L209.689 3.70976C209.689 3.70976 208.119 2.197 207.629 1.80749C207.139 1.41798 207.207 1.24587 207.207 1.24587C208.47 1.80323 209.552 2.70024 210.334 3.83658C210.334 3.83658 213.487 4.52503 213.564 4.35292Z" fill="#3DA5D9"/>
<path opacity="0.1" d="M266.477 17.456C266.477 17.456 260.942 1.10099 250.501 7.52796C250.501 7.52796 248.369 7.98088 248.201 10.1141C248.201 10.1141 249.041 9.80616 249.413 11.5273C249.551 12.1395 249.759 12.7337 250.034 13.2982C250.409 14.0578 251.02 14.6759 251.776 15.0601V15.0601C251.776 15.0601 255.461 18.7967 263.519 17.5602C263.519 17.5602 265.647 18.2033 266.037 17.9814L263.768 15.7576C263.768 15.7576 262.198 17.4651 260.284 17.3971C260.284 17.3971 263.746 15.8934 263.46 15.4088C263.401 15.3137 262.217 14.2856 262.217 14.2856C262.217 14.2856 259.467 17.2432 256.518 17.0484C256.518 17.0484 260.878 15.8074 261.767 13.8779L259.889 12.4331C259.889 12.4331 257.139 15.7032 253.768 15.6036C253.768 15.6036 258.305 14.1497 259.453 12.1387L257.412 10.9656C257.412 10.9656 254.689 14.1044 251.867 14.0048C251.867 14.0048 256.913 11.799 256.926 10.7301C256.926 10.7301 254.989 9.7654 254.349 9.75634C254.349 9.75634 252.325 11.9621 250.719 11.7628C250.719 11.7628 253.932 9.92845 253.795 9.55253C253.795 9.55253 250.937 8.96826 249.326 9.4393C250.783 8.93296 252.347 8.81585 253.864 9.0996C253.346 8.302 252.606 7.67241 251.736 7.28791C251.736 7.28791 253.423 6.87576 254.553 9.24907C254.553 9.24907 256.767 9.7971 257.003 10.0824C257.003 10.0824 256.223 7.58684 254.975 6.38207C254.975 6.38207 257.003 7.06598 257.557 10.3768L259.635 11.5092C259.635 11.5092 258.777 8.153 257.743 6.97993C257.743 6.97993 259.707 7.99447 260.134 11.8217L261.994 13.2212C261.994 13.2212 261.477 10.2681 260.606 8.73727C260.606 8.73727 262.221 10.0689 262.511 13.6424L263.641 14.7204C263.641 14.7204 263.224 12.5735 263.051 11.9666C262.879 11.3597 263.02 11.3189 263.02 11.3189C263.741 12.4939 264.122 13.8451 264.122 15.2231C264.122 15.2231 266.318 17.5738 266.477 17.456Z" fill="#3DA5D9"/>
<path opacity="0.1" d="M230.351 18.2619C230.351 18.2619 213.155 16.3506 214.576 28.5297C214.576 28.5297 214.063 30.6403 215.937 31.7001C215.937 31.7001 216.014 30.7943 217.752 31.2019C218.366 31.3338 218.993 31.3961 219.621 31.3876C220.469 31.3723 221.29 31.0813 221.958 30.5588V30.5588C221.958 30.5588 226.908 28.8059 229.217 20.993C229.217 20.993 230.696 19.3399 230.664 18.8915L227.693 19.9875C227.693 19.9875 228.6 22.1299 227.693 23.8329C227.693 23.8329 227.788 20.0691 227.239 20.1279C227.125 20.1279 225.692 20.7802 225.692 20.7802C225.692 20.7802 227.216 24.5168 225.792 27.1211C225.792 27.1211 226.508 22.6462 225.143 21.0338L223.033 22.1208C223.033 22.1208 224.848 25.9933 223.328 29.0007C223.328 29.0007 223.918 24.2994 222.588 22.3926L220.66 23.7513C220.66 23.7513 222.348 27.5604 221.073 30.056C221.073 30.056 221.204 24.5575 220.238 24.091C220.238 24.091 218.541 25.4498 218.264 26.0114C218.264 26.0114 219.412 28.7742 218.546 30.1556C218.546 30.1556 218.242 26.4734 217.842 26.4372C217.842 26.4372 216.1 28.7788 215.846 30.4319C216.003 28.8993 216.56 27.4345 217.461 26.1835C216.52 26.3134 215.637 26.7148 214.92 27.3385C214.92 27.3385 215.256 25.64 217.888 25.6219C217.888 25.6219 219.317 23.851 219.703 23.7559C219.703 23.7559 217.103 23.4071 215.483 24.0276C215.483 24.0276 216.958 22.4786 220.197 23.3799L222.107 21.9804C222.107 21.9804 218.654 21.2829 217.194 21.7358C217.194 21.7358 218.945 20.3771 222.602 21.6226L224.657 20.531C224.657 20.531 221.758 19.752 220.002 19.8924C220.002 19.8924 221.894 18.9866 225.256 20.2412L226.717 19.675C226.717 19.675 224.589 19.1451 223.963 19.0455C223.337 18.9458 223.314 18.7737 223.314 18.7737C224.686 18.6166 226.074 18.8424 227.325 19.4259C227.325 19.4259 230.383 18.4521 230.351 18.2619Z" fill="#3DA5D9"/>
<path opacity="0.1" d="M380.805 151.498C380.805 151.498 363.618 149.587 365.038 161.753C365.038 161.753 364.526 163.863 366.4 164.923C366.4 164.923 366.477 164.017 368.215 164.42C368.828 164.557 369.456 164.619 370.084 164.606C370.933 164.593 371.754 164.302 372.421 163.777V163.777C372.421 163.777 377.371 162.024 379.657 154.216C379.657 154.216 381.137 152.558 381.105 152.114L378.133 153.206C378.133 153.206 379.04 155.353 378.133 157.056C378.133 157.056 378.228 153.287 377.679 153.351C377.566 153.351 376.132 153.999 376.132 153.999C376.132 153.999 377.657 157.735 376.232 160.339C376.232 160.339 376.949 155.869 375.583 154.252L373.473 155.344C373.473 155.344 375.288 159.216 373.773 162.224C373.773 162.224 374.358 157.522 373.029 155.611L371.1 156.97C371.1 156.97 372.788 160.779 371.513 163.27C371.513 163.27 371.645 157.771 370.678 157.309C370.678 157.309 368.986 158.668 368.705 159.23C368.705 159.23 369.857 161.993 368.986 163.374C368.986 163.374 368.682 159.692 368.283 159.656C368.283 159.656 366.54 161.997 366.286 163.65C366.444 162.118 367.001 160.653 367.901 159.402C366.959 159.529 366.076 159.931 365.361 160.557C365.361 160.557 365.696 158.854 368.328 158.836C368.328 158.836 369.762 157.065 370.143 156.974C370.143 156.974 367.543 156.621 365.923 157.241C365.923 157.241 367.398 155.697 370.642 156.598L372.548 155.199C372.548 155.199 369.136 154.556 367.652 155C367.652 155 369.403 153.641 373.06 154.882L375.116 153.795C375.116 153.795 372.216 153.016 370.46 153.156C370.46 153.156 372.352 152.25 375.715 153.505L377.176 152.934C377.176 152.934 375.048 152.404 374.421 152.309C373.795 152.214 373.773 152.037 373.773 152.037C375.144 151.877 376.533 152.102 377.784 152.685C377.784 152.685 380.851 151.693 380.805 151.498Z" fill="#3DA5D9"/>
<path opacity="0.1" d="M407.081 167.523C407.081 167.523 389.894 165.616 391.314 177.777C391.314 177.777 390.806 179.888 392.675 180.947C392.675 180.947 392.752 180.042 394.49 180.449C395.102 180.582 395.728 180.643 396.355 180.63C397.199 180.613 398.016 180.324 398.682 179.806V179.806C398.682 179.806 403.628 178.053 405.915 170.24C405.915 170.24 407.398 168.587 407.362 168.139L404.39 169.23C404.39 169.23 405.298 171.377 404.39 173.08C404.39 173.08 404.485 169.316 403.936 169.375C403.823 169.375 402.389 170.023 402.389 170.023C402.389 170.023 403.914 173.759 402.489 176.364C402.489 176.364 403.206 171.893 401.84 170.281L399.73 171.368C399.73 171.368 401.545 175.241 400.03 178.248C400.03 178.248 400.615 173.547 399.286 171.64L397.357 172.999C397.357 172.999 399.045 176.808 397.775 179.303C397.775 179.303 397.902 173.8 396.935 173.338C396.935 173.338 395.243 174.697 394.962 175.259C394.962 175.259 396.114 178.021 395.243 179.403C395.243 179.403 394.939 175.721 394.54 175.684C394.54 175.684 392.798 178.026 392.548 179.679C392.705 178.147 393.26 176.683 394.159 175.431C393.217 175.561 392.334 175.962 391.618 176.586C391.618 176.586 391.958 174.883 394.59 174.869C394.59 174.869 396.019 173.098 396.405 173.003C396.405 173.003 393.805 172.654 392.185 173.275C392.185 173.275 393.66 171.726 396.904 172.627L398.809 171.228C398.809 171.228 395.397 170.584 393.914 171.028C393.914 171.028 395.665 169.67 399.322 170.915L401.377 169.824C401.377 169.824 398.478 169.045 396.722 169.185C396.722 169.185 398.614 168.279 401.976 169.534L403.437 168.968C403.437 168.968 401.309 168.438 400.688 168.338C400.066 168.238 400.034 168.066 400.034 168.066C401.406 167.909 402.794 168.135 404.045 168.718C404.045 168.718 407.126 167.717 407.081 167.523Z" fill="#3DA5D9"/>
<path opacity="0.1" d="M348.746 32.5474C348.746 32.5474 334.898 22.2072 329.948 33.408C329.948 33.408 328.437 34.9706 329.522 36.8411C329.522 36.8411 330.039 36.1119 331.337 37.3212C331.796 37.7481 332.305 38.1191 332.852 38.4264C333.593 38.838 334.449 38.997 335.288 38.8793V38.8793C335.288 38.8793 340.443 39.8712 346.382 34.2957C346.382 34.2957 348.496 33.6163 348.696 33.2178L345.579 32.6561C345.579 32.6561 345.252 34.9525 343.641 35.9806C343.641 35.9806 345.633 32.783 345.116 32.552C345.012 32.5021 343.455 32.3255 343.455 32.3255C343.455 32.3255 342.87 36.3203 340.329 37.8285C340.329 37.8285 343.219 34.3365 342.861 32.253L340.488 32.1262C340.488 32.1262 340.084 36.3792 337.253 38.209C337.253 38.209 340.148 34.4542 339.975 32.1353L337.625 32.3255C337.625 32.3255 337.171 36.4607 334.785 37.9644C334.785 37.9644 337.689 33.2902 337.09 32.4025C337.09 32.4025 334.944 32.706 334.413 33.0592C334.413 33.0592 334.004 36.0214 332.552 36.7732C332.552 36.7732 334.159 33.4442 333.832 33.2132C333.832 33.2132 331.141 34.3501 330.084 35.6454C330.999 34.4052 332.222 33.4247 333.632 32.8011C332.755 32.4369 331.79 32.3362 330.856 32.5112C330.856 32.5112 332.013 31.2158 334.29 32.5339C334.29 32.5339 336.418 31.7322 336.781 31.8318C336.781 31.8318 334.717 30.2149 333.006 29.9341C333.006 29.9341 335.066 29.3453 337.403 31.7458L339.758 31.5057C339.758 31.5057 337.144 29.2411 335.638 28.8606C335.638 28.8606 337.829 28.5844 340.356 31.4921L342.684 31.5963C342.684 31.5963 340.579 29.4585 338.995 28.6885C338.995 28.6885 341.082 28.8697 343.346 31.6461L344.894 31.8952C344.894 31.8952 343.328 30.3644 342.838 29.9658C342.348 29.5672 342.421 29.4359 342.421 29.4359C343.681 29.9947 344.762 30.8915 345.542 32.0266C345.542 32.0266 348.687 32.7331 348.746 32.5474Z" fill="#3DA5D9"/>
<path opacity="0.1" d="M359.444 107.198C359.444 107.198 354.671 90.6076 343.936 96.5636C343.936 96.5636 341.785 96.8942 341.518 99.041C341.518 99.041 342.371 98.7738 342.665 100.509C342.775 101.132 342.958 101.74 343.21 102.32C343.546 103.101 344.13 103.75 344.871 104.168V104.168C344.871 104.168 348.382 108.063 356.486 107.194C356.486 107.194 358.582 107.927 358.981 107.728L356.835 105.4C356.835 105.4 355.188 107.04 353.283 106.886C353.283 106.886 356.803 105.527 356.531 105.042C356.477 104.943 355.342 103.86 355.342 103.86C355.342 103.86 352.466 106.695 349.526 106.365C349.526 106.365 353.94 105.323 354.911 103.448L353.097 101.917C353.097 101.917 350.202 105.06 346.84 104.816C346.84 104.816 351.413 103.561 352.675 101.609L350.687 100.345C350.687 100.345 347.806 103.357 345.011 103.131C345.011 103.131 350.152 101.152 350.215 100.087C350.215 100.087 348.319 99.0365 347.679 99.0003C347.679 99.0003 345.56 101.111 343.95 100.839C343.95 100.839 347.244 99.1497 347.126 98.7693C347.126 98.7693 344.294 98.0582 342.665 98.4523C344.141 98.0156 345.705 97.9703 347.203 98.3209C346.723 97.5014 346.013 96.8401 345.161 96.4186C345.161 96.4186 346.867 96.0789 347.883 98.5021C347.883 98.5021 350.066 99.1452 350.293 99.4442C350.293 99.4442 349.626 96.9123 348.432 95.6577C348.432 95.6577 350.429 96.4277 350.832 99.7612L352.856 100.989C352.856 100.989 352.148 97.5917 351.168 96.396C351.168 96.396 353.083 97.4966 353.342 101.337L355.156 102.818C355.156 102.818 354.771 99.8473 353.972 98.2892C353.972 98.2892 355.528 99.6933 355.656 103.271L356.735 104.404C356.735 104.404 356.418 102.239 356.282 101.623C356.146 101.007 356.282 100.921 356.282 100.921C356.953 102.125 357.275 103.493 357.212 104.87C357.212 104.87 359.281 107.307 359.444 107.198Z" fill="#3DA5D9"/>
<path opacity="0.1" d="M253.083 144.582C253.083 144.582 243.814 130.007 235.207 138.73C235.207 138.73 233.238 139.636 233.583 141.788C233.583 141.788 234.331 141.289 235.102 142.875C235.38 143.436 235.724 143.963 236.128 144.442C236.669 145.096 237.41 145.554 238.238 145.746V145.746C238.238 145.746 242.707 148.5 250.239 145.384C250.239 145.384 252.457 145.502 252.784 145.198L250.062 143.568C250.062 143.568 248.941 145.606 247.067 145.991C247.067 145.991 250.071 143.726 249.667 143.309C249.59 143.228 248.192 142.512 248.192 142.512C248.192 142.512 246.228 146.036 243.315 146.548C243.315 146.548 247.258 144.306 247.666 142.232L245.493 141.276C245.493 141.276 243.601 145.103 240.307 145.805C240.307 145.805 244.345 143.319 245.003 141.09L242.734 140.438C242.734 140.438 240.819 144.138 238.074 144.704C238.074 144.704 242.448 141.362 242.208 140.32C242.208 140.32 240.093 139.845 239.485 139.99C239.485 139.99 238.047 142.612 236.423 142.802C236.423 142.802 239.109 140.257 238.887 139.922C238.887 139.922 235.969 140.035 234.517 140.873C235.812 140.035 237.305 139.551 238.846 139.469C238.156 138.817 237.29 138.381 236.355 138.214C236.355 138.214 237.893 137.412 239.531 139.451C239.531 139.451 241.799 139.451 242.112 139.677C242.112 139.677 240.751 137.412 239.259 136.565C239.259 136.565 241.391 136.747 242.716 139.831L245.007 140.438C245.007 140.438 243.369 137.381 242.094 136.507C242.094 136.507 244.24 137.023 245.57 140.642L247.711 141.548C247.711 141.548 246.504 138.807 245.293 137.526C245.293 137.526 247.181 138.431 248.31 141.833L249.671 142.616C249.671 142.616 248.764 140.628 248.442 140.08C248.12 139.532 248.247 139.405 248.247 139.405C249.229 140.373 249.921 141.595 250.248 142.934C250.248 142.934 252.961 144.736 253.083 144.582Z" fill="#3DA5D9"/>
<path d="M314.005 70.1124C314.005 70.1124 305.189 55.2611 296.31 63.7126C296.31 63.7126 294.313 64.5732 294.595 66.72C294.595 66.72 295.352 66.2399 296.078 67.8478C296.338 68.4194 296.665 68.9577 297.054 69.4512C297.575 70.1191 298.302 70.5967 299.123 70.8099V70.8099C299.123 70.8099 303.501 73.6996 311.128 70.8099C311.128 70.8099 313.342 70.9956 313.678 70.7012L311.015 68.9892C311.015 68.9892 309.835 70.9866 307.948 71.3172C307.948 71.3172 311.019 69.1296 310.634 68.7174C310.552 68.6314 309.182 67.8705 309.182 67.8705C309.182 67.8705 307.108 71.3353 304.191 71.7565C304.191 71.7565 308.202 69.6368 308.669 67.5806L306.527 66.5751C306.527 66.5751 304.517 70.3479 301.201 70.9503C301.201 70.9503 305.316 68.5906 306.042 66.3849L303.801 65.6602C303.801 65.6602 301.768 69.2836 299.009 69.7818C299.009 69.7818 303.483 66.5751 303.274 65.5288C303.274 65.5288 301.178 64.9853 300.552 65.1122C300.552 65.1122 299.032 67.6893 297.403 67.8297C297.403 67.8297 300.166 65.3748 299.957 65.0306C299.957 65.0306 297.036 65.0533 295.561 65.8459C296.882 65.0505 298.388 64.6134 299.93 64.5777C299.26 63.9044 298.406 63.4416 297.476 63.2461C297.476 63.2461 299.041 62.4897 300.652 64.5777C300.652 64.5777 302.92 64.6547 303.224 64.8857C303.224 64.8857 301.94 62.6211 300.47 61.6881C300.47 61.6881 302.594 61.9326 303.823 65.0578L306.092 65.7372C306.092 65.7372 304.554 62.6301 303.301 61.7152C303.301 61.7152 305.434 62.2995 306.65 65.9546L308.76 66.9374C308.76 66.9374 307.639 64.161 306.491 62.8611C306.491 62.8611 308.347 63.8259 309.377 67.259L310.706 68.0833C310.706 68.0833 309.853 66.0678 309.554 65.5107C309.254 64.9536 309.381 64.8313 309.381 64.8313C310.332 65.8292 310.987 67.071 311.273 68.4185C311.273 68.4185 313.873 70.2619 314.005 70.1124Z" fill="#3DA5D9"/>
<path d="M258.229 101.342C258.229 101.342 258.682 84.0852 246.672 86.5174C246.672 86.5174 244.522 86.1868 243.614 88.1524C243.614 88.1524 244.522 88.1524 244.268 89.8962C244.184 90.518 244.175 91.1474 244.24 91.7713C244.322 92.6176 244.681 93.4134 245.261 94.0359C245.261 94.0359 247.426 98.8097 255.416 100.431C255.416 100.431 257.19 101.767 257.634 101.695L256.273 98.8323C256.273 98.8323 254.209 99.8922 252.435 99.172C252.435 99.172 256.2 98.9501 256.096 98.3975C256.096 98.2843 255.316 96.9074 255.316 96.9074C255.316 96.9074 251.713 98.7418 249.014 97.537C249.014 97.537 253.551 97.8767 255.034 96.3866L253.769 94.3801C253.769 94.3801 250.057 96.4998 246.926 95.2497C246.926 95.2497 251.668 95.4399 253.465 93.9589L251.954 92.1472C251.954 92.1472 248.292 94.1491 245.697 93.0893C245.697 93.0893 251.196 92.7587 251.595 91.7577C251.595 91.7577 250.107 90.1861 249.508 89.946C249.508 89.946 246.849 91.3048 245.397 90.571C245.397 90.571 249.027 89.9641 249.05 89.561C249.05 89.561 246.568 88.0256 244.894 87.9124C246.438 87.9399 247.947 88.3709 249.272 89.1624C249.065 88.2367 248.592 87.3913 247.911 86.7303C247.911 86.7303 249.64 86.925 249.876 89.5384C249.876 89.5384 251.768 90.8156 251.89 91.1689C251.89 91.1689 252.022 88.5555 251.264 86.9975C251.264 86.9975 252.934 88.3336 252.308 91.6309L253.864 93.4154C253.864 93.4154 254.218 89.9641 253.651 88.5284C253.651 88.5284 255.139 90.1544 254.222 93.8955L255.479 95.8476C255.479 95.8476 256.014 92.8991 255.729 91.1644C255.729 91.1644 256.781 92.9761 255.819 96.4228L256.509 97.8269C256.509 97.8269 256.858 95.6664 256.904 95.0369C256.949 94.4073 257.122 94.3665 257.122 94.3665C257.395 95.7176 257.286 97.1179 256.808 98.4111C256.808 98.4111 258.029 101.4 258.229 101.342Z" fill="#3DA5D9"/>
<path opacity="0.1" d="M278.083 259.712C284.831 259.712 290.302 258.79 290.302 257.652C290.302 256.513 284.831 255.591 278.083 255.591C271.335 255.591 265.864 256.513 265.864 257.652C265.864 258.79 271.335 259.712 278.083 259.712Z" fill="#3DA5D9"/>
<path opacity="0.1" d="M233.541 291C240.289 291 245.76 290.077 245.76 288.939C245.76 287.801 240.289 286.878 233.541 286.878C226.793 286.878 221.322 287.801 221.322 288.939C221.322 290.077 226.793 291 233.541 291Z" fill="#3DA5D9"/>
<path opacity="0.1" d="M55.581 239.411C62.3292 239.411 67.7996 238.488 67.7996 237.35C67.7996 236.212 62.3292 235.289 55.581 235.289C48.8328 235.289 43.3623 236.212 43.3623 237.35C43.3623 238.488 48.8328 239.411 55.581 239.411Z" fill="#6C63FF"/>
<path opacity="0.1" d="M326.219 288.939C332.967 288.939 338.437 288.017 338.437 286.879C338.437 285.741 332.967 284.818 326.219 284.818C319.47 284.818 314 285.741 314 286.879C314 288.017 319.47 288.939 326.219 288.939Z" fill="#3DA5D9"/>
<path d="M338.94 263.811C349.016 263.811 357.184 262.432 357.184 260.731C357.184 259.03 349.016 257.651 338.94 257.651C328.864 257.651 320.696 259.03 320.696 260.731C320.696 262.432 328.864 263.811 338.94 263.811Z" fill="#3DA5D9"/>
<path d="M346.503 255.69C347.336 255.015 347.942 254.101 348.241 253.072C348.468 252.03 348.023 250.785 347.029 250.405C345.913 249.979 344.72 250.749 343.813 251.528C342.905 252.307 341.875 253.199 340.691 253.036C341.299 252.485 341.754 251.786 342.011 251.007C342.269 250.229 342.32 249.397 342.161 248.593C342.11 248.26 341.968 247.946 341.753 247.687C341.131 247.026 340.01 247.311 339.266 247.832C336.907 249.49 336.249 252.687 336.235 255.568C335.999 254.531 336.199 253.448 336.195 252.397C336.19 251.347 335.895 250.133 334.992 249.58C334.438 249.272 333.812 249.115 333.177 249.127C332.116 249.091 330.931 249.195 330.21 249.97C329.303 250.93 329.543 252.547 330.323 253.593C331.104 254.639 332.297 255.314 333.395 256.048C334.274 256.572 335.024 257.285 335.591 258.136C335.656 258.254 335.709 258.379 335.75 258.507H342.401C343.891 257.759 345.27 256.811 346.503 255.69V255.69Z" fill="#3DA5D9"/>
<path d="M47.3779 227.771C47.3779 227.771 54.3425 227.558 56.4523 226.063C58.5621 224.569 67.1737 222.789 67.6955 225.185C68.2173 227.581 78.1673 237.092 70.2998 237.155C62.4323 237.219 52.0195 235.933 49.9233 234.655C47.8271 233.378 47.3779 227.771 47.3779 227.771Z" fill="#A8A8A8"/>
<path opacity="0.2" d="M70.4314 236.322C62.5639 236.385 52.1511 235.099 50.0549 233.822C48.4578 232.853 47.8226 229.37 47.6093 227.762H47.3779C47.3779 227.762 47.8317 233.373 49.9142 234.646C51.9968 235.919 62.4233 237.21 70.2908 237.146C72.5594 237.146 73.3443 236.322 73.3035 235.126C72.9858 235.855 72.1192 236.308 70.4314 236.322Z" fill="black"/>
<path opacity="0.1" d="M123.581 251.122C130.329 251.122 135.8 250.199 135.8 249.061C135.8 247.923 130.329 247 123.581 247C116.833 247 111.362 247.923 111.362 249.061C111.362 250.199 116.833 251.122 123.581 251.122Z" fill="#3DA5D9"/>
<path opacity="0.1" d="M25.581 277.122C32.3291 277.122 37.7996 276.199 37.7996 275.061C37.7996 273.923 32.3291 273 25.581 273C18.8328 273 13.3623 273.923 13.3623 275.061C13.3623 276.199 18.8328 277.122 25.581 277.122Z" fill="#3DA5D9"/>
<path opacity="0.1" d="M12.2187 186.65C18.9669 186.65 24.4373 185.728 24.4373 184.589C24.4373 183.451 18.9669 182.529 12.2187 182.529C5.47048 182.529 0 183.451 0 184.589C0 185.728 5.47048 186.65 12.2187 186.65Z" fill="#3DA5D9"/>
<path d="M24.9403 161.522C35.0162 161.522 43.1844 160.143 43.1844 158.442C43.1844 156.741 35.0162 155.362 24.9403 155.362C14.8644 155.362 6.69629 156.741 6.69629 158.442C6.69629 160.143 14.8644 161.522 24.9403 161.522Z" fill="#3DA5D9"/>
<path d="M32.5031 153.401C33.336 152.725 33.9423 151.812 34.2409 150.783C34.4677 149.741 34.0231 148.496 33.0294 148.115C31.9133 147.689 30.72 148.459 29.8126 149.238C28.9051 150.017 27.8752 150.91 26.691 150.747C27.2989 150.195 27.7537 149.497 28.0113 148.718C28.2689 147.94 28.3204 147.108 28.161 146.304C28.1096 145.97 27.9685 145.657 27.7527 145.398C27.1311 144.736 26.0104 145.022 25.2663 145.543C22.9069 147.2 22.249 150.398 22.2354 153.278C21.9995 152.241 22.1992 151.159 22.1946 150.108C22.1901 149.057 21.8951 147.843 20.9922 147.291C20.438 146.982 19.8118 146.826 19.1774 146.838C18.1157 146.802 16.9315 146.906 16.21 147.68C15.3026 148.641 15.5431 150.258 16.3235 151.304C17.1039 152.35 18.2971 153.025 19.3951 153.759C20.2739 154.282 21.0242 154.996 21.5912 155.847C21.6558 155.965 21.7089 156.089 21.7499 156.218H28.4015C29.8906 155.469 31.2705 154.522 32.5031 153.401V153.401Z" fill="#3DA5D9"/>
</g>
<defs>
<clipPath id="clip0">
<rect width="407.362" height="291" fill="white"/>
</clipPath>
</defs>
</svg>
