<svg width="184" height="159" viewBox="0 0 184 159" fill="none" xmlns="http://www.w3.org/2000/svg">
<g clip-path="url(#clip0)">
<g opacity="0.8">
<path opacity="0.8" d="M94.6286 53.7626C112.347 53.7626 126.71 42.6505 126.71 28.943C126.71 15.2355 112.347 4.12341 94.6286 4.12341C76.9104 4.12341 62.5469 15.2355 62.5469 28.943C62.5469 42.6505 76.9104 53.7626 94.6286 53.7626Z" fill="url(#paint0_linear)"/>
</g>
<path d="M94.6286 53.2114C111.954 53.2114 125.998 42.3461 125.998 28.9431C125.998 15.54 111.954 4.67468 94.6286 4.67468C77.3035 4.67468 63.2588 15.54 63.2588 28.9431C63.2588 42.3461 77.3035 53.2114 94.6286 53.2114Z" fill="#3DA5D9"/>
<path opacity="0.1" d="M68.3297 31.6402C68.3297 18.2373 82.3729 7.37188 99.6974 7.37188C105.076 7.34231 110.401 8.44003 115.329 10.5941C109.815 6.87531 102.602 4.6156 94.7075 4.6156C77.383 4.6156 63.3376 15.481 63.3376 28.884C63.3376 37.8834 69.6703 45.7388 79.0784 49.9301C72.4917 45.4807 68.3297 38.9378 68.3297 31.6402Z" fill="white"/>
<path opacity="0.2" d="M94.6287 38.6973L129.405 98.8497L164.181 159H94.6287H25.0767L59.8527 98.8497L94.6287 38.6973Z" fill="#3DA5D9"/>
<g opacity="0.3">
<path opacity="0.3" d="M102.88 123.862L105.581 115.858C106.51 113.07 106.517 110.059 105.602 107.267C104.687 104.475 102.898 102.05 100.499 100.35L100.521 100.337C99.4585 99.5904 98.2935 99.0009 97.0621 98.5873L97.0249 98.5741L96.9832 98.561C95.788 98.1573 94.5418 97.9231 93.2813 97.8654C92.8355 97.8424 92.3888 97.8424 91.943 97.8654C91.1694 97.9058 90.4007 98.0119 89.6451 98.1826C89.4261 98.2307 89.2071 98.2854 89.0077 98.3444C88.8084 98.4035 88.585 98.4669 88.3769 98.5348C87.9607 98.6726 87.551 98.8279 87.1502 99.0051C86.9487 99.0926 86.7493 99.1844 86.5544 99.2829C85.9649 99.5736 85.3975 99.9069 84.8568 100.28C84.675 100.405 84.4975 100.534 84.3223 100.665C82.1571 102.31 80.5362 104.565 79.6697 107.14L75.4246 119.751C74.7564 121.729 74.5555 123.835 74.8375 125.903C74.8813 126.22 74.9361 126.535 74.9996 126.848C75.0631 127.161 75.142 127.469 75.2187 127.775C75.2778 127.979 75.3391 128.182 75.407 128.383C75.5078 128.683 75.6261 128.983 75.7378 129.276C75.8188 129.471 75.9043 129.665 75.9941 129.858C76.1715 130.241 76.3687 130.615 76.5811 130.98C76.7936 131.345 77.0192 131.702 77.2733 132.048C77.4573 132.306 77.6523 132.559 77.8538 132.804C78.1254 133.133 78.4102 133.461 78.7125 133.752C80.0208 135.069 81.5866 136.103 83.3125 136.79L83.3869 136.821C83.4796 136.657 83.582 136.498 83.6936 136.346C84.3508 135.447 85.4942 134.815 86.5829 135.051C86.6617 135.069 86.7406 135.093 86.8194 135.117C87.3714 135.311 87.9147 135.659 88.447 135.83C88.6406 135.917 88.8508 135.96 89.0631 135.958C89.2753 135.955 89.4844 135.906 89.6758 135.814C90.7404 135.248 90.3461 133.461 91.2595 132.678C91.3021 132.641 91.3467 132.608 91.3931 132.577C91.3802 132.561 91.3685 132.544 91.3581 132.527C92.0634 132.089 93.0404 132.38 93.8531 132.662C94.7292 132.971 95.8727 133.178 96.4816 132.463C96.8934 131.973 96.8628 131.227 97.2549 130.713C97.7105 130.123 98.5692 130.057 99.3117 130.162L99.349 130.173C100.773 130.759 102.328 129.786 102.218 128.252C102.089 126.207 102.733 124.28 102.88 123.862Z" fill="url(#paint1_linear)"/>
</g>
<path d="M83.9413 135.672C84.581 134.797 85.6784 134.185 86.7298 134.423C87.7812 134.662 88.7779 135.661 89.7132 135.16C90.9925 134.478 90.0856 131.969 92.1622 131.783C92.5949 131.754 93.0282 131.829 93.4261 132.002C94.3023 132.358 95.6735 132.761 96.3482 131.958C96.7447 131.485 96.7162 130.766 97.0952 130.276C97.5333 129.707 98.3678 129.635 99.0797 129.744L99.1148 129.755C100.488 130.322 101.991 129.381 101.884 127.902C101.746 125.933 102.372 124.078 102.508 123.676L105.11 115.952C106.217 112.641 105.966 109.026 104.413 105.899C102.859 102.772 100.129 100.386 96.8192 99.2632C93.5037 98.1593 89.8855 98.4107 86.755 99.9625C83.6246 101.514 81.2364 104.24 80.1124 107.545L76.0096 119.692C74.9433 122.887 75.1389 126.368 76.5566 129.424C77.9743 132.479 80.5069 134.879 83.6369 136.132C83.7293 135.973 83.8309 135.819 83.9413 135.672Z" fill="white"/>
<path opacity="0.2" d="M88.7908 107.755C89.5783 107.755 90.2168 107.118 90.2168 106.331C90.2168 105.545 89.5783 104.907 88.7908 104.907C88.0032 104.907 87.3647 105.545 87.3647 106.331C87.3647 107.118 88.0032 107.755 88.7908 107.755Z" fill="black"/>
<path opacity="0.2" d="M96.9001 110.479C97.6877 110.479 98.3262 109.841 98.3262 109.055C98.3262 108.268 97.6877 107.63 96.9001 107.63C96.1126 107.63 95.4741 108.268 95.4741 109.055C95.4741 109.841 96.1126 110.479 96.9001 110.479Z" fill="black"/>
<path d="M92.3835 113.559C92.7601 112.442 92.4603 111.333 91.7138 111.082C90.9674 110.831 90.057 111.533 89.6804 112.651C89.3038 113.768 89.6036 114.878 90.35 115.129C91.0965 115.38 92.0069 114.677 92.3835 113.559Z" fill="#E0E0E0"/>
<path d="M121.03 108.781C122.211 108.781 123.168 107.826 123.168 106.646C123.168 105.467 122.211 104.511 121.03 104.511C119.85 104.511 118.893 105.467 118.893 106.646C118.893 107.826 119.85 108.781 121.03 108.781Z" fill="white"/>
<path d="M127.803 104.356C128.394 104.356 128.872 103.878 128.872 103.288C128.872 102.699 128.394 102.221 127.803 102.221C127.213 102.221 126.734 102.699 126.734 103.288C126.734 103.878 127.213 104.356 127.803 104.356Z" fill="white"/>
<g opacity="0.5">
<g opacity="0.3">
<path opacity="0.3" d="M105.728 37.8922L108.429 29.888C109.357 27.1006 109.365 24.0889 108.45 21.2969C107.535 18.505 105.746 16.0804 103.347 14.3807L103.369 14.3675C102.306 13.6206 101.141 13.0312 99.9097 12.6175L99.8725 12.6044L99.8309 12.5913C98.6356 12.1876 97.3895 11.9534 96.129 11.8956C95.6831 11.8727 95.2364 11.8727 94.7906 11.8956C94.017 11.9361 93.2483 12.0422 92.4928 12.2128C92.2737 12.261 92.0547 12.3157 91.8554 12.3747C91.656 12.4338 91.4326 12.4972 91.2245 12.565C90.8083 12.7028 90.3987 12.8582 89.9978 13.0353C89.7963 13.1229 89.597 13.2147 89.402 13.3132C88.8125 13.6038 88.2451 13.9372 87.7044 14.3107C87.5226 14.4354 87.3452 14.5644 87.1699 14.6957C85.0047 16.34 83.3839 18.5958 82.5174 21.1707L78.2722 33.7818C77.6041 35.7596 77.4032 37.8649 77.6852 39.9331C77.729 40.2503 77.7837 40.5653 77.8473 40.8781C77.9108 41.1909 77.9896 41.4994 78.0663 41.8056C78.1255 42.0091 78.1868 42.2125 78.2547 42.4138C78.3555 42.7134 78.4737 43.0131 78.5855 43.3063C78.6665 43.501 78.7519 43.6956 78.8417 43.8881C79.0192 44.271 79.2163 44.645 79.4288 45.0103C79.6413 45.3757 79.8669 45.7322 80.121 46.0779C80.305 46.336 80.4999 46.5897 80.7015 46.8347C80.9731 47.1629 81.2578 47.4801 81.5601 47.7819C82.8685 49.0992 84.4343 50.1335 86.1601 50.8204L86.2346 50.851C86.3273 50.6868 86.4297 50.5283 86.5413 50.3763C87.1984 49.4773 88.3418 48.8451 89.4305 49.0813C89.5094 49.0988 89.5882 49.1229 89.6671 49.1469C90.2191 49.3416 90.7623 49.6895 91.2946 49.8601C91.4882 49.947 91.6985 49.9906 91.9107 49.988C92.123 49.9853 92.3321 49.9364 92.5235 49.8448C93.588 49.2782 93.1937 47.491 94.1072 46.7079C94.1497 46.6717 94.1943 46.6381 94.2408 46.6072C94.2279 46.5914 94.2162 46.5745 94.2057 46.5569C94.9111 46.1194 95.888 46.4104 96.7007 46.6925C97.5769 47.001 98.7203 47.2088 99.3293 46.4935C99.7411 46.0035 99.7104 45.2575 100.103 44.7435C100.558 44.1528 101.417 44.0872 102.159 44.1922H102.197C103.62 44.7785 105.176 43.805 105.066 42.2716C104.937 40.2372 105.581 38.31 105.728 37.8922Z" fill="url(#paint2_linear)"/>
</g>
<path opacity="0.5" d="M86.7887 49.7027C87.4284 48.8277 88.5258 48.2152 89.5772 48.4537C90.6286 48.6921 91.6253 49.6918 92.5606 49.1909C93.8399 48.5083 92.933 45.9993 95.0096 45.8133C95.4423 45.7848 95.8756 45.8598 96.2735 46.0321C97.1497 46.3886 98.5209 46.7911 99.1956 45.9883C99.5921 45.5158 99.5636 44.7961 99.9426 44.3061C100.381 43.7374 101.215 43.6652 101.927 43.7745L101.962 43.7855C103.336 44.3521 104.838 43.4114 104.731 41.9327C104.593 39.9639 105.219 38.1089 105.355 37.7064L107.958 29.9822C109.064 26.671 108.814 23.0567 107.26 19.9296C105.706 16.8024 102.976 14.4166 99.6666 13.2936C96.3511 12.1897 92.7329 12.4411 89.6024 13.9929C86.472 15.5447 84.0838 18.2708 82.9598 21.5756L78.857 33.7229C77.7907 36.9177 77.9864 40.3985 79.404 43.454C80.8217 46.5095 83.3543 48.909 86.4843 50.1621C86.5767 50.0032 86.6783 49.8498 86.7887 49.7027Z" fill="white"/>
<path opacity="0.2" d="M91.6384 21.7856C92.426 21.7856 93.0644 21.1481 93.0644 20.3616C93.0644 19.5751 92.426 18.9375 91.6384 18.9375C90.8508 18.9375 90.2124 19.5751 90.2124 20.3616C90.2124 21.1481 90.8508 21.7856 91.6384 21.7856Z" fill="black"/>
<path opacity="0.2" d="M99.7475 24.5089C100.535 24.5089 101.173 23.8713 101.173 23.0848C101.173 22.2983 100.535 21.6608 99.7475 21.6608C98.96 21.6608 98.3215 22.2983 98.3215 23.0848C98.3215 23.8713 98.96 24.5089 99.7475 24.5089Z" fill="black"/>
</g>
<path opacity="0.1" d="M124.752 21.7504C125.159 23.3222 125.365 24.9393 125.363 26.5629C125.363 39.9659 111.32 50.8313 93.9955 50.8313C79.8166 50.8225 67.8369 43.5468 63.9619 33.563C66.8402 44.669 79.5143 53.0319 94.7184 53.0319C112.043 53.0319 126.088 42.1665 126.088 28.7636C126.084 26.3632 125.631 23.9847 124.752 21.7504Z" fill="black"/>
<g opacity="0.8">
<path opacity="0.8" d="M94.6285 56.4578C130.459 56.4578 159.506 48.8763 159.506 39.5242C159.506 30.172 130.459 22.5906 94.6285 22.5906C58.7976 22.5906 29.751 30.172 29.751 39.5242C29.751 48.8763 58.7976 56.4578 94.6285 56.4578Z" fill="url(#paint3_linear)"/>
</g>
<path d="M94.6285 23.1505C59.9796 23.1505 31.8889 30.4809 31.8889 39.5263H157.368C157.368 30.4809 129.277 23.1505 94.6285 23.1505Z" fill="white"/>
<path d="M94.6285 55.9C129.277 55.9 157.368 48.5696 157.368 39.5264H31.8889C31.8889 48.5696 59.9796 55.9 94.6285 55.9Z" fill="white"/>
<path opacity="0.05" d="M94.6285 55.9C129.277 55.9 157.368 48.5696 157.368 39.5264H31.8889C31.8889 48.5696 59.9796 55.9 94.6285 55.9Z" fill="black"/>
<path opacity="0.05" d="M120.8 35.2521H68.4568C66.3736 35.2521 64.6848 36.9386 64.6848 39.019V40.0296C64.6848 42.11 66.3736 43.7965 68.4568 43.7965H120.8C122.884 43.7965 124.572 42.11 124.572 40.0296V39.019C124.572 36.9386 122.884 35.2521 120.8 35.2521Z" fill="black"/>
<path opacity="0.5" d="M29.3282 12.6462C29.1473 12.5673 29.0016 12.4249 28.9188 12.2459C28.836 12.0668 28.8219 11.8637 28.8792 11.675C28.8884 11.6458 28.8943 11.6157 28.8967 11.5853C28.9023 11.4987 28.8797 11.4126 28.8324 11.3399C28.785 11.2672 28.7154 11.2117 28.6339 11.1817C28.5524 11.1517 28.4633 11.1488 28.3801 11.1734C28.2968 11.1981 28.2237 11.2489 28.1717 11.3184C28.1541 11.3429 28.1394 11.3693 28.1278 11.3971C28.0493 11.5782 27.9066 11.724 27.7273 11.8067C27.5479 11.8894 27.3442 11.9033 27.1553 11.8456C27.126 11.8366 27.0959 11.8308 27.0655 11.8281C26.9788 11.8225 26.8926 11.845 26.8198 11.8923C26.747 11.9396 26.6914 12.0092 26.6613 12.0906C26.6313 12.1719 26.6284 12.2609 26.6531 12.344C26.6777 12.4272 26.7286 12.5002 26.7982 12.5522C26.8224 12.5708 26.8489 12.5862 26.8771 12.5981C27.0581 12.677 27.2038 12.8194 27.2865 12.9985C27.3693 13.1775 27.3834 13.3806 27.3261 13.5693C27.3171 13.5978 27.3113 13.6271 27.3086 13.6568C27.3025 13.7436 27.3247 13.83 27.3718 13.9031C27.419 13.9763 27.4886 14.0322 27.5703 14.0625C27.6519 14.0928 27.7412 14.0958 27.8247 14.0712C27.9083 14.0466 27.9816 13.9956 28.0337 13.9259C28.0517 13.9009 28.0664 13.8737 28.0775 13.845C28.158 13.6659 28.3014 13.5225 28.4806 13.4419C28.6598 13.3613 28.8624 13.3491 29.05 13.4075C29.0793 13.4164 29.1094 13.4223 29.1398 13.425C29.2265 13.4306 29.3127 13.408 29.3855 13.3607C29.4583 13.3134 29.5139 13.2439 29.544 13.1625C29.574 13.0811 29.5769 12.9922 29.5522 12.909C29.5276 12.8258 29.4767 12.7528 29.4071 12.7009C29.3834 12.6792 29.3569 12.6608 29.3282 12.6462Z" fill="#4D8AF0"/>
<path opacity="0.5" d="M140.823 79.5844C140.644 79.5036 140.501 79.3604 140.42 79.1815C140.34 79.0027 140.327 78.8006 140.385 78.6132C140.394 78.584 140.4 78.554 140.403 78.5235C140.408 78.4369 140.386 78.3509 140.338 78.2782C140.291 78.2054 140.221 78.1499 140.14 78.1199C140.058 78.0899 139.969 78.087 139.886 78.1117C139.803 78.1363 139.73 78.1871 139.678 78.2566C139.66 78.2811 139.646 78.3076 139.634 78.3354C139.555 78.5164 139.413 78.6622 139.233 78.7449C139.054 78.8277 138.85 78.8415 138.661 78.7838C138.632 78.7749 138.602 78.769 138.572 78.7663C138.485 78.7607 138.399 78.7833 138.326 78.8306C138.253 78.8779 138.197 78.9474 138.167 79.0288C138.137 79.1102 138.134 79.1991 138.159 79.2823C138.184 79.3654 138.235 79.4384 138.304 79.4904C138.329 79.509 138.355 79.5245 138.383 79.5363C138.562 79.6171 138.705 79.7604 138.786 79.9392C138.867 80.1181 138.879 80.3202 138.821 80.5076C138.812 80.536 138.806 80.5654 138.804 80.5951C138.798 80.6818 138.82 80.7682 138.867 80.8414C138.914 80.9145 138.984 80.9704 139.065 81.0007C139.147 81.031 139.236 81.034 139.32 81.0094C139.403 80.9848 139.477 80.9338 139.529 80.8641C139.547 80.8391 139.562 80.8119 139.573 80.7832C139.653 80.6041 139.797 80.4608 139.976 80.3801C140.155 80.2995 140.358 80.2873 140.545 80.3457C140.574 80.3546 140.605 80.3605 140.635 80.3632C140.722 80.3688 140.808 80.3462 140.881 80.2989C140.953 80.2516 141.009 80.1821 141.039 80.1007C141.069 80.0193 141.072 79.9304 141.047 79.8472C141.023 79.7641 140.972 79.6911 140.902 79.6391C140.879 79.6174 140.852 79.599 140.823 79.5844Z" fill="#4D8AF0"/>
<path opacity="0.5" d="M17.7189 110.647C17.5379 110.568 17.3922 110.426 17.3094 110.247C17.2266 110.068 17.2125 109.865 17.2698 109.676C17.279 109.647 17.2849 109.617 17.2873 109.586C17.2929 109.5 17.2703 109.413 17.223 109.341C17.1756 109.268 17.106 109.213 17.0245 109.183C16.943 109.153 16.854 109.15 16.7707 109.174C16.6874 109.199 16.6143 109.25 16.5623 109.319C16.5447 109.344 16.53 109.37 16.5185 109.398C16.4399 109.579 16.2973 109.725 16.1179 109.808C15.9385 109.89 15.7349 109.904 15.5459 109.846C15.5167 109.837 15.4866 109.832 15.4561 109.829C15.3694 109.823 15.2832 109.846 15.2104 109.893C15.1376 109.94 15.082 110.01 15.052 110.091C15.0219 110.173 15.019 110.262 15.0437 110.345C15.0684 110.428 15.1193 110.501 15.1888 110.553C15.213 110.572 15.2395 110.587 15.2677 110.599C15.4487 110.678 15.5944 110.82 15.6772 110.999C15.7599 111.178 15.774 111.381 15.7168 111.57C15.7078 111.599 15.7019 111.628 15.6992 111.658C15.6931 111.744 15.7153 111.831 15.7625 111.904C15.8096 111.977 15.8792 112.033 15.9609 112.063C16.0425 112.094 16.1318 112.097 16.2153 112.072C16.2989 112.047 16.3722 111.996 16.4243 111.927C16.4423 111.902 16.457 111.875 16.4681 111.846C16.5486 111.667 16.692 111.523 16.8712 111.443C17.0505 111.362 17.253 111.35 17.4407 111.408C17.4699 111.417 17.5 111.423 17.5305 111.426C17.6172 111.431 17.7033 111.409 17.7761 111.362C17.849 111.314 17.9045 111.245 17.9346 111.163C17.9646 111.082 17.9675 110.993 17.9429 110.91C17.9182 110.827 17.8673 110.754 17.7977 110.702C17.774 110.68 17.7475 110.662 17.7189 110.647Z" fill="#4D8AF0"/>
<path opacity="0.5" d="M5.67103 38.2402C5.49206 38.1594 5.34878 38.0161 5.26811 37.8373C5.18744 37.6585 5.17494 37.4564 5.23294 37.269C5.24213 37.2398 5.24801 37.2097 5.25046 37.1793C5.25605 37.0927 5.23349 37.0066 5.18613 36.9339C5.13877 36.8612 5.06915 36.8057 4.98764 36.7757C4.90613 36.7457 4.8171 36.7428 4.73381 36.7674C4.65051 36.7921 4.57742 36.8429 4.52541 36.9124C4.50787 36.9369 4.49318 36.9633 4.48161 36.9911C4.40301 37.1722 4.2604 37.318 4.08101 37.4007C3.90161 37.4834 3.698 37.4973 3.50903 37.4396C3.47979 37.4306 3.44969 37.4248 3.41922 37.4221C3.33254 37.4165 3.24636 37.439 3.17354 37.4863C3.10072 37.5336 3.04515 37.6031 3.0151 37.6845C2.98506 37.7659 2.98216 37.8549 3.00682 37.938C3.03149 38.0212 3.08241 38.0942 3.15198 38.1461C3.17618 38.1648 3.20269 38.1802 3.23084 38.1921C3.41182 38.271 3.55751 38.4134 3.64029 38.5924C3.72306 38.7715 3.73715 38.9746 3.67989 39.1633C3.67091 39.1918 3.66503 39.2211 3.66237 39.2508C3.65624 39.3376 3.67842 39.424 3.72559 39.4971C3.77276 39.5703 3.84238 39.6261 3.92402 39.6564C4.00567 39.6867 4.09494 39.6898 4.17848 39.6652C4.26201 39.6406 4.33532 39.5896 4.38741 39.5199C4.40541 39.4949 4.42014 39.4677 4.43122 39.439C4.51175 39.2599 4.65518 39.1165 4.83438 39.0359C5.01359 38.9553 5.21615 38.943 5.40379 39.0015C5.43304 39.0104 5.46314 39.0163 5.4936 39.019C5.58029 39.0245 5.66647 39.002 5.73929 38.9547C5.81211 38.9074 5.86768 38.8379 5.89772 38.7565C5.92776 38.6751 5.93067 38.5862 5.906 38.503C5.88134 38.4198 5.83042 38.3468 5.76084 38.2949C5.73379 38.2723 5.70352 38.2539 5.67103 38.2402Z" fill="#4D8AF0"/>
<path opacity="0.5" d="M138.633 1.48985C138.454 1.40905 138.311 1.26577 138.23 1.08693C138.15 0.908088 138.137 0.705988 138.195 0.518587C138.204 0.489443 138.21 0.459356 138.213 0.428898C138.218 0.342327 138.196 0.256269 138.148 0.183546C138.101 0.110823 138.031 0.0553263 137.95 0.0253248C137.868 -0.00467667 137.779 -0.00757711 137.696 0.0170552C137.613 0.0416875 137.539 0.092534 137.487 0.16202C137.47 0.18653 137.455 0.21295 137.444 0.240771C137.363 0.41982 137.22 0.563203 137.041 0.643816C136.861 0.72443 136.659 0.736689 136.471 0.678275C136.442 0.669327 136.412 0.663461 136.381 0.660775C136.287 0.640994 136.188 0.655694 136.104 0.702201C136.02 0.748708 135.955 0.823939 135.921 0.914226C135.887 1.00451 135.887 1.10387 135.921 1.19424C135.954 1.28461 136.019 1.36 136.103 1.40672C136.127 1.42536 136.154 1.4408 136.182 1.45266C136.361 1.53346 136.504 1.67673 136.585 1.85557C136.666 2.03442 136.678 2.23652 136.62 2.42392C136.611 2.45237 136.605 2.48171 136.603 2.51142C136.593 2.6015 136.615 2.69206 136.663 2.76847C136.712 2.84489 136.785 2.90269 136.871 2.93253C136.956 2.96238 137.049 2.96252 137.135 2.93295C137.221 2.90338 137.294 2.84581 137.343 2.76955C137.361 2.74454 137.376 2.71734 137.387 2.68861C137.467 2.50956 137.611 2.36618 137.79 2.28556C137.969 2.20495 138.172 2.19269 138.359 2.2511C138.389 2.26005 138.419 2.26592 138.449 2.2686C138.536 2.27419 138.622 2.25165 138.695 2.20435C138.768 2.15706 138.823 2.08753 138.853 2.00614C138.883 1.92474 138.886 1.83583 138.861 1.75265C138.837 1.66947 138.786 1.59647 138.716 1.54453C138.691 1.52249 138.663 1.50407 138.633 1.48985Z" fill="#4D8AF0"/>
<g opacity="0.5">
<path opacity="0.5" d="M24.7524 56.4052H24.0952V60.1239H24.7524V56.4052Z" fill="#47E6B1"/>
<path opacity="0.5" d="M26.2859 58.5927V57.9364H22.5621V58.5927H26.2859Z" fill="#47E6B1"/>
</g>
<g opacity="0.5">
<path opacity="0.5" d="M182.466 38.9049H181.809V42.6237H182.466V38.9049Z" fill="#47E6B1"/>
<path opacity="0.5" d="M184 41.0924V40.4362H180.276V41.0924H184Z" fill="#47E6B1"/>
</g>
<g opacity="0.5">
<path opacity="0.5" d="M160.562 99.9368H159.905V103.656H160.562V99.9368Z" fill="#47E6B1"/>
<path opacity="0.5" d="M162.095 102.124V101.468H158.371V102.124H162.095Z" fill="#47E6B1"/>
</g>
<path opacity="0.5" d="M158.371 19.2173C159.097 19.2173 159.686 18.6297 159.686 17.9048C159.686 17.1799 159.097 16.5923 158.371 16.5923C157.646 16.5923 157.057 17.1799 157.057 17.9048C157.057 18.6297 157.646 19.2173 158.371 19.2173Z" fill="#F55F44"/>
<path opacity="0.5" d="M1.31429 4.12332C2.04015 4.12332 2.62857 3.53568 2.62857 2.8108C2.62857 2.08592 2.04015 1.49829 1.31429 1.49829C0.588426 1.49829 0 2.08592 0 2.8108C0 3.53568 0.588426 4.12332 1.31429 4.12332Z" fill="#F55F44"/>
<path opacity="0.5" d="M40.743 79.5929C41.4689 79.5929 42.0573 79.0053 42.0573 78.2804C42.0573 77.5555 41.4689 76.9679 40.743 76.9679C40.0171 76.9679 39.4287 77.5555 39.4287 78.2804C39.4287 79.0053 40.0171 79.5929 40.743 79.5929Z" fill="#F55F44"/>
<path opacity="0.05" d="M51.2572 35.3129C55.3704 35.3129 58.7048 34.6273 58.7048 33.7816C58.7048 32.9359 55.3704 32.2504 51.2572 32.2504C47.144 32.2504 43.8096 32.9359 43.8096 33.7816C43.8096 34.6273 47.144 35.3129 51.2572 35.3129Z" fill="black"/>
<path opacity="0.05" d="M51.2572 46.9069C55.3704 46.9069 58.7048 46.2213 58.7048 45.3756C58.7048 44.5299 55.3704 43.8444 51.2572 43.8444C47.144 43.8444 43.8096 44.5299 43.8096 45.3756C43.8096 46.2213 47.144 46.9069 51.2572 46.9069Z" fill="black"/>
<path opacity="0.05" d="M136.028 35.3129C140.142 35.3129 143.476 34.6273 143.476 33.7816C143.476 32.9359 140.142 32.2504 136.028 32.2504C131.915 32.2504 128.581 32.9359 128.581 33.7816C128.581 34.6273 131.915 35.3129 136.028 35.3129Z" fill="black"/>
<path opacity="0.05" d="M136.028 46.9069C140.142 46.9069 143.476 46.2213 143.476 45.3756C143.476 44.5299 140.142 43.8444 136.028 43.8444C131.915 43.8444 128.581 44.5299 128.581 45.3756C128.581 46.2213 131.915 46.9069 136.028 46.9069Z" fill="black"/>
<path opacity="0.05" d="M94.6285 28.7505C98.7417 28.7505 102.076 28.065 102.076 27.2193C102.076 26.3736 98.7417 25.688 94.6285 25.688C90.5153 25.688 87.1809 26.3736 87.1809 27.2193C87.1809 28.065 90.5153 28.7505 94.6285 28.7505Z" fill="black"/>
<path opacity="0.05" d="M100.105 12.7815C104.218 12.7815 107.552 12.096 107.552 11.2503C107.552 10.4046 104.218 9.71899 100.105 9.71899C95.9914 9.71899 92.657 10.4046 92.657 11.2503C92.657 12.096 95.9914 12.7815 100.105 12.7815Z" fill="black"/>
<path opacity="0.05" d="M85.8668 19.3441C89.98 19.3441 93.3144 18.6586 93.3144 17.8129C93.3144 16.9672 89.98 16.2816 85.8668 16.2816C81.7536 16.2816 78.4192 16.9672 78.4192 17.8129C78.4192 18.6586 81.7536 19.3441 85.8668 19.3441Z" fill="black"/>
<path opacity="0.05" d="M113.248 22.1878C117.361 22.1878 120.695 21.5022 120.695 20.6565C120.695 19.8108 117.361 19.1252 113.248 19.1252C109.134 19.1252 105.8 19.8108 105.8 20.6565C105.8 21.5022 109.134 22.1878 113.248 22.1878Z" fill="black"/>
<path opacity="0.05" d="M94.6285 51.5006C98.7417 51.5006 102.076 50.8151 102.076 49.9694C102.076 49.1237 98.7417 48.4381 94.6285 48.4381C90.5153 48.4381 87.1809 49.1237 87.1809 49.9694C87.1809 50.8151 90.5153 51.5006 94.6285 51.5006Z" fill="black"/>
</g>
<defs>
<linearGradient id="paint0_linear" x1="94.6286" y1="53.7648" x2="94.6286" y2="4.12341" gradientUnits="userSpaceOnUse">
<stop stop-color="#808080" stop-opacity="0.25"/>
<stop offset="0.54" stop-color="#808080" stop-opacity="0.12"/>
<stop offset="1" stop-color="#808080" stop-opacity="0.1"/>
</linearGradient>
<linearGradient id="paint1_linear" x1="-10316.8" y1="75306.7" x2="-8006.78" y2="68439.4" gradientUnits="userSpaceOnUse">
<stop stop-color="#808080" stop-opacity="0.25"/>
<stop offset="0.54" stop-color="#808080" stop-opacity="0.12"/>
<stop offset="1" stop-color="#808080" stop-opacity="0.1"/>
</linearGradient>
<linearGradient id="paint2_linear" x1="-8972.15" y1="60141.6" x2="-6662.09" y2="53274.4" gradientUnits="userSpaceOnUse">
<stop stop-color="#808080" stop-opacity="0.25"/>
<stop offset="0.54" stop-color="#808080" stop-opacity="0.12"/>
<stop offset="1" stop-color="#808080" stop-opacity="0.1"/>
</linearGradient>
<linearGradient id="paint3_linear" x1="56083.9" y1="8763.38" x2="56083.9" y2="3520.06" gradientUnits="userSpaceOnUse">
<stop stop-color="#808080" stop-opacity="0.25"/>
<stop offset="0.54" stop-color="#808080" stop-opacity="0.12"/>
<stop offset="1" stop-color="#808080" stop-opacity="0.1"/>
</linearGradient>
<clipPath id="clip0">
<rect width="184" height="159" fill="white"/>
</clipPath>
</defs>
</svg>
