<svg width="509" height="375" viewBox="0 0 509 375" fill="none" xmlns="http://www.w3.org/2000/svg">
<g clip-path="url(#clip0)">
<path opacity="0.1" d="M5.47852 179.789C13.5159 210.814 30.5162 237.633 57.3817 250.633C113.232 277.651 239.189 263.717 333.195 247.721C381.822 239.449 424.563 216.618 455.611 184.489L5.47852 179.789Z" fill="#3ABDFF"/>
<path opacity="0.1" d="M498.441 33.7514H446.861C444.414 33.7514 442.405 31.9397 442.405 29.726C442.405 27.5123 444.414 25.696 446.861 25.696H455.783C453.33 25.696 451.327 23.8843 451.327 21.666C451.327 19.4476 453.33 17.6406 455.783 17.6406H449.416C446.963 17.6406 444.955 15.8289 444.955 13.6105C444.955 11.3922 446.963 9.58514 449.416 9.58514H476.337C470.363 7.07562 463.38 5.29168 455.334 4.3535C381.923 -4.16408 355.715 1.46963 346.47 7.26048C334.946 14.5683 322.146 19.6391 308.74 22.2067C263.449 30.6503 178.748 40.8086 101.979 18.9716C63.8227 8.09698 35.4627 26.4493 18.467 57.1274H507.399C506.76 48.2123 504.849 39.9767 501.342 32.7716C500.511 33.4122 499.49 33.7571 498.441 33.7514V33.7514Z" fill="#3ABDFF"/>
<path opacity="0.1" d="M1.10588 115.031C-0.875275 133.075 -0.201823 151.311 3.10482 169.159L455.959 184.129C468.424 171.215 479.016 156.62 487.423 140.769L1.10588 115.031ZM180.215 153.645H171.298C173.751 153.645 175.759 155.461 175.759 157.675C175.759 159.888 173.751 161.7 171.298 161.7H119.719C117.271 161.7 115.263 159.888 115.263 157.675C115.263 155.461 117.271 153.645 119.719 153.645H128.64C126.188 153.645 124.184 151.833 124.184 149.619C124.184 147.405 126.188 145.589 128.64 145.589H122.269C119.816 145.589 117.808 143.778 117.808 141.564C117.808 139.35 119.816 137.534 122.269 137.534H173.848C176.3 137.534 178.304 139.345 178.304 141.564C178.304 143.782 176.3 145.589 173.848 145.589H180.215C182.667 145.589 184.671 147.401 184.671 149.619C184.671 151.838 182.667 153.645 180.215 153.645Z" fill="#3ABDFF"/>
<path opacity="0.1" d="M507.417 57.4048L13.0116 68.2655C6.99628 82.2366 3.00765 98.0331 1.17065 114.403H498.755C501.994 104.826 504.396 94.9865 505.937 84.9956C507.422 75.3781 508.014 66.0749 507.417 57.4048ZM101.553 93.0141H92.6363C95.0887 93.0141 97.0969 94.8304 97.0969 97.0441C97.0969 99.2579 95.0887 101.074 92.6363 101.074H41.057C38.6092 101.074 36.601 99.2579 36.601 97.0441C36.601 94.8304 38.6092 93.0141 41.057 93.0141H49.9782C47.5258 93.0141 45.5223 91.2024 45.5223 88.9887C45.5223 86.775 47.5258 84.9587 49.9782 84.9587H43.6066C41.1542 84.9587 39.146 83.147 39.146 80.9333C39.146 78.7195 41.1542 76.9033 43.6066 76.9033H95.1859C97.6383 76.9033 99.6418 78.7149 99.6418 80.9333C99.6418 83.1516 97.6383 84.9587 95.1859 84.9587H101.553C104.005 84.9587 106.009 86.775 106.009 88.9887C106.009 91.2024 104.005 93.0141 101.553 93.0141Z" fill="#3ABDFF"/>
<path opacity="0.1" d="M252.219 360.983C366.446 360.983 459.045 352.474 459.045 341.979C459.045 331.483 366.446 322.975 252.219 322.975C137.992 322.975 45.3928 331.483 45.3928 341.979C45.3928 352.474 137.992 360.983 252.219 360.983Z" fill="#3ABDFF"/>
<g opacity="0.1">
<path opacity="0.1" d="M390.873 131.327C390.968 131.146 391.051 130.959 391.122 130.768C391.645 129.317 391.414 127.722 391.419 126.179C391.418 125.664 391.466 125.15 391.562 124.644C391.135 125.557 390.927 126.558 390.956 127.565C390.951 128.808 391.099 130.112 390.873 131.327Z" fill="black"/>
<path opacity="0.1" d="M447.916 201.127C445.996 202.555 443.15 202.18 441.212 200.771C439.273 199.361 438.093 197.148 437.274 194.897C436.251 192.17 435.492 189.092 433.16 187.341C432.323 186.712 431.309 186.301 430.49 185.672C428.64 184.258 427.714 181.924 427.048 179.687C426.192 176.868 425.516 173.97 424.271 171.308C423.027 168.646 421.074 166.169 418.381 164.954C415.864 163.821 412.958 163.895 410.353 162.976C405.864 161.395 402.547 157.628 398.091 155.854C396.664 155.253 395.312 154.49 394.061 153.58C391.867 152.069 391.284 151.214 390.96 148.547C390.498 144.545 386.426 141.055 387.06 137.284C386.956 137.488 386.865 137.698 386.787 137.913C385.398 141.98 390.026 145.663 390.488 149.929C390.789 152.595 391.414 153.45 393.589 154.962C394.84 155.872 396.192 156.635 397.619 157.236C402.075 159.01 405.393 162.781 409.881 164.357C412.486 165.282 415.392 165.203 417.909 166.335C420.602 167.551 422.536 170.033 423.799 172.69C425.063 175.348 425.738 178.236 426.576 181.069C427.256 183.306 428.149 185.64 430.018 187.054C430.856 187.683 431.869 188.094 432.688 188.722C435.002 190.474 435.779 193.552 436.802 196.279C437.644 198.52 438.824 200.739 440.763 202.144C442.702 203.548 445.547 203.927 447.468 202.499C448.694 201.575 449.318 200.165 449.73 198.654C449.364 199.629 448.737 200.484 447.916 201.127Z" fill="black"/>
<path opacity="0.1" d="M457.425 187.267C457.248 187.598 457.171 187.974 457.203 188.348C458.249 187.318 460.609 187.923 461.432 186.597C461.624 186.269 461.699 185.886 461.645 185.51C460.572 186.527 458.212 185.922 457.425 187.267Z" fill="black"/>
<path opacity="0.1" d="M450.628 195.17C450.54 195.632 450.452 196.126 450.341 196.607C453.173 197.49 456.444 195.22 456.907 192.355C455.783 194.559 453.006 196.034 450.628 195.17Z" fill="black"/>
</g>
<path opacity="0.1" d="M389.336 208.406C389.304 208.568 388.744 211.026 387.893 214.821C388.226 211.581 388.688 209.256 389.336 208.406Z" fill="black"/>
<path d="M375.89 198.654C378.19 198.654 380.054 197.392 380.054 195.835C380.054 194.278 378.19 193.016 375.89 193.016C373.59 193.016 371.725 194.278 371.725 195.835C371.725 197.392 373.59 198.654 375.89 198.654Z" fill="#575A89"/>
<path d="M240.146 352.761C318.984 352.761 382.895 288.928 382.895 210.185C382.895 131.443 318.984 67.6091 240.146 67.6091C161.309 67.6091 97.3977 131.443 97.3977 210.185C97.3977 288.928 161.309 352.761 240.146 352.761Z" fill="#3DA5D9"/>
<path d="M315.047 281.833C315.047 304.341 279.621 283.756 241.641 283.756C203.661 283.756 165.246 303.49 165.246 280.983C165.246 268.149 177.49 250.3 195.054 237.337C208.288 227.567 224.539 220.57 240.864 220.57C257.651 220.57 274.096 228.144 287.214 238.543C303.77 251.654 315.047 269.272 315.047 281.833Z" fill="#1E5570"/>
<path d="M287.21 238.534C267.021 235.497 230.508 231.796 195.054 237.328C208.288 227.558 224.539 220.561 240.864 220.561C257.646 220.561 274.091 228.135 287.21 238.534Z" fill="#F6F8FB"/>
<path opacity="0.05" d="M165.246 109.541C165.246 109.541 122.246 136.998 122.597 179.946C122.949 222.894 165.246 109.541 165.246 109.541Z" fill="black"/>
<path d="M382.84 31.9952C382.84 31.9952 343.879 29.6521 348.474 56.9194C348.474 56.9194 347.548 61.7351 351.935 63.9257C351.935 63.9257 352.004 61.9061 355.928 62.5901C357.326 62.8238 358.747 62.892 360.162 62.7935C362.073 62.6637 363.89 61.9139 365.335 60.6583C365.335 60.6583 376.288 56.143 380.549 38.2621C380.549 38.2621 383.7 34.3615 383.575 33.3632L377 36.1639C377 36.1639 379.244 40.901 377.463 44.8386C377.463 44.8386 377.25 36.3395 375.987 36.5198C375.732 36.5613 372.572 38.1604 372.572 38.1604C372.572 38.1604 376.436 46.4146 373.497 52.4088C373.497 52.4088 374.603 42.2413 371.341 38.7566L366.714 41.4556C366.714 41.4556 371.23 49.9778 368.167 56.9333C368.167 56.9333 368.954 46.2667 365.742 42.1119L361.545 45.3793C361.545 45.3793 365.789 53.7814 363.202 59.5491C363.202 59.5491 362.864 47.1309 360.638 46.1927C360.638 46.1927 356.969 49.4278 356.409 50.7542C356.409 50.7542 359.315 56.8501 357.515 60.0667C357.515 60.0667 356.409 51.7941 355.502 51.7479C355.502 51.7479 351.847 57.2291 351.463 60.991C351.463 60.991 351.625 55.3989 354.614 51.2256C354.614 51.2256 351.079 51.8311 349.02 54.1234C349.02 54.1234 349.589 50.2459 355.498 49.9085C355.498 49.9085 358.519 45.7491 359.329 45.4995C359.329 45.4995 353.429 45.005 349.852 46.5902C349.852 46.5902 352.999 42.9345 360.407 44.5937L364.572 41.2199C364.572 41.2199 356.807 40.1569 353.513 41.3308C353.513 41.3308 357.302 38.0957 365.687 40.4527L370.198 37.7583C370.198 37.7583 363.577 36.3349 359.63 36.834C359.63 36.834 363.794 34.5926 371.517 37.0235L374.756 35.577C374.756 35.577 369.902 34.6249 368.482 34.477C367.061 34.3291 366.987 33.9317 366.987 33.9317C370.069 33.4311 373.231 33.7976 376.116 34.99C376.116 34.99 382.955 32.425 382.84 31.9952Z" fill="#3DA5D9"/>
<path d="M342.879 19.8729C342.879 19.8729 325.296 18.8099 327.351 31.1311C327.351 31.1311 326.939 33.3078 328.915 34.2968C328.915 34.2968 328.942 33.3725 330.719 33.696C331.351 33.7998 331.992 33.8308 332.63 33.7885C333.494 33.7269 334.316 33.3881 334.972 32.8225C334.972 32.8225 339.918 30.7798 341.843 22.7013C341.843 22.7013 343.268 20.9405 343.231 20.4875L340.26 21.7539C340.26 21.7539 341.278 23.8936 340.478 25.673C340.478 25.673 340.381 21.8324 339.812 21.9249C339.696 21.9249 338.266 22.6643 338.266 22.6643C338.266 22.6643 340.015 26.3939 338.696 29.1022C338.696 29.1022 339.196 24.5083 337.725 22.9324L335.633 24.1525C335.633 24.1525 337.674 28.0069 336.29 31.1495C336.29 31.1495 336.642 26.3292 335.194 24.4529L333.296 25.9271C333.296 25.9271 335.212 29.7215 334.046 32.328C334.046 32.328 333.893 26.7174 332.885 26.2923C332.885 26.2923 331.228 27.7527 330.974 28.3535C330.974 28.3535 332.288 31.1264 331.473 32.5637C331.473 32.5637 330.974 28.8249 330.548 28.811C330.548 28.811 328.896 31.2836 328.725 32.9704C328.804 31.4006 329.294 29.8789 330.145 28.5568C329.193 28.7367 328.315 29.1915 327.619 29.8647C327.619 29.8647 327.873 28.1132 330.553 27.9606C330.553 27.9606 331.918 26.0843 332.283 25.9687C332.283 25.9687 329.618 25.7469 328.003 26.4633C328.003 26.4633 329.424 24.8087 332.774 25.5389L334.624 24.0184C334.624 24.0184 331.117 23.5563 329.627 24.0646C329.627 24.0646 331.339 22.6042 335.129 23.6718L337.165 22.4517C337.165 22.4517 334.176 21.8093 332.39 22.0404C332.39 22.0404 334.273 21.0283 337.762 22.1282L339.219 21.4719C339.219 21.4719 337.026 21.0421 336.387 20.9774C335.749 20.9127 335.707 20.7325 335.707 20.7325C337.096 20.5017 338.522 20.6617 339.825 21.1946C339.825 21.1946 342.93 20.067 342.879 19.8729Z" fill="#3DA5D9"/>
<path opacity="0.1" d="M496.539 337.38C503.421 337.38 509 336.439 509 335.278C509 334.116 503.421 333.175 496.539 333.175C489.657 333.175 484.078 334.116 484.078 335.278C484.078 336.439 489.657 337.38 496.539 337.38Z" fill="#6C63FF"/>
<path opacity="0.1" d="M21.6414 372.361C28.5235 372.361 34.1025 371.42 34.1025 370.258C34.1025 369.097 28.5235 368.155 21.6414 368.155C14.7594 368.155 9.18042 369.097 9.18042 370.258C9.18042 371.42 14.7594 372.361 21.6414 372.361Z" fill="#6C63FF"/>
<path opacity="0.1" d="M93.9781 375C100.86 375 106.439 374.059 106.439 372.897C106.439 371.736 100.86 370.794 93.9781 370.794C87.0961 370.794 81.5171 371.736 81.5171 372.897C81.5171 374.059 87.0961 375 93.9781 375Z" fill="#6C63FF"/>
<path d="M469.266 360.955C479.542 360.955 487.872 359.548 487.872 357.812C487.872 356.077 479.542 354.67 469.266 354.67C458.991 354.67 450.66 356.077 450.66 357.812C450.66 359.548 458.991 360.955 469.266 360.955Z" fill="#3DA5D9"/>
<path d="M476.957 352.678C477.806 351.985 478.425 351.053 478.733 350.002C478.96 348.944 478.507 347.668 477.493 347.28C476.355 346.845 475.138 347.636 474.217 348.431C473.296 349.225 472.237 350.131 471.029 349.965C471.65 349.403 472.115 348.69 472.378 347.896C472.64 347.101 472.692 346.252 472.528 345.431C472.476 345.091 472.332 344.772 472.112 344.507C471.478 343.832 470.335 344.119 469.576 344.65C467.17 346.342 466.499 349.604 466.485 352.544C466.245 351.485 466.448 350.381 466.444 349.309C466.439 348.236 466.138 346.998 465.222 346.429C464.653 346.126 464.015 345.976 463.371 345.995C462.288 345.953 461.085 346.06 460.345 346.85C459.42 347.834 459.665 349.48 460.465 350.547C461.266 351.615 462.478 352.308 463.593 353.052C464.491 353.585 465.256 354.313 465.833 355.183C465.9 355.305 465.956 355.433 465.999 355.566H472.778C474.295 354.796 475.701 353.824 476.957 352.678Z" fill="#3DA5D9"/>
<path d="M423.399 303C423.399 303 425.939 306.318 422.223 311.319C418.508 316.319 415.445 320.562 416.671 323.686C416.671 323.686 422.274 314.378 426.851 314.244C431.427 314.11 428.415 308.597 423.399 303Z" fill="#FC6681"/>
<path opacity="0.1" d="M423.399 303C423.619 303.321 423.794 303.671 423.917 304.04C428.368 309.262 430.737 314.138 426.462 314.258C422.473 314.374 417.67 321.491 416.546 323.289C416.585 323.428 416.632 323.565 416.685 323.7C416.685 323.7 422.288 314.392 426.865 314.258C431.441 314.124 428.415 308.597 423.399 303Z" fill="black"/>
<path d="M428.123 307.229C428.123 308.398 427.989 309.345 427.827 309.345C427.665 309.345 427.536 308.421 427.536 307.229C427.536 306.036 427.698 306.609 427.864 306.609C428.031 306.609 428.123 306.06 428.123 307.229Z" fill="#FFD037"/>
<path d="M429.724 308.624C428.697 309.184 427.804 309.521 427.725 309.378C427.647 309.234 428.419 308.671 429.447 308.111C430.474 307.552 430.067 307.959 430.145 308.111C430.224 308.264 430.77 308.065 429.724 308.624Z" fill="#FFD037"/>
<path d="M409.971 303C409.971 303 407.431 306.318 411.142 311.319C414.853 316.319 417.92 320.562 416.694 323.686C416.694 323.686 411.086 314.378 406.514 314.244C401.943 314.11 404.95 308.597 409.971 303Z" fill="#FC6681"/>
<path opacity="0.1" d="M409.971 303C409.748 303.32 409.574 303.67 409.452 304.04C405.001 309.262 402.627 314.138 406.908 314.258C410.892 314.374 415.699 321.491 416.819 323.289C416.781 323.428 416.736 323.565 416.685 323.7C416.685 323.7 411.077 314.392 406.505 314.258C401.933 314.124 404.95 308.597 409.971 303Z" fill="black"/>
<path d="M405.246 307.229C405.246 308.398 405.376 309.345 405.538 309.345C405.7 309.345 405.829 308.421 405.829 307.229C405.829 306.036 405.667 306.609 405.505 306.609C405.344 306.609 405.246 306.06 405.246 307.229Z" fill="#FFD037"/>
<path d="M403.622 308.624C404.65 309.184 405.547 309.521 405.626 309.378C405.705 309.234 404.932 308.671 403.905 308.111C402.877 307.552 403.28 307.959 403.206 308.111C403.132 308.264 402.595 308.065 403.622 308.624Z" fill="#FFD037"/>
<path d="M406.056 323.266C406.056 323.266 413.164 323.048 415.311 321.523C417.458 319.998 426.245 318.182 426.777 320.599C427.309 323.016 437.456 332.754 429.433 332.819C421.409 332.883 410.79 331.566 408.652 330.267C406.514 328.969 406.056 323.266 406.056 323.266Z" fill="#A8A8A8"/>
<path opacity="0.2" d="M429.567 331.991C421.543 332.056 410.924 330.739 408.786 329.44C407.157 328.451 406.51 324.897 406.292 323.256H406.056C406.056 323.256 406.519 328.982 408.643 330.281C410.767 331.58 421.4 332.897 429.423 332.832C431.737 332.832 432.538 331.987 432.496 330.771C432.172 331.515 431.293 331.977 429.567 331.991Z" fill="black"/>
<path d="M189.396 191.491C192.112 191.338 204.897 190.377 213.017 185.751C214.322 184.984 215.795 184.551 217.307 184.489C219.889 184.415 222.859 185.492 220.958 191.519C217.876 201.376 199.983 212.468 188.877 211.853C178.198 211.262 165.529 206.964 157.163 191.851C156.361 190.397 155.966 188.755 156.02 187.096C156.117 184.045 157.227 180.223 162.96 184.484C170.706 190.238 185.402 191.329 188.35 191.491C188.698 191.509 189.047 191.509 189.396 191.491Z" fill="#1E5570"/>
<path d="M292.119 191.491C294.835 191.338 307.62 190.377 315.741 185.751C317.045 184.984 318.518 184.551 320.03 184.489C322.612 184.415 325.583 185.492 323.681 191.519C320.599 201.376 302.706 212.468 291.601 211.853C280.921 211.262 268.252 206.964 259.886 191.851C259.084 190.397 258.69 188.755 258.743 187.096C258.84 184.045 259.951 180.223 265.684 184.484C273.43 190.238 288.126 191.329 291.073 191.491C291.422 191.509 291.771 191.509 292.119 191.491Z" fill="#1E5570"/>
<path d="M30.0408 252.203C30.0408 252.203 44.8383 281.251 32.7806 297.142C20.723 313.034 33.8751 356.333 33.8751 356.333" stroke="#FC6681" stroke-width="2" stroke-miterlimit="10"/>
<path d="M34.4225 243.139C34.4225 248.734 30.3262 253.281 30.3262 253.281C30.3262 253.281 26.2029 248.734 26.2029 243.139C26.2029 237.543 30.3262 233 30.3262 233C30.3262 233 34.4225 237.559 34.4225 243.139Z" fill="#FC6681"/>
<path d="M37.7133 252.203C37.7133 252.203 22.9157 281.251 34.9734 297.142C47.0311 313.034 33.879 356.333 33.879 356.333" stroke="#FFD037" stroke-width="2" stroke-miterlimit="10"/>
<path d="M33.3279 243.139C33.3279 248.738 37.4396 253.277 37.4396 253.277C37.4396 253.277 41.5513 248.738 41.5513 243.139C41.5513 237.539 37.4396 233 37.4396 233C37.4396 233 33.3279 237.559 33.3279 243.139Z" fill="#FFD037"/>
<path d="M43.7403 252.203C43.7403 252.203 58.5378 281.251 46.4801 297.142C34.4224 313.034 47.5745 356.333 47.5745 356.333" stroke="#FC6681" stroke-width="2" stroke-miterlimit="10"/>
<path d="M48.1256 243.139C48.1256 248.738 44.0139 253.277 44.0139 253.277C44.0139 253.277 39.906 248.734 39.906 243.139C39.906 237.543 44.0177 233 44.0177 233C44.0177 233 48.1256 237.559 48.1256 243.139Z" fill="#FC6681"/>
<path d="M45.821 266.414C41.9405 270.449 35.8289 270.873 35.8289 270.873C35.8289 270.873 36.0138 264.753 39.8943 260.715C43.7748 256.676 49.8865 256.256 49.8865 256.256C49.8865 256.256 49.7015 262.379 45.821 266.414Z" fill="#FC6681"/>
<path d="M46.2065 286.453C42.326 290.487 36.2144 290.911 36.2144 290.911C36.2144 290.911 36.3993 284.792 40.2798 280.753C44.1603 276.715 50.272 276.295 50.272 276.295C50.272 276.295 50.087 282.418 46.2065 286.453Z" fill="#FC6681"/>
<path d="M25.1545 297.477C28.8269 301.716 28.6959 307.828 28.6959 307.828C28.6959 307.828 22.615 307.095 18.9465 302.868C15.2779 298.641 15.4051 292.517 15.4051 292.517C15.4051 292.517 21.4821 293.25 25.1545 297.477Z" fill="#FC6681"/>
<path d="M28.5611 254.742C33.2277 257.824 34.7267 263.77 34.7267 263.77C34.7267 263.77 28.6728 264.687 24.0062 261.597C19.3396 258.506 17.8406 252.568 17.8406 252.568C17.8406 252.568 23.8906 251.651 28.5611 254.742Z" fill="#FC6681"/>
<path d="M51.4125 252.203C51.4125 252.203 36.6149 281.251 48.6726 297.142C60.7303 313.034 47.5782 356.333 47.5782 356.333" stroke="#FFD037" stroke-width="2" stroke-miterlimit="10"/>
<path d="M47.031 243.139C47.031 248.734 51.135 253.281 51.135 253.281C51.135 253.281 55.2467 248.742 55.2467 243.142C55.2467 237.543 51.135 233 51.135 233C51.135 233 47.031 237.559 47.031 243.139Z" fill="#FFD037"/>
<path d="M48.2103 266.846C44.2797 270.834 44.0215 276.954 44.0215 276.954C44.0215 276.954 50.137 276.607 54.0676 272.618C57.9982 268.63 58.2564 262.51 58.2564 262.51C58.2564 262.51 52.1409 262.857 48.2103 266.846Z" fill="#FFD037"/>
<path d="M55.9173 294.591C51.9867 298.579 51.7285 304.699 51.7285 304.699C51.7285 304.699 57.8441 304.352 61.7747 300.364C65.7052 296.375 65.9634 290.256 65.9634 290.256C65.9634 290.256 59.8479 290.603 55.9173 294.591Z" fill="#FFD037"/>
<path d="M44.584 288.491C44.584 288.491 53.4933 274.449 65.9942 274.148" stroke="#FFD037" stroke-width="2" stroke-miterlimit="10"/>
<path d="M37.6477 280.013C37.6477 280.013 28.7345 265.975 16.2336 265.69" stroke="#FC6681" stroke-width="2" stroke-miterlimit="10"/>
<path d="M36.4917 300.052C36.4917 300.052 45.4011 286.009 57.9019 285.709" stroke="#FFD037" stroke-width="2" stroke-miterlimit="10"/>
<path d="M65.5819 276.352C66.8588 276.352 67.894 275.317 67.894 274.04C67.894 272.763 66.8588 271.728 65.5819 271.728C64.3049 271.728 63.2698 272.763 63.2698 274.04C63.2698 275.317 64.3049 276.352 65.5819 276.352Z" fill="#FFD037"/>
<path d="M16.4496 268.067C17.7265 268.067 18.7617 267.032 18.7617 265.755C18.7617 264.478 17.7265 263.443 16.4496 263.443C15.1726 263.443 14.1375 264.478 14.1375 265.755C14.1375 267.032 15.1726 268.067 16.4496 268.067Z" fill="#FC6681"/>
<path d="M43.0427 304.676C43.0427 304.676 34.1295 290.637 21.6287 290.352" stroke="#FC6681" stroke-width="2" stroke-miterlimit="10"/>
<path d="M21.8443 292.73C23.1213 292.73 24.1565 291.695 24.1565 290.418C24.1565 289.141 23.1213 288.106 21.8443 288.106C20.5674 288.106 19.5322 289.141 19.5322 290.418C19.5322 291.695 20.5674 292.73 21.8443 292.73Z" fill="#FC6681"/>
<path d="M58.0675 288.106C59.3444 288.106 60.3796 287.071 60.3796 285.794C60.3796 284.517 59.3444 283.481 58.0675 283.481C56.7905 283.481 55.7554 284.517 55.7554 285.794C55.7554 287.071 56.7905 288.106 58.0675 288.106Z" fill="#FFD037"/>
<path d="M92.2753 339.45C92.2753 339.45 70.8112 335.157 65.0849 329.431C59.3585 323.704 33.6016 313.689 30.7384 320.845C27.8752 328.001 -7.89707 352.328 16.4302 356.633C40.7576 360.937 73.6705 362.355 80.8265 359.496C87.9825 356.637 92.2753 339.45 92.2753 339.45Z" fill="#A8A8A8"/>
<path opacity="0.2" d="M16.4301 353.962C40.7575 358.255 73.6704 359.685 80.8264 356.825C86.2753 354.644 90.0749 344.174 91.5585 339.3L92.2752 339.45C92.2752 339.45 87.9824 356.621 80.8264 359.488C73.6704 362.355 40.7497 360.918 16.4301 356.625C9.40901 355.384 7.40133 352.475 8.15662 348.791C8.74621 351.192 11.2048 353.041 16.4301 353.962Z" fill="black"/>
</g>
<defs>
<clipPath id="clip0">
<rect width="509" height="375" fill="white"/>
</clipPath>
</defs>
</svg>
