<svg width="412" height="283" viewBox="0 0 412 283" fill="none" xmlns="http://www.w3.org/2000/svg">
<g opacity="0.2">
<path d="M384.12 116.94L370.224 106.834C370.052 106.719 369.88 106.489 369.822 106.259C369.765 106.03 369.765 105.8 369.822 105.57L371.43 100.689L384.12 116.94ZM375.679 90.8703L378.838 100.689H371.43L374.588 90.8703C374.646 90.6406 374.876 90.5258 375.105 90.5258C375.45 90.4684 375.622 90.6406 375.679 90.8703ZM378.838 100.689H389.403L384.12 116.94L378.838 100.689ZM398.476 105.628C398.533 105.857 398.533 106.087 398.476 106.317C398.419 106.547 398.246 106.719 398.074 106.891L384.12 116.94L396.811 100.689L398.476 105.628ZM396.811 100.689H389.461L392.619 90.8703C392.676 90.6406 392.906 90.5258 393.136 90.5258C393.423 90.5258 393.595 90.6406 393.653 90.8703L396.811 100.689Z" fill="#FCA326"/>
</g>
<g opacity="0.4">
<path opacity="0.4" d="M331.985 170.358C325.975 160.88 316.589 156.174 307.354 155.188C298.118 154.203 288.842 156.557 279.761 159.097C267.648 162.475 253.428 165.52 244.286 154.32C238.887 147.691 236.734 136.828 238.667 127.36C240.04 120.624 243.293 114.445 243.237 107.461C243.179 100.22 239.406 93.746 234.741 90.0963C230.076 86.4467 224.616 85.1539 219.251 84.2117C207.262 82.1011 194.896 81.4789 183.217 85.5705C172.168 73.6437 156.615 69.6233 143.052 75.2514C137.93 77.3772 132.912 81.0141 129.949 87.0054C126.366 94.2489 126.366 103.547 126.49 112.238C126.624 121.601 126.758 130.965 126.892 140.328C126.996 147.543 127.074 154.962 125.193 161.725C119.197 183.314 97.4021 187.9 86.6479 205.851C82.0999 213.448 79.7764 223.269 79.8678 233.004C79.918 240.001 81.2076 246.933 83.6769 253.48C91.2061 273.133 108.717 283.083 125.19 282.784C141.663 282.484 157.351 273.64 172.12 263.842C183.293 256.431 194.962 248.151 207.384 249.322C220.056 250.516 230.896 261.277 242.361 268.609C261.026 280.546 282.768 283.594 302.869 277.095C311.757 274.22 320.561 269.333 327.067 260.705C337.001 247.537 340.172 227.627 340.208 208.894C340.233 195.238 338.578 180.753 331.985 170.358Z" fill="url(#paint0_linear)"/>
</g>
<path d="M368.08 250.02C368.08 245.912 366.448 241.971 363.543 239.066C360.638 236.16 356.698 234.528 352.59 234.528C348.481 234.528 344.541 236.16 341.637 239.066C338.732 241.971 337.1 245.912 337.1 250.02H368.08Z" fill="#3DA5D9"/>
<path opacity="0.1" d="M350.051 234.731C353.851 235.112 357.376 236.884 359.949 239.706C362.523 242.528 363.963 246.201 363.994 250.02H368.057C368.057 245.912 366.425 241.971 363.52 239.066C360.615 236.16 356.676 234.528 352.567 234.528C351.724 234.526 350.883 234.594 350.051 234.731Z" fill="#162126"/>
<path opacity="0.2" d="M322.847 138.713V149.446H348.908V140.618H357.542V129.89H331.47V138.715L322.847 138.713ZM355.531 138.614H333.476V131.894H355.531V138.614ZM324.853 140.719H346.907V147.439H324.853V140.719Z" fill="#9EBAB7"/>
<path opacity="0.2" d="M58.499 160.555V171.288H84.5605V162.459H93.1943V151.731H67.1227V160.557L58.499 160.555ZM91.1831 160.456H69.1288V153.735H91.1831V160.456ZM60.5051 162.561H82.5594V169.281H60.5051V162.561Z" fill="#9EBAB7"/>
<path d="M76.8159 239.861H72.626V234.782H76.8159C77.8598 234.782 78.8609 234.367 79.5991 233.629C80.3372 232.891 80.7519 231.889 80.7519 230.845C80.7519 229.801 80.3372 228.8 79.5991 228.062C78.8609 227.323 77.8598 226.909 76.8159 226.909H76.6889V221.829H76.8159C79.2068 221.829 81.4997 222.779 83.1903 224.47C84.8809 226.161 85.8306 228.454 85.8306 230.845C85.8306 233.237 84.8809 235.53 83.1903 237.221C81.4997 238.912 79.2068 239.861 76.8159 239.861Z" fill="#F5C924"/>
<path d="M48.6697 214.21H76.7931C76.9461 214.21 77.0977 214.24 77.2391 214.299C77.3805 214.357 77.509 214.443 77.6172 214.551C77.7255 214.66 77.8113 214.788 77.8699 214.93C77.9285 215.071 77.9586 215.223 77.9586 215.376V244.456C77.959 245.187 77.8154 245.91 77.536 246.585C77.2567 247.261 76.8471 247.874 76.3307 248.391C75.8142 248.908 75.2011 249.318 74.5262 249.597C73.8513 249.877 73.128 250.021 72.3974 250.021H53.0729C51.598 250.021 50.1835 249.435 49.1406 248.392C48.0976 247.349 47.5117 245.934 47.5117 244.459V215.373C47.5117 215.22 47.5419 215.069 47.6004 214.927C47.659 214.786 47.7449 214.657 47.8531 214.549C47.9613 214.441 48.0898 214.355 48.2312 214.296C48.3727 214.238 48.5242 214.208 48.6773 214.208L48.6697 214.21Z" fill="#F5C924"/>
<path opacity="0.4" d="M77.9578 239.763V244.334C77.9578 248.459 74.6135 250.28 70.4896 250.28L53.194 250.026C49.9055 250.026 47.6455 248.756 47.6455 244.946C50.7867 245.264 66.7847 250.021 77.9578 239.763Z" fill="#F59B3D"/>
<path opacity="0.2" d="M77.958 215.373C77.9567 215.064 77.833 214.768 77.6141 214.55C77.3952 214.332 77.0989 214.21 76.7899 214.21H48.6665C48.5135 214.21 48.3619 214.24 48.2205 214.299C48.0791 214.357 47.9506 214.443 47.8424 214.551C47.7341 214.66 47.6483 214.788 47.5897 214.93C47.5311 215.071 47.501 215.223 47.501 215.376V217.766H50.9469C50.5679 218.133 50.3482 218.635 50.3349 219.163C50.3349 220.575 52.0134 221.72 54.0855 221.72C56.1576 221.72 57.8362 220.575 57.8362 219.163C57.8229 218.635 57.6031 218.133 57.2242 217.766H77.958V215.373Z" fill="white"/>
<path opacity="0.2" d="M56.7751 224.245C57.6737 223.907 58.2152 223.136 57.9845 222.522C57.7538 221.909 56.8383 221.686 55.9396 222.025C55.041 222.363 54.4995 223.134 54.7302 223.747C54.9609 224.36 55.8764 224.583 56.7751 224.245Z" fill="white"/>
<path opacity="0.5" d="M20.8231 230.797C20.7647 230.708 14.8709 221.735 12.5829 209.051C11.2396 201.6 11.3818 194.344 13.0095 187.484C15.041 178.909 19.4138 170.937 25.9983 163.785L26.1863 163.958C19.6296 171.069 15.2823 179.011 13.2584 187.542C11.6408 194.367 11.4986 201.59 12.8369 209.006C15.1223 221.639 20.9806 230.568 21.039 230.657L20.8231 230.797Z" fill="#9FA1D1"/>
<path opacity="0.5" d="M18.537 230.797C18.4786 230.708 12.5848 221.735 10.2968 209.051C8.95347 201.6 9.09567 194.344 10.7234 187.484C12.7549 178.909 17.1277 170.937 23.7122 163.785L23.9001 163.958C17.3435 171.069 12.9961 179.011 10.9723 187.542C9.35469 194.367 9.21248 201.59 10.5507 209.006C12.8361 221.639 18.6944 230.568 18.7528 230.657L18.537 230.797Z" fill="#9FA1D1"/>
<path opacity="0.5" d="M22.8545 154.779L22.6006 154.721C22.626 154.617 25.1552 144.183 32.8545 133.849C37.3771 127.779 42.7758 122.928 48.8956 119.431C56.5467 115.06 65.3532 112.807 75.0739 112.736V112.99C65.4015 113.061 56.6356 115.304 49.0251 119.649C42.9307 123.126 37.565 127.954 33.0627 133.994C25.3939 144.285 22.8723 154.675 22.8545 154.779Z" fill="#9FA1D1"/>
<path opacity="0.5" d="M25.3936 157.319L25.1396 157.26C25.165 157.156 27.6942 146.723 35.3936 136.388C39.9162 130.318 45.3148 125.467 51.4347 121.97C59.0858 117.599 67.8923 115.347 77.6129 115.275V115.529C67.9405 115.6 59.1747 117.843 51.5642 122.189C45.4697 125.666 40.1041 130.494 35.6018 136.533C27.9329 146.824 25.4114 157.215 25.3936 157.319Z" fill="#9FA1D1"/>
<path d="M25.7696 160.143H21.5771V236.303H25.7696V160.143Z" fill="#ECF3F2"/>
<path d="M29.964 160.143H25.7715V236.303H29.964V160.143Z" fill="#9EBAB7"/>
<path d="M83.8575 117.587L81.1475 113.903L19.8093 159.033L22.5194 162.718L83.8575 117.587Z" fill="#ECF3F2"/>
<path d="M86.2813 121.446L83.583 117.741L21.9033 162.676L24.6016 166.381L86.2813 121.446Z" fill="#9EBAB7"/>
<path d="M25.8963 170.297C30.8021 170.297 34.779 166.319 34.779 161.413C34.779 156.506 30.8021 152.529 25.8963 152.529C20.9906 152.529 17.0137 156.506 17.0137 161.413C17.0137 166.319 20.9906 170.297 25.8963 170.297Z" fill="url(#paint1_linear)"/>
<path opacity="0.2" d="M34.7889 161.413C34.7874 163.247 34.2191 165.035 33.1619 166.533C32.1047 168.03 30.6103 169.164 28.8835 169.78C27.1566 170.395 25.2819 170.461 23.516 169.969C21.7501 169.477 20.1796 168.451 19.0195 167.031C20.7272 168.41 22.8844 169.108 25.0757 168.991C27.2671 168.873 29.3376 167.95 30.8887 166.397C32.4398 164.844 33.3618 162.773 33.4771 160.581C33.5923 158.389 32.8928 156.232 31.5132 154.525C32.5371 155.357 33.3625 156.408 33.9292 157.599C34.4959 158.791 34.7896 160.094 34.7889 161.413Z" fill="#6AB7CC"/>
<path d="M65.9684 103.102L70.7325 95.9005C73.2662 92.0704 77.2173 89.4038 81.7168 88.4875C86.2162 87.5711 90.8954 88.4799 94.7248 91.014L117.281 105.941C118.211 106.556 118.858 107.515 119.08 108.607C119.303 109.7 119.082 110.836 118.467 111.765L99.2344 140.839C98.6194 141.769 97.6603 142.416 96.5681 142.638C95.4759 142.861 94.3401 142.64 93.4105 142.025L70.8541 127.098C67.0246 124.564 64.3585 120.612 63.4422 116.112C62.526 111.612 63.4347 106.932 65.9684 103.102Z" fill="url(#paint2_linear)"/>
<path opacity="0.2" d="M118.471 111.761L99.2354 140.838C98.6199 141.768 97.6606 142.415 96.5683 142.637C95.4759 142.86 94.34 142.639 93.4101 142.024L76.7773 131.017C76.7773 131.017 101.828 141.064 115.139 104.517L117.285 105.937C118.214 106.552 118.861 107.511 119.084 108.603C119.306 109.695 119.086 110.831 118.471 111.761Z" fill="#6AB7CC"/>
<path d="M26.4093 229.449C28.9685 229.449 31.4229 230.466 33.2326 232.275C35.0422 234.085 36.0589 236.54 36.0589 239.1V239.862H16.7598V239.1C16.7598 236.54 17.7764 234.085 19.5861 232.275C21.3957 230.466 23.8501 229.449 26.4093 229.449Z" fill="url(#paint3_linear)"/>
<path opacity="0.2" d="M36.0589 239.1V239.862H33.7734V239.1C33.7733 236.738 32.9074 234.459 31.3396 232.693C29.7719 230.927 27.6112 229.797 25.2666 229.517C25.6458 229.471 26.0274 229.448 26.4093 229.449C28.9685 229.449 31.4229 230.466 33.2326 232.275C35.0422 234.085 36.0589 236.54 36.0589 239.1Z" fill="#6AB7CC"/>
<path opacity="0.25" d="M24.6798 236.645C25.8903 234.964 25.9426 232.932 24.7966 232.107C23.6506 231.281 21.7402 231.975 20.5297 233.656C19.3192 235.337 19.2669 237.369 20.4129 238.195C21.5589 239.02 23.4693 238.327 24.6798 236.645Z" fill="white"/>
<path opacity="0.25" d="M29.7174 235.366C30.2005 234.529 30.1295 233.583 29.5586 233.253C28.9878 232.924 28.1333 233.335 27.6502 234.172C27.1671 235.009 27.2382 235.955 27.809 236.284C28.3798 236.614 29.2343 236.203 29.7174 235.366Z" fill="white"/>
<path opacity="0.25" d="M89.8485 102.67C90.3146 102.204 90.1386 101.272 89.4553 100.588C88.772 99.9049 87.8403 99.7288 87.3742 100.195C86.9081 100.661 87.0842 101.593 87.7674 102.276C88.4507 102.96 89.3824 103.136 89.8485 102.67Z" fill="white"/>
<path d="M10.6652 239.607H42.1533C44.7798 239.607 47.2988 240.651 49.1561 242.509C51.0134 244.366 52.0568 246.886 52.0568 249.513H0.761719C0.761719 246.886 1.80512 244.366 3.66239 242.509C5.51965 240.651 8.03864 239.607 10.6652 239.607Z" fill="url(#paint4_linear)"/>
<g opacity="0.25">
<path opacity="0.25" d="M38.3743 242.401H3.77051C5.61641 240.606 8.09041 239.604 10.6649 239.607H40.4845V239.633C40.5742 239.958 40.5875 240.299 40.5235 240.63C40.4595 240.961 40.3199 241.272 40.1156 241.54C39.9113 241.808 39.6479 242.025 39.3458 242.175C39.0438 242.324 38.7113 242.402 38.3743 242.401Z" fill="white"/>
</g>
<path opacity="0.25" d="M85.1904 92.7405C84.1911 91.698 82.8883 90.9976 81.4677 90.7392L83.2452 88.2451C80.7278 88.5255 78.303 89.3564 76.1425 90.6789C73.9821 92.0013 72.139 93.783 70.7439 95.8974L65.9776 103.103C64.7128 105.006 63.8388 107.142 63.4064 109.386C62.974 111.63 62.9917 113.938 63.4585 116.175L78.1665 95.3946C78.545 96.3871 79.1331 97.2863 79.8907 98.0309C82.0365 100.177 84.9694 100.731 86.427 99.2677C87.8846 97.8048 87.3387 94.8866 85.1904 92.7405Z" fill="white"/>
<path opacity="0.26" d="M202.895 266.079C268.108 266.079 320.975 262.894 320.975 258.965C320.975 255.037 268.108 251.852 202.895 251.852C137.681 251.852 84.8145 255.037 84.8145 258.965C84.8145 262.894 137.681 266.079 202.895 266.079Z" fill="#162126"/>
<path d="M295.963 238.144H113.637V124.764C113.637 124.203 113.86 123.665 114.256 123.268C114.653 122.871 115.191 122.648 115.752 122.648H293.85C294.411 122.648 294.949 122.871 295.346 123.268C295.742 123.665 295.965 124.203 295.965 124.764L295.963 238.144Z" fill="#64585C"/>
<path d="M288.164 131.205H121.691V231.463H288.164V131.205Z" fill="white"/>
<path d="M287.329 230.081H122.225V231.186H287.329V230.081Z" fill="#537D6F"/>
<path d="M287.181 132.3H122.077V133.316H287.181V132.3Z" fill="#537D6F"/>
<path d="M288.342 130.014H121.26V132.046H288.342V130.014Z" fill="#5B4C52"/>
<path d="M286.323 234.145H123.296C122.757 234.145 122.241 233.931 121.86 233.55C121.479 233.168 121.265 232.652 121.265 232.113H288.354C288.354 232.652 288.14 233.168 287.759 233.55C287.378 233.931 286.862 234.145 286.323 234.145Z" fill="#756B6F"/>
<path d="M287.323 132.3V231.097H122.265V132.3H287.323ZM288.339 131.284H121.249V232.113H288.339V131.284Z" fill="#2F3446"/>
<path d="M204.799 128.236C205.5 128.236 206.069 127.668 206.069 126.966C206.069 126.265 205.5 125.696 204.799 125.696C204.098 125.696 203.529 126.265 203.529 126.966C203.529 127.668 204.098 128.236 204.799 128.236Z" fill="#2F3446"/>
<path d="M207.593 127.601C207.943 127.601 208.228 127.317 208.228 126.966C208.228 126.616 207.943 126.332 207.593 126.332C207.242 126.332 206.958 126.616 206.958 126.966C206.958 127.317 207.242 127.601 207.593 127.601Z" fill="#BD6965"/>
<path d="M204.799 127.601C205.15 127.601 205.434 127.317 205.434 126.966C205.434 126.616 205.15 126.332 204.799 126.332C204.448 126.332 204.164 126.616 204.164 126.966C204.164 127.317 204.448 127.601 204.799 127.601Z" fill="#1D2230"/>
<path d="M103.563 237.954H96.9272C95.5102 237.954 94.4716 239.155 94.7687 240.425C96.0054 245.69 101.117 249.637 107.234 249.637H303.504C309.621 249.637 314.733 245.69 315.97 240.425C316.267 239.155 315.228 237.954 313.811 237.954H310.919" fill="#5B4C52"/>
<g opacity="0.5">
<path opacity="0.5" d="M315.972 240.425C314.736 245.69 309.624 249.637 303.507 249.637H107.234C101.117 249.637 96.0055 245.69 94.7688 240.425C94.7002 240.131 94.7021 239.825 94.7745 239.532C94.8469 239.239 94.9877 238.967 95.1852 238.739C96.9145 243.31 101.656 246.589 107.234 246.589H303.507C309.093 246.589 313.827 243.308 315.556 238.739C315.753 238.967 315.894 239.239 315.967 239.532C316.039 239.825 316.041 240.131 315.972 240.425Z" fill="#4C3941"/>
</g>
<path d="M225.051 242.526H185.691C184.479 242.526 183.316 242.044 182.459 241.187C181.602 240.329 181.12 239.167 181.12 237.954H229.622C229.622 239.167 229.14 240.329 228.283 241.187C227.426 242.044 226.263 242.526 225.051 242.526Z" fill="#4C3941"/>
<path d="M229.685 237.954C229.685 239.167 229.204 240.329 228.347 241.187C227.489 242.044 226.327 242.526 225.115 242.526H185.755C184.986 242.527 184.23 242.333 183.557 241.963C182.883 241.593 182.314 241.059 181.902 240.41C182.635 240.881 183.487 241.132 184.358 241.131H223.718C224.686 241.131 225.629 240.824 226.411 240.253C227.194 239.683 227.775 238.879 228.07 237.957L229.685 237.954Z" fill="#423038"/>
<path d="M391.569 261.45H20.5689C13.4155 261.45 7.61816 260.223 7.61816 253.068H404.52C404.52 260.22 398.722 261.45 391.569 261.45Z" fill="#E7A56B"/>
<path opacity="0.7" d="M7.61816 254.084H404.52C404.52 255.364 404.012 256.592 403.107 257.497C402.202 258.402 400.975 258.91 399.695 258.91H12.4429C11.1633 258.91 9.93613 258.402 9.03131 257.497C8.12649 256.592 7.61816 255.364 7.61816 254.084Z" fill="#C8935F"/>
<path d="M409.091 249.51H2.28542C1.02322 249.51 0 250.534 0 251.796C0 253.058 1.02322 254.082 2.28542 254.082H409.091C410.353 254.082 411.376 253.058 411.376 251.796C411.376 250.534 410.353 249.51 409.091 249.51Z" fill="#E7A56B"/>
<path d="M411.551 252.83C411.239 253.546 410.028 254.082 408.583 254.082H2.79326C1.11729 254.082 0.253906 253.355 0.253906 252.469V251.125C0.253906 250.363 1.26965 249.718 2.61805 249.553C2.56715 249.667 2.54035 249.79 2.53933 249.914V251.257C2.53933 252.144 3.91058 252.87 5.58656 252.87H410.868C411.096 252.87 411.324 252.857 411.551 252.83Z" fill="#C8935F"/>
<path d="M24.7409 250.945C28.7669 251.344 32.8104 251.54 36.8561 251.532C38.4102 251.532 39.6698 251.509 40.5382 251.499C41.4067 251.489 41.8917 251.499 41.8942 251.542C41.8968 251.585 41.4194 251.661 40.5509 251.75C39.6824 251.839 38.4229 251.931 36.8638 251.989C32.7964 252.133 28.724 252 24.6748 251.59L21.2289 251.232C20.1142 251.103 19.0451 251.021 18.0217 250.978C15.975 250.866 14.1289 250.864 12.5773 250.907C9.47425 250.999 7.55957 251.227 7.54688 251.125C7.54688 251.085 8.01158 250.971 8.87496 250.838C9.73834 250.706 10.9928 250.549 12.5545 250.45C14.383 250.332 16.2163 250.309 18.0471 250.381C19.0806 250.422 20.1675 250.491 21.2823 250.612L24.7409 250.945Z" fill="#C8935F"/>
<path d="M62.5778 250.945C66.6038 251.344 70.6474 251.54 74.6931 251.532C76.2472 251.532 77.5067 251.509 78.3751 251.499C79.2436 251.489 79.7286 251.499 79.7312 251.542C79.7337 251.585 79.2563 251.661 78.3878 251.75C77.5194 251.839 76.2598 251.931 74.7007 251.989C70.6334 252.133 66.561 252 62.5118 251.59L59.0659 251.23C57.9511 251.1 56.882 251.019 55.8586 250.976C53.8119 250.864 51.9658 250.861 50.4143 250.905C47.3112 250.996 45.3965 251.225 45.3838 251.123C45.3838 251.082 45.8485 250.968 46.7119 250.836C47.5753 250.704 48.8297 250.547 50.3914 250.447C52.2199 250.33 54.0532 250.307 55.884 250.379C56.9176 250.42 58.0044 250.488 59.1192 250.61L62.5778 250.945Z" fill="#C8935F"/>
<path d="M149.931 250.945C153.957 251.344 158.001 251.54 162.047 251.532C163.601 251.532 164.86 251.509 165.729 251.499C166.597 251.489 167.082 251.499 167.085 251.542C167.087 251.585 166.61 251.661 165.741 251.75C164.873 251.839 163.613 251.931 162.054 251.989C157.987 252.133 153.914 252 149.865 251.59L146.419 251.23C145.305 251.1 144.236 251.019 143.212 250.976C141.165 250.864 139.319 250.861 137.768 250.905C134.665 250.996 132.75 251.225 132.737 251.123C132.737 251.082 133.202 250.968 134.065 250.836C134.929 250.704 136.183 250.547 137.745 250.447C139.573 250.33 141.407 250.307 143.238 250.379C144.271 250.42 145.358 250.488 146.473 250.61L149.931 250.945Z" fill="#C8935F"/>
<path d="M236.015 250.945C240.041 251.344 244.085 251.54 248.131 251.532C249.685 251.532 250.944 251.509 251.813 251.499C252.681 251.489 253.166 251.499 253.169 251.542C253.171 251.585 252.694 251.661 251.825 251.75C250.957 251.839 249.697 251.931 248.138 251.989C244.071 252.133 239.998 252 235.949 251.59L232.503 251.23C231.389 251.1 230.319 251.019 229.296 250.976C227.249 250.864 225.403 250.861 223.852 250.905C220.749 250.996 218.834 251.225 218.821 251.123C218.821 251.082 219.286 250.968 220.149 250.836C221.013 250.704 222.267 250.547 223.829 250.447C225.657 250.33 227.491 250.307 229.322 250.379C230.355 250.42 231.442 250.488 232.557 250.61L236.015 250.945Z" fill="#C8935F"/>
<path d="M260.655 251.773C263.041 252.241 265.449 252.588 267.869 252.814C268.799 252.903 269.553 252.962 270.073 253.005C270.347 253.007 270.619 253.042 270.883 253.109C270.615 253.16 270.341 253.176 270.068 253.157C269.543 253.157 268.786 253.142 267.849 253.089C265.408 252.942 262.98 252.63 260.581 252.154L258.55 251.743C257.892 251.6 257.257 251.489 256.648 251.4C255.431 251.217 254.327 251.108 253.395 251.047C251.534 250.925 250.376 250.953 250.373 250.889C250.638 250.821 250.912 250.788 251.186 250.793C251.709 250.762 252.471 250.739 253.408 250.77C254.512 250.803 255.614 250.894 256.709 251.042C257.323 251.125 257.978 251.227 258.631 251.364L260.655 251.773Z" fill="#C8935F"/>
<path d="M174.063 251.773C176.449 252.241 178.857 252.588 181.277 252.814C182.207 252.903 182.961 252.962 183.482 253.005C183.755 253.007 184.027 253.042 184.292 253.109C184.023 253.16 183.749 253.176 183.477 253.157C182.951 253.157 182.194 253.142 181.257 253.089C178.816 252.942 176.388 252.63 173.989 252.154L171.958 251.743C171.3 251.6 170.665 251.489 170.056 251.4C168.84 251.217 167.735 251.108 166.803 251.047C164.942 250.925 163.784 250.953 163.781 250.889C164.047 250.821 164.32 250.788 164.594 250.793C165.117 250.762 165.879 250.739 166.816 250.77C167.92 250.803 169.022 250.894 170.117 251.042C170.731 251.125 171.387 251.227 172.039 251.364L174.063 251.773Z" fill="#C8935F"/>
<path d="M87.4703 251.773C89.8561 252.241 92.2639 252.588 94.6847 252.814C95.6141 252.903 96.3682 252.962 96.8888 253.005C97.162 253.007 97.434 253.042 97.6989 253.109C97.4303 253.16 97.1564 253.176 96.8837 253.157C96.3581 253.157 95.6014 253.142 94.6643 253.089C92.2234 252.942 89.7952 252.63 87.3967 252.154L85.3652 251.743C84.7075 251.6 84.0727 251.489 83.4632 251.4C82.2469 251.217 81.1423 251.108 80.2103 251.047C78.349 250.925 77.191 250.953 77.1885 250.889C77.4538 250.821 77.7271 250.788 78.0011 250.793C78.5242 250.762 79.286 250.739 80.223 250.77C81.3274 250.803 82.4292 250.894 83.5242 251.042C84.1387 251.125 84.7939 251.227 85.4465 251.364L87.4703 251.773Z" fill="#C8935F"/>
<path d="M309.157 251.773C311.543 252.241 313.95 252.588 316.371 252.814C317.301 252.903 318.055 252.962 318.575 253.005C318.849 253.007 319.121 253.042 319.385 253.109C319.117 253.16 318.843 253.176 318.57 253.157C318.045 253.157 317.288 253.142 316.351 253.089C313.91 252.942 311.482 252.63 309.083 252.154L307.052 251.743C306.394 251.6 305.759 251.489 305.15 251.4C303.933 251.217 302.829 251.108 301.897 251.047C300.035 250.925 298.878 250.953 298.875 250.889C299.14 250.821 299.414 250.788 299.688 250.793C300.211 250.762 300.973 250.739 301.91 250.77C303.014 250.803 304.116 250.894 305.211 251.042C305.825 251.125 306.48 251.227 307.133 251.364L309.157 251.773Z" fill="#C8935F"/>
<path d="M360.96 251.773C363.345 252.241 365.753 252.588 368.174 252.814C369.103 252.903 369.858 252.962 370.378 253.005C370.651 253.007 370.923 253.042 371.188 253.109C370.92 253.16 370.646 253.176 370.373 253.157C369.847 253.157 369.091 253.142 368.154 253.089C365.713 252.942 363.284 252.63 360.886 252.154L358.854 251.743C358.197 251.6 357.562 251.489 356.953 251.4C355.736 251.217 354.632 251.108 353.7 251.047C351.838 250.925 350.68 250.953 350.678 250.889C350.943 250.821 351.216 250.788 351.49 250.793C352.013 250.762 352.775 250.739 353.712 250.77C354.817 250.803 355.919 250.894 357.013 251.042C357.628 251.125 358.283 251.227 358.936 251.364L360.96 251.773Z" fill="#C8935F"/>
<path d="M327.178 250.945C331.204 251.344 335.248 251.54 339.294 251.532C340.848 251.532 342.107 251.509 342.976 251.499C343.844 251.489 344.329 251.499 344.332 251.542C344.334 251.585 343.857 251.661 342.988 251.75C342.12 251.839 340.86 251.931 339.301 251.989C335.234 252.133 331.162 252 327.112 251.59L323.666 251.23C322.552 251.1 321.483 251.019 320.459 250.976C318.413 250.864 316.566 250.861 315.015 250.905C311.912 250.996 309.997 251.225 309.984 251.123C309.984 251.082 310.449 250.968 311.312 250.836C312.176 250.704 313.43 250.547 314.992 250.447C316.82 250.33 318.654 250.307 320.485 250.379C321.518 250.42 322.605 250.488 323.72 250.61L327.178 250.945Z" fill="#C8935F"/>
<path d="M281.216 250.945C285.242 251.344 289.286 251.54 293.332 251.532C294.886 251.532 296.145 251.509 297.014 251.499C297.882 251.489 298.367 251.499 298.37 251.542C298.372 251.585 297.895 251.661 297.026 251.75C296.158 251.839 294.899 251.931 293.339 251.989C289.272 252.133 285.2 252 281.15 251.59L277.705 251.23C276.59 251.1 275.521 251.019 274.497 250.976C272.451 250.864 270.604 250.861 269.053 250.905C265.95 250.996 264.035 251.225 264.022 251.123C264.022 251.082 264.487 250.968 265.351 250.836C266.214 250.704 267.468 250.547 269.03 250.447C270.859 250.33 272.692 250.307 274.523 250.379C275.556 250.42 276.643 250.488 277.758 250.61L281.216 250.945Z" fill="#C8935F"/>
<path d="M389.139 250.945C393.165 251.344 397.209 251.54 401.255 251.532C402.809 251.532 404.068 251.509 404.937 251.499C405.805 251.489 406.29 251.499 406.293 251.542C406.295 251.585 405.818 251.661 404.949 251.75C404.081 251.839 402.821 251.931 401.262 251.989C397.195 252.133 393.123 252 389.073 251.59L385.627 251.23C384.513 251.1 383.444 251.019 382.42 250.976C380.373 250.864 378.527 250.861 376.976 250.905C373.873 250.996 371.958 251.225 371.945 251.123C371.945 251.082 372.41 250.968 373.273 250.836C374.137 250.704 375.391 250.547 376.953 250.447C378.781 250.33 380.615 250.307 382.446 250.379C383.479 250.42 384.566 250.488 385.681 250.61L389.139 250.945Z" fill="#C8935F"/>
<path d="M192.339 250.945C196.365 251.344 200.408 251.54 204.454 251.532C206.008 251.532 207.267 251.509 208.136 251.499C209.004 251.489 209.489 251.499 209.492 251.542C209.494 251.585 209.017 251.661 208.149 251.75C207.28 251.839 206.021 251.931 204.461 251.989C200.394 252.133 196.322 252 192.273 251.59L188.827 251.23C187.712 251.1 186.643 251.019 185.619 250.976C183.573 250.864 181.727 250.861 180.175 250.905C177.072 250.996 175.157 251.225 175.145 251.123C175.145 251.082 175.609 250.968 176.473 250.836C177.336 250.704 178.59 250.547 180.152 250.447C181.981 250.33 183.814 250.307 185.645 250.379C186.678 250.42 187.765 250.488 188.88 250.61L192.339 250.945Z" fill="#C8935F"/>
<path d="M108.286 250.945C112.312 251.344 116.355 251.54 120.401 251.532C121.955 251.532 123.215 251.509 124.083 251.499C124.952 251.489 125.437 251.499 125.439 251.542C125.442 251.585 124.964 251.661 124.096 251.75C123.227 251.839 121.968 251.931 120.409 251.989C116.341 252.133 112.269 252 108.22 251.59L104.774 251.23C103.659 251.1 102.59 251.019 101.567 250.976C99.5199 250.864 97.6738 250.861 96.1223 250.905C93.0192 250.996 91.1045 251.225 91.0918 251.123C91.0918 251.082 91.5565 250.968 92.4199 250.836C93.2833 250.704 94.5377 250.547 96.0994 250.447C97.9279 250.33 99.7612 250.307 101.592 250.379C102.626 250.42 103.712 250.488 104.827 250.61L108.286 250.945Z" fill="#C8935F"/>
<g opacity="0.2">
<path opacity="0.2" d="M60.437 201.412C61.0413 199.975 61.506 198.618 61.5467 197.349C61.5666 196.21 61.3522 195.079 60.9169 194.027C60.5588 193.089 60.1906 192.34 59.9646 191.804C59.7386 191.268 59.6371 190.951 59.7107 190.905C59.7843 190.859 60.0281 191.086 60.3938 191.545C60.9102 192.204 61.3641 192.91 61.7498 193.653C62.0231 194.18 62.2483 194.731 62.4227 195.299C62.6263 195.97 62.7324 196.667 62.7376 197.369C62.736 198.141 62.631 198.91 62.4253 199.655C62.2111 200.421 61.9465 201.172 61.633 201.902C61.3283 202.641 61.0159 203.342 60.7468 204.018C60.6122 204.356 60.4928 204.686 60.3811 205.011L60.2414 205.481L60.1322 205.951C59.9016 207.057 59.9259 208.201 60.2033 209.296C60.3218 209.704 60.4925 210.095 60.7112 210.459C60.8179 210.609 60.9169 210.756 61.021 210.878C61.1251 211 61.2242 211.114 61.3283 211.201C61.4324 211.287 61.5213 211.368 61.6025 211.442C61.6838 211.515 61.7625 211.556 61.8209 211.607C61.9377 211.703 61.9987 211.777 61.9834 211.82C61.9682 211.863 61.8793 211.871 61.7295 211.848C61.6291 211.833 61.5298 211.811 61.4324 211.782C61.3232 211.739 61.1962 211.683 61.0515 211.615C60.8976 211.53 60.7499 211.435 60.6096 211.33C60.4468 211.198 60.2933 211.054 60.15 210.901C59.817 210.512 59.5478 210.073 59.3526 209.6C58.8912 208.372 58.7591 207.045 58.9692 205.75C58.9971 205.57 59.0352 205.387 59.0708 205.202C59.1063 205.016 59.1647 204.833 59.213 204.645C59.3213 204.285 59.4415 203.925 59.5736 203.566C59.8402 202.847 60.1475 202.134 60.437 201.412Z" fill="#202020"/>
<path opacity="0.2" d="M64.5231 205.394C64.7592 204.45 65.0538 203.617 65.2646 202.855C65.4575 202.198 65.5951 201.527 65.6759 200.848C65.8054 199.703 65.6023 198.976 65.7801 198.9C65.8562 198.867 66.034 199.009 66.1965 199.34C66.4266 199.817 66.5612 200.334 66.5926 200.863C66.6433 201.629 66.5878 202.399 66.4276 203.149C66.2651 203.982 66.0035 204.846 65.7826 205.727C65.5633 206.517 65.4481 207.333 65.4398 208.153C65.4518 208.797 65.5889 209.433 65.8435 210.024C66.2854 211.04 66.9609 211.416 66.8771 211.596C66.8593 211.637 66.7983 211.655 66.6942 211.65C66.5466 211.638 66.4022 211.6 66.2676 211.538C65.7719 211.305 65.3501 210.939 65.0487 210.482C64.5979 209.81 64.322 209.037 64.2463 208.231C64.1741 207.277 64.2677 206.317 64.5231 205.394Z" fill="#202020"/>
<path opacity="0.2" d="M57.0089 208.366C57.3665 208.366 57.6564 208.309 57.6564 208.239C57.6564 208.169 57.3665 208.112 57.0089 208.112C56.6512 208.112 56.3613 208.169 56.3613 208.239C56.3613 208.309 56.6512 208.366 57.0089 208.366Z" fill="#202020"/>
<path opacity="0.2" d="M56.6915 198.116C56.8223 196.961 56.8563 195.797 56.7931 194.636C56.7401 193.701 56.5781 192.775 56.3106 191.878C55.8434 190.354 55.1857 189.536 55.3431 189.399C55.4041 189.343 55.6504 189.475 56.0034 189.821C56.4896 190.324 56.884 190.909 57.1689 191.548C57.5937 192.491 57.8687 193.494 57.9841 194.522C58.1248 195.761 58.1248 197.013 57.9841 198.253C57.8419 199.553 57.6235 200.759 57.433 201.846C57.2426 202.934 57.0801 203.901 56.981 204.716C56.7677 206.347 56.7804 207.378 56.5925 207.403C56.4046 207.429 56.0846 206.388 56.0669 204.666C56.0649 203.666 56.1269 202.668 56.2522 201.676C56.3741 200.564 56.557 199.363 56.6915 198.116Z" fill="#202020"/>
</g>
<g opacity="0.2">
<path opacity="0.2" d="M396.754 221.339H373.392V244.705H396.754V221.339Z" fill="#98E2CA"/>
<path opacity="0.2" d="M391.802 233.022C391.802 229.305 388.79 226.292 385.073 226.292C381.357 226.292 378.344 229.305 378.344 233.022C378.344 236.739 381.357 239.752 385.073 239.752C388.79 239.752 391.802 236.739 391.802 233.022Z" fill="white"/>
<path opacity="0.2" d="M384.311 231.986C384.311 231.425 383.856 230.97 383.295 230.97C382.734 230.97 382.279 231.425 382.279 231.986V234.061C382.279 234.622 382.734 235.077 383.295 235.077C383.856 235.077 384.311 234.622 384.311 234.061V231.986Z" fill="#9EBAB7"/>
<path opacity="0.2" d="M387.866 231.986C387.866 231.425 387.412 230.97 386.851 230.97C386.29 230.97 385.835 231.425 385.835 231.986V234.061C385.835 234.622 386.29 235.077 386.851 235.077C387.412 235.077 387.866 234.622 387.866 234.061V231.986Z" fill="#9EBAB7"/>
</g>
<g opacity="0.5">
<g opacity="0.2">
<path opacity="0.2" d="M350.17 190.913C350.153 191.028 350.131 191.144 350.106 191.261C349.888 192.26 349.361 193.162 349.116 194.155C348.533 196.559 350.483 198.692 349.831 201.037C349.633 201.743 349.192 202.349 348.702 202.88C347.437 204.249 345.825 205.211 344.236 206.154C343.5 206.592 342.691 207.045 341.849 206.922C341.058 206.807 340.41 206.202 339.645 205.95C338.118 205.449 336.555 206.421 335.046 206.975C333.859 207.413 332.56 207.595 331.314 207.371C330.069 207.148 328.88 206.489 328.107 205.457C327.571 204.747 327.217 203.86 326.497 203.352C325.836 202.886 324.98 202.826 324.275 202.434C323.85 202.188 323.496 201.836 323.249 201.412C323.001 200.988 322.868 200.506 322.863 200.015C322.863 198.358 324.261 197.095 324.886 195.563C325.392 194.323 325.38 192.928 325.281 191.587C325.171 190.07 324.979 188.506 325.357 187.011C325.934 184.735 327.542 184.241 329.574 183.925C331.389 183.647 333.282 183.112 335.098 183.681C335.948 183.947 336.659 184.55 337.531 184.758C339.127 185.138 340.635 184.149 342.21 184.091C343.535 184.043 344.94 184.379 346.152 184.912C348.488 185.938 350.589 188.106 350.17 190.913Z" fill="#9E8BB3"/>
<path opacity="0.2" d="M325.178 199.468H328.015C328.048 199.468 328.079 199.455 328.102 199.432C328.126 199.409 328.139 199.377 328.139 199.344C328.139 199.312 328.126 199.28 328.102 199.257C328.079 199.234 328.048 199.221 328.015 199.221H325.178C325.146 199.221 325.114 199.234 325.091 199.257C325.068 199.28 325.055 199.312 325.055 199.344C325.055 199.377 325.068 199.409 325.091 199.432C325.114 199.455 325.146 199.468 325.178 199.468Z" fill="white"/>
<path opacity="0.2" d="M325.446 200.054H326.864C326.897 200.054 326.928 200.041 326.951 200.018C326.974 199.995 326.987 199.963 326.987 199.93C326.987 199.898 326.974 199.866 326.951 199.843C326.928 199.82 326.897 199.807 326.864 199.807H325.446C325.413 199.807 325.382 199.82 325.358 199.843C325.335 199.866 325.322 199.898 325.322 199.93C325.322 199.963 325.335 199.995 325.358 200.018C325.382 200.041 325.413 200.054 325.446 200.054Z" fill="white"/>
<path opacity="0.2" d="M328.732 199.468H329.701C329.733 199.468 329.765 199.455 329.788 199.432C329.811 199.409 329.824 199.377 329.824 199.344C329.824 199.312 329.811 199.28 329.788 199.257C329.765 199.234 329.733 199.221 329.701 199.221H328.732C328.699 199.221 328.668 199.234 328.645 199.257C328.621 199.28 328.608 199.312 328.608 199.344C328.608 199.377 328.621 199.409 328.645 199.432C328.668 199.455 328.699 199.468 328.732 199.468Z" fill="white"/>
<path opacity="0.2" d="M323.597 200.639H324.309C324.341 200.639 324.373 200.626 324.396 200.603C324.419 200.58 324.432 200.549 324.432 200.516C324.432 200.483 324.419 200.452 324.396 200.428C324.373 200.405 324.341 200.392 324.309 200.392H323.597C323.565 200.392 323.533 200.405 323.51 200.428C323.487 200.452 323.474 200.483 323.474 200.516C323.474 200.549 323.487 200.58 323.51 200.603C323.533 200.626 323.565 200.639 323.597 200.639Z" fill="white"/>
<path opacity="0.2" d="M324.895 200.639H327.732C327.764 200.639 327.796 200.626 327.819 200.603C327.842 200.58 327.855 200.549 327.855 200.516C327.855 200.483 327.842 200.452 327.819 200.428C327.796 200.405 327.764 200.392 327.732 200.392H324.895C324.862 200.392 324.831 200.405 324.808 200.428C324.785 200.452 324.771 200.483 324.771 200.516C324.771 200.549 324.785 200.58 324.808 200.603C324.831 200.626 324.862 200.639 324.895 200.639Z" fill="white"/>
<path opacity="0.2" d="M344.883 202.185H342.047C342.014 202.185 341.982 202.198 341.959 202.221C341.936 202.244 341.923 202.276 341.923 202.309C341.923 202.342 341.936 202.373 341.959 202.396C341.982 202.419 342.014 202.432 342.047 202.432H344.883C344.916 202.432 344.947 202.419 344.97 202.396C344.994 202.373 345.007 202.342 345.007 202.309C345.007 202.276 344.994 202.244 344.97 202.221C344.947 202.198 344.916 202.185 344.883 202.185Z" fill="white"/>
<path opacity="0.2" d="M344.616 202.771H343.197C343.164 202.771 343.133 202.784 343.109 202.807C343.086 202.83 343.073 202.861 343.073 202.894C343.073 202.927 343.086 202.958 343.109 202.982C343.133 203.005 343.164 203.018 343.197 203.018H344.616C344.648 203.018 344.68 203.005 344.703 202.982C344.726 202.958 344.739 202.927 344.739 202.894C344.739 202.861 344.726 202.83 344.703 202.807C344.68 202.784 344.648 202.771 344.616 202.771Z" fill="white"/>
<path opacity="0.2" d="M341.329 202.185H340.36C340.327 202.185 340.296 202.198 340.273 202.221C340.249 202.244 340.236 202.276 340.236 202.309C340.236 202.342 340.249 202.373 340.273 202.396C340.296 202.419 340.327 202.432 340.36 202.432H341.329C341.361 202.432 341.393 202.419 341.416 202.396C341.439 202.373 341.452 202.342 341.452 202.309C341.452 202.276 341.439 202.244 341.416 202.221C341.393 202.198 341.361 202.185 341.329 202.185Z" fill="white"/>
<path opacity="0.2" d="M346.464 203.356H345.753C345.72 203.356 345.688 203.369 345.665 203.393C345.642 203.416 345.629 203.447 345.629 203.48C345.629 203.513 345.642 203.544 345.665 203.568C345.688 203.591 345.72 203.604 345.753 203.604H346.464C346.497 203.604 346.528 203.591 346.551 203.568C346.575 203.544 346.588 203.513 346.588 203.48C346.588 203.447 346.575 203.416 346.551 203.393C346.528 203.369 346.497 203.356 346.464 203.356Z" fill="white"/>
<path opacity="0.2" d="M345.165 203.356H342.329C342.296 203.356 342.264 203.369 342.241 203.393C342.218 203.416 342.205 203.447 342.205 203.48C342.205 203.513 342.218 203.544 342.241 203.568C342.264 203.591 342.296 203.604 342.329 203.604H345.165C345.198 203.604 345.23 203.591 345.253 203.568C345.276 203.544 345.289 203.513 345.289 203.48C345.289 203.447 345.276 203.416 345.253 203.393C345.23 203.369 345.198 203.356 345.165 203.356Z" fill="white"/>
<path opacity="0.2" d="M347.424 187.771H344.588C344.555 187.771 344.523 187.784 344.5 187.807C344.477 187.83 344.464 187.862 344.464 187.895C344.464 187.927 344.477 187.959 344.5 187.982C344.523 188.005 344.555 188.018 344.588 188.018H347.424C347.457 188.018 347.488 188.005 347.512 187.982C347.535 187.959 347.548 187.927 347.548 187.895C347.548 187.862 347.535 187.83 347.512 187.807C347.488 187.784 347.457 187.771 347.424 187.771Z" fill="white"/>
<path opacity="0.2" d="M347.158 188.356H345.739C345.706 188.356 345.675 188.369 345.651 188.393C345.628 188.416 345.615 188.447 345.615 188.48C345.615 188.513 345.628 188.544 345.651 188.568C345.675 188.591 345.706 188.604 345.739 188.604H347.158C347.19 188.604 347.222 188.591 347.245 188.568C347.268 188.544 347.281 188.513 347.281 188.48C347.281 188.447 347.268 188.416 347.245 188.393C347.222 188.369 347.19 188.356 347.158 188.356Z" fill="white"/>
<path opacity="0.2" d="M343.871 187.771H342.902C342.869 187.771 342.838 187.784 342.815 187.807C342.791 187.83 342.778 187.862 342.778 187.895C342.778 187.927 342.791 187.959 342.815 187.982C342.838 188.005 342.869 188.018 342.902 188.018H343.871C343.903 188.018 343.935 188.005 343.958 187.982C343.981 187.959 343.994 187.927 343.994 187.895C343.994 187.862 343.981 187.83 343.958 187.807C343.935 187.784 343.903 187.771 343.871 187.771Z" fill="white"/>
<path opacity="0.2" d="M349.005 188.942H348.29C348.257 188.942 348.225 188.955 348.202 188.979C348.179 189.002 348.166 189.033 348.166 189.066C348.166 189.099 348.179 189.13 348.202 189.154C348.225 189.177 348.257 189.19 348.29 189.19H349.001C349.034 189.19 349.065 189.177 349.088 189.154C349.112 189.13 349.125 189.099 349.125 189.066C349.125 189.033 349.112 189.002 349.088 188.979C349.065 188.955 349.034 188.942 349.001 188.942H349.005Z" fill="white"/>
<path opacity="0.2" d="M347.707 188.942H344.871C344.838 188.942 344.806 188.955 344.783 188.979C344.76 189.002 344.747 189.033 344.747 189.066C344.747 189.099 344.76 189.13 344.783 189.154C344.806 189.177 344.838 189.19 344.871 189.19H347.707C347.74 189.19 347.772 189.177 347.795 189.154C347.818 189.13 347.831 189.099 347.831 189.066C347.831 189.033 347.818 189.002 347.795 188.979C347.772 188.955 347.74 188.942 347.707 188.942Z" fill="white"/>
</g>
<path d="M330.969 196.679H325.396V208.508H330.969V196.679Z" fill="#3DA5D9"/>
<path d="M330.627 196.891H330.082V208.694H330.627V196.891Z" fill="#78D2FF"/>
<path d="M331.265 208.804H325.099V196.382H331.265V208.804ZM325.692 208.211H330.672V196.975H325.692V208.211Z" fill="#272024"/>
<path d="M347.688 199.723H342.115V208.555H347.688V199.723Z" fill="#3DA5D9"/>
<path opacity="0.5" d="M343.253 199.732H342.457V208.438H343.253V199.732Z" fill="#136892"/>
<path d="M347.348 199.987H346.901V208.694H347.348V199.987Z" fill="#78D2FF"/>
<path d="M347.985 208.805H341.818V199.421H347.985V208.805ZM342.412 208.211H347.391V200.015H342.412V208.211Z" fill="#272024"/>
<path d="M339.141 190.964H333.755V208.419H339.141V190.964Z" fill="#3DA5D9"/>
<path opacity="0.5" d="M334.893 190.983H334.097V208.19H334.893V190.983Z" fill="#136892"/>
<path d="M339.328 191.228H338.425V208.694H339.328V191.228Z" fill="#78D2FF"/>
<path d="M339.626 208.805H333.459V190.897H339.626V195.349C339.626 195.428 339.594 195.503 339.539 195.559C339.483 195.615 339.408 195.646 339.329 195.646C339.25 195.646 339.175 195.615 339.119 195.559C339.063 195.503 339.032 195.428 339.032 195.349V191.491H334.053V208.211H339.032V201.637C339.032 201.558 339.063 201.482 339.119 201.427C339.175 201.371 339.25 201.34 339.329 201.34C339.408 201.34 339.483 201.371 339.539 201.427C339.594 201.482 339.626 201.558 339.626 201.637V208.805Z" fill="#272024"/>
<path d="M329.308 193.393C330.147 192.635 330.212 191.34 329.454 190.502C328.695 189.663 327.401 189.598 326.562 190.356C325.724 191.114 325.659 192.409 326.417 193.247C327.175 194.086 328.47 194.151 329.308 193.393Z" fill="white"/>
<path d="M330.051 191.337C330.096 191.637 330.074 191.942 329.986 192.232C329.899 192.522 329.748 192.789 329.544 193.014C329.341 193.238 329.091 193.415 328.811 193.531C328.531 193.647 328.229 193.699 327.927 193.684C327.624 193.669 327.329 193.587 327.062 193.444C326.795 193.301 326.563 193.101 326.383 192.857C326.202 192.614 326.079 192.334 326.02 192.036C325.961 191.739 325.97 191.433 326.044 191.139C326.101 191.539 326.277 191.912 326.548 192.212C326.913 192.614 327.422 192.856 327.964 192.883C328.507 192.91 329.038 192.721 329.44 192.357C329.741 192.086 329.954 191.73 330.051 191.337Z" fill="#D8D8D8"/>
<path d="M327.936 194.217C327.389 194.217 326.859 194.026 326.439 193.676C326.019 193.326 325.734 192.84 325.634 192.303C325.534 191.765 325.626 191.21 325.893 190.732C326.16 190.255 326.585 189.886 327.096 189.69C327.606 189.494 328.169 189.482 328.687 189.657C329.205 189.832 329.645 190.183 329.932 190.649C330.218 191.115 330.332 191.666 330.255 192.208C330.177 192.749 329.913 193.246 329.507 193.613C329.076 194.002 328.516 194.218 327.936 194.217ZM327.936 190.124C327.535 190.125 327.146 190.263 326.835 190.515C326.524 190.768 326.309 191.12 326.226 191.512C326.143 191.904 326.198 192.313 326.38 192.67C326.563 193.027 326.862 193.31 327.229 193.473C327.595 193.635 328.006 193.667 328.393 193.562C328.78 193.458 329.12 193.224 329.355 192.899C329.59 192.574 329.706 192.179 329.684 191.778C329.662 191.378 329.504 190.997 329.235 190.7C329.071 190.518 328.87 190.372 328.646 190.272C328.422 190.172 328.179 190.121 327.934 190.121L327.936 190.124Z" fill="#272024"/>
<path d="M346.109 196.398C346.937 195.628 346.984 194.333 346.215 193.505C345.445 192.677 344.15 192.63 343.322 193.399C342.494 194.169 342.446 195.464 343.216 196.292C343.986 197.12 345.281 197.168 346.109 196.398Z" fill="white"/>
<path d="M346.824 194.331C346.873 194.63 346.855 194.936 346.771 195.227C346.687 195.518 346.54 195.787 346.339 196.014C346.139 196.242 345.891 196.421 345.613 196.541C345.334 196.661 345.033 196.717 344.73 196.706C344.427 196.695 344.131 196.617 343.862 196.477C343.593 196.337 343.359 196.14 343.175 195.899C342.992 195.658 342.865 195.379 342.803 195.082C342.74 194.786 342.745 194.479 342.815 194.185C342.878 194.584 343.059 194.955 343.334 195.25C343.704 195.648 344.217 195.882 344.76 195.902C345.302 195.922 345.831 195.726 346.228 195.356C346.525 195.081 346.732 194.724 346.824 194.331Z" fill="#D8D8D8"/>
<path d="M344.715 197.245C344.17 197.245 343.642 197.056 343.221 196.708C342.801 196.361 342.515 195.878 342.413 195.342C342.31 194.806 342.398 194.252 342.661 193.774C342.924 193.296 343.346 192.925 343.853 192.725C344.36 192.524 344.921 192.507 345.44 192.677C345.958 192.846 346.401 193.191 346.693 193.652C346.984 194.113 347.105 194.661 347.036 195.202C346.966 195.743 346.71 196.242 346.311 196.614C345.878 197.019 345.308 197.244 344.715 197.245ZM344.715 193.152C344.314 193.153 343.925 193.292 343.614 193.547C343.303 193.801 343.088 194.154 343.007 194.548C342.926 194.941 342.983 195.351 343.168 195.707C343.354 196.064 343.656 196.346 344.024 196.506C344.393 196.665 344.805 196.694 345.192 196.585C345.579 196.477 345.917 196.239 346.149 195.911C346.381 195.583 346.493 195.185 346.466 194.784C346.439 194.383 346.275 194.004 346.002 193.71C345.838 193.532 345.639 193.39 345.417 193.294C345.195 193.197 344.956 193.147 344.714 193.148L344.715 193.152Z" fill="#272024"/>
<path d="M337.611 185.771C338.449 185.013 338.515 183.718 337.756 182.879C336.998 182.041 335.704 181.976 334.865 182.734C334.026 183.492 333.961 184.787 334.72 185.625C335.478 186.464 336.772 186.529 337.611 185.771Z" fill="white"/>
<path d="M338.355 183.716C338.399 184.015 338.377 184.321 338.29 184.611C338.202 184.901 338.051 185.168 337.848 185.393C337.645 185.617 337.394 185.794 337.115 185.91C336.835 186.026 336.533 186.078 336.23 186.063C335.928 186.048 335.632 185.966 335.365 185.823C335.098 185.68 334.866 185.48 334.686 185.236C334.506 184.993 334.382 184.712 334.324 184.415C334.265 184.118 334.273 183.812 334.348 183.518C334.405 183.918 334.581 184.291 334.852 184.591C335.216 184.993 335.726 185.235 336.268 185.262C336.81 185.289 337.341 185.1 337.744 184.736C338.045 184.465 338.258 184.109 338.355 183.716Z" fill="#D8D8D8"/>
<path d="M336.24 186.597C335.693 186.597 335.163 186.406 334.742 186.056C334.322 185.706 334.037 185.22 333.937 184.682C333.837 184.144 333.929 183.588 334.196 183.111C334.463 182.633 334.888 182.264 335.399 182.068C335.91 181.871 336.473 181.86 336.991 182.035C337.509 182.211 337.95 182.562 338.236 183.028C338.523 183.494 338.637 184.046 338.559 184.587C338.482 185.129 338.217 185.626 337.811 185.993C337.38 186.382 336.82 186.598 336.24 186.597ZM336.24 182.503C335.839 182.504 335.45 182.642 335.138 182.895C334.827 183.148 334.611 183.5 334.528 183.893C334.446 184.285 334.5 184.694 334.683 185.052C334.865 185.409 335.165 185.693 335.532 185.855C335.899 186.018 336.311 186.05 336.698 185.945C337.085 185.841 337.425 185.606 337.66 185.281C337.896 184.956 338.012 184.56 337.99 184.159C337.969 183.759 337.81 183.378 337.541 183.08C337.387 182.908 337.2 182.769 336.992 182.67C336.783 182.571 336.557 182.514 336.327 182.503H336.24Z" fill="#272024"/>
<path d="M334.205 185.5L329.2 190.163L329.74 190.742L334.744 186.079L334.205 185.5Z" fill="#272024"/>
<path d="M338.255 185.335L337.633 185.824L343.472 193.255L344.094 192.766L338.255 185.335Z" fill="#272024"/>
<path d="M333.992 207.459L336.07 205.4C336.087 205.383 336.096 205.36 336.096 205.336C336.096 205.312 336.087 205.289 336.07 205.273C336.053 205.256 336.03 205.246 336.006 205.246C335.982 205.246 335.959 205.256 335.942 205.273L333.864 207.331C333.847 207.348 333.838 207.371 333.838 207.395C333.838 207.419 333.847 207.442 333.864 207.459C333.881 207.476 333.904 207.485 333.928 207.485C333.952 207.485 333.975 207.476 333.992 207.459Z" fill="#272024"/>
<path d="M335.185 207.027L337.483 204.729C337.5 204.712 337.509 204.689 337.509 204.665C337.509 204.642 337.5 204.619 337.483 204.602C337.466 204.585 337.443 204.575 337.419 204.575C337.395 204.575 337.372 204.585 337.355 204.602L335.058 206.899C335.041 206.916 335.031 206.939 335.031 206.963C335.031 206.987 335.041 207.01 335.058 207.027C335.075 207.043 335.098 207.053 335.121 207.053C335.145 207.053 335.168 207.043 335.185 207.027Z" fill="#272024"/>
<path d="M339.279 197.23C339.201 197.23 339.125 197.199 339.069 197.143C339.014 197.087 338.982 197.012 338.982 196.933V196.636C338.982 196.557 339.014 196.482 339.069 196.426C339.125 196.371 339.201 196.339 339.279 196.339C339.358 196.339 339.433 196.371 339.489 196.426C339.545 196.482 339.576 196.557 339.576 196.636V196.933C339.576 197.012 339.545 197.087 339.489 197.143C339.433 197.199 339.358 197.23 339.279 197.23Z" fill="#272024"/>
<path d="M339.279 200.495C339.201 200.495 339.125 200.464 339.069 200.408C339.014 200.352 338.982 200.277 338.982 200.198V198.021C338.982 197.943 339.014 197.867 339.069 197.812C339.125 197.756 339.201 197.725 339.279 197.725C339.358 197.725 339.433 197.756 339.489 197.812C339.545 197.867 339.576 197.943 339.576 198.021V200.198C339.576 200.277 339.545 200.352 339.489 200.408C339.433 200.464 339.358 200.495 339.279 200.495Z" fill="#272024"/>
<path d="M346.058 202.085H345.761V203.674H346.058V202.085Z" fill="white"/>
<path d="M346.058 204.354H345.761V204.904H346.058V204.354Z" fill="white"/>
<path d="M346.058 200.69H345.761V201.572H346.058V200.69Z" fill="white"/>
<path d="M337.847 193.477H337.55V195.066H337.847V193.477Z" fill="white"/>
<path d="M337.847 195.746H337.55V196.296H337.847V195.746Z" fill="white"/>
<path d="M337.847 192.082H337.55V192.965H337.847V192.082Z" fill="white"/>
<path d="M329.14 199.117H328.843V200.706H329.14V199.117Z" fill="white"/>
<path d="M329.14 201.385H328.843V201.935H329.14V201.385Z" fill="white"/>
<path d="M329.14 197.722H328.843V198.604H329.14V197.722Z" fill="white"/>
<path opacity="0.5" d="M326.533 196.691H325.736V208.353H326.533V196.691Z" fill="#136892"/>
</g>
<path opacity="0.25" d="M220.911 22.3237C220.866 21.855 220.738 21.4085 220.558 20.9733C220.166 20.0094 219.594 19.1522 218.957 18.3369C217.601 16.605 216.001 15.1218 214.306 13.742C212.235 12.06 210.019 10.5863 207.61 9.17696C205.439 7.94827 203.096 6.77741 200.647 5.83105C198.907 5.16055 197.135 4.59006 195.305 4.22458C194.092 3.98603 192.876 3.8304 191.635 3.9145C191.046 3.95327 190.468 4.05 189.913 4.2705C189.218 4.54946 188.718 5.01922 188.45 5.7235C187.917 7.11238 187.368 8.49367 186.846 9.88143C186.07 11.9363 185.304 13.9973 184.543 16.053C183.698 18.3413 182.862 20.6337 182.007 22.9166C181.809 23.4484 181.776 23.9782 181.9 24.5173C181.979 24.8626 182.077 25.2055 182.204 25.5362C182.657 26.7148 183.344 27.764 184.127 28.7502C185.994 31.1181 188.279 33.0197 190.79 34.6606C192.613 35.8527 194.532 36.8721 196.553 37.6976C198.273 38.4031 200.032 38.962 201.865 39.2914C203.224 39.534 204.59 39.6606 205.97 39.5143C206.559 39.4502 207.134 39.3364 207.678 39.1002C208.049 38.9446 208.372 38.7181 208.632 38.4003C210.669 35.9395 212.722 33.4922 214.749 31.0235C216.632 28.736 218.49 26.4308 220.367 24.14C220.803 23.6115 220.973 23.0063 220.911 22.3237ZM194.464 32.1021C191.673 30.4781 190.732 26.8848 192.364 24.0795C193.992 21.2752 197.57 20.3314 200.373 21.9639C203.194 23.6047 204.133 27.1817 202.491 30.0026C200.865 32.7895 197.264 33.7308 194.464 32.1021ZM214.861 20.1907C214.623 20.2693 214.366 20.3117 214.113 20.3134C213.409 20.3229 212.73 20.1502 212.055 19.9656C210.782 19.6083 209.556 19.1181 208.354 18.5824C206.77 17.8791 205.242 17.07 203.81 16.251C202.079 15.2392 200.46 14.2113 198.922 13.0592C197.769 12.193 196.643 11.2911 195.682 10.205C195.399 9.87996 195.144 9.52768 194.909 9.16697C194.788 8.98484 194.713 8.76638 194.664 8.55303C194.579 8.16996 194.738 7.89679 195.116 7.78381C195.336 7.71687 195.575 7.68839 195.803 7.6894C196.462 7.688 197.102 7.83488 197.731 8.00708C199.049 8.37011 200.314 8.8741 201.562 9.42824C203.602 10.3416 205.566 11.3963 207.466 12.5695C209.211 13.6472 210.908 14.8022 212.478 16.1329C213.215 16.7558 213.933 17.3987 214.529 18.1639C214.74 18.4346 214.923 18.7283 215.092 19.0266C215.176 19.1746 215.224 19.3577 215.249 19.5304C215.292 19.838 215.154 20.0926 214.861 20.1907ZM204.444 42.7129C204.395 42.8215 204.316 42.9235 204.237 43.0146C202.802 44.6785 201.365 46.3362 199.939 48.0079C199.458 48.568 198.872 48.9301 198.168 49.1254C197.386 49.3449 196.593 49.3841 195.793 49.3433C194.317 49.2649 192.896 48.9307 191.504 48.4692C189.707 47.876 187.997 47.0873 187.079 46.5463C184.274 44.918 182.336 43.5007 180.653 41.7522C179.873 40.9446 179.172 40.0748 178.614 39.0943C178.322 38.5806 178.083 38.0448 177.931 37.4738C177.742 36.756 177.754 36.0574 178.007 35.3486C178.741 33.2803 179.455 31.2018 180.176 29.128C180.212 29.0228 180.262 28.9239 180.319 28.8297C180.606 28.3834 181.152 28.383 181.447 28.8239C181.475 28.8726 181.504 28.9201 181.527 28.9679C182.322 30.7518 183.465 32.2973 184.774 33.7263C185.976 35.0414 187.322 36.1928 188.777 37.2152C190.456 38.3986 192.239 39.3756 194.142 40.1414C196.661 41.1607 199.271 41.7803 201.998 41.8385C202.541 41.8506 203.087 41.799 203.627 41.7754C203.716 41.7722 203.804 41.7595 203.892 41.7665C204.389 41.8193 204.651 42.2642 204.444 42.7129ZM199.966 28.511C199.151 29.9094 197.341 30.3885 195.941 29.5709C194.54 28.7555 194.067 26.9554 194.887 25.5506C195.708 24.141 197.497 23.6685 198.905 24.4909C200.31 25.3112 200.785 27.1018 199.966 28.511Z" fill="#205081"/>
<path opacity="0.15" d="M286.695 52.8287L286.695 52.8288L301.922 68.056C302.604 68.7379 302.604 69.8443 301.922 70.5262L286.766 85.683C286.766 85.6831 286.766 85.6831 286.766 85.6832C286.083 86.3653 284.978 86.3649 284.296 85.6832L284.296 85.6832L269.068 70.4556C269.068 70.4556 269.068 70.4556 269.068 70.4556C268.386 69.7738 268.386 68.668 269.068 67.9852L279.156 57.8982L282.534 61.2765C282.216 62.3541 282.479 63.5685 283.332 64.4211C283.553 64.6432 283.799 64.8246 284.061 64.9666V73.9123C283.799 74.055 283.553 74.237 283.332 74.4572L283.332 74.4574C282.093 75.6963 282.093 77.704 283.332 78.9444L283.332 78.9446C284.57 80.1834 286.579 80.1833 287.818 78.9447L287.819 78.9445C289.057 77.7044 289.057 75.6966 287.818 74.4574C287.645 74.2844 287.457 74.1364 287.258 74.0126V66.0244L289.789 68.5549C289.478 69.6287 289.745 70.8358 290.592 71.683L290.592 71.6833C291.832 72.9225 293.84 72.9226 295.08 71.6832L295.08 71.683C296.319 70.4433 296.319 68.4354 295.08 67.1963C294.273 66.3883 293.141 66.1112 292.11 66.3537L288.661 62.9044C288.903 61.8728 288.625 60.7421 287.818 59.9348C287.016 59.1323 285.895 58.8527 284.868 59.0883L281.417 55.6378L284.225 52.8289C284.908 52.1468 286.013 52.147 286.695 52.8287Z" fill="#F05033" stroke="#F05033"/>
<g opacity="0.3">
<path d="M101.84 37.802C99.4208 35.4056 96.5694 33.7593 93.2848 32.8626C89.9998 31.966 86.6764 31.9682 83.3124 32.8696C79.9488 33.7709 77.0686 35.4311 74.6726 37.8497C72.2761 40.2685 70.63 43.1201 69.7332 46.405C68.8367 49.6897 68.8389 53.0137 69.7401 56.3769C70.8226 60.4168 72.9747 63.7338 76.1972 66.3286C79.4195 68.9237 83.0635 70.3405 87.1291 70.5792C87.5853 70.5434 87.8919 70.4005 88.0494 70.1517C88.207 69.9027 88.2467 69.633 88.1692 69.3437C88.1563 69.2954 88.0358 68.8622 87.8078 68.0434C87.5795 67.2247 87.3837 66.5096 87.22 65.8985L86.6905 66.1434C86.3538 66.3031 85.9146 66.4502 85.3733 66.5869C84.8323 66.7238 84.2577 66.8172 83.6503 66.8674C83.0429 66.9186 82.4392 66.8217 81.8389 66.5772C81.2389 66.3326 80.7522 65.9324 80.3792 65.3773L79.9889 64.8865C79.7289 64.5598 79.3655 64.2168 78.8988 63.8592C78.4319 63.5012 78.0001 63.2894 77.603 63.2233L77.4015 63.1476C77.2673 63.0974 77.1369 63.0284 77.0101 62.9418C76.8833 62.8551 76.7809 62.7618 76.7024 62.662C76.6238 62.5621 76.639 62.4587 76.7485 62.3516C76.858 62.2444 77.0816 62.1467 77.4197 62.0561L77.9216 61.9989C78.2608 61.9772 78.7106 62.0632 79.2718 62.258C79.8328 62.4526 80.3351 62.7664 80.7788 63.1992C81.326 63.76 81.907 64.1434 82.523 64.3492C83.1386 64.5552 83.7121 64.5867 84.2431 64.4444C84.774 64.3021 85.2219 64.139 85.5868 63.9554C85.9512 63.7714 86.281 63.5534 86.576 63.302C86.4318 62.1845 86.6041 61.2501 87.0924 60.4984C86.1494 60.6478 85.2858 60.7236 84.5016 60.7268C83.7178 60.7297 82.8772 60.6187 81.9802 60.3928C81.083 60.1677 80.2907 59.8019 79.6035 59.2964C78.9161 58.7906 78.267 58.0587 77.6571 57.1012C77.0469 56.1433 76.5586 54.9806 76.192 53.6127C75.6702 51.665 75.8619 49.8372 76.7667 48.1285C75.7788 46.8238 75.3952 45.1672 75.6161 43.1589C76.044 42.8888 76.7653 42.8122 77.7795 42.9284C78.794 43.0447 79.5488 43.175 80.0443 43.3179C80.5399 43.4607 80.9401 43.587 81.245 43.6947C82.6299 42.8753 84.1188 42.2521 85.7119 41.8253C87.305 41.3984 88.9063 41.1935 90.5155 41.2107L91.2776 40.3858C91.8014 39.8313 92.4472 39.2787 93.2135 38.7284C93.9802 38.1781 94.6087 37.9147 95.0984 37.9389C96.3097 39.5636 96.814 41.1877 96.6106 42.8116C98.2485 43.839 99.3288 45.3264 99.8506 47.2737C100.217 48.6416 100.376 49.8967 100.329 51.0392C100.282 52.182 100.082 53.1406 99.7294 53.9167C99.3764 54.6928 98.8679 55.4027 98.2038 56.046C97.5397 56.6898 96.867 57.2063 96.1867 57.5957C95.5061 57.9852 94.7204 58.3514 93.829 58.6938C94.8596 59.1936 95.5841 60.2242 96.0024 61.7852L97.3671 66.8784C97.4446 67.1677 97.61 67.3824 97.8631 67.5214C98.1159 67.6602 98.4488 67.6318 98.8617 67.4346C102.264 65.1951 104.711 62.1461 106.204 58.2875C107.697 54.4292 107.903 50.4805 106.82 46.4406C105.918 43.078 104.258 40.1986 101.84 37.802Z" fill="#323131"/>
</g>
<path d="M286.99 133.53H122.568V229.615H286.99V133.53Z" fill="white"/>
<path d="M154.941 142.607H133.949V164.371H154.941V142.607Z" fill="#D8EDF7"/>
<path d="M184.159 142.607H163.167V164.371H184.159V142.607Z" fill="#D8EDF7"/>
<path opacity="0.2" d="M213.376 142.607H192.385V164.371H213.376V142.607Z" fill="#3DA5D9"/>
<path opacity="0.2" d="M242.595 142.607H221.604V164.371H242.595V142.607Z" fill="#3DA5D9"/>
<path opacity="0.2" d="M271.813 142.607H250.821V164.371H271.813V142.607Z" fill="#3DA5D9"/>
<path d="M190.116 176.931H133.949V218.914H190.116V176.931Z" fill="#DFE3EF"/>
<path d="M167.491 191.069C164.955 190.194 162.247 189.937 159.592 190.32C156.937 190.703 154.412 191.715 152.227 193.271C150.043 194.827 148.261 196.883 147.032 199.267C145.803 201.652 145.161 204.295 145.16 206.977C145.16 207.294 145.034 207.598 144.81 207.822C144.586 208.046 144.282 208.172 143.966 208.172C143.649 208.172 143.345 208.046 143.121 207.822C142.897 207.598 142.771 207.294 142.771 206.977C142.773 203.922 143.502 200.91 144.9 198.192C146.298 195.475 148.323 193.129 150.808 191.351C153.293 189.572 156.166 188.411 159.189 187.965C162.212 187.518 165.298 187.799 168.191 188.783" fill="#3DA5D9"/>
<path d="M168.191 188.783C171.986 190.082 175.28 192.533 177.614 195.795C179.947 199.057 181.204 202.967 181.209 206.977C181.209 207.294 181.083 207.598 180.859 207.822C180.635 208.046 180.331 208.172 180.014 208.172C179.698 208.172 179.394 208.046 179.17 207.822C178.946 207.598 178.82 207.294 178.82 206.977C178.816 203.478 177.723 200.066 175.693 197.216C173.663 194.365 170.796 192.217 167.49 191.069" fill="white"/>
<path d="M271.813 176.931H199.193V219.198H271.813V176.931Z" fill="#DFE3EF"/>
<path d="M209.647 205.852H206.668V215.834H209.647V205.852Z" fill="white"/>
<path d="M215.363 198.774H212.242V215.794H215.363V198.774Z" fill="white"/>
<path d="M220.993 182.361H218.015V215.834H220.993V182.361Z" fill="#DFE3EF"/>
<path d="M226.709 184.307H223.589V215.794H226.709V184.307Z" fill="white"/>
<path d="M221.036 184.307H217.916V215.794H221.036V184.307Z" fill="#3DA5D9"/>
<path d="M232.34 193.07H229.361V215.834H232.34V193.07Z" fill="#3DA5D9"/>
<path d="M238.056 193.952H234.936V215.794H238.056V193.952Z" fill="white"/>
<path d="M243.73 187.144H240.609V215.794H243.73V187.144Z" fill="white"/>
<path opacity="0.2" d="M249.36 199.098H246.382V215.834H249.36V199.098Z" fill="#3DA5D9"/>
<path opacity="0.2" d="M255.076 197.072H251.956V215.794H255.076V197.072Z" fill="#3DA5D9"/>
<path opacity="0.2" d="M260.75 190.264H257.63V215.795H260.75V190.264Z" fill="#3DA5D9"/>
<path opacity="0.2" d="M266.423 190.264H263.303V215.795H266.423V190.264Z" fill="#3DA5D9"/>
<defs>
<linearGradient id="paint0_linear" x1="79.8653" y1="177.762" x2="340.208" y2="177.762" gradientUnits="userSpaceOnUse">
<stop stop-color="#C3F6EE"/>
<stop offset="0.38" stop-color="#C6EBFD"/>
</linearGradient>
<linearGradient id="paint1_linear" x1="1207.29" y1="6355.78" x2="2450.33" y2="6355.78" gradientUnits="userSpaceOnUse">
<stop stop-color="#C3F6EE"/>
<stop offset="0.38" stop-color="#C6EBFD"/>
</linearGradient>
<linearGradient id="paint2_linear" x1="10815.5" y1="8251.38" x2="20368.7" y2="8251.38" gradientUnits="userSpaceOnUse">
<stop stop-color="#C3F6EE"/>
<stop offset="0.38" stop-color="#C6EBFD"/>
</linearGradient>
<linearGradient id="paint3_linear" x1="1290.5" y1="6867.67" x2="2757.23" y2="6867.67" gradientUnits="userSpaceOnUse">
<stop stop-color="#C3F6EE"/>
<stop offset="0.38" stop-color="#C6EBFD"/>
</linearGradient>
<linearGradient id="paint4_linear" x1="154.647" y1="6940.31" x2="10516.2" y2="6940.31" gradientUnits="userSpaceOnUse">
<stop stop-color="#C3F6EE"/>
<stop offset="0.38" stop-color="#C6EBFD"/>
</linearGradient>
</defs>
</svg>
