<svg width="139" height="105" viewBox="0 0 139 105" fill="none" xmlns="http://www.w3.org/2000/svg">
<path fill-rule="evenodd" clip-rule="evenodd" d="M72.9881 12.1202L69.3476 7.32476L70.9405 6.11544L74.5811 10.9109L72.9881 12.1202Z" fill="#F2994A"/>
<path fill-rule="evenodd" clip-rule="evenodd" d="M125.235 50H130V49.4595H125.765V44.5946H121.529V40H121V45.1351H125.235V50Z" fill="#FC6681"/>
<path fill-rule="evenodd" clip-rule="evenodd" d="M40.8329 21.8516L45.1449 23.8786L45.3749 23.3894L41.542 21.5876L43.6116 17.185L39.7787 15.3832L41.7333 11.2251L41.2542 10.9999L39.0696 15.6471L42.9025 17.4489L40.8329 21.8516Z" fill="#4DD0E1"/>
<path fill-rule="evenodd" clip-rule="evenodd" d="M101.144 17.0687L103.555 18.2023L103.684 17.9287L101.54 16.9211L102.697 14.4589L100.554 13.4513L101.647 11.1259L101.379 10.9999L100.157 13.5989L102.301 14.6065L101.144 17.0687Z" fill="#27AE60"/>
<path fill-rule="evenodd" clip-rule="evenodd" d="M60.9644 102.685L65.2101 104.681L65.4365 104.199L61.6625 102.425L63.7003 98.0899L59.9264 96.3158L61.851 92.2217L61.3792 91.9999L59.2282 96.5757L63.0022 98.3498L60.9644 102.685Z" fill="#27AE60"/>
<path fill-rule="evenodd" clip-rule="evenodd" d="M29.1336 89.689L33.5976 84.369L32.9941 83.8626L29.026 88.5915L23.5942 84.0336L19.6261 88.7625L14.496 84.4579L14 85.049L19.7337 89.8601L23.7017 85.1312L29.1336 89.689Z" fill="#F9B356"/>
<path fill-rule="evenodd" clip-rule="evenodd" d="M103 87.8287L99 83.3287L100.495 82L104.495 86.5L103 87.8287Z" fill="#4DD0E1"/>
<path fill-rule="evenodd" clip-rule="evenodd" d="M33 55.8287L29 51.3287L30.4948 50L34.4948 54.5L33 55.8287Z" fill="#4DD0E1"/>
<path fill-rule="evenodd" clip-rule="evenodd" d="M137.713 84.543L131.805 83.3858L132.189 81.4231L138.098 82.5803L137.713 84.543Z" fill="#4DD0E1"/>
<path fill-rule="evenodd" clip-rule="evenodd" d="M25 27.8287L21 23.3287L22.4948 22L26.4948 26.5L25 27.8287Z" fill="#FC6681"/>
<path fill-rule="evenodd" clip-rule="evenodd" d="M130.065 32.6632L124.069 33.2107L123.887 31.219L129.883 30.6715L130.065 32.6632Z" fill="#2D9CDB"/>
<path fill-rule="evenodd" clip-rule="evenodd" d="M7.06511 91.6632L1.06926 92.2107L0.887404 90.219L6.88326 89.6715L7.06511 91.6632Z" fill="#2D9CDB"/>
<path fill-rule="evenodd" clip-rule="evenodd" d="M58.0651 4.66323L52.0693 5.21068L51.8874 3.21896L57.8833 2.67152L58.0651 4.66323Z" fill="#2D9CDB"/>
<path fill-rule="evenodd" clip-rule="evenodd" d="M22.9881 70.1202L19.3476 65.3248L20.9405 64.1154L24.5811 68.9109L22.9881 70.1202Z" fill="#F2994A"/>
<path fill-rule="evenodd" clip-rule="evenodd" d="M126.988 6.12023L123.348 1.32476L124.941 0.115443L128.581 4.91092L126.988 6.12023Z" fill="#F2994A"/>
<circle cx="74" cy="50" r="40" fill="#37ABE5"/>
<path d="M93.1438 38.5537L67.7618 63.9365C67.4233 64.275 66.9788 64.4443 66.5344 64.4443C66.09 64.4443 65.6455 64.275 65.307 63.9365L54.8903 53.5198C54.2123 52.8419 54.2123 51.742 54.8903 51.0641C55.5683 50.3861 56.6672 50.3861 57.3452 51.0641L66.5344 60.2533L90.6889 36.0988C91.3669 35.4208 92.4658 35.4208 93.1438 36.0988C93.8217 36.7767 93.8217 37.8757 93.1438 38.5537Z" fill="white"/>
</svg>
