<svg width="44" height="44" viewBox="0 0 44 44" fill="none" xmlns="http://www.w3.org/2000/svg">
<circle cx="22" cy="22" r="22" fill="#1D2951"/>
<path fill-rule="evenodd" clip-rule="evenodd" d="M12.8836 25.4097V29.2476L19.7383 31.8876V25.4097H12.8836ZM11.7412 25.0098C11.7412 24.5997 12.0737 24.2672 12.4838 24.2672H20.1381C20.5483 24.2672 20.8807 24.5997 20.8807 25.0098V32.2874C20.8807 32.6976 20.5483 33.03 20.1381 33.03L12.4838 30.3901C12.0737 30.3901 11.7412 30.0576 11.7412 29.6475V25.0098Z" fill="white"/>
<path d="M26.878 11L8.00049 17.606V25.0582L26.878 31.5937V11Z" fill="#3ABDFF"/>
<path fill-rule="evenodd" clip-rule="evenodd" d="M33.7712 14.9215C33.9943 15.1445 33.9945 15.5062 33.7715 15.7293L30.7934 18.7102C30.5705 18.9334 30.2088 18.9335 29.9856 18.7106C29.7624 18.4876 29.7623 18.1259 29.9852 17.9028L32.9633 14.9219C33.1863 14.6987 33.548 14.6985 33.7712 14.9215ZM29.8181 21.4379C29.8181 21.1224 30.0739 20.8667 30.3893 20.8667H36.3606C36.676 20.8667 36.9318 21.1224 36.9318 21.4379C36.9318 21.7534 36.676 22.0091 36.3606 22.0091H30.3893C30.0739 22.0091 29.8181 21.7534 29.8181 21.4379Z" fill="white"/>
<path fill-rule="evenodd" clip-rule="evenodd" d="M30.0235 24.0531C30.2411 23.8247 30.6027 23.8159 30.8311 24.0334L33.7932 26.8545C34.0217 27.0721 34.0305 27.4336 33.8129 27.6621C33.5954 27.8905 33.2338 27.8993 33.0053 27.6818L30.0432 24.8607C29.8148 24.6431 29.806 24.2816 30.0235 24.0531Z" fill="white"/>
</svg>
