<svg width="10" height="10" viewBox="0 0 10 10" fill="none" xmlns="http://www.w3.org/2000/svg">
<path d="M9.8817 0.118304C9.72394 -0.0394346 9.46818 -0.0394346 9.31043 0.118304L0.118315 9.30948C-0.0394385 9.46722 -0.0394385 9.72295 0.118315 9.88069C0.197183 9.95959 0.300581 9.999 0.40396 9.999C0.507339 9.999 0.610718 9.95957 0.689605 9.88067L9.8817 0.689497C10.0394 0.531778 10.0394 0.276042 9.8817 0.118304Z" fill="#969696"/>
<path d="M9.88168 9.31048L0.689566 0.119303C0.531831 -0.0384351 0.27605 -0.0384351 0.118315 0.119303C-0.0394385 0.277022 -0.0394385 0.532758 0.118315 0.690496L9.31043 9.88169C9.3893 9.96057 9.49269 10 9.59607 10C9.69945 10 9.80285 9.96057 9.8817 9.88171C10.0394 9.72395 10.0394 9.46822 9.88168 9.31048Z" fill="#969696"/>
</svg>
