<svg width="80" height="80" viewBox="0 0 80 80" fill="none" xmlns="http://www.w3.org/2000/svg">
<path d="M40 0C17.91 0 0 17.91 0 40C0 62.09 17.91 80 40 80C62.09 80 80 62.09 80 40C80 17.91 62.09 0 40 0ZM40 65.5333C36.8733 65.5333 34.7333 63.1233 34.7333 60C34.7333 56.7867 36.9633 54.4667 40 54.4667C43.21 54.4667 45.2667 56.7867 45.2667 60C45.2667 63.1267 43.21 65.5333 40 65.5333ZM42.0733 44.4033C41.2767 47.12 38.7667 47.1667 37.93 44.4033C36.9667 41.2167 33.5433 29.12 33.5433 21.2633C33.5433 10.8967 46.5133 10.8467 46.5133 21.2633C46.51 29.1667 42.9033 41.5767 42.0733 44.4033Z" fill="#AB0101"/>
<path fill-rule="evenodd" clip-rule="evenodd" d="M16.2997 72.225C6.41408 64.942 0 53.2195 0 40C0 27.5326 5.70499 16.3967 14.6466 9.06066C21.5479 3.39853 30.3774 0 40 0C49.6672 0 58.5338 3.43009 65.4492 9.13949C74.3357 16.4764 80 27.5772 80 40C80 53.1716 73.6324 64.857 63.8078 72.1456C57.1556 77.0807 48.9184 80 40 80C31.1295 80 22.933 77.112 16.2997 72.225ZM46.4862 22.4914C46.5038 22.0718 46.5132 21.6618 46.5133 21.2633C46.5133 16.0398 43.2519 13.4483 40 13.4697C36.7681 13.491 33.5456 16.0933 33.5433 21.2579V21.2633C33.5433 21.656 33.5519 22.0592 33.5682 22.4713C33.6131 23.6014 33.7167 24.7987 33.8639 26.0294C31.594 26.7412 29.6909 27.8183 28.1105 29.061C28.3589 29.3738 28.6272 29.6856 28.9167 29.9947C30.4682 31.6511 32.3366 32.8983 34.3588 33.707C34.6213 33.6522 34.8855 33.6012 35.1516 33.554C35.1857 33.7144 35.22 33.8741 35.2545 34.0332C36.0506 37.7045 36.9494 41.0249 37.5381 43.0716L37.5386 43.0735C37.6844 43.5803 37.8111 44.0089 37.9125 44.3454C37.9184 44.365 37.9243 44.3843 37.93 44.4033C38.3455 45.7758 39.1738 46.4551 40 46.4584C40.8373 46.4617 41.6723 45.7707 42.0733 44.4033C42.0791 44.3836 42.0851 44.3633 42.0911 44.3427C42.1873 44.0151 42.3168 43.5713 42.4712 43.0305L42.4719 43.0282C43.0408 41.0354 43.946 37.7266 44.7556 34.0556C44.7914 33.8934 44.827 33.7306 44.8623 33.5671C45.1326 33.6158 45.4024 33.6687 45.6716 33.7257C47.7121 32.9168 49.5927 31.6627 51.1487 29.9994C51.4304 29.6983 51.692 29.3946 51.9347 29.0897C50.3562 27.84 48.4527 26.7527 46.1805 26.0345C46.3317 24.8074 46.4388 23.6148 46.4862 22.4914ZM44.9693 57.9977C44.2911 55.8666 42.4935 54.4667 40 54.4667C37.6393 54.4667 35.766 55.8688 35.0491 58.0028C34.8438 58.6138 34.7333 59.2848 34.7333 60C34.7333 63.1233 36.8733 65.5333 40 65.5333C43.21 65.5333 45.2667 63.1267 45.2667 60C45.2667 59.2828 45.1642 58.6101 44.9693 57.9977Z" fill="#AB0101"/>
</svg>
