<svg width="200" height="200" viewBox="0 0 200 200" fill="none" xmlns="http://www.w3.org/2000/svg">
<path d="M100 30.5549C116.067 30.5547 131.636 36.1253 144.056 46.3175C156.475 56.5097 164.977 70.6929 168.111 86.4505C171.246 102.208 168.82 118.565 161.246 132.734C153.673 146.904 141.421 158.009 126.577 164.157C111.734 170.306 95.2179 171.117 79.8433 166.454C64.4687 161.79 51.1869 151.94 42.2607 138.581C33.3346 125.223 29.3165 109.182 30.8912 93.1933C32.4658 77.2043 39.5357 62.2559 50.8962 50.8952C57.3292 44.4259 64.9817 39.2971 73.4105 35.8057C81.8394 32.3142 90.877 30.5295 100 30.5549ZM100 16.666C53.976 16.666 16.667 53.975 16.667 99.9993C16.667 146.024 53.976 183.333 100 183.333C146.025 183.333 183.334 146.024 183.334 99.9993C183.334 53.975 146.025 16.666 100 16.666Z" fill="#5B5B5B"/>
<path fill-rule="evenodd" clip-rule="evenodd" d="M99.7286 125.588C94.3682 125.588 90 129.934 90 135.294C90 140.655 94.3682 145 99.7286 145C105.089 145 109.457 140.655 109.457 135.294C109.457 129.934 105.089 125.588 99.7286 125.588ZM108.838 79.2017V64.171C108.838 59.106 104.732 55 99.6667 55C94.6017 55 90.4957 59.106 90.4957 64.171V79.2017L94.6745 113.651C94.9774 116.148 97.0966 118.025 99.6117 118.025C102.121 118.025 104.237 116.156 104.547 113.666L108.838 79.2017Z" fill="#5B5B5B"/>
</svg>
