<svg width="20" height="21" viewBox="0 0 20 21" fill="none" xmlns="http://www.w3.org/2000/svg">
<g clip-path="url(#clip0)">
<path d="M10 0.331543C4.48594 0.331543 0 4.81748 0 10.3315C0 15.8456 4.48594 20.3315 10 20.3315C15.5141 20.3315 20 15.8456 20 10.3315C20 4.81748 15.5141 0.331543 10 0.331543ZM10 18.8752C5.28906 18.8752 1.45633 15.0425 1.45633 10.3315C1.45633 5.62061 5.28906 1.78787 10 1.78787C14.7109 1.78787 18.5437 5.62061 18.5437 10.3315C18.5437 15.0425 14.7109 18.8752 10 18.8752Z" fill="#5B5B5B"/>
<path d="M15.8684 3.4567L3.1012 16.2239L4.13077 17.2535L16.8979 4.48628L15.8684 3.4567Z" fill="#5B5B5B"/>
</g>
<defs>
<clipPath id="clip0">
<rect width="20" height="20" fill="white" transform="translate(0 0.331543)"/>
</clipPath>
</defs>
</svg>
