<svg width="52" height="60" viewBox="0 0 52 60" fill="none" xmlns="http://www.w3.org/2000/svg">
<path d="M51.298 6.66451C50.9136 6.12475 50.4439 5.67023 49.9174 5.26683C48.7621 4.36725 47.461 3.72523 46.1107 3.1798C43.2396 2.02265 40.2454 1.34086 37.2077 0.852238C33.4995 0.259459 29.761 0.0227264 25.8331 0C22.3219 0.0303018 18.6421 0.251884 14.9908 0.821937C12.3981 1.22912 9.83756 1.78023 7.34902 2.623C5.70326 3.18548 4.11052 3.85212 2.65792 4.82746C1.96666 5.28956 1.33033 5.81416 0.809514 6.47322C0.158025 7.30274 -0.120373 8.22694 0.0481807 9.27425C0.375819 11.3423 0.678837 13.4123 1.01973 15.471C1.51971 18.522 2.03674 21.573 2.55566 24.6145C3.13518 27.9989 3.72985 31.3813 4.29422 34.7656C4.42679 35.5535 4.76011 36.222 5.29039 36.7921C5.6294 37.1576 5.99112 37.5061 6.37747 37.8204C7.75999 38.9378 9.33569 39.7332 10.9833 40.3847C14.9264 41.9566 19.0493 42.6668 23.265 42.8998C26.3255 43.0702 29.3822 42.9623 32.4276 42.5456C35.0203 42.1953 37.558 41.6385 40.0238 40.7503C41.8514 40.0893 43.6051 39.2825 45.1846 38.1329C45.8569 37.6405 46.4781 37.097 46.9743 36.4266C47.3171 35.9758 47.552 35.4721 47.6447 34.902C48.3966 30.4685 49.1769 26.0406 49.9098 21.6052C50.5954 17.4917 51.2374 13.3745 51.9135 9.26099C52.0726 8.31027 51.8548 7.45235 51.298 6.66451ZM25.943 37.1955C21.3977 37.1803 17.7217 33.4627 17.7369 28.8947C17.7482 24.3305 21.445 20.662 26.0112 20.6791C30.6038 20.6942 34.2665 24.393 34.2495 28.9875C34.2286 33.529 30.5015 37.2106 25.943 37.1955ZM42.4234 8.32164C42.1885 8.58488 41.9045 8.81783 41.5976 8.99774C40.7454 9.5053 39.7966 9.77233 38.844 10.0223C37.041 10.4825 35.2021 10.7477 33.3593 10.9408C30.9333 11.1984 28.5016 11.2874 26.1797 11.2969C23.3578 11.2817 20.661 11.1681 17.9755 10.8462C15.9604 10.6018 13.9529 10.295 12.0174 9.64734C11.4436 9.45038 10.8849 9.20039 10.3451 8.92578C10.0686 8.78942 9.8243 8.57541 9.61408 8.35004C9.24099 7.94286 9.24289 7.49781 9.62355 7.09441C9.84513 6.85768 10.116 6.65504 10.3944 6.49595C11.1974 6.03006 12.0799 5.75924 12.9681 5.52629C14.8298 5.04146 16.7274 4.76496 18.6383 4.56232C21.767 4.24036 24.9032 4.14377 28.0452 4.23657C30.9314 4.3218 33.812 4.5358 36.6622 5.05283C37.9993 5.29335 39.3269 5.57175 40.592 6.08498C41.039 6.26679 41.4689 6.49595 41.8855 6.74026C42.0919 6.86147 42.2794 7.05085 42.4309 7.24403C42.6999 7.58871 42.7112 7.99589 42.4234 8.32164ZM45.5748 43.1062C45.5918 43.2729 45.5672 43.4528 45.535 43.6195C44.9574 46.6572 44.3722 49.6893 43.8097 52.7308C43.6184 53.7516 43.1582 54.6058 42.4385 55.3387C41.6393 56.1568 40.7 56.7629 39.6962 57.2761C37.8421 58.2193 35.8744 58.812 33.8536 59.2287C31.2458 59.7703 28.6057 60.0127 27.1058 59.9995C22.5416 59.9881 19.1819 59.6245 15.8998 58.6776C14.3809 58.242 12.9132 57.6757 11.5439 56.8727C10.8262 56.4523 10.1576 55.9674 9.57053 55.3785C8.83571 54.6361 8.35845 53.7762 8.16717 52.7346C7.60659 49.6969 7.01381 46.661 6.43429 43.6251C6.40399 43.4717 6.39452 43.3164 6.3983 43.1611C6.43429 42.415 7.09903 42.0305 7.76946 42.36C7.83764 42.3998 7.90582 42.4377 7.96832 42.4794C10.1917 44.0948 12.6727 45.1743 15.2748 45.9944C17.6649 46.7519 20.1156 47.2083 22.6098 47.4299C25.4884 47.6913 28.3501 47.6269 31.2079 47.2216C34.9956 46.6913 38.6129 45.6099 41.9783 43.7615C42.6487 43.3941 43.2775 42.9471 43.9195 42.5381C44.0256 42.4718 44.1241 42.3941 44.2358 42.3411C44.8797 42.0551 45.5123 42.4131 45.5748 43.1062ZM30.1227 28.9458C30.1133 31.2241 28.244 33.082 25.9619 33.0706C23.6798 33.0631 21.8371 31.2014 21.8484 28.9117C21.856 26.6164 23.7044 24.7812 25.9998 24.7926C28.2895 24.8039 30.1284 26.6523 30.1227 28.9458Z" fill="#205081"/>
</svg>
