<svg width="24" height="24" viewBox="0 0 24 24" fill="none" xmlns="http://www.w3.org/2000/svg">
<path d="M20.0993 4.2215C19.9712 4.04158 19.8146 3.89008 19.6391 3.75561C19.254 3.45575 18.8204 3.24174 18.3702 3.05993C17.4132 2.67422 16.4151 2.44695 15.4026 2.28408C14.1665 2.08649 12.9203 2.00758 11.611 2C10.4406 2.0101 9.21404 2.08396 7.99692 2.27398C7.13269 2.40971 6.27919 2.59341 5.44967 2.87433C4.90109 3.06183 4.37017 3.28404 3.88597 3.60915C3.65555 3.76319 3.44344 3.93805 3.26984 4.15774C3.05267 4.43425 2.95988 4.74231 3.01606 5.09142C3.12527 5.78078 3.22628 6.47078 3.33991 7.15699C3.50657 8.17399 3.67891 9.191 3.85189 10.2048C4.04506 11.333 4.24328 12.4604 4.43141 13.5885C4.4756 13.8512 4.5867 14.074 4.76346 14.264C4.87647 14.3859 4.99704 14.502 5.12582 14.6068C5.58666 14.9793 6.1119 15.2444 6.66112 15.4616C7.97546 15.9855 9.34977 16.2223 10.755 16.2999C11.7752 16.3567 12.7941 16.3208 13.8092 16.1819C14.6734 16.0651 15.5193 15.8795 16.3413 15.5834C16.9505 15.3631 17.535 15.0942 18.0615 14.711C18.2856 14.5468 18.4927 14.3657 18.6581 14.1422C18.7724 13.9919 18.8507 13.824 18.8816 13.634C19.1322 12.1562 19.3923 10.6802 19.6366 9.20173C19.8651 7.83057 20.0791 6.45815 20.3045 5.087C20.3575 4.77009 20.2849 4.48412 20.0993 4.2215ZM11.6477 14.3985C10.1326 14.3934 8.90724 13.1542 8.91229 11.6316C8.91608 10.1102 10.1483 8.88735 11.6704 8.89303C13.2013 8.89808 14.4222 10.131 14.4165 11.6625C14.4095 13.1763 13.1672 14.4035 11.6477 14.3985ZM17.1411 4.77388C17.0628 4.86163 16.9682 4.93928 16.8659 4.99925C16.5818 5.16843 16.2655 5.25744 15.948 5.34077C15.347 5.49418 14.734 5.58256 14.1198 5.64695C13.3111 5.7328 12.5005 5.76248 11.7266 5.76563C10.786 5.76058 9.887 5.7227 8.99183 5.61539C8.32014 5.53395 7.65098 5.43168 7.0058 5.21578C6.81452 5.15013 6.62829 5.0668 6.44837 4.97526C6.3562 4.92981 6.27477 4.85847 6.20469 4.78335C6.08033 4.64762 6.08096 4.49927 6.20785 4.3648C6.28171 4.28589 6.37199 4.21835 6.46479 4.16532C6.73245 4.01002 7.02663 3.91975 7.32271 3.8421C7.94326 3.68049 8.57581 3.58832 9.21278 3.52077C10.2557 3.41345 11.3011 3.38126 12.3484 3.41219C13.3105 3.4406 14.2707 3.51193 15.2207 3.68428C15.6664 3.76445 16.109 3.85725 16.5307 4.02833C16.6797 4.08893 16.823 4.16532 16.9618 4.24675C17.0307 4.28716 17.0931 4.35028 17.1436 4.41468C17.2333 4.52957 17.2371 4.6653 17.1411 4.77388ZM18.1916 16.3687C18.1973 16.4243 18.1891 16.4843 18.1783 16.5398C17.9858 17.5524 17.7907 18.5631 17.6032 19.5769C17.5395 19.9172 17.3861 20.2019 17.1462 20.4462C16.8798 20.7189 16.5667 20.921 16.2321 21.092C15.614 21.4064 14.9581 21.604 14.2845 21.7429C13.4153 21.9234 12.5352 22.0042 12.0353 21.9998C10.5139 21.996 9.39396 21.8748 8.29994 21.5592C7.79365 21.414 7.3044 21.2252 6.84798 20.9576C6.60872 20.8174 6.38587 20.6558 6.19018 20.4595C5.94524 20.212 5.78615 19.9254 5.72239 19.5782C5.53553 18.5656 5.33794 17.5537 5.14476 16.5417C5.13466 16.4906 5.13151 16.4388 5.13277 16.387C5.14476 16.1383 5.36634 16.0102 5.58982 16.12C5.61255 16.1333 5.63527 16.1459 5.65611 16.1598C6.39724 16.6983 7.22422 17.0581 8.09161 17.3315C8.8883 17.584 9.70519 17.7361 10.5366 17.81C11.4961 17.8971 12.45 17.8756 13.4026 17.7405C14.6652 17.5638 15.871 17.2033 16.9928 16.5872C17.2162 16.4647 17.4258 16.3157 17.6398 16.1794C17.6752 16.1573 17.708 16.1314 17.7453 16.1137C17.9599 16.0184 18.1708 16.1377 18.1916 16.3687ZM13.0409 11.6486C13.0378 12.408 12.4147 13.0273 11.654 13.0235C10.8933 13.021 10.279 12.4005 10.2828 11.6372C10.2853 10.8721 10.9015 10.2604 11.6666 10.2642C12.4298 10.268 13.0428 10.8841 13.0409 11.6486Z" fill="#205081"/>
</svg>
