<svg width="200" height="200" viewBox="0 0 200 200" fill="none" xmlns="http://www.w3.org/2000/svg">
<path d="M85.9098 111.347L85.9084 111.343C84.953 108.182 82.8198 100.748 80.915 92.1543C79.0492 83.7363 77.2271 73.4477 77.2271 64.8688C77.2271 57.7232 79.5073 51.3346 83.9041 46.6348C88.2495 41.99 94.1267 39.6002 100.033 39.5888C105.941 39.5774 111.837 41.9476 116.198 46.6038C120.607 51.3115 122.879 57.7141 122.879 64.8688V64.8732C122.876 73.5333 120.951 84.0219 119.035 92.4868C117.074 101.147 114.921 108.542 114.123 111.258L85.9098 111.347ZM85.9098 111.347C86.6457 113.778 88.0939 116.575 90.3389 118.794C83.658 122.32 79.4583 129.454 79.4583 137.5C79.4583 148.532 87.556 158.542 100 158.542M85.9098 111.347L100 158.542M100 158.542C105.829 158.542 111.194 156.282 115.035 152.118C118.794 148.043 120.542 142.76 120.542 137.5C120.542 132.215 118.826 126.886 114.996 122.778M100 158.542L114.996 122.778M114.996 122.778C113.445 121.115 111.66 119.776 109.714 118.766M114.996 122.778L109.714 118.766M109.714 118.766C111.964 116.53 113.403 113.71 114.122 111.261L109.714 118.766ZM35.6667 100C35.6667 64.4723 64.4723 35.6667 100 35.6667C135.528 35.6667 164.333 64.4723 164.333 100C164.333 135.528 135.528 164.333 100 164.333C64.4723 164.333 35.6667 135.528 35.6667 100Z" fill="#5B5B5B" stroke="#5B5B5B" stroke-width="21.3333"/>
</svg>
