<svg width="200" height="200" viewBox="0 0 200 200" fill="none" xmlns="http://www.w3.org/2000/svg">
<path d="M117.341 51.2797C116.596 50.4934 116.487 49.2949 117.086 48.3905C122.198 40.6351 130.797 36.0051 140.086 36.0051H149.696C152.959 36.0051 152.959 31.0664 149.696 31.0664C140.508 31.0664 123.845 29.1685 112.961 45.6705C112.45 46.4472 111.435 46.7196 110.603 46.3C103.928 42.9262 96.3269 42.7983 89.3961 46.3C88.5644 46.7193 87.5516 46.4491 87.038 45.6705C76.6754 29.9598 61.5821 31.0664 50.3034 31.0664C47.0408 31.0664 47.0408 36.0051 50.3034 36.0051H59.9131C75.0958 36.0051 85.181 48.6271 82.6586 51.2797C77.2229 57.0092 76.0775 62.8355 76.0775 69.8386C90.6189 60.2745 109.352 60.2553 123.922 69.8386C123.922 62.9343 122.863 57.0986 117.341 51.2797Z" fill="#5B5B5B"/>
<path d="M65.068 80.2251C50.0276 66.5493 52.4007 67.222 27.5402 75.3898C22.8642 76.9259 25.2398 83.9651 29.8506 82.4265L45.3252 77.343C47.8474 76.5156 50.6304 77.1113 52.591 78.8912C69.0595 93.8618 62.466 87.3534 61.3955 103.318C61.234 105.733 59.2274 107.615 56.8065 107.615C51.964 107.615 46.7818 107.615 35.1775 107.615C30.2748 107.615 30.2748 115.023 35.1775 115.023C69.2353 115.023 58.0075 112.187 63.7319 131.744C64.0624 132.866 63.076 133.951 61.921 133.717C48.1971 130.965 44.3869 144.164 36.8462 158.35C34.5458 162.677 41.0855 166.154 43.3863 161.828L52.4681 144.743C56.0996 137.923 66.7467 140.923 70.8096 147.395C73.9113 152.334 83.9142 165.761 91.3869 168.771C94.3296 169.955 97.5292 167.792 97.5292 164.621V80.864C97.5292 73.2559 89.5061 68.3196 82.7272 71.6977C71.664 77.2275 70.2291 84.9179 65.068 80.2251Z" fill="#5B5B5B"/>
<path d="M172.46 75.3905C148.759 67.6035 150.592 65.9928 134.932 80.2255C133.019 81.9644 130.07 81.8414 128.307 79.9503C112.794 63.3185 102.47 72.7208 102.47 80.8643V164.621C102.47 169.866 109.706 171.566 117.272 162.507C123.696 154.813 126.161 152.217 129.192 147.393C133.325 140.81 143.991 138.097 147.531 144.743L156.613 161.829C158.904 166.138 165.473 162.718 163.153 158.351L154.071 141.266C150.949 135.394 144.201 132.473 138.079 133.718C136.926 133.949 135.937 132.869 136.268 131.745C141.944 112.354 131.746 115.024 164.822 115.024C166.867 115.024 168.526 113.365 168.526 111.319C168.526 109.274 166.868 107.615 164.822 107.615C153.182 107.615 148.002 107.615 143.147 107.615C140.762 107.615 138.768 105.794 138.558 103.419C137.697 93.6379 134.232 90.8791 138.918 86.6134C152.823 73.9721 147.971 75.1392 170.15 82.4268C174.787 83.9707 177.121 76.9241 172.46 75.3905Z" fill="#5B5B5B"/>
</svg>
