<svg width="18" height="18" viewBox="0 0 200 200" fill="none" xmlns="http://www.w3.org/2000/svg">
<path d="M100 30.5549C116.067 30.5547 131.636 36.1253 144.056 46.3175C156.475 56.5097 164.977 70.6929 168.111 86.4505C171.246 102.208 168.82 118.565 161.246 132.734C153.673 146.904 141.421 158.009 126.577 164.157C111.734 170.306 95.2179 171.117 79.8433 166.454C64.4687 161.79 51.1869 151.94 42.2607 138.581C33.3346 125.223 29.3165 109.182 30.8912 93.1933C32.4658 77.2043 39.5357 62.2559 50.8962 50.8952C57.3292 44.4259 64.9817 39.2971 73.4105 35.8057C81.8394 32.3142 90.877 30.5295 100 30.5549ZM100 16.666C53.976 16.666 16.667 53.975 16.667 99.9993C16.667 146.024 53.976 183.333 100 183.333C146.025 183.333 183.334 146.024 183.334 99.9993C183.334 53.975 146.025 16.666 100 16.666Z" fill="#3ABDFF"/>
<path d="M145.618 74.993L93.5732 127.038L83.7538 136.861L73.9308 127.038L54.3857 107.493C53.7409 106.848 53.2296 106.082 52.8807 105.24C52.5319 104.397 52.3524 103.494 52.3525 102.582C52.3527 101.67 52.5325 100.767 52.8817 99.9246C53.2308 99.0821 53.7425 98.3166 54.3875 97.6718C55.0325 97.0271 55.7981 96.5157 56.6407 96.1668C57.4833 95.818 58.3864 95.6385 59.2984 95.6387C60.2104 95.6388 61.1134 95.8186 61.9559 96.1678C62.7984 96.5169 63.5639 97.0286 64.2086 97.6736L83.7503 117.219L135.795 65.1736C137.098 63.871 138.864 63.139 140.706 63.1387C142.548 63.1383 144.314 63.8697 145.617 65.1718C146.919 66.474 147.651 68.2402 147.652 70.0821C147.652 71.9239 146.92 73.6904 145.618 74.993Z" fill="#3ABDFF"/>
</svg>
