<svg width="150" height="150" viewBox="0 0 150 150" fill="none" xmlns="http://www.w3.org/2000/svg">
<path fill-rule="evenodd" clip-rule="evenodd" d="M75 0C91.8632 0 107.426 5.56536 119.953 14.9595C138.197 28.6405 150 50.4418 150 75C150 76.815 149.936 78.6149 149.809 80.3976C147.907 107.138 131.987 130.003 109.356 141.686C99.0628 147 87.3818 150 75 150C57.9797 150 42.2836 144.33 29.6972 134.777C11.6528 121.08 0 99.401 0 75C0 46.6664 15.7115 22.0024 38.8975 9.2451C49.6075 3.35231 61.9123 0 75 0ZM47.7556 25.6432C30.3913 35.2486 18.6335 53.7512 18.6335 75L53.5709 75C53.5713 67.0355 57.9169 60.086 64.3662 56.3927L47.7556 25.6432ZM40.8603 119.855C50.3352 127.078 62.1667 131.366 75 131.366C84.2599 131.366 92.9983 129.134 100.706 125.177L84.4874 94.2201C81.6274 95.6347 78.4063 96.4297 74.9995 96.4297C70.0168 96.4297 65.4314 94.7291 61.7919 91.8767L40.8603 119.855ZM131.366 75C131.366 56.5019 122.456 40.0849 108.693 29.8074L87.5764 57.6498C92.9399 61.5442 96.4277 67.8648 96.428 75L131.366 75ZM74.9995 82.4546C79.1159 82.4546 82.4529 79.1176 82.4529 75.0012C82.4529 70.8848 79.1159 67.5477 74.9995 67.5477C70.8831 67.5477 67.5461 70.8848 67.5461 75.0012C67.5461 79.1176 70.8831 82.4546 74.9995 82.4546Z" fill="#5B5B5B"/>
</svg>
