<svg width="80" height="70" viewBox="0 0 80 70" fill="none" xmlns="http://www.w3.org/2000/svg">
<path d="M79.2959 61.5729L44.1975 3.36525C43.3105 1.89416 41.7178 0.994629 39.9998 0.994629C38.2819 0.994629 36.6892 1.894 35.8022 3.36525L0.704055 61.5729C-0.208758 63.0868 -0.235789 64.9751 0.633586 66.5143C1.50296 68.0537 3.13374 69.0056 4.90156 69.0056H75.0983C76.8661 69.0056 78.4969 68.0535 79.3662 66.5143C80.2356 64.9749 80.2087 63.0868 79.2959 61.5729ZM40.0261 21.1293C42.0419 21.1293 43.7475 22.2665 43.7475 24.2821C43.7475 30.4326 43.0239 39.271 43.0239 45.4215C43.0239 47.0238 41.2666 47.6956 40.0261 47.6956C38.3723 47.6956 36.9767 47.0237 36.9767 45.4215C36.9767 39.271 36.2533 30.4326 36.2533 24.2821C36.2533 22.2665 37.907 21.1293 40.0261 21.1293ZM40.0778 59.2217C37.8037 59.2217 36.098 57.361 36.098 55.242C36.098 53.0712 37.8036 51.2623 40.0778 51.2623C42.1969 51.2623 44.0059 53.0712 44.0059 55.242C44.0059 57.361 42.1969 59.2217 40.0778 59.2217Z" fill="#F9B356"/>
</svg>
