<svg width="14" height="14" viewBox="0 0 14 14" fill="none" xmlns="http://www.w3.org/2000/svg">
<path d="M7 0C3.1339 0 0 3.13402 0 7C0 10.866 3.1339 14 7 14C10.8661 14 14 10.866 14 7C14 3.13402 10.8661 0 7 0ZM6.98489 11.5957C6.46714 11.5957 6.04594 11.1745 6.04594 10.6568C6.04594 10.139 6.46714 9.71781 6.98489 9.71781C7.50268 9.71781 7.92396 10.139 7.92396 10.6568C7.92396 11.1745 7.50268 11.5957 6.98489 11.5957ZM8.45588 6.98596C8.05004 7.36565 7.78194 7.61645 7.78194 8.22381V8.67308C7.78194 8.78677 7.68979 8.87897 7.57606 8.87897H6.45927C6.34554 8.87897 6.25339 8.78677 6.25339 8.67308V8.22381C6.25339 6.97645 6.90167 6.36774 7.37499 5.92328C7.77791 5.54532 8.04403 5.29566 8.04403 4.69712C8.04403 4.50808 8.04403 3.93281 7.01771 3.93281C6.05541 3.93281 6.01687 4.46328 6.00044 4.68979L5.96697 5.15039C5.96289 5.20582 5.93666 5.25729 5.89404 5.29303C5.85159 5.32885 5.79637 5.34582 5.74107 5.3403L4.62721 5.22884C4.51603 5.21772 4.43405 5.11992 4.44241 5.0085L4.47531 4.57149C4.57454 3.25492 5.57674 2.40421 7.02849 2.40421C7.78771 2.40421 8.42652 2.61734 8.87588 3.02054C9.33154 3.42946 9.5725 4.01298 9.5725 4.70795C9.57258 5.94032 8.92714 6.54467 8.45588 6.98596Z" fill="#5B5B5B"/>
</svg>
