<svg width="200" height="200" viewBox="0 0 200 200" fill="none" xmlns="http://www.w3.org/2000/svg">
<path d="M175.601 54.8615H24.3058C22.464 54.8615 20.6977 54.1299 19.3953 52.8276C18.093 51.5252 17.3613 49.7589 17.3613 47.9171C17.3613 46.0753 18.093 44.309 19.3953 43.0066C20.6977 41.7043 22.464 40.9727 24.3058 40.9727H175.601C177.443 40.9727 179.209 41.7043 180.511 43.0066C181.814 44.309 182.545 46.0753 182.545 47.9171C182.545 49.7589 181.814 51.5252 180.511 52.8276C179.209 54.1299 177.443 54.8615 175.601 54.8615Z" fill="#5B5B5B"/>
<path d="M175.601 90.4416H24.3058C22.464 90.4416 20.6977 89.71 19.3953 88.4076C18.093 87.1053 17.3613 85.339 17.3613 83.4972C17.3613 81.6554 18.093 79.889 19.3953 78.5867C20.6977 77.2844 22.464 76.5527 24.3058 76.5527H175.601C177.443 76.5527 179.209 77.2844 180.511 78.5867C181.814 79.889 182.545 81.6554 182.545 83.4972C182.545 85.339 181.814 87.1053 180.511 88.4076C179.209 89.71 177.443 90.4416 175.601 90.4416Z" fill="#5B5B5B"/>
<path d="M175.601 124.903H24.3058C22.464 124.903 20.6977 124.171 19.3953 122.869C18.093 121.566 17.3613 119.8 17.3613 117.958C17.3613 116.116 18.093 114.35 19.3953 113.048C20.6977 111.745 22.464 111.014 24.3058 111.014H175.601C177.443 111.014 179.209 111.745 180.511 113.048C181.814 114.35 182.545 116.116 182.545 117.958C182.545 119.8 181.814 121.566 180.511 122.869C179.209 124.171 177.443 124.903 175.601 124.903Z" fill="#5B5B5B"/>
<path d="M103.725 158.821H24.3155C22.4738 158.821 20.7074 158.089 19.4051 156.787C18.1028 155.484 17.3711 153.718 17.3711 151.876C17.3711 150.034 18.1028 148.268 19.4051 146.966C20.7074 145.663 22.4738 144.932 24.3155 144.932H103.725C105.567 144.932 107.333 145.663 108.636 146.966C109.938 148.268 110.67 150.034 110.67 151.876C110.67 153.718 109.938 155.484 108.636 156.787C107.333 158.089 105.567 158.821 103.725 158.821Z" fill="#5B5B5B"/>
</svg>
