<svg width="156" height="166" viewBox="0 0 156 166" fill="none" xmlns="http://www.w3.org/2000/svg">
<path d="M78.1564 136.393C81.9932 136.393 85.1008 133.285 85.1008 129.448V65.3058C85.1008 61.469 81.9932 58.3613 78.1564 58.3613C74.3196 58.3613 71.2119 61.469 71.2119 65.3058V129.448C71.2119 133.285 74.323 136.393 78.1564 136.393Z" fill="#5B5B5B"/>
<path d="M100.906 136.382C101.035 136.389 101.16 136.393 101.288 136.393C104.952 136.393 108.017 133.525 108.215 129.823L111.688 65.6811C111.896 61.8513 108.958 58.5769 105.129 58.3721C101.299 58.1603 98.0279 61.1012 97.8196 64.9311L94.3473 129.073C94.139 132.903 97.0765 136.178 100.906 136.382Z" fill="#5B5B5B"/>
<path d="M48.8616 129.823C49.0629 133.524 52.1254 136.392 55.7886 136.392C55.9136 136.392 56.0421 136.389 56.1706 136.382C60.0004 136.173 62.938 132.903 62.7296 129.073L59.2574 64.9304C59.0491 61.1006 55.7782 58.1666 51.9484 58.3714C48.1185 58.5798 45.181 61.8506 45.3893 65.6805L48.8616 129.823Z" fill="#5B5B5B"/>
<path d="M148.868 31.3335H133.452C132.476 31.0592 131.455 30.9169 130.42 30.9169H118.643V11.3405C118.643 5.28845 113.719 0.361328 107.664 0.361328H49.0663C43.0142 0.361328 38.0871 5.28498 38.0871 11.3405V30.9169H25.8927C24.858 30.9169 23.8406 31.0592 22.8614 31.3335H7.44477C3.8406 31.3335 0.916992 34.2572 0.916992 37.8613C0.916992 41.4655 3.8406 44.3891 7.44477 44.3891H14.8337L30.351 156.014C31.1219 161.549 35.9135 165.722 41.5003 165.722H114.42C119.99 165.722 124.778 161.566 125.566 156.052L141.476 44.3891H148.868C152.473 44.3891 155.396 41.4655 155.396 37.8613C155.396 34.2572 152.473 31.3335 148.868 31.3335ZM112.139 151.837H43.792L28.9135 44.8092H127.386L112.139 151.837ZM51.976 14.2537H104.754V30.9204H51.976V14.2537Z" fill="#5B5B5B"/>
</svg>
