<svg width="200" height="200" viewBox="0 0 200 200" fill="none" xmlns="http://www.w3.org/2000/svg">
<path d="M156.012 183.009H43.9775C38.6893 183.009 33.6372 180.579 30.1163 176.336C26.1511 171.558 24.5504 165.214 25.724 158.926C27.9809 146.853 32.7344 135.259 39.4705 125.395C46.158 115.6 54.8663 107.402 64.6476 101.686C67.9601 99.7524 72.2136 100.87 74.1476 104.179C76.0816 107.488 74.9636 111.745 71.6545 113.679C55.0018 123.405 43.2379 140.825 39.3802 161.478C38.974 163.659 39.5052 165.898 40.8038 167.461C41.4323 168.218 42.4913 169.117 43.9775 169.117H156.012C157.498 169.117 158.557 168.218 159.186 167.461C160.488 165.895 161.019 163.652 160.609 161.464C156.721 140.673 144.845 123.193 128.036 113.506C124.714 111.589 123.571 107.346 125.488 104.023C127.401 100.7 131.648 99.558 134.971 101.475C144.846 107.166 153.634 115.374 160.391 125.211C167.193 135.114 171.988 146.77 174.262 158.916C175.439 165.211 173.839 171.561 169.87 176.339C166.349 180.579 161.3 183.009 156.012 183.009Z" fill="#5B5B5B"/>
<path d="M99.9948 102.472C89.724 102.472 80.1302 97.8921 72.9809 89.5727C66.0885 81.5553 62.2969 70.9616 62.2969 59.7428C62.2969 48.5241 66.092 37.9303 72.9809 29.9129C80.1302 21.5935 89.724 17.0137 99.9948 17.0137C110.266 17.0137 119.859 21.5935 127.009 29.9129C133.901 37.9303 137.693 48.5241 137.693 59.7428C137.693 70.9616 133.898 81.5553 127.009 89.5727C119.859 97.8921 110.266 102.472 99.9948 102.472ZM99.9948 30.906C86.8663 30.906 76.1858 43.8435 76.1858 59.7463C76.1858 75.6491 86.8663 88.5866 99.9948 88.5866C113.123 88.5866 123.804 75.6491 123.804 59.7463C123.804 43.8435 113.123 30.906 99.9948 30.906Z" fill="#5B5B5B"/>
</svg>
