<svg width="200" height="200" viewBox="0 0 200 200" fill="none" xmlns="http://www.w3.org/2000/svg">
<path d="M91.2634 121.964C87.7877 120.029 83.4023 121.276 81.4683 124.752C74.8676 136.609 63.6245 148.175 30.312 144.071C26.3641 143.585 22.7703 146.391 22.2842 150.339C21.7981 154.286 24.6037 157.88 28.5516 158.366C33.6974 159.002 38.5481 159.321 43.1245 159.321C67.3155 159.321 83.687 150.38 94.0551 131.759C95.9856 128.283 94.7356 123.898 91.2634 121.964Z" fill="#5B5B5B"/>
<path d="M105.759 78.1967C106.895 78.853 108.131 79.162 109.353 79.162C111.839 79.162 114.263 77.8703 115.596 75.5613C121.044 66.1308 129.572 56.8877 150.558 55.9606L137.975 68.3078C135.134 71.0926 135.093 75.6516 137.877 78.4919C139.287 79.9294 141.152 80.6481 143.016 80.6481C144.836 80.6481 146.659 79.9641 148.058 78.5856L171.325 55.7557C172.343 55.1585 173.204 54.3183 173.825 53.3009L177.867 49.3321L148.614 19.5196C145.829 16.6794 141.27 16.6377 138.43 19.4224C135.589 22.2071 135.548 26.7662 138.332 29.6065L150.072 41.5717C128.155 42.5092 113.009 51.228 103.117 68.353C101.134 71.8044 102.315 76.2071 105.759 78.1967Z" fill="#5B5B5B"/>
<path d="M148.617 121.422C145.832 118.582 141.273 118.54 138.433 121.325C135.593 124.11 135.551 128.669 138.336 131.509L151.471 144.894C119.579 143.929 113.346 123.509 105.707 98.4883C101.162 83.5924 96.4574 68.1896 85.4574 56.9709C72.8289 44.0889 54.2178 39.3251 28.565 42.4049C24.6171 42.8806 21.8011 46.4639 22.2734 50.4118C22.7491 54.3598 26.3324 57.1723 30.2803 56.7035C51.4886 54.1549 65.7525 57.4466 75.1727 67.0507C83.7109 75.7591 87.7039 88.8389 91.9296 102.69C96.4609 117.53 101.145 132.877 112.072 144.02C121.183 153.311 133.426 158.329 149.207 159.176L137.968 170.204C135.128 172.988 135.086 177.547 137.871 180.388C139.28 181.825 141.145 182.544 143.009 182.544C144.829 182.544 146.652 181.86 148.051 180.481L172.062 156.922C172.534 156.558 172.961 156.145 173.329 155.679L177.864 151.231L148.617 121.422Z" fill="#5B5B5B"/>
</svg>
