<svg width="130" height="168" viewBox="0 0 130 168" fill="none" xmlns="http://www.w3.org/2000/svg">
<path d="M73.7291 0.666016H9.33676C6.8789 0.666016 4.52167 1.64237 2.7837 3.38034C1.04574 5.11831 0.0693359 7.4755 0.0693359 9.93336V158.225C0.0693359 160.683 1.04574 163.04 2.7837 164.778C4.52167 166.516 6.8789 167.492 9.33676 167.492H120.555C123.013 167.492 125.371 166.516 127.109 164.778C128.846 163.04 129.823 160.683 129.823 158.225V56.7598L73.7291 0.666016ZM105.059 51.6486H78.7951V25.3813L105.059 51.6486ZM115.927 153.604H13.9582V14.5549H64.9131V65.5375H115.934L115.927 153.604Z" fill="#9B9B9B"/>
</svg>
