<svg width="163" height="35" viewBox="0 0 163 35" fill="none" xmlns="http://www.w3.org/2000/svg">
<path fill-rule="evenodd" clip-rule="evenodd" d="M45.3456 17.5986C45.0951 18.9387 43.9192 19.953 42.5065 19.953C41.0937 19.953 39.9179 18.9387 39.6674 17.5986H38.48C38.2149 17.5986 38 17.3837 38 17.1186C38 16.8535 38.2149 16.6386 38.48 16.6386H39.6493C39.8553 15.2454 41.056 14.1763 42.5065 14.1763C43.9569 14.1763 45.1577 15.2454 45.3636 16.6386H56.9375C57.2026 16.6386 57.4175 16.8535 57.4175 17.1186C57.4175 17.3837 57.2026 17.5986 56.9375 17.5986H45.3456ZM44.424 17.0646C44.424 18.1236 43.5655 18.9821 42.5065 18.9821C41.4475 18.9821 40.589 18.1236 40.589 17.0646C40.589 16.0056 41.4475 15.1471 42.5065 15.1471C43.5655 15.1471 44.424 16.0056 44.424 17.0646Z" fill="#1D2951"/>
<path fill-rule="evenodd" clip-rule="evenodd" d="M53.3001 24.5917C53.0715 25.9585 51.8831 27.0001 50.4515 27.0001C49.0217 27.0001 47.8346 25.9612 47.6037 24.5972H38.48C38.2149 24.5972 38 24.3823 38 24.1172C38 23.8521 38.2149 23.6372 38.48 23.6372H47.6019C47.8283 22.2678 49.0179 21.2234 50.4515 21.2234C51.8831 21.2234 53.0715 22.265 53.3001 23.6317H56.932C57.1971 23.6317 57.412 23.8466 57.412 24.1117C57.412 24.3768 57.1971 24.5917 56.932 24.5917H53.3001ZM52.3689 24.1117C52.3689 25.1707 51.5105 26.0292 50.4515 26.0292C49.3925 26.0292 48.534 25.1707 48.534 24.1117C48.534 23.0527 49.3925 22.1943 50.4515 22.1943C51.5105 22.1943 52.3689 23.0527 52.3689 24.1117Z" fill="#1D2951"/>
<path fill-rule="evenodd" clip-rule="evenodd" d="M53.3001 10.3684C53.0715 11.7351 51.8831 12.7767 50.4515 12.7767C49.0217 12.7767 47.8346 11.7378 47.6037 10.3738H38.48C38.2149 10.3738 38 10.1589 38 9.89378C38 9.62869 38.2149 9.41378 38.48 9.41378H47.6019C47.8283 8.04437 49.0179 7 50.4515 7C51.8831 7 53.0715 8.04162 53.3001 9.40835H56.932C57.1971 9.40835 57.412 9.62325 57.412 9.88835C57.412 10.1534 57.1971 10.3684 56.932 10.3684H53.3001ZM52.3689 9.88835C52.3689 10.9473 51.5105 11.8058 50.4515 11.8058C49.3925 11.8058 48.534 10.9473 48.534 9.88835C48.534 8.82936 49.3925 7.97087 50.4515 7.97087C51.5105 7.97087 52.3689 8.82936 52.3689 9.88835Z" fill="#1D2951"/>
</svg>

