<svg width="167" height="165" viewBox="0 0 167 165" fill="none" xmlns="http://www.w3.org/2000/svg">
<path d="M159.173 129.493H132.955C129.59 117.99 118.944 109.566 106.371 109.566C93.7984 109.566 83.1526 117.99 79.7915 129.493H7.4234C3.32965 129.493 0.0136719 132.809 0.0136719 136.903C0.0136719 140.993 3.32965 144.309 7.4234 144.309H79.5935C82.722 156.174 93.5415 164.945 106.371 164.945C119.201 164.945 130.024 156.174 133.153 144.309H159.173C163.264 144.309 166.583 140.993 166.583 136.903C166.583 132.809 163.264 129.493 159.173 129.493ZM118.229 144.309C115.819 148.348 111.406 151.056 106.371 151.056C101.34 151.056 96.9269 148.348 94.5137 144.309C93.281 142.243 92.5727 139.83 92.5727 137.254C92.5727 137.136 92.5727 137.018 92.5762 136.903C92.6456 134.16 93.5206 131.615 94.9686 129.493C97.4547 125.851 101.639 123.455 106.371 123.455C111.107 123.455 115.291 125.851 117.778 129.493C119.225 131.615 120.1 134.16 120.17 136.903C120.173 137.018 120.173 137.136 120.173 137.254C120.173 139.83 119.465 142.243 118.229 144.309Z" fill="#1D2951"/>
<path d="M159.173 74.5499H75.4546C72.0796 63.0707 61.4477 54.668 48.8852 54.668C36.3262 54.668 25.6942 63.0707 22.3192 74.5499H7.4234C3.32965 74.5499 0.0136719 77.8693 0.0136719 81.9596C0.0136719 86.0534 3.32965 89.3693 7.4234 89.3693H22.097C25.2116 101.251 36.0415 110.046 48.8852 110.046C61.7324 110.046 72.5623 101.251 75.6769 89.3693H159.173C163.264 89.3693 166.583 86.0534 166.583 81.9596C166.583 77.8693 163.264 74.5499 159.173 74.5499ZM60.7672 89.3693C58.3644 93.4284 53.9373 96.1575 48.8852 96.1575C43.8366 96.1575 39.4095 93.4284 37.0033 89.3693C35.788 87.3138 35.0866 84.9145 35.0866 82.3555C35.0866 82.2235 35.0901 82.0916 35.0901 81.9596C35.1699 79.2166 36.0553 76.6679 37.5137 74.5499C40.0033 70.9318 44.1734 68.5569 48.8852 68.5569C53.6005 68.5569 57.7706 70.9318 60.2602 74.5499C61.7185 76.6679 62.604 79.2166 62.6838 81.9596C62.6838 82.0916 62.6873 82.2235 62.6873 82.3555C62.6873 84.9145 61.9859 87.3138 60.7672 89.3693Z" fill="#1D2951"/>
<path d="M159.173 20.7298H132.982C129.649 9.17772 118.979 0.708984 106.371 0.708984C93.7637 0.708984 83.097 9.17772 79.7637 20.7298H7.4234C3.32965 20.7298 0.0136719 24.0458 0.0136719 28.1395C0.0136719 32.2298 3.32965 35.5458 7.4234 35.5458H79.6213C82.7775 47.3618 93.5727 56.0875 106.371 56.0875C119.17 56.0875 129.969 47.3618 133.125 35.5458H159.173C163.264 35.5458 166.583 32.2298 166.583 28.1395C166.583 24.0458 163.264 20.7298 159.173 20.7298ZM118.173 35.5458C115.753 39.5319 111.368 42.1986 106.371 42.1986C101.378 42.1986 96.9928 39.5319 94.5692 35.5458C93.3053 33.4625 92.5727 31.0145 92.5727 28.4C92.5727 28.3132 92.5727 28.2263 92.5762 28.1395C92.6248 25.4 93.4789 22.8548 94.906 20.7298C97.3852 17.0354 101.597 14.5979 106.371 14.5979C111.146 14.5979 115.361 17.0354 117.84 20.7298C119.267 22.8548 120.121 25.4 120.17 28.1395C120.173 28.2263 120.173 28.3132 120.173 28.4C120.173 31.0145 119.441 33.4625 118.173 35.5458Z" fill="#1D2951"/>
</svg>
