<svg width="168" height="134" viewBox="0 0 168 134" fill="none" xmlns="http://www.w3.org/2000/svg">
<path d="M94.9482 25.7506L94.667 25.4694L88.3961 19.2194L84.5767 15.4L69.5316 0.333984H18.7225C13.9369 0.333982 9.34705 2.23392 5.96147 5.61624C2.5759 8.99856 0.671594 13.5865 0.666992 18.3722V115.629C0.671594 120.415 2.5759 125.003 5.96147 128.385C9.34705 131.767 13.9369 133.667 18.7225 133.667H149.309C154.095 133.667 158.685 131.767 162.07 128.385C165.456 125.003 167.36 120.415 167.365 115.629V34.3201C167.365 32.0474 166.462 29.8677 164.855 28.2606C163.248 26.6535 161.068 25.7506 158.795 25.7506H94.9482ZM152.316 115.629C152.315 116.426 151.998 117.19 151.434 117.753C150.871 118.316 150.106 118.633 149.309 118.633H18.7225C17.9257 118.633 17.1614 118.316 16.5975 117.753C16.0337 117.19 15.7165 116.426 15.7156 115.629V66.6534H152.316V115.629ZM152.316 52.7645H15.7121V18.3722C15.7131 17.575 16.0301 16.8107 16.5939 16.247C17.1576 15.6832 17.9219 15.3662 18.7191 15.3652H64.917L89.1913 39.6395H152.313L152.316 52.7645Z" fill="#9B9B9B"/>
</svg>
