<svg width="62" height="60" viewBox="0 0 62 60" fill="none" xmlns="http://www.w3.org/2000/svg">
<path d="M57.3793 15.316C54.6293 10.6043 50.8992 6.87404 46.1879 4.12437C41.4759 1.37455 36.3318 0 30.752 0C25.1728 0 20.027 1.37498 15.316 4.12437C10.6043 6.8739 6.87432 10.6043 4.12437 15.316C1.37484 20.0276 0 25.1727 0 30.7511C0 37.4521 1.95503 43.4778 5.86609 48.8297C9.77672 54.1821 14.8287 57.8857 21.0215 59.941C21.7424 60.0748 22.276 59.9807 22.623 59.6611C22.9701 59.3411 23.1435 58.9402 23.1435 58.4603C23.1435 58.3802 23.1366 57.6598 23.1233 56.2981C23.1095 54.9365 23.1031 53.7486 23.1031 52.735L22.1821 52.8943C21.5949 53.0019 20.8541 53.0475 19.9597 53.0346C19.0658 53.0221 18.1378 52.9284 17.177 52.7542C16.2157 52.5816 15.3216 52.1812 14.494 51.5539C13.6669 50.9266 13.0797 50.1054 12.7325 49.0917L12.3321 48.1703C12.0653 47.5569 11.6451 46.8754 11.0711 46.1284C10.497 45.3808 9.91654 44.8739 9.32933 44.607L9.04898 44.4064C8.86217 44.273 8.68882 44.1121 8.52852 43.9254C8.36836 43.7388 8.24845 43.552 8.16837 43.3649C8.08815 43.1777 8.15463 43.0241 8.3685 42.9036C8.58238 42.7831 8.9689 42.7247 9.52974 42.7247L10.3303 42.8443C10.8642 42.9513 11.5246 43.2709 12.3124 43.8051C13.0997 44.3389 13.747 45.0328 14.2542 45.8867C14.8685 46.9814 15.6086 47.8156 16.4766 48.3896C17.3439 48.9637 18.2183 49.2502 19.099 49.2502C19.9798 49.2502 20.7405 49.1834 21.3814 49.0506C22.0216 48.9171 22.6223 48.7164 23.1831 48.4497C23.4234 46.6604 24.0775 45.2858 25.1449 44.325C23.6235 44.1651 22.2557 43.9243 21.0407 43.6041C19.8265 43.2835 18.5717 42.7632 17.2772 42.0418C15.9821 41.3214 14.9076 40.4267 14.0537 39.3595C13.1996 38.2916 12.4986 36.8897 11.9518 35.155C11.4047 33.4196 11.1311 31.4177 11.1311 29.1488C11.1311 25.9182 12.1857 23.1691 14.2946 20.8999C13.3067 18.4711 13.4 15.7484 14.5747 12.732C15.3488 12.4915 16.4969 12.672 18.0183 13.2724C19.54 13.873 20.6541 14.3876 21.3618 14.8142C22.0695 15.2407 22.6365 15.6021 23.0637 15.8952C25.5467 15.2014 28.1092 14.8545 30.7517 14.8545C33.3942 14.8545 35.9572 15.2014 38.4404 15.8952L39.9619 14.9347C41.0024 14.2938 42.2311 13.7064 43.6451 13.1725C45.0599 12.6389 46.1418 12.4919 46.8896 12.7324C48.0903 15.749 48.1974 18.4716 47.2092 20.9004C49.3179 23.1695 50.373 25.9194 50.373 29.1492C50.373 31.4181 50.0984 33.4263 49.5521 35.1751C49.0052 36.9241 48.2982 38.3246 47.4309 39.3795C46.5626 40.4343 45.4813 41.3219 44.1869 42.0422C42.8921 42.7631 41.6369 43.2834 40.4227 43.604C39.2078 43.9246 37.84 44.1656 36.3186 44.3257C37.7062 45.5265 38.4002 47.4219 38.4002 50.0112V58.4592C38.4002 58.9391 38.5671 59.3398 38.9011 59.66C39.2348 59.9796 39.7617 60.0737 40.4825 59.9398C46.6762 57.8847 51.7282 54.181 55.6387 48.8286C59.5488 43.4767 61.5045 37.451 61.5045 30.75C61.5031 25.1723 60.1276 20.0276 57.3793 15.316Z" fill="#323131"/>
</svg>
