<svg width="24" height="24" viewBox="0 0 24 24" fill="none" xmlns="http://www.w3.org/2000/svg">
<path d="M12.2528 2C6.59073 2 2 6.59073 2 12.2528C2 16.7835 4.93743 20.6258 9.01187 21.9812C9.52439 22.0751 9.71151 21.7584 9.71151 21.4881C9.71151 21.244 9.70211 20.4355 9.69711 19.5794C6.84605 20.199 6.24342 18.3704 6.24342 18.3704C5.77659 17.1865 5.10512 16.8711 5.10512 16.8711C4.17333 16.2353 5.1758 16.2478 5.1758 16.2478C6.20521 16.3191 6.74717 17.3041 6.74717 17.3041C7.66207 18.8711 9.14766 18.418 9.73089 18.1552C9.82409 17.4943 10.0894 17.0413 10.3817 16.786C8.10574 16.5269 5.71151 15.647 5.71151 11.7184C5.71151 10.5982 6.11139 9.68459 6.76595 8.96682C6.66144 8.70649 6.3085 7.66331 6.86732 6.25219C6.86732 6.25219 7.72715 5.97684 9.68707 7.3035C10.5043 7.07509 11.3811 6.96245 12.2528 6.95869C13.1239 6.96245 14.0012 7.07634 14.8197 7.30474C16.7759 5.97684 17.637 6.25343 17.637 6.25343C18.1977 7.66581 17.8448 8.70773 17.7396 8.96682C18.3967 9.68459 18.7935 10.5982 18.7935 11.7184C18.7935 15.657 16.3955 16.5244 14.1114 16.7784C14.4806 17.0963 14.8072 17.7196 14.8072 18.6758C14.8072 20.0463 14.7935 21.1514 14.7935 21.4893C14.7935 21.7622 14.9799 22.0813 15.4994 21.9812C19.5707 20.6232 22.5056 16.781 22.5056 12.2528C22.5056 6.59073 17.9149 2 12.2528 2Z" fill="black"/>
</svg>
