<svg width="57" height="53" viewBox="0 0 57 53" fill="none" xmlns="http://www.w3.org/2000/svg">
<path d="M28.1124 52.2809L0.921385 32.5056C0.584306 32.2809 0.247227 31.8315 0.134868 31.382C0.0225083 30.9326 0.0225083 30.4831 0.134868 30.0337L3.28094 20.4831L28.1124 52.2809ZM11.5955 1.26966L17.7753 20.4831H3.28094L9.46071 1.26966C9.57307 0.820227 10.0225 0.595507 10.4719 0.595507C11.1461 0.483148 11.4832 0.820227 11.5955 1.26966ZM17.7753 20.4831H38.4495L28.1124 52.2809L17.7753 20.4831ZM56.2023 30.1461C56.3146 30.5955 56.3146 31.0449 56.2023 31.4944C56.0899 31.9438 55.7528 32.2809 55.4158 32.618L28.1124 52.2809L52.9439 20.4831L56.2023 30.1461ZM52.9439 20.4831H38.5618L44.7416 1.26966C44.854 0.820227 45.3034 0.595507 45.7528 0.595507C46.3146 0.595507 46.6517 0.820227 46.7641 1.26966L52.9439 20.4831Z" fill="#FCA326"/>
</svg>
