<svg width="24" height="24" viewBox="0 0 24 24" fill="none" xmlns="http://www.w3.org/2000/svg">
<path d="M8.70373 2.53636C6.29826 3.38152 4.21785 5.20188 3.04762 7.47733C2.65754 8.25748 2.33248 9.10265 2.20245 10.0128C1.74736 12.1582 2.07243 14.4987 3.04762 16.4491C3.69775 17.7493 4.60792 18.8546 5.77815 19.7647C6.81836 20.6099 8.0536 21.26 9.41887 21.5851C11.1092 22.0402 12.8645 22.0402 14.4899 21.6501C15.9852 21.325 17.4154 20.6099 18.5857 19.5047C19.8209 18.3995 20.6661 16.9692 21.1212 15.3439C21.6413 13.6535 21.7063 11.8332 21.3812 10.0778C18.2606 10.0778 15.14 10.0778 12.0194 10.0778C12.0194 11.3781 12.0194 12.6783 12.0194 13.9786C13.8397 13.9786 15.6601 13.9786 17.4154 13.9786C17.2204 15.2138 16.4402 16.3841 15.4 17.0342C14.7499 17.4893 13.9698 17.7493 13.1896 17.8794C12.4095 18.0094 11.5643 18.0094 10.7841 17.8794C10.004 17.7493 9.22383 17.3593 8.5737 16.9042C7.5335 16.189 6.68833 15.0838 6.29826 13.8486C5.84317 12.6133 5.84317 11.2481 6.29826 9.94781C6.62332 9.10264 7.07841 8.25748 7.72854 7.60735C8.50869 6.76218 9.54889 6.17707 10.7191 5.98203C11.6943 5.78699 12.6695 5.78699 13.6447 6.11206C14.4249 6.37211 15.205 6.8272 15.7901 7.3473C16.3752 6.76219 17.0254 6.11206 17.6105 5.52694C17.9355 5.20188 18.2606 4.87682 18.5857 4.55175C17.6755 3.70659 16.5703 2.99144 15.4 2.53636C13.2546 1.82121 10.8491 1.82121 8.70373 2.53636Z" fill="white"/>
<path d="M8.70299 2.53679C10.8484 1.82165 13.2539 1.82165 15.3993 2.60181C16.5695 3.0569 17.6747 3.70702 18.5849 4.6172C18.2599 4.94227 17.9348 5.26733 17.6097 5.5924C17.0246 6.17751 16.3745 6.82764 15.7894 7.41275C15.2043 6.82764 14.4241 6.37255 13.644 6.17751C12.7338 5.91746 11.6936 5.85245 10.7184 6.04748C9.61316 6.30754 8.57296 6.89265 7.72779 7.6728C7.07767 8.32293 6.55756 9.1681 6.29751 10.0133C5.1923 9.1681 4.15209 8.32293 3.04688 7.47777C4.2171 5.20232 6.29751 3.38196 8.70299 2.53679Z" fill="#EA4335"/>
<path d="M2.20245 10.013C2.39749 9.16787 2.65754 8.3227 3.04762 7.47754C4.15284 8.3227 5.19304 9.16787 6.29826 10.013C5.84317 11.2483 5.84317 12.6135 6.29826 13.9138C5.19304 14.759 4.15284 15.6041 3.04762 16.4493C2.07243 14.4339 1.74736 12.1585 2.20245 10.013Z" fill="#FBBC05"/>
<path d="M11.9541 10.0776C15.0747 10.0776 18.1953 10.0776 21.3159 10.0776C21.641 11.833 21.576 13.6533 21.0559 15.3437C20.6008 16.904 19.7556 18.3343 18.5204 19.5045C17.4802 18.6593 16.44 17.8792 15.3348 17.034C16.375 16.3189 17.0901 15.2136 17.3502 13.9784C15.5298 13.9784 13.7094 13.9784 11.9541 13.9784C11.9541 12.6781 11.9541 11.3779 11.9541 10.0776Z" fill="#4285F4"/>
<path d="M3.04688 16.4491C4.15209 15.6039 5.1923 14.7587 6.29751 13.9136C6.68759 15.1488 7.53276 16.254 8.57296 16.9692C9.22309 17.4243 10.0032 17.7493 10.7834 17.9444C11.5635 18.0744 12.3437 18.0744 13.1889 17.9444C13.969 17.8143 14.7492 17.4893 15.3993 17.0992C16.4395 17.9444 17.4797 18.7245 18.5849 19.5697C17.4147 20.6099 16.0494 21.325 14.4891 21.7151C12.7988 22.1052 11.0434 22.1052 9.41813 21.6501C8.11787 21.325 6.88263 20.6749 5.77741 19.8297C4.67219 18.8545 3.697 17.6843 3.04688 16.4491Z" fill="#34A853"/>
</svg>
