<svg width="18" height="13" viewBox="0 0 18 16" fill="none" xmlns="http://www.w3.org/2000/svg">
<path d="M3.44008 11.2833C3.49617 11.3278 3.56324 11.3497 3.63 11.3497C3.71962 11.3497 3.80833 11.3104 3.86868 11.2348C3.97355 11.1031 3.9519 10.9114 3.82021 10.8065C3.57604 10.612 3.33949 10.4008 3.11757 10.1785L0.862383 7.92334L3.18798 5.59775C5.42366 3.36238 8.67596 2.59937 11.6743 3.60594C11.8338 3.65868 12.0066 3.57332 12.0606 3.41389C12.1139 3.25446 12.0282 3.08132 11.8685 3.02767C8.64883 1.94702 5.15723 2.76642 2.75694 5.1664L0 7.92334L2.68622 10.6096C2.9243 10.8479 3.17823 11.0744 3.44008 11.2833Z" fill="#9B9B9B"/>
<path d="M15.314 5.16708C14.9031 4.75616 14.4525 4.38548 13.9746 4.06479C13.8349 3.97121 13.645 4.0084 13.5515 4.14801C13.4576 4.28763 13.4951 4.47724 13.6347 4.57113C14.0797 4.86956 14.4998 5.21525 14.8827 5.59812L17.1379 7.8533L14.8123 10.1789C12.561 12.4301 9.16881 13.1913 6.16952 12.1164C6.01101 12.0594 5.83634 12.1421 5.77964 12.3006C5.72294 12.4591 5.80524 12.6334 5.96376 12.6905C6.93375 13.038 7.94215 13.2065 8.94384 13.2065C11.267 13.2065 13.5542 12.299 15.2433 10.6099L17.9999 7.8533L15.314 5.16708Z" fill="#9B9B9B"/>
<path d="M9.30935 11.4005C8.65304 11.4005 8.01349 11.2182 7.45899 10.8731C7.31664 10.7847 7.12855 10.828 7.03923 10.971C6.95022 11.1139 6.99412 11.3017 7.13709 11.3907C7.78791 11.7962 8.53934 12.0102 9.30935 12.0102C11.5786 12.0102 13.4247 10.1641 13.4247 7.89487C13.4247 7.07638 13.1847 6.28564 12.7311 5.60798C12.6373 5.46806 12.4476 5.43057 12.3083 5.52415C12.1684 5.61804 12.1309 5.80735 12.2245 5.94696C12.6107 6.52402 12.815 7.1974 12.815 7.89487C12.815 9.82814 11.2423 11.4005 9.30935 11.4005Z" fill="#9B9B9B"/>
<path d="M9.30896 4.38946C9.93845 4.38946 10.5554 4.55803 11.0938 4.8772C11.2383 4.96286 11.4254 4.9153 11.5114 4.7702C11.5971 4.6254 11.5495 4.43854 11.4044 4.35257C10.7722 3.97793 10.0476 3.77979 9.30866 3.77979C7.03945 3.77979 5.19336 5.62588 5.19336 7.89508C5.19336 8.53036 5.33419 9.13973 5.61221 9.70612C5.66525 9.81403 5.77346 9.87683 5.88625 9.87683C5.93106 9.87683 5.97709 9.86677 6.02008 9.84573C6.17128 9.77135 6.23377 9.58875 6.15969 9.43786C5.92314 8.95561 5.80303 8.43678 5.80303 7.89539C5.80334 5.96211 7.37599 4.38946 9.30896 4.38946Z" fill="#9B9B9B"/>
<path d="M16.6504 0.363319C16.5312 0.244128 16.3386 0.244128 16.2194 0.363319L2.04447 14.5382C1.92528 14.6574 1.92528 14.8501 2.04447 14.9693C2.10391 15.0287 2.18195 15.0586 2.25999 15.0586C2.33803 15.0586 2.41607 15.0287 2.47551 14.9693L16.6504 0.794358C16.7696 0.675472 16.7696 0.48251 16.6504 0.363319Z" fill="#9B9B9B"/>
</svg>
