<svg width="200" height="200" viewBox="0 0 200 200" fill="none" xmlns="http://www.w3.org/2000/svg">
<path d="M164.943 62.3527C158.237 50.8626 149.139 41.7652 137.649 35.0586C126.156 28.3524 113.61 25 100.002 25C86.395 25 73.8456 28.3524 62.3551 35.0586C50.864 41.7642 41.7665 50.8616 35.0597 62.3527C28.3524 73.8446 25 86.394 25 100C25 113.607 28.3534 126.154 35.0586 137.647C41.7652 149.137 50.8626 158.234 62.3538 164.941C73.8456 171.647 86.394 175 100.001 175C113.607 175 126.157 171.647 137.648 164.941C149.139 158.237 158.236 149.137 164.942 137.647C171.647 126.155 174.999 113.606 174.999 100C175 86.3926 171.647 73.8428 164.943 62.3527ZM87.5015 43.7487C87.5015 42.8368 87.794 42.0888 88.3806 41.5032C88.9662 40.9179 89.7156 40.6241 90.6268 40.6241H109.378C110.288 40.6241 111.038 40.9179 111.622 41.5032C112.207 42.0888 112.502 42.8368 112.502 43.7487V59.3742C112.502 60.2854 112.207 61.0345 111.622 61.6194C111.038 62.205 110.289 62.4978 109.378 62.4978H90.6268C89.7156 62.4978 88.9665 62.205 88.3806 61.6194C87.794 61.0348 87.5015 60.2854 87.5015 59.3742V43.7487ZM125.001 146.875C125.001 147.786 124.706 148.535 124.122 149.119C123.539 149.705 122.79 149.998 121.877 149.998H78.126C77.2137 149.998 76.4657 149.705 75.8798 149.119C75.2942 148.535 75.0014 147.786 75.0014 146.874V131.249C75.0014 130.335 75.2942 129.589 75.8798 129.002C76.4657 128.418 77.2148 128.123 78.126 128.123H87.5015V96.8744H78.126C77.2137 96.8744 76.466 96.5819 75.8798 95.996C75.2942 95.4107 75.0014 94.6616 75.0014 93.7497V78.1253C75.0014 77.2134 75.2942 76.4653 75.8798 75.8791C76.4664 75.2931 77.2155 75.0007 78.126 75.0007H109.378C110.288 75.0007 111.038 75.2931 111.622 75.8791C112.207 76.4653 112.502 77.2134 112.502 78.1253V128.126H121.875C122.788 128.126 123.537 128.418 124.122 129.003C124.705 129.589 125 130.338 125 131.25L125.001 146.875Z" fill="#5B5B5B"/>
</svg>
