<svg width="14" height="14" viewBox="0 0 14 14" fill="none" xmlns="http://www.w3.org/2000/svg">
<path d="M13.0614 3.48626C12.4354 2.41385 11.5863 1.56475 10.5139 0.938807C9.44126 0.312893 8.27033 0 7.00021 0C5.73021 0 4.55893 0.312893 3.48649 0.938807C2.41398 1.56466 1.56488 2.41376 0.938903 3.48626C0.312893 4.55884 0 5.73012 0 7.00002C0 8.26998 0.312989 9.44107 0.938807 10.5137C1.56475 11.5861 2.41385 12.4352 3.48636 13.0612C4.55893 13.6871 5.73012 14 7.00008 14C8.27004 14 9.44136 13.6871 10.5139 13.0612C11.5863 12.4354 12.4354 11.5861 13.0613 10.5137C13.6871 9.44116 14 8.26991 14 7.00002C14 5.72999 13.6871 4.55868 13.0614 3.48626ZM5.83349 1.74988C5.83349 1.66477 5.86079 1.59495 5.91554 1.5403C5.97019 1.48568 6.04014 1.45825 6.12519 1.45825H7.87529C7.96028 1.45825 8.03022 1.48568 8.08475 1.5403C8.13937 1.59495 8.16689 1.66477 8.16689 1.74988V3.20826C8.16689 3.29331 8.13937 3.36323 8.08475 3.41782C8.03022 3.47247 7.96031 3.4998 7.87529 3.4998H6.12519C6.04014 3.4998 5.97022 3.47247 5.91554 3.41782C5.86079 3.36326 5.83349 3.29331 5.83349 3.20826V1.74988ZM9.33345 11.375C9.33345 11.46 9.3059 11.53 9.2514 11.5845C9.19701 11.6392 9.12706 11.6665 9.04188 11.6665H4.95844C4.87329 11.6665 4.80347 11.6392 4.74879 11.5845C4.69413 11.53 4.66681 11.46 4.66681 11.3749V9.91655C4.66681 9.83131 4.69413 9.76162 4.74879 9.7069C4.80347 9.65238 4.87339 9.62486 4.95844 9.62486H5.83349V6.70829H4.95844C4.87329 6.70829 4.80351 6.68099 4.74879 6.62631C4.69413 6.57168 4.66681 6.50177 4.66681 6.41666V4.95837C4.66681 4.87326 4.69413 4.80344 4.74879 4.74872C4.80354 4.69404 4.87345 4.66674 4.95844 4.66674H7.87529C7.96028 4.66674 8.03022 4.69404 8.08475 4.74872C8.13937 4.80344 8.16689 4.87326 8.16689 4.95837V9.62508H9.04166C9.12687 9.62508 9.19678 9.65238 9.2514 9.707C9.3058 9.76165 9.33332 9.83154 9.33332 9.91665V11.3751H9.33345V11.375Z" fill="#5B5B5B"/>
</svg>
