<svg width="200" height="200" viewBox="0 0 200 200" fill="none" xmlns="http://www.w3.org/2000/svg">
<path d="M164.021 45.69L154.202 35.8671C137.669 21.8634 116.363 14.7928 94.7383 16.1337C73.1134 17.4746 52.8441 27.1232 38.1681 43.062C23.4921 59.0009 15.5457 79.996 15.9904 101.658C16.435 123.32 25.2363 143.971 40.554 159.294C55.8718 174.617 76.52 183.426 98.1817 183.878C119.843 184.33 140.841 176.391 156.785 161.721C172.729 147.051 182.385 126.785 183.734 105.16C185.082 83.5361 178.019 62.2276 164.021 45.69V45.69ZM99.9691 29.881C116.155 29.8334 131.849 35.4369 144.344 45.7247L99.8093 90.2594L55.4205 45.8706C67.941 35.4911 83.7059 29.8327 99.9691 29.881V29.881ZM29.9309 99.9191C29.885 83.8122 35.4351 68.1893 45.6323 55.7212L89.99 100.086L45.7712 144.294C35.4862 131.798 29.8841 116.104 29.9309 99.9191V99.9191ZM99.9691 169.957C83.7844 170.004 68.0906 164.402 55.5941 154.117L99.8093 109.902L144.167 154.252C131.7 164.451 116.077 170.003 99.9691 169.957ZM154.018 144.468L109.632 100.086L154.167 55.5476C164.436 68.0974 170.034 83.8205 170.007 100.036C169.98 116.252 164.329 131.956 154.018 144.471V144.468Z" fill="#5B5B5B"/>
</svg>
