<svg width="170" height="124" viewBox="0 0 170 124" fill="none" xmlns="http://www.w3.org/2000/svg">
<path d="M107.827 123.72C98.0314 123.72 88.2814 121.369 79.6252 116.918C71.2571 112.615 63.8578 106.341 58.2328 98.7682C56.3126 96.1849 56.8508 92.5356 59.4341 90.6155C62.0175 88.6953 65.6669 89.2335 67.587 91.8168C77.153 104.685 91.8196 112.063 107.83 112.063C135.458 112.063 157.938 89.5842 157.938 61.9557C157.938 34.3273 135.458 11.8481 107.83 11.8481C91.8196 11.8481 77.153 19.23 67.587 32.0981C65.6669 34.6814 62.0175 35.2196 59.4341 33.2995C56.8508 31.3793 56.3126 27.73 58.2328 25.1467C63.8612 17.5773 71.2571 11.2995 79.6286 6.9974C88.2849 2.54948 98.0349 0.195312 107.83 0.195312C141.886 0.195312 169.59 27.9002 169.59 61.9557C169.583 96.0148 141.879 123.72 107.827 123.72Z" fill="#24292A"/>
<path d="M119.98 67.7856H8.52171C5.30296 67.7856 2.69531 65.178 2.69531 61.9592C2.69531 58.7405 5.30296 56.1328 8.52171 56.1328H119.98C123.199 56.1328 125.806 58.7405 125.806 61.9592C125.806 65.178 123.199 67.7856 119.98 67.7856Z" fill="#24292A"/>
<path d="M32.261 91.1818C30.7853 91.1818 29.3061 90.6228 28.1707 89.5047L0.27832 62.0221L27.7609 34.1297C30.0179 31.8381 33.7088 31.8103 36.0005 34.0672C38.2922 36.3242 38.32 40.0151 36.0631 42.3068L16.7575 61.9006L36.3512 81.2061C38.6429 83.4631 38.6707 87.154 36.4103 89.4457C35.2714 90.6019 33.7679 91.1818 32.261 91.1818Z" fill="#24292A"/>
</svg>
