<svg width="40" height="30" viewBox="0 0 40 30" fill="none" xmlns="http://www.w3.org/2000/svg">
<rect width="40" height="29.6774" fill="#FBF7DB"/>
<path d="M14.8389 7.74219H19.2139C21.2434 7.74219 22.7085 8.03789 23.609 8.62928C24.5163 9.22068 24.9699 10.1548 24.9699 11.4317C24.9699 12.2919 24.7481 13.0076 24.3046 13.5789C23.861 14.1501 23.2226 14.5097 22.3893 14.6575V14.7583C23.4242 14.9532 24.1836 15.3396 24.6675 15.9176C25.1581 16.4888 25.4034 17.265 25.4034 18.2462C25.4034 19.5701 24.9397 20.6085 24.0123 21.3611C23.0916 22.1071 21.808 22.4801 20.1614 22.4801H14.8389V7.74219ZM17.2481 13.8309H19.5667C20.5748 13.8309 21.3106 13.673 21.7744 13.3571C22.2381 13.0345 22.4699 12.4902 22.4699 11.724C22.4699 11.0318 22.2179 10.5312 21.7139 10.222C21.2166 9.91289 20.4235 9.75832 19.3348 9.75832H17.2481V13.8309ZM17.2481 15.7865V20.4539H19.8086C20.8167 20.4539 21.5761 20.2623 22.0869 19.8793C22.6043 19.4895 22.8631 18.8779 22.8631 18.0446C22.8631 17.2785 22.601 16.7106 22.0768 16.341C21.5526 15.9714 20.7562 15.7865 19.6877 15.7865H17.2481Z" fill="#F9B356"/>
</svg>
