<svg width="14" height="14" viewBox="0 0 14 14" fill="none" xmlns="http://www.w3.org/2000/svg">
<path d="M0 6.99903C0 10.8648 3.13424 13.999 6.99999 13.999C10.8657 13.999 14 10.8648 14 6.99903C14 3.13329 10.8658 -4.1008e-05 7.00001 -4.1008e-05C3.13427 -4.1008e-05 0 3.13326 0 6.99903ZM10.4606 10.2252C10.2768 10.409 9.97668 10.409 9.79382 10.2252L6.98408 7.73989L4.17339 10.2252C3.98864 10.409 3.68946 10.409 3.50566 10.2252C3.32185 10.0414 3.32185 9.74218 3.50566 9.55838L6.6427 6.78425C6.73648 6.68953 6.85935 6.64544 6.98125 6.64733C7.10598 6.64358 7.22885 6.68858 7.32262 6.78144L10.4606 9.55649C10.6454 9.74218 10.6454 10.0404 10.4606 10.2252ZM7.32354 3.41742L10.4615 6.19246C10.6444 6.37627 10.6444 6.67639 10.4615 6.85926C10.2777 7.044 9.9776 7.044 9.79474 6.85926L6.985 4.37492L4.17431 6.8602C3.9905 7.04495 3.69132 7.04495 3.50752 6.8602C3.32371 6.67731 3.32371 6.37721 3.50752 6.19341L6.64456 3.41836C6.73834 3.32364 6.86121 3.2805 6.98405 3.28145C7.10692 3.28145 7.22976 3.32459 7.32354 3.41742Z" fill="#5B5B5B"/>
</svg>
