<svg width="150" height="150" viewBox="0 0 150 150" fill="none" xmlns="http://www.w3.org/2000/svg">
<path d="M150 75.0049C150 33.5834 116.419 0 75.0002 0C33.5815 0 0 33.5834 0 75.0049C0 116.426 33.5812 150 74.9998 150C116.419 150 150 116.427 150 75.0049ZM37.922 40.4369C39.8913 38.4674 43.107 38.4674 45.0662 40.4369L75.1706 67.0666L105.285 40.4369C107.265 38.4674 110.47 38.4674 112.439 40.4369C114.409 42.4064 114.409 45.6121 112.439 47.5816L78.8282 77.3064C77.8234 78.3213 76.507 78.7936 75.2009 78.7734C73.8645 78.8136 72.548 78.3314 71.5433 77.3364L37.922 47.6018C35.9425 45.6121 35.9425 42.4165 37.922 40.4369ZM71.5335 113.382L37.9122 83.6473C35.9527 81.6778 35.9527 78.462 37.9122 76.5026C39.8815 74.523 43.0972 74.523 45.0564 76.5026L75.1608 103.122L105.275 76.4925C107.245 74.5129 110.45 74.5129 112.419 76.4925C114.389 78.4522 114.389 81.6677 112.419 83.6372L78.8083 113.372C77.8035 114.387 76.487 114.849 75.1709 114.839C73.8544 114.839 72.5383 114.377 71.5335 113.382Z" fill="#5B5B5B"/>
</svg>
