<svg width="100" height="100" viewBox="0 0 100 100" fill="none" xmlns="http://www.w3.org/2000/svg">
<circle cx="50" cy="50" r="50" fill="#F5F5F5"/>
<path d="M75.6536 68.9498C69.3091 66.0846 69.0678 53.7862 69.0631 53.4759V45.2252C69.0631 37.2843 64.2107 30.456 57.3153 27.5486C57.3004 23.4659 53.9753 20.1492 49.8896 20.1492C45.8039 20.1492 42.4788 23.4661 42.4639 27.5484C35.5688 30.4558 30.7163 37.2841 30.7163 45.225V53.4757C30.7118 53.786 30.4702 66.0844 24.1256 68.9496C23.4028 69.2761 23.0056 70.0628 23.1727 70.8382C23.3396 71.6136 24.0253 72.1674 24.8185 72.1674H40.9028C41.2325 73.9813 42.0902 75.6687 43.402 77.0355C45.1442 78.8508 47.4483 79.8505 49.8893 79.8505C52.3306 79.8505 54.6346 78.8508 56.3767 77.0355C57.6887 75.6686 58.5464 73.9811 58.8759 72.1674H74.9602C75.7534 72.1674 76.439 71.6137 76.6061 70.8382C76.7734 70.0628 76.3764 69.2762 75.6536 68.9498ZM67.2961 63.0581C67.963 65.0802 68.9074 67.1108 70.2466 68.8006H29.5325C30.8715 67.111 31.8159 65.0805 32.4828 63.0581H67.2961ZM49.8896 23.5162C51.7378 23.5162 53.3003 24.758 53.7893 26.4507C52.5297 26.1895 51.2254 26.0517 49.8896 26.0517C48.5539 26.0517 47.2496 26.1894 45.99 26.4507C46.479 24.7581 48.0416 23.5162 49.8896 23.5162ZM34.0833 53.4861V45.2249C34.0833 36.5094 41.1739 29.4187 49.8896 29.4187C58.6054 29.4187 65.696 36.5094 65.696 45.2249V53.4998C65.6983 53.7531 65.7377 56.4146 66.4084 59.6909H33.3704C34.0416 56.4114 34.0812 53.7453 34.0833 53.4861ZM49.8896 76.4838C47.32 76.4838 45.0774 74.6311 44.3576 72.1675H55.4215C54.7017 74.6311 52.4594 76.4838 49.8896 76.4838Z" fill="#D8DBE3"/>
<path d="M49.889 31.781C42.6457 31.781 36.7529 37.6736 36.7529 44.9167C36.7529 45.8465 37.5067 46.6003 38.4365 46.6003C39.3662 46.6003 40.12 45.8465 40.12 44.9167C40.12 39.5302 44.5023 35.148 49.8891 35.148C50.8188 35.148 51.5726 34.3942 51.5726 33.4645C51.5725 32.5346 50.8187 31.781 49.889 31.781Z" fill="#D8DBE3"/>
</svg>
