<svg width="155" height="170" viewBox="0 0 155 170" fill="none" xmlns="http://www.w3.org/2000/svg">
<path d="M91.9944 14.681C91.9944 15.1046 91.977 15.5247 91.9353 15.9379C91.8173 15.8997 91.6957 15.865 91.5742 15.8303C87.2305 14.5699 82.6402 13.8928 77.8902 13.8928C73.2895 13.8928 68.8381 14.5282 64.6159 15.7157C64.5881 15.3754 64.5742 15.0282 64.5742 14.681C64.5742 7.11155 70.7096 0.972656 78.2826 0.972656C85.8555 0.972656 91.9944 7.11155 91.9944 14.681Z" fill="#9B9B9B"/>
<path d="M98.5503 148.762C98.5503 159.956 89.4774 169.029 78.283 169.029C67.0885 169.029 58.0156 159.956 58.0156 148.762H98.5503Z" fill="#9B9B9B"/>
<path d="M152.839 144.692H2.93924L1.76216 139.206C1.71355 138.98 1.28647 136.949 1.06077 134.626C0.734382 131.251 0.730912 127.008 3.64063 124.094C7.05383 120.681 10.908 118.428 14.3073 116.442C20.3524 112.907 21.8767 111.629 21.8767 108.74V60.5805H22.2517C23.401 50.6291 27.1719 41.2645 33.3281 33.1916C40.5747 23.6882 50.8559 16.6326 62.2795 13.327L62.4149 13.2888C62.5434 13.2506 62.6754 13.2159 62.8004 13.1812C67.6962 11.8097 72.7726 11.1152 77.8941 11.1152C83.1997 11.1152 88.4531 11.8583 93.5122 13.327C93.6615 13.3687 93.8247 13.4173 93.9844 13.4694C105.28 16.8479 115.432 23.9104 122.585 33.3618C128.665 41.3965 132.391 50.702 133.533 60.584H133.905L133.908 66.9555C133.908 67.0145 133.908 67.077 133.908 67.1361C133.908 67.1777 133.908 67.2159 133.908 67.2576V67.5284V108.744C133.908 111.636 135.429 112.91 141.477 116.445C144.877 118.431 148.727 120.685 152.144 124.098C155.054 127.008 155.054 131.254 154.724 134.629C154.498 136.952 154.071 138.983 154.023 139.209L152.839 144.692ZM17.4115 130.803H138.366C137.13 129.994 135.811 129.223 134.46 128.431C128.363 124.865 120.016 119.983 120.016 108.74V74.4694H119.835L120.016 67.3479C120.019 67.275 120.016 67.2055 120.016 67.1326C120.016 48.6361 107.655 32.0319 89.9531 26.7611L89.6406 26.6673C85.8386 25.5631 81.8872 25.0041 77.8906 25.0041C74.0191 25.0041 70.1858 25.5319 66.4948 26.5666L66.1302 26.6673C48.2483 31.8479 35.7622 48.4868 35.7622 67.1291C35.7622 67.1986 35.7622 67.2645 35.7622 67.334L35.9531 74.4659H35.7587V108.737C35.7587 119.98 27.408 124.862 21.3142 128.428C19.9636 129.223 18.6476 129.994 17.4115 130.803Z" fill="#9B9B9B"/>
</svg>
