<svg width="148" height="148" viewBox="0 0 148 148" fill="none" xmlns="http://www.w3.org/2000/svg">
<path d="M83.8253 73.9989L145.582 12.242C148.294 9.53016 148.294 5.13433 145.582 2.42253C142.87 -0.28928 138.475 -0.28928 135.759 2.42253L74.0024 64.1795L12.2455 2.42253C9.53365 -0.28928 5.1378 -0.28928 2.42253 2.42253C-0.28928 5.13433 -0.28928 9.53016 2.42253 12.242L64.1795 73.9989L2.42253 135.756C-0.28928 138.468 -0.28928 142.864 2.42253 145.575C3.78017 146.933 5.55448 147.61 7.33225 147.61C9.11003 147.61 10.8878 146.933 12.242 145.575L73.9989 83.8184L135.756 145.575C137.114 146.933 138.888 147.61 140.666 147.61C142.443 147.61 144.221 146.933 145.575 145.575C148.287 142.864 148.287 138.468 145.575 135.756L83.8253 73.9989Z" fill="#AB0101"/>
</svg>
