<svg width="161" height="162" viewBox="0 0 161 162" fill="none" xmlns="http://www.w3.org/2000/svg">
<path d="M136.819 43.35H106.868V24.4021C106.868 11.3813 96.2778 0.791016 83.257 0.791016H23.6111C10.5903 0.791016 0 11.3813 0 24.4021V84.048C0 97.0688 10.5903 107.659 23.6111 107.659H42.7153V137.454C42.7153 150.475 53.3056 161.065 66.3264 161.065H136.819C149.84 161.065 160.431 150.475 160.431 137.454V66.9612C160.431 53.9403 149.837 43.35 136.819 43.35ZM23.6077 93.7702C18.2466 93.7702 13.8855 89.4091 13.8855 84.048V24.4021C13.8855 19.041 18.2466 14.6799 23.6077 14.6799H83.2535C88.6146 14.6799 92.9757 19.041 92.9757 24.4021V43.35H66.3229C53.3021 43.35 42.7118 53.9403 42.7118 66.9612V93.7702H23.6077ZM92.9757 57.2389V84.048C92.9757 89.4091 88.6146 93.7702 83.2535 93.7702H56.6007V66.9612C56.6007 61.6 60.9618 57.2389 66.3229 57.2389H92.9757ZM146.542 137.454C146.542 142.815 142.181 147.176 136.819 147.176H66.3229C60.9618 147.176 56.6007 142.815 56.6007 137.454V107.659H83.2535C96.2743 107.659 106.865 97.0688 106.865 84.048V57.2389H136.816C142.177 57.2389 146.538 61.6 146.538 66.9612V137.454H146.542Z" fill="#5B5B5B"/>
</svg>
