<svg width="200" height="200" viewBox="0 0 200 200" fill="none" xmlns="http://www.w3.org/2000/svg">
<path d="M173.705 163.886L127.621 117.803C135.385 107.931 140.021 95.4937 140.021 81.9902C140.021 49.9902 113.989 23.959 81.9893 23.959C49.9893 23.959 23.958 49.9902 23.958 81.9902C23.958 113.99 49.9893 140.021 81.9893 140.021C95.4928 140.021 107.93 135.386 117.802 127.622L163.885 173.706C165.243 175.063 167.017 175.74 168.795 175.74C170.573 175.74 172.35 175.063 173.705 173.706C176.416 170.994 176.416 166.598 173.705 163.886ZM81.9893 126.133C57.649 126.133 37.8469 106.331 37.8469 81.9902C37.8469 57.65 57.649 37.8479 81.9893 37.8479C106.33 37.8479 126.132 57.65 126.132 81.9902C126.132 106.331 106.33 126.133 81.9893 126.133Z" fill="#9B9B9B"/>
</svg>
