<svg width="200" height="200" viewBox="0 0 200 200" fill="none" xmlns="http://www.w3.org/2000/svg">
<path d="M111.393 185.348H88.1781C82.5705 185.348 77.8899 181.143 77.2961 175.567C76.9316 172.143 76.4003 167.112 75.8031 161.15C69.9212 158.799 64.3483 155.577 59.3587 151.643C53.508 154.278 48.7163 156.41 46.1191 157.563C40.9906 159.837 35.0079 157.886 32.2059 153.028L20.5983 132.924C17.8309 128.129 19.0843 122.011 23.5149 118.692C26.2579 116.636 30.2892 113.629 35.0913 110.084C34.5774 106.747 34.317 103.362 34.317 99.9659C34.317 96.7854 34.5462 93.6048 34.9975 90.4659C29.7788 86.709 25.5427 83.6291 23.2545 81.9624C18.7232 78.6604 17.4177 72.5041 20.2232 67.6465L31.8309 47.5389C34.5982 42.7437 40.5253 40.7715 45.6156 42.9485C48.7545 44.2923 53.3725 46.2784 58.8691 48.6742C63.9871 44.5597 69.7267 41.2055 75.8031 38.7784C76.4038 32.8166 76.9316 27.7888 77.2961 24.3652C77.8934 18.7888 82.5705 14.584 88.1781 14.584H111.393C116.932 14.584 121.602 18.7298 122.261 24.2264C122.595 27.018 123.209 32.1812 123.928 38.5493C130.227 40.9937 136.164 44.4277 141.449 48.6777C147.324 46.1152 152.112 44.0597 154.702 42.952C159.793 40.7749 165.72 42.7472 168.487 47.5423L180.095 67.6465C182.9 72.5041 181.595 78.6604 177.064 81.9624C174.782 83.6256 170.557 86.6986 165.324 90.4659C165.779 93.6048 166.004 96.7819 166.004 99.9659C166.004 103.362 165.744 106.747 165.23 110.084C170.046 113.64 174.074 116.643 176.807 118.692C181.237 122.011 182.491 128.129 179.723 132.924L168.112 153.032C165.307 157.89 159.327 159.841 154.199 157.567C151.046 156.171 146.425 154.112 140.959 151.646C135.803 155.716 130.032 159.015 123.928 161.386C123.209 167.754 122.598 172.921 122.261 175.709C121.602 181.202 116.928 185.348 111.393 185.348ZM91.3378 170.89H108.272C108.72 167.101 109.362 161.581 110.06 155.254L110.584 150.521L115.14 149.136C122.411 146.924 129.237 143.018 134.873 137.848L138.393 134.619L142.744 136.587C148.393 139.146 153.39 141.383 157.168 143.063L165.636 128.396C162.352 125.945 157.984 122.699 152.991 119.028L149.157 116.212L150.227 111.577C151.098 107.796 151.543 103.89 151.543 99.9659C151.543 96.2055 151.136 92.4555 150.331 88.8201L149.303 84.1639L153.178 81.3861C158.373 77.6639 162.886 74.393 165.987 72.1395L157.518 57.4729C154.008 58.9833 148.897 61.1916 143.067 63.7472L138.709 65.6569L135.23 62.4069C129.518 57.0736 122.57 53.0562 115.143 50.7958L110.588 49.4104L110.063 44.6777C109.362 38.3548 108.723 32.8305 108.275 29.0423H91.3413C90.9073 33.15 90.3448 38.5909 89.7371 44.7541L89.2684 49.5076L84.7128 50.9416C77.4628 53.2229 70.6746 57.1881 65.0844 62.4104L61.6052 65.6569L57.2475 63.7472C51.56 61.2541 46.56 59.0909 42.7961 57.4729L34.3274 72.1395C37.435 74.3965 41.9593 77.6743 47.1364 81.3861L51.0114 84.1639L49.9837 88.8201C49.1816 92.4555 48.7719 96.2055 48.7719 99.9659C48.7719 103.89 49.2163 107.796 50.0878 111.574L51.1573 116.209L47.3239 119.025C42.3448 122.685 37.9697 125.938 34.6746 128.396L43.1434 143.063C46.6607 141.497 51.7719 139.212 57.567 136.587L61.9177 134.619L65.4385 137.848C70.9524 142.907 77.619 146.761 84.7128 148.994L89.2684 150.428L89.7371 155.181C90.3413 161.341 90.9038 166.782 91.3378 170.89Z" fill="#9B9B9B"/>
<path d="M100.074 135.122C80.657 135.122 64.8584 119.327 64.8584 99.9106C64.8584 80.4939 80.6536 64.6953 100.074 64.6953C119.49 64.6953 135.285 80.4905 135.285 99.9106C135.289 119.324 119.49 135.122 100.074 135.122ZM100.074 79.1537C88.6292 79.1537 79.3202 88.4627 79.3202 99.9071C79.3202 111.352 88.6292 120.661 100.074 120.661C111.518 120.661 120.827 111.352 120.827 99.9071C120.831 88.4627 111.518 79.1537 100.074 79.1537Z" fill="#9B9B9B"/>
</svg>
