<svg width="142" height="166" viewBox="0 0 142 166" fill="none" xmlns="http://www.w3.org/2000/svg">
<path d="M28.6387 37.8188C21.5426 43.2762 15.2451 49.7198 9.93279 56.9585C8.36131 56.6389 6.91828 55.8573 5.78451 54.7119L2.89589 51.792C1.37052 50.2491 0.513672 48.1572 0.513672 45.9759C0.513672 43.7947 1.37052 41.7027 2.89589 40.1598L12.0621 30.8943C13.5885 29.3525 15.658 28.4863 17.8159 28.4863C19.9738 28.4863 22.0434 29.3525 23.5698 30.8943L26.4584 33.8142C27.5483 34.9114 28.3049 36.301 28.6387 37.8188Z" fill="#5B5B5B"/>
<path fill-rule="evenodd" clip-rule="evenodd" d="M72.2152 151.75C102.802 151.75 127.597 126.955 127.597 96.3685C127.597 65.7819 102.802 40.9865 72.2152 40.9865C41.6286 40.9865 16.8332 65.7819 16.8332 96.3685C16.8332 126.955 41.6286 151.75 72.2152 151.75ZM72.2152 165.639C110.472 165.639 141.486 134.626 141.486 96.3685C141.486 58.1113 110.472 27.0977 72.2152 27.0977C33.9579 27.0977 2.94434 58.1113 2.94434 96.3685C2.94434 134.626 33.9579 165.639 72.2152 165.639Z" fill="#5B5B5B"/>
<rect x="42.5273" y="0.708984" width="59.7222" height="19.0972" rx="9.54861" fill="#5B5B5B"/>
<rect x="63.708" y="16.334" width="17.0139" height="17.0139" fill="#5B5B5B"/>
<path d="M119.958 96.8898C119.958 70.6179 98.6605 49.3203 72.3887 49.3203V96.8898H119.958Z" fill="#5B5B5B"/>
</svg>
