<svg width="24" height="24" viewBox="0 0 24 24" fill="none" xmlns="http://www.w3.org/2000/svg">
<path d="M24 12C24 5.37271 18.6273 0 12 0C5.37271 0 0 5.37271 0 12C0 18.6273 5.37271 24 12 24C18.6273 24 24 18.6273 24 12ZM12.2727 5.45455C13.0255 5.45455 13.6364 6.06545 13.6364 6.8182C13.6364 7.5709 13.0255 8.1818 12.2727 8.1818C11.52 8.1818 10.9091 7.5709 10.9091 6.8182C10.9091 6.06545 11.52 5.45455 12.2727 5.45455ZM9.27275 18H10.9091V10.3636H9.27275V9.27275H13.6364V18H15.2727V19.0909H9.27275V18V18Z" fill="white"/>
</svg>
