<svg width="18" height="11" viewBox="0 0 18 11" fill="none" xmlns="http://www.w3.org/2000/svg">
<path d="M15.5253 2.71113C11.9105 -0.903709 6.02929 -0.903709 2.41445 2.71113L0 5.12528L2.47435 7.59963C4.28162 9.40689 6.65563 10.3108 9.02995 10.3108C11.4043 10.3108 13.778 9.4072 15.5855 7.59963L18 5.18517L15.5253 2.71113ZM15.1553 7.1697C11.7776 10.5471 6.28195 10.5471 2.90428 7.1697L0.85985 5.12528L2.84438 3.14075C6.22206 -0.236626 11.7177 -0.236626 15.0954 3.14075L17.1398 5.18517L15.1553 7.1697Z" fill="#9B9B9B"/>
<path d="M8.68742 2.71423C7.5138 2.71423 6.55908 3.66895 6.55908 4.84258C6.55908 5.01041 6.6953 5.14662 6.86313 5.14662C7.03097 5.14662 7.16718 5.01041 7.16718 4.84258C7.16718 4.00431 7.84916 3.32233 8.68742 3.32233C8.85526 3.32233 8.99147 3.18612 8.99147 3.01828C8.99147 2.85045 8.85556 2.71423 8.68742 2.71423Z" fill="#9B9B9B"/>
<path d="M8.99145 1.19397C6.81203 1.19397 5.03882 2.96718 5.03882 5.1466C5.03882 7.32603 6.81203 9.09924 8.99145 9.09924C11.1709 9.09924 12.9441 7.32603 12.9441 5.1466C12.9441 2.96718 11.1712 1.19397 8.99145 1.19397ZM8.99145 8.49114C7.1474 8.49114 5.64692 6.99066 5.64692 5.1466C5.64692 3.30255 7.1474 1.80207 8.99145 1.80207C10.8355 1.80207 12.336 3.30255 12.336 5.1466C12.336 6.99066 10.8358 8.49114 8.99145 8.49114Z" fill="#9B9B9B"/>
</svg>
