<svg width="200" height="200" viewBox="0 0 200 200" fill="none" xmlns="http://www.w3.org/2000/svg">
<path fill-rule="evenodd" clip-rule="evenodd" d="M30.6702 18.6327C32.6845 17.7551 34.9954 17.8825 36.9011 18.9764C65.5465 35.4195 94.5527 20.1383 96.623 18.9941C96.6638 18.9716 96.7048 18.9494 96.7461 18.9277L96.812 18.893C98.8868 17.8002 101.373 17.8284 103.423 18.9679L103.47 18.9941C103.472 18.9954 103.474 18.9967 103.477 18.9981C105.606 20.1732 134.579 35.4007 163.192 18.9764C165.341 17.7428 167.984 17.7478 170.129 18.9894C171.841 19.9813 173.029 21.6422 173.437 23.5334C173.441 23.5499 173.445 23.569 173.45 23.5909C173.465 23.6597 173.485 23.7551 173.511 23.8762C173.562 24.1184 173.634 24.4638 173.721 24.9068C173.895 25.7926 174.132 27.0697 174.397 28.6936C174.926 31.9397 175.569 36.5814 176.041 42.2618C176.985 53.5979 177.263 69.2005 174.554 86.162C169.118 120.183 151.487 160.209 102.88 181.343C102.006 181.723 101.063 181.919 100.111 181.919H99.9821C99.0263 181.919 98.0807 181.722 97.2047 181.34C48.3629 160.026 30.7224 120.014 25.3485 86.0138C22.6703 69.069 22.9983 53.4956 23.9827 42.1843C24.476 36.5164 25.137 31.8858 25.6802 28.6477C25.9519 27.0278 26.1946 25.7538 26.3727 24.87C26.4618 24.428 26.5348 24.0834 26.5874 23.8416C26.6136 23.7207 26.6348 23.6255 26.6502 23.5566C26.6579 23.5222 26.6643 23.4944 26.6691 23.4732L26.6752 23.4465L26.6774 23.437C26.6783 23.4332 26.6791 23.4299 33.4439 24.9991L26.6791 23.4299C27.1756 21.2895 28.6558 19.5103 30.6702 18.6327ZM38.7199 35.2868C38.4038 37.6054 38.0856 40.3288 37.8193 43.3884C36.9025 53.9237 36.6125 68.3155 39.0671 83.8455C43.8551 114.139 58.9296 148.289 100.051 167.39C140.907 148.462 155.988 114.329 160.839 83.9708C163.324 68.4119 163.08 53.9809 162.2 43.4135C161.946 40.3521 161.639 37.626 161.332 35.3033C134.281 46.2832 109.006 36.9299 100.046 32.796C91.0823 36.932 65.7861 46.2926 38.7199 35.2868Z" fill="#D4483A"/>
<path d="M100.045 106.451C104.377 106.451 107.889 102.939 107.889 98.6074C107.889 94.2754 104.377 90.7637 100.045 90.7637C95.713 90.7637 92.2012 94.2754 92.2012 98.6074C92.2012 102.939 95.713 106.451 100.045 106.451Z" fill="#D4483A"/>
<path d="M100.031 131.748C93.4748 131.748 87.0658 129.804 81.6144 126.161C76.163 122.519 71.9141 117.341 69.4051 111.284C66.8962 105.227 66.2397 98.5618 67.5188 92.1314C68.7979 85.7011 71.955 79.7945 76.591 75.1584C81.227 70.5224 87.1337 67.3653 93.564 66.0862C99.9944 64.8071 106.66 65.4636 112.717 67.9726C118.774 70.4816 123.951 74.7304 127.594 80.1818C131.236 85.6331 133.18 92.0422 133.18 98.5986C133.17 107.387 129.675 115.813 123.46 122.027C117.246 128.242 108.82 131.738 100.031 131.748ZM100.031 79.3381C96.2218 79.3381 92.498 80.4677 89.3307 82.5841C86.1633 84.7005 83.6946 87.7085 82.2369 91.2279C80.7791 94.7473 80.3977 98.6199 81.1409 102.356C81.884 106.092 83.7184 109.524 86.412 112.218C89.1056 114.911 92.5374 116.746 96.2736 117.489C100.01 118.232 103.882 117.851 107.402 116.393C110.921 114.935 113.929 112.466 116.046 109.299C118.162 106.132 119.292 102.408 119.292 98.5986C119.282 93.4945 117.25 88.6023 113.639 84.9944C110.029 81.3866 105.135 79.3575 100.031 79.352V79.3381Z" fill="#D4483A"/>
</svg>
