<svg width="21" height="20" viewBox="0 0 21 20" fill="none" xmlns="http://www.w3.org/2000/svg">
<path d="M19.1264 5.10534C18.2098 3.53477 16.9664 2.29135 15.396 1.37479C13.8253 0.458185 12.1106 0 10.2507 0C8.39094 0 6.67568 0.458325 5.10534 1.37479C3.53477 2.2913 2.29144 3.53477 1.37479 5.10534C0.458279 6.67587 0 8.39089 0 10.2504C0 12.484 0.651678 14.4926 1.95536 16.2766C3.25891 18.0607 4.94289 19.2952 7.00718 19.9803C7.24747 20.0249 7.42535 19.9936 7.541 19.887C7.65671 19.7804 7.71449 19.6467 7.71449 19.4868C7.71449 19.4601 7.7122 19.2199 7.70776 18.766C7.70317 18.3122 7.70102 17.9162 7.70102 17.5783L7.39402 17.6315C7.19829 17.6673 6.95136 17.6825 6.65324 17.6782C6.35527 17.674 6.04593 17.6428 5.72565 17.5847C5.40524 17.5272 5.10721 17.3937 4.83135 17.1846C4.55562 16.9755 4.35989 16.7018 4.24418 16.3639L4.11072 16.0568C4.02175 15.8523 3.88169 15.6251 3.69035 15.3761C3.49901 15.1269 3.30551 14.958 3.10978 14.869L3.01633 14.8021C2.95406 14.7577 2.89628 14.704 2.84284 14.6418C2.78945 14.5796 2.74948 14.5173 2.72279 14.455C2.69605 14.3926 2.71821 14.3414 2.7895 14.3012C2.86079 14.261 2.98963 14.2416 3.17658 14.2416L3.44342 14.2814C3.6214 14.3171 3.84154 14.4236 4.10412 14.6017C4.36657 14.7796 4.58232 15.0109 4.75141 15.2956C4.95617 15.6605 5.20286 15.9385 5.49219 16.1299C5.78128 16.3212 6.07276 16.4167 6.36635 16.4167C6.65993 16.4167 6.91349 16.3945 7.12714 16.3502C7.34054 16.3057 7.54077 16.2388 7.72772 16.1499C7.8078 15.5535 8.02583 15.0953 8.38164 14.775C7.87451 14.7217 7.41857 14.6414 7.01358 14.5347C6.60883 14.4278 6.19057 14.2544 5.75908 14.0139C5.32735 13.7738 4.96921 13.4756 4.68456 13.1198C4.39986 12.7639 4.16621 12.2966 3.98393 11.7183C3.80157 11.1399 3.71036 10.4726 3.71036 9.71627C3.71036 8.63941 4.06191 7.72304 4.76487 6.96665C4.43557 6.15705 4.46666 5.24947 4.85823 4.244C5.11628 4.16382 5.49897 4.22399 6.0061 4.42412C6.51332 4.62434 6.8847 4.79587 7.12059 4.93808C7.35648 5.08024 7.54549 5.20071 7.68789 5.29842C8.51558 5.06715 9.36972 4.95149 10.2506 4.95149C11.1314 4.95149 11.9857 5.06715 12.8135 5.29842L13.3207 4.97823C13.6675 4.76459 14.077 4.56881 14.5484 4.39083C15.02 4.21295 15.3806 4.16396 15.6299 4.24414C16.0301 5.24966 16.0658 6.15719 15.7364 6.96679C16.4393 7.72318 16.791 8.63978 16.791 9.71641C16.791 10.4727 16.6995 11.1421 16.5174 11.725C16.3351 12.308 16.0994 12.7749 15.8103 13.1265C15.5209 13.4781 15.1604 13.774 14.729 14.0141C14.2974 14.2544 13.879 14.4278 13.4742 14.5347C13.0693 14.6415 12.6133 14.7219 12.1062 14.7752C12.5687 15.1755 12.8001 15.8073 12.8001 16.6704V19.4864C12.8001 19.6464 12.8557 19.7799 12.967 19.8867C13.0783 19.9932 13.2539 20.0246 13.4942 19.9799C15.5588 19.2949 17.2427 18.0603 18.5462 16.2762C19.8496 14.4922 20.5015 12.4837 20.5015 10.25C20.501 8.39075 20.0425 6.67587 19.1264 5.10534Z" fill="#323131"/>
</svg>
