<svg width="40" height="30" viewBox="0 0 40 30" fill="none" xmlns="http://www.w3.org/2000/svg">
<rect width="40" height="29.6774" fill="#E6FFCB"/>
<path d="M15 8H19.2383C21.2044 8 22.6237 8.28646 23.4961 8.85938C24.375 9.43229 24.8145 10.3372 24.8145 11.5742C24.8145 12.4076 24.5996 13.1009 24.1699 13.6543C23.7402 14.2077 23.1217 14.556 22.3145 14.6992V14.7969C23.3171 14.9857 24.0527 15.36 24.5215 15.9199C24.9967 16.4733 25.2344 17.2253 25.2344 18.1758C25.2344 19.4583 24.7852 20.4642 23.8867 21.1934C22.9948 21.916 21.7513 22.2773 20.1562 22.2773H15V8ZM17.334 13.8984H19.5801C20.5566 13.8984 21.2695 13.7454 21.7188 13.4395C22.168 13.127 22.3926 12.5996 22.3926 11.8574C22.3926 11.1868 22.1484 10.7018 21.6602 10.4023C21.1784 10.1029 20.4102 9.95312 19.3555 9.95312H17.334V13.8984ZM17.334 15.793V20.3145H19.8145C20.791 20.3145 21.5267 20.1289 22.0215 19.7578C22.5228 19.3802 22.7734 18.7878 22.7734 17.9805C22.7734 17.2383 22.5195 16.6882 22.0117 16.3301C21.5039 15.972 20.7324 15.793 19.6973 15.793H17.334Z" fill="#8CC152"/>
</svg>
