<svg width="40" height="30" viewBox="0 0 40 30" fill="none" xmlns="http://www.w3.org/2000/svg">
<rect width="40" height="29.6774" fill="#FBF7DB"/>
<path d="M21.7773 9.00195C20.4362 9.00195 19.3815 9.47721 18.6133 10.4277C17.8451 11.3783 17.4609 12.6901 17.4609 14.3633C17.4609 16.1146 17.8288 17.4395 18.5645 18.3379C19.3066 19.2363 20.3776 19.6855 21.7773 19.6855C22.3828 19.6855 22.9688 19.627 23.5352 19.5098C24.1016 19.3861 24.6908 19.2298 25.3027 19.041V21.043C24.1829 21.4661 22.9134 21.6777 21.4941 21.6777C19.4043 21.6777 17.7995 21.0462 16.6797 19.7832C15.5599 18.5137 15 16.7005 15 14.3438C15 12.8594 15.2702 11.5605 15.8105 10.4473C16.3574 9.33398 17.1452 8.48112 18.1738 7.88867C19.2025 7.29622 20.4102 7 21.7969 7C23.2552 7 24.6029 7.30599 25.8398 7.91797L25 9.86133C24.5182 9.63346 24.0072 9.4349 23.4668 9.26562C22.9329 9.08984 22.3698 9.00195 21.7773 9.00195Z" fill="#F9B356"/>
</svg>
