<svg width="154" height="30" viewBox="0 0 154 30" fill="none" xmlns="http://www.w3.org/2000/svg">
<path d="M62.0288 18.3084C62.2824 18.3084 62.4976 18.4006 62.6743 18.585C62.8588 18.7618 62.951 18.9769 62.951 19.2305C62.951 19.4841 62.8549 19.7109 62.6628 19.9107C61.4717 20.9481 60.0692 21.4669 58.4553 21.4669C56.6724 21.4669 55.1508 20.8367 53.8905 19.5764C52.6302 18.316 52 16.7944 52 15.0115C52 13.2286 52.6302 11.707 53.8905 10.4467C55.1508 9.18636 56.6724 8.5562 58.4553 8.5562C60.0692 8.5562 61.4717 9.07493 62.6628 10.1124C62.878 10.3045 62.9856 10.5427 62.9856 10.8271C62.9856 11.0807 62.8934 11.2997 62.7089 11.4841C62.5322 11.6609 62.317 11.7493 62.0634 11.7493C61.8405 11.7493 61.6446 11.6801 61.4755 11.5418C60.6148 10.781 59.6081 10.4006 58.4553 10.4006C57.1796 10.4006 56.0922 10.8501 55.1931 11.7493C54.2939 12.6484 53.8444 13.7358 53.8444 15.0115C53.8444 16.2872 54.2939 17.3746 55.1931 18.2738C56.0922 19.1729 57.1796 19.6225 58.4553 19.6225C59.6081 19.6225 60.6109 19.2459 61.464 18.4928C61.6254 18.3698 61.8136 18.3084 62.0288 18.3084Z" fill="#1D2951"/>
<path d="M77.8213 15.0115C77.8213 16.7944 77.1912 18.316 75.9308 19.5764C74.6705 20.8367 73.1489 21.4669 71.366 21.4669C69.5831 21.4669 68.0615 20.8367 66.8011 19.5764C65.5408 18.316 64.9107 16.7944 64.9107 15.0115C64.9107 13.2286 65.5408 11.707 66.8011 10.4467C68.0615 9.18636 69.5831 8.5562 71.366 8.5562C73.1489 8.5562 74.6705 9.18636 75.9308 10.4467C77.1912 11.707 77.8213 13.2286 77.8213 15.0115ZM71.366 10.4006C70.0903 10.4006 69.0029 10.8501 68.1037 11.7493C67.2046 12.6484 66.755 13.7358 66.755 15.0115C66.755 16.2872 67.2046 17.3746 68.1037 18.2738C69.0029 19.1729 70.0903 19.6225 71.366 19.6225C72.6417 19.6225 73.7291 19.1729 74.6282 18.2738C75.5274 17.3746 75.9769 16.2872 75.9769 15.0115C75.9769 13.7358 75.5274 12.6484 74.6282 11.7493C73.7291 10.8501 72.6417 10.4006 71.366 10.4006Z" fill="#1D2951"/>
<path d="M90.732 15.0115C90.732 13.7358 90.2824 12.6484 89.3833 11.7493C88.4841 10.8501 87.3967 10.4006 86.121 10.4006C84.8453 10.4006 83.7579 10.8501 82.8588 11.7493C81.9596 12.6484 81.5101 13.7358 81.5101 15.0115C81.5101 16.2872 81.9596 17.3746 82.8588 18.2738C83.7579 19.1729 84.8453 19.6225 86.121 19.6225C87.3967 19.6225 88.4841 19.1729 89.3833 18.2738C90.2824 17.3746 90.732 16.2872 90.732 15.0115ZM90.732 3.92219C90.732 3.66859 90.8204 3.45341 90.9971 3.27666C91.1815 3.09222 91.4006 3 91.6542 3C91.9078 3 92.123 3.09222 92.2997 3.27666C92.4841 3.45341 92.5764 3.66859 92.5764 3.92219V15.0115C92.5764 16.7944 91.9462 18.316 90.6859 19.5764C89.4255 20.8367 87.9039 21.4669 86.121 21.4669C84.3381 21.4669 82.8165 20.8367 81.5562 19.5764C80.2959 18.316 79.6657 16.7944 79.6657 15.0115C79.6657 13.2286 80.2959 11.707 81.5562 10.4467C82.8165 9.18636 84.3381 8.5562 86.121 8.5562C87.9039 8.5562 89.4255 9.18636 90.6859 10.4467C90.7012 10.4621 90.7166 10.4774 90.732 10.4928V3.92219Z" fill="#1D2951"/>
<path d="M105.406 14.0893C105.237 13.2056 104.815 12.4256 104.138 11.7493C103.239 10.8501 102.152 10.4006 100.876 10.4006C99.6004 10.4006 98.513 10.8501 97.6138 11.7493C96.9375 12.4256 96.5149 13.2056 96.3458 14.0893H105.406ZM104.427 18.3314C104.68 18.3314 104.895 18.4236 105.072 18.6081C105.256 18.7848 105.349 19 105.349 19.2536C105.349 19.5072 105.26 19.7262 105.084 19.9107C103.892 20.9481 102.49 21.4669 100.876 21.4669C99.0932 21.4669 97.5716 20.8367 96.3112 19.5764C95.0509 18.316 94.4207 16.7944 94.4207 15.0115C94.4207 13.2286 95.0509 11.707 96.3112 10.4467C97.5716 9.18636 99.0932 8.5562 100.876 8.5562C102.659 8.5562 104.181 9.18636 105.441 10.4467C106.701 11.707 107.331 13.2286 107.331 15.0115C107.331 15.2651 107.239 15.4841 107.055 15.6686C106.878 15.8453 106.663 15.9337 106.409 15.9337H96.3458C96.5149 16.8175 96.9375 17.5975 97.6138 18.2738C98.513 19.1729 99.6004 19.6225 100.876 19.6225C102.029 19.6225 103.02 19.2574 103.85 18.5274C104.019 18.3967 104.211 18.3314 104.427 18.3314Z" fill="#1D2951"/>
<path d="M115.631 10.4006C114.355 10.4006 113.268 10.8501 112.369 11.7493C111.47 12.6484 111.02 13.7358 111.02 15.0115C111.02 16.2872 111.47 17.3746 112.369 18.2738C113.268 19.1729 114.355 19.6225 115.631 19.6225C116.907 19.6225 117.994 19.1729 118.893 18.2738C119.792 17.3746 120.242 16.2872 120.242 15.0115C120.242 13.7358 119.792 12.6484 118.893 11.7493C117.994 10.8501 116.907 10.4006 115.631 10.4006ZM120.242 19.5303C120.227 19.5456 120.211 19.561 120.196 19.5764C118.936 20.8367 117.414 21.4669 115.631 21.4669C113.848 21.4669 112.327 20.8367 111.066 19.5764C109.806 18.316 109.176 16.7944 109.176 15.0115C109.176 13.2286 109.806 11.707 111.066 10.4467C112.327 9.18636 113.848 8.5562 115.631 8.5562C117.414 8.5562 118.936 9.18636 120.196 10.4467C121.456 11.707 122.086 13.2286 122.086 15.0115V21.4669C122.086 22.8117 121.602 23.9798 120.634 24.9712C119.281 26.3237 117.648 27 115.735 27C113.821 27 112.192 26.3237 110.847 24.9712C110.348 24.4793 109.94 23.9452 109.625 23.3689C109.533 23.2305 109.487 23.0692 109.487 22.8847C109.487 22.6311 109.575 22.4121 109.752 22.2277C109.937 22.0509 110.156 21.9625 110.409 21.9625C110.663 21.9625 110.882 22.0509 111.066 22.2277C111.143 22.3122 111.208 22.4044 111.262 22.5043C111.493 22.9193 111.789 23.3074 112.15 23.6686C113.141 24.6599 114.336 25.1556 115.735 25.1556C117.134 25.1556 118.329 24.6599 119.32 23.6686C119.935 22.9308 120.242 22.1969 120.242 21.4669V19.5303Z" fill="#1D2951"/>
<path d="M123.931 9.47839C123.931 9.22478 124.019 9.00961 124.196 8.83285C124.38 8.64841 124.599 8.5562 124.853 8.5562C125.107 8.5562 125.322 8.64841 125.499 8.83285C125.683 9.00961 125.775 9.22478 125.775 9.47839V10.4928C127.066 9.20173 128.603 8.5562 130.386 8.5562C131.285 8.5562 132.111 8.70989 132.865 9.01729C133.003 9.07109 133.13 9.15178 133.245 9.25937C133.422 9.4438 133.51 9.66282 133.51 9.91643C133.51 10.17 133.418 10.389 133.233 10.5735C133.057 10.7502 132.841 10.8386 132.588 10.8386C132.442 10.8386 132.307 10.8079 132.184 10.7464C131.639 10.5159 131.039 10.4006 130.386 10.4006C129.11 10.4006 128.023 10.8501 127.124 11.7493C126.225 12.6484 125.775 13.7358 125.775 15.0115V20.5447C125.775 20.7983 125.683 21.0173 125.499 21.2017C125.322 21.3785 125.107 21.4669 124.853 21.4669C124.599 21.4669 124.38 21.3785 124.196 21.2017C124.019 21.0173 123.931 20.7983 123.931 20.5447V9.47839Z" fill="#1D2951"/>
<path d="M137.994 5.78963C137.994 6.10471 137.879 6.37752 137.648 6.60807C137.426 6.83093 137.157 6.94236 136.841 6.94236C136.526 6.94236 136.254 6.83093 136.023 6.60807C135.8 6.37752 135.689 6.10471 135.689 5.78963C135.689 5.47454 135.8 5.20557 136.023 4.98271C136.254 4.75216 136.526 4.63689 136.841 4.63689C137.157 4.63689 137.426 4.75216 137.648 4.98271C137.879 5.20557 137.994 5.47454 137.994 5.78963ZM135.919 9.47839C135.919 9.22478 136.008 9.00961 136.184 8.83285C136.369 8.64841 136.588 8.5562 136.841 8.5562C137.095 8.5562 137.31 8.64841 137.487 8.83285C137.671 9.00961 137.764 9.22478 137.764 9.47839V20.5447C137.764 20.7983 137.671 21.0173 137.487 21.2017C137.31 21.3785 137.095 21.4669 136.841 21.4669C136.588 21.4669 136.369 21.3785 136.184 21.2017C136.008 21.0173 135.919 20.7983 135.919 20.5447V9.47839Z" fill="#1D2951"/>
<path d="M142.375 15.0115C142.375 16.2872 142.824 17.3746 143.723 18.2738C144.622 19.1729 145.71 19.6225 146.986 19.6225C148.261 19.6225 149.349 19.1729 150.248 18.2738C151.147 17.3746 151.597 16.2872 151.597 15.0115C151.597 13.7358 151.147 12.6484 150.248 11.7493C149.349 10.8501 148.261 10.4006 146.986 10.4006C145.71 10.4006 144.622 10.8501 143.723 11.7493C142.824 12.6484 142.375 13.7358 142.375 15.0115ZM142.375 26.0778C142.375 26.3314 142.282 26.5466 142.098 26.7233C141.921 26.9078 141.706 27 141.452 27C141.199 27 140.98 26.9078 140.795 26.7233C140.619 26.5466 140.53 26.3314 140.53 26.0778V15.0115C140.53 13.2286 141.16 11.707 142.421 10.4467C143.681 9.18636 145.203 8.5562 146.986 8.5562C148.768 8.5562 150.29 9.18636 151.55 10.4467C152.811 11.707 153.441 13.2286 153.441 15.0115C153.441 16.7944 152.811 18.316 151.55 19.5764C150.29 20.8367 148.768 21.4669 146.986 21.4669C145.203 21.4669 143.681 20.8367 142.421 19.5764C142.405 19.561 142.39 19.5456 142.375 19.5303V26.0778Z" fill="#1D2951"/>
<rect y="15" width="21.2132" height="6.0609" transform="rotate(-45 0 15)" fill="#3DA5D9"/>
<rect y="15" width="6.0609" height="21.2132" transform="rotate(-45 0 15)" fill="#3DA5D9"/>
<rect y="15" width="6.0609" height="6.0609" transform="rotate(-45 0 15)" fill="#3DA5D9"/>
<rect x="43.1826" y="15" width="21.2132" height="6.0609" transform="rotate(135 43.1826 15)" fill="#1D2951"/>
<rect x="43.1826" y="15" width="6.0609" height="21.2132" transform="rotate(135 43.1826 15)" fill="#1D2951"/>
<rect x="43.1826" y="15" width="6.0609" height="6.0609" transform="rotate(135 43.1826 15)" fill="#1D2951"/>
</svg>
