<svg width="45" height="45" viewBox="0 0 45 45" fill="none" xmlns="http://www.w3.org/2000/svg">
<circle cx="22.5" cy="22.5" r="22.5" fill="#1D2951"/>
<path d="M9.20459 14.3284C9.20459 13.7582 9.66684 13.2959 10.2371 13.2959H26.4716C27.0419 13.2959 27.5041 13.7582 27.5041 14.3284V27.635C27.5041 28.2052 27.0418 28.6675 26.4716 28.6675H10.2371C9.66684 28.6675 9.20459 28.2052 9.20459 27.635V14.3284Z" fill="white"/>
<path fill-rule="evenodd" clip-rule="evenodd" d="M11.7207 17.0473C11.7207 16.7947 11.9255 16.5898 12.1782 16.5898H24.5304C24.783 16.5898 24.9879 16.7947 24.9879 17.0473C24.9879 17.3 24.783 17.5048 24.5304 17.5048H12.1782C11.9255 17.5048 11.7207 17.3 11.7207 17.0473ZM11.7207 20.1469C11.7207 19.8943 11.9255 19.6895 12.1782 19.6895H20.2696C20.5222 19.6895 20.7271 19.8943 20.7271 20.1469C20.7271 20.3996 20.5222 20.6044 20.2696 20.6044H12.1782C11.9255 20.6044 11.7207 20.3996 11.7207 20.1469ZM11.7207 23.1777C11.7207 22.925 11.9255 22.7202 12.1782 22.7202H16.2341C16.4868 22.7202 16.6916 22.925 16.6916 23.1777C16.6916 23.4303 16.4868 23.6352 16.2341 23.6352H12.1782C11.9255 23.6352 11.7207 23.4303 11.7207 23.1777ZM17.9883 23.1777C17.9883 22.925 18.1931 22.7202 18.4458 22.7202H24.5304C24.783 22.7202 24.9879 22.925 24.9879 23.1777C24.9879 23.4303 24.783 23.6352 24.5304 23.6352H18.4458C18.1931 23.6352 17.9883 23.4303 17.9883 23.1777Z" fill="#1D2951"/>
<path d="M38.0269 27.1402C38.0269 30.8241 35.0404 33.8106 31.3565 33.8106C27.6725 33.8106 24.686 30.8241 24.686 27.1402C24.686 23.4562 27.6725 20.4697 31.3565 20.4697C35.0404 20.4697 38.0269 23.4562 38.0269 27.1402Z" fill="#3ABDFF"/>
<path fill-rule="evenodd" clip-rule="evenodd" d="M39.1068 27.1401C39.1068 31.4205 35.6368 34.8905 31.3564 34.8905C27.0759 34.8905 23.606 31.4205 23.606 27.1401C23.606 22.8596 27.0759 19.3896 31.3564 19.3896C35.6368 19.3896 39.1068 22.8596 39.1068 27.1401ZM31.3564 33.8105C35.0404 33.8105 38.0268 30.824 38.0268 27.1401C38.0268 23.4561 35.0404 20.4696 31.3564 20.4696C27.6724 20.4696 24.686 23.4561 24.686 27.1401C24.686 30.824 27.6724 33.8105 31.3564 33.8105Z" fill="#1D2951"/>
<path d="M29.6203 28.8125C29.1326 27.3419 28.5579 26.771 27.4434 27.8437C28.349 28.4388 28.9585 30.064 29.1501 30.8021L30.2646 29.989C31.0588 28.1482 33.7128 24.7295 35.2976 23.7087L35.0016 23.4492C32.8699 24.5565 30.5259 27.4861 29.6203 28.8125Z" fill="white"/>
</svg>
