<svg width="143" height="148" viewBox="0 0 143 148" fill="none" xmlns="http://www.w3.org/2000/svg">
<path fill-rule="evenodd" clip-rule="evenodd" d="M115.675 97L114 95.3248L114.325 95L116 96.6752L117.675 95L118 95.3248L116.325 97L118 98.6752L117.675 99L116 97.3248L114.325 99L114 98.6752L115.675 97Z" fill="#3DA5D9" stroke="#3ABDFF"/>
<path fill-rule="evenodd" clip-rule="evenodd" d="M9.67516 49L8 47.3248L8.32484 47L10 48.6752L11.6752 47L12 47.3248L10.3248 49L12 50.6752L11.6752 51L10 49.3248L8.32484 51L8 50.6752L9.67516 49Z" fill="#3DA5D9" stroke="#3ABDFF"/>
<path fill-rule="evenodd" clip-rule="evenodd" d="M53.6752 131L52 129.325L52.3248 129L54 130.675L55.6752 129L56 129.325L54.3248 131L56 132.675L55.6752 133L54 131.325L52.3248 133L52 132.675L53.6752 131Z" fill="#3DA5D9" stroke="#3ABDFF"/>
<path fill-rule="evenodd" clip-rule="evenodd" d="M70.6752 17L69 15.3248L69.3248 15L71 16.6752L72.6752 15L73 15.3248L71.3248 17L73 18.6752L72.6752 19L71 17.3248L69.3248 19L69 18.6752L70.6752 17Z" fill="#3DA5D9" stroke="#3ABDFF"/>
<circle cx="136" cy="72" r="6.5" stroke="#1D2951"/>
<circle cx="4" cy="105" r="3.5" stroke="#1D2951"/>
<circle opacity="0.5" cx="106" cy="40" r="3.5" stroke="#3DA5D9"/>
<circle opacity="0.5" cx="120" cy="146" r="1.5" stroke="#3DA5D9"/>
<circle opacity="0.5" cx="21" cy="38" r="1.5" stroke="#3DA5D9"/>
<circle opacity="0.5" cx="13" cy="74" r="1.5" stroke="#3DA5D9"/>
<circle opacity="0.5" cx="98" cy="2" r="1.5" stroke="#3DA5D9"/>
<circle opacity="0.5" cx="95" cy="108" r="3.5" stroke="#3DA5D9"/>
<circle cx="71" cy="79" r="40" fill="#1D2951"/>
<path fill-rule="evenodd" clip-rule="evenodd" d="M54.4248 85.1992V92.1774L66.8878 96.9773V85.1992H54.4248ZM52.3477 84.4722C52.3477 83.7266 52.9521 83.1221 53.6978 83.1221H67.6148C68.3605 83.1221 68.9649 83.7266 68.9649 84.4722V97.7043C68.9649 98.45 68.3605 99.0545 67.6148 99.0545L53.6978 94.2545C52.9521 94.2545 52.3477 93.6501 52.3477 92.9044V84.4722Z" fill="white"/>
<path d="M79.8687 59L45.5459 71.0108V84.5604L79.8687 96.443V59Z" fill="#3ABDFF"/>
<path fill-rule="evenodd" clip-rule="evenodd" d="M92.4027 66.13C92.8084 66.5354 92.8088 67.193 92.4034 67.5988L86.9886 73.0186C86.5832 73.4243 85.9256 73.4246 85.5199 73.0192C85.1141 72.6138 85.1138 71.9562 85.5192 71.5505L90.9339 66.1307C91.3393 65.7249 91.9969 65.7246 92.4027 66.13ZM85.2153 77.978C85.2153 77.4044 85.6803 76.9394 86.2539 76.9394H97.1107C97.6843 76.9394 98.1493 77.4044 98.1493 77.978C98.1493 78.5516 97.6843 79.0166 97.1107 79.0166H86.2539C85.6803 79.0166 85.2153 78.5516 85.2153 77.978Z" fill="white"/>
<path fill-rule="evenodd" clip-rule="evenodd" d="M85.5878 82.7335C85.9834 82.3181 86.6408 82.3021 87.0561 82.6976L92.4418 87.8268C92.8571 88.2224 92.8732 88.8798 92.4776 89.2952C92.082 89.7105 91.4246 89.7266 91.0092 89.331L85.6236 84.2018C85.2082 83.8062 85.1922 83.1488 85.5878 82.7335Z" fill="white"/>
</svg>
