<svg width="45" height="45" viewBox="0 0 45 45" fill="none" xmlns="http://www.w3.org/2000/svg">
<circle cx="22.5" cy="22.5" r="22.5" fill="#1D2951"/>
<path fill-rule="evenodd" clip-rule="evenodd" d="M13.1772 25.9868V29.912L20.1876 32.6119V25.9868H13.1772ZM12.0088 25.5778C12.0088 25.1584 12.3488 24.8184 12.7683 24.8184H20.5966C21.016 24.8184 21.356 25.1584 21.356 25.5778V33.0209C21.356 33.4403 21.016 33.7803 20.5966 33.7803L12.7683 31.0804C12.3488 31.0804 12.0088 30.7404 12.0088 30.3209V25.5778Z" fill="white"/>
<path d="M27.4892 11.25L8.18262 18.0061V25.6277L27.4892 32.3117V11.25Z" fill="#3ABDFF"/>
<path fill-rule="evenodd" clip-rule="evenodd" d="M34.5395 15.2608C34.7677 15.4888 34.7679 15.8587 34.5398 16.0869L31.4941 19.1356C31.266 19.3638 30.8961 19.364 30.6679 19.1359C30.4396 18.9079 30.4395 18.538 30.6675 18.3098L33.7133 15.2611C33.9413 15.0329 34.3112 15.0327 34.5395 15.2608ZM30.4966 21.9252C30.4966 21.6026 30.7581 21.341 31.0808 21.341H37.1877C37.5104 21.341 37.7719 21.6026 37.7719 21.9252C37.7719 22.2479 37.5104 22.5094 37.1877 22.5094H31.0808C30.7581 22.5094 30.4966 22.2479 30.4966 21.9252Z" fill="white"/>
<path fill-rule="evenodd" clip-rule="evenodd" d="M30.7066 24.6003C30.9291 24.3666 31.2989 24.3576 31.5325 24.5801L34.5619 27.4653C34.7956 27.6878 34.8046 28.0576 34.5821 28.2912C34.3596 28.5249 33.9898 28.5339 33.7561 28.3114L30.7267 25.4262C30.4931 25.2037 30.4841 24.8339 30.7066 24.6003Z" fill="white"/>
</svg>
