<svg width="45" height="45" viewBox="0 0 45 45" fill="none" xmlns="http://www.w3.org/2000/svg">
<circle cx="22.5" cy="22.5" r="22.5" fill="#1D2951"/>
<path fill-rule="evenodd" clip-rule="evenodd" d="M19.3133 14.5344C19.3133 16.3878 17.8196 17.8821 15.987 17.8821C14.1544 17.8821 12.6607 16.3878 12.6607 14.5344C12.6607 12.681 14.1544 11.1867 15.987 11.1867C17.8196 11.1867 19.3133 12.681 19.3133 14.5344ZM15.987 18.9438C18.4109 18.9438 20.375 16.9692 20.375 14.5344C20.375 12.0996 18.4109 10.125 15.987 10.125C13.5631 10.125 11.599 12.0996 11.599 14.5344C11.599 16.9692 13.5631 18.9438 15.987 18.9438ZM15.4658 17.9448C13.8222 17.6925 12.558 16.2649 12.558 14.5344C12.558 12.6249 14.0971 11.0844 15.9866 11.0844C16.1247 11.0844 16.261 11.0926 16.395 11.1086C16.2611 11.0926 16.125 11.0844 15.987 11.0844C14.0975 11.0844 12.5584 12.625 12.5584 14.5344C12.5584 16.2648 13.8224 17.6923 15.4658 17.9448ZM15.987 18.8416C18.3539 18.8416 20.2727 16.9132 20.2727 14.5344C20.2727 12.353 18.6591 10.5504 16.5661 10.2663C18.6589 10.5506 20.2723 12.3531 20.2723 14.5344C20.2723 16.9131 18.3535 18.8415 15.9866 18.8415C15.8134 18.8415 15.6425 18.8312 15.4747 18.8111C15.6427 18.8312 15.8136 18.8416 15.987 18.8416ZM15.5799 19.5524C15.7709 19.5403 15.9635 19.5341 16.1575 19.5341C17.0562 19.5341 17.9249 19.666 18.7448 19.9117C18.9716 19.9796 19.1003 20.2185 19.0324 20.4452C18.9801 20.6197 18.8267 20.7361 18.6555 20.7496C18.8268 20.7362 18.9805 20.6198 19.0328 20.4452C19.1007 20.2185 18.972 19.9796 18.7452 19.9117C17.9253 19.666 17.0566 19.5341 16.1579 19.5341C15.9638 19.5341 15.771 19.5402 15.5799 19.5524ZM15.3156 20.4343C11.3539 20.8412 8.23407 24.0883 8.02576 28.1056H15.879C16.1157 28.1056 16.3075 28.2974 16.3075 28.5341C16.3075 28.7606 16.1319 28.946 15.9094 28.9616C16.1321 28.9462 16.3079 28.7607 16.3079 28.5341C16.3079 28.2974 16.1161 28.1055 15.8794 28.1055H8.02616C8.02793 28.0714 8.02992 28.0373 8.03211 28.0033C8.28756 24.0334 11.3878 20.838 15.3156 20.4343ZM15.8794 28.0033H8.13459C8.40785 23.8101 11.8956 20.4935 16.1579 20.4935C16.9624 20.4935 17.7383 20.6115 18.4698 20.8307C18.7507 20.9149 19.0466 20.7554 19.1307 20.4746C19.2149 20.1937 19.0554 19.8978 18.7746 19.8137C17.9452 19.5652 17.0667 19.4318 16.1579 19.4318C11.1309 19.4318 7.05566 23.5071 7.05566 28.5341V29.0649H15.8794C16.1725 29.0649 16.4102 28.8273 16.4102 28.5341C16.4102 28.2409 16.1725 28.0033 15.8794 28.0033Z" fill="white"/>
<path d="M24.5587 24.7129C19.8249 24.7129 15.9873 28.5505 15.9873 33.2843H33.1302C33.1302 28.5505 29.2926 24.7129 24.5587 24.7129Z" fill="#3ABDFF"/>
<ellipse cx="24.5587" cy="19.6343" rx="4.28571" ry="4.30714" fill="#3ABDFF"/>
<path fill-rule="evenodd" clip-rule="evenodd" d="M35.0957 21.2803C35.3324 21.2803 35.5243 21.4722 35.5243 21.7088V24.5344H38.278C38.5147 24.5344 38.7066 24.7263 38.7066 24.963C38.7066 25.1997 38.5147 25.3916 38.278 25.3916H35.5243V28.1374C35.5243 28.3741 35.3324 28.566 35.0957 28.566C34.859 28.566 34.6672 28.3741 34.6672 28.1374V25.3916H31.8495C31.6128 25.3916 31.4209 25.1997 31.4209 24.963C31.4209 24.7263 31.6128 24.5344 31.8495 24.5344H34.6672V21.7088C34.6672 21.4722 34.859 21.2803 35.0957 21.2803Z" fill="#F7F7F7"/>
<path fill-rule="evenodd" clip-rule="evenodd" d="M35.096 21.1777C35.3891 21.1777 35.6268 21.4154 35.6268 21.7086V24.4319H38.2783C38.5714 24.4319 38.8091 24.6696 38.8091 24.9627C38.8091 25.2559 38.5714 25.4936 38.2783 25.4936H35.6268V28.1372C35.6268 28.4303 35.3891 28.668 35.096 28.668C34.8028 28.668 34.5651 28.4303 34.5651 28.1372V25.4936H31.8497C31.5565 25.4936 31.3188 25.2559 31.3188 24.9627C31.3188 24.6696 31.5565 24.4319 31.8497 24.4319H34.5651V21.7086C34.5651 21.4154 34.8028 21.1777 35.096 21.1777ZM35.5245 21.7086C35.5245 21.4719 35.3327 21.28 35.096 21.28C34.8593 21.28 34.6674 21.4719 34.6674 21.7086V24.5342H31.8497C31.613 24.5342 31.4211 24.7261 31.4211 24.9627C31.4211 25.1994 31.613 25.3913 31.8497 25.3913H34.6674V28.1372C34.6674 28.3738 34.8593 28.5657 35.096 28.5657C35.3327 28.5657 35.5245 28.3738 35.5245 28.1372V25.3913H38.2783C38.515 25.3913 38.7068 25.1994 38.7068 24.9627C38.7068 24.7261 38.515 24.5342 38.2783 24.5342H35.5245V21.7086Z" fill="white"/>
</svg>
