<svg width="45" height="45" viewBox="0 0 45 45" fill="none" xmlns="http://www.w3.org/2000/svg">
<circle cx="22.5" cy="22.5" r="22.5" fill="#1D2951"/>
<path d="M7.29004 13.3283C7.29004 12.7274 7.90387 12.2402 8.66106 12.2402H30.219C30.9762 12.2402 31.59 12.7274 31.59 13.3283V27.3521C31.59 27.9531 30.9762 28.4402 30.219 28.4402H8.66106C7.90387 28.4402 7.29004 27.9531 7.29004 27.3521V13.3283Z" fill="white"/>
<rect x="7.29004" y="16.5283" width="24.3" height="3.57353" fill="#1D2951"/>
<path fill-rule="evenodd" clip-rule="evenodd" d="M8.95752 22.4247C8.95752 22.0629 9.26324 21.7695 9.64036 21.7695H15.4217C15.7989 21.7695 16.1046 22.0629 16.1046 22.4247C16.1046 22.7865 15.7989 23.0798 15.4217 23.0798H9.64036C9.26324 23.0798 8.95752 22.7865 8.95752 22.4247Z" fill="#1D2951"/>
<path fill-rule="evenodd" clip-rule="evenodd" d="M37.5261 19.8381C37.3162 19.6289 37.0964 19.4295 36.8675 19.2408C35.2451 17.9031 33.1657 17.0996 30.8987 17.0996C25.7133 17.0996 21.5098 21.3032 21.5098 26.4885C21.5098 28.7555 22.3133 30.8349 23.651 32.4574C23.8397 32.6862 24.039 32.906 24.2482 33.1159C24.2559 33.1236 24.2635 33.1313 24.2712 33.1389C24.4888 33.3558 24.717 33.5621 24.955 33.7569C26.5738 35.0822 28.6433 35.8774 30.8987 35.8774C36.084 35.8774 40.2875 31.6738 40.2875 26.4885C40.2875 24.2332 39.4924 22.1636 38.167 20.5448C37.9722 20.3069 37.766 20.0787 37.5491 19.861C37.5414 19.8534 37.5338 19.8457 37.5261 19.8381ZM35.5583 20.55C34.2744 19.5407 32.6579 18.9406 30.8987 18.9406C26.73 18.9406 23.3507 22.3199 23.3507 26.4885C23.3507 28.2477 23.9508 29.8643 24.9602 31.1482L35.5583 20.55ZM26.2647 32.4471L36.8573 21.8546C37.8545 23.1343 38.4466 24.741 38.4466 26.4885C38.4466 30.6571 35.0673 34.0364 30.8987 34.0364C29.1512 34.0364 27.5445 33.4443 26.2647 32.4471Z" fill="#FC6681"/>
<path fill-rule="evenodd" clip-rule="evenodd" d="M24.2483 19.8616C24.039 20.0715 23.8397 20.2913 23.651 20.5202C22.3133 22.1426 21.5098 24.222 21.5098 26.489C21.5098 31.6744 25.7133 35.8779 30.8987 35.8779C33.1657 35.8779 35.2451 35.0744 36.8675 33.7367C37.0964 33.548 37.3162 33.3487 37.5261 33.1395C37.5338 33.1318 37.5414 33.1242 37.5491 33.1165C37.766 32.8989 37.9722 32.6707 38.167 32.4327C39.4924 30.8139 40.2875 28.7443 40.2875 26.489C40.2875 21.3037 36.084 17.1001 30.8987 17.1001C28.6433 17.1001 26.5738 17.8953 24.955 19.2206C24.717 19.4155 24.4888 19.6217 24.2712 19.8386C24.2635 19.8463 24.2559 19.8539 24.2483 19.8616ZM24.9602 21.8293C23.9508 23.1133 23.3507 24.7298 23.3507 26.489C23.3507 30.6576 26.73 34.037 30.8987 34.037C32.6579 34.037 34.2744 33.4369 35.5583 32.4275L24.9602 21.8293ZM36.8573 31.123L26.2647 20.5304C27.5445 19.5332 29.1512 18.9411 30.8987 18.9411C35.0673 18.9411 38.4466 22.3204 38.4466 26.489C38.4466 28.2365 37.8545 29.8432 36.8573 31.123Z" fill="#FC6681"/>
</svg>
