<svg width="45" height="45" viewBox="0 0 45 45" fill="none" xmlns="http://www.w3.org/2000/svg">
<circle cx="22.5" cy="22.5" r="22.5" fill="#1D2951"/>
<path d="M29.8014 14.8156C16.7595 13.9306 12.0286 22.3461 17.6014 29.8909C17.8767 30.2636 18.445 29.982 18.3841 29.5226C17.2044 20.6268 25.3336 20.2119 29.8014 21.2048V24.8548C29.8014 25.2557 30.2862 25.4565 30.5696 25.173L37.0283 18.7144C37.3821 18.3605 37.3794 17.786 37.0222 17.4356L30.5666 11.1014C30.2819 10.822 29.8014 11.0237 29.8014 11.4226V14.8156Z" fill="#3ABDFF"/>
<path fill-rule="evenodd" clip-rule="evenodd" d="M10.8896 15.9283C10.8896 14.5931 11.972 13.5107 13.3072 13.5107H19.0796C19.4884 13.5107 19.8197 13.8421 19.8197 14.2508C19.8197 14.6595 19.4884 14.9909 19.0796 14.9909H13.3072C12.7895 14.9909 12.3698 15.4106 12.3698 15.9283V31.9629C12.3698 32.4806 12.7895 32.9003 13.3072 32.9003H30.0079C30.5256 32.9003 30.9453 32.4806 30.9453 31.9629V28.2618C30.9453 27.8531 31.2766 27.5217 31.6853 27.5217C32.0941 27.5217 32.4254 27.8531 32.4254 28.2618V31.9629C32.4254 33.2981 31.343 34.3804 30.0079 34.3804H13.3072C11.972 34.3804 10.8896 33.2981 10.8896 31.9629V15.9283Z" fill="white"/>
</svg>
