<svg width="45" height="45" viewBox="0 0 45 45" fill="none" xmlns="http://www.w3.org/2000/svg">
<circle cx="22.5" cy="22.5" r="22.5" fill="#1D2951"/>
<path d="M20.2827 22.8115C13.9522 22.8115 8.82031 27.9434 8.82031 34.2739H31.745C31.745 27.9434 26.6132 22.8115 20.2827 22.8115Z" fill="white"/>
<ellipse cx="20.2825" cy="16.0196" rx="5.73118" ry="5.75984" fill="white"/>
<path fill-rule="evenodd" clip-rule="evenodd" d="M33.4251 18.7902C33.2151 18.581 32.9953 18.3817 32.7665 18.193C31.144 16.8552 29.0646 16.0518 26.7976 16.0518C21.6122 16.0518 17.4087 20.2553 17.4087 25.4406C17.4087 27.7077 18.2122 29.7871 19.5499 31.4095C19.7386 31.6384 19.9379 31.8582 20.1471 32.0681C20.1548 32.0758 20.1625 32.0834 20.1701 32.0911C20.3878 32.308 20.616 32.5142 20.8539 32.709C22.4727 34.0343 24.5423 34.8295 26.7976 34.8295C31.9829 34.8295 36.1865 30.626 36.1865 25.4406C36.1865 23.1853 35.3913 21.1158 34.066 19.497C33.8712 19.259 33.6649 19.0308 33.448 18.8132C33.4404 18.8055 33.4327 18.7979 33.4251 18.7902ZM31.4573 19.5022C30.1733 18.4928 28.5568 17.8927 26.7976 17.8927C22.629 17.8927 19.2497 21.272 19.2497 25.4406C19.2497 27.1998 19.8498 28.8164 20.8591 30.1003L31.4573 19.5022ZM22.1637 31.3993L32.7562 20.8067C33.7534 22.0865 34.3455 23.6932 34.3455 25.4406C34.3455 29.6093 30.9662 32.9886 26.7976 32.9886C25.0501 32.9886 23.4434 32.3965 22.1637 31.3993Z" fill="#FC6681"/>
</svg>
