<svg width="801" height="500" viewBox="0 0 801 500" fill="none" xmlns="http://www.w3.org/2000/svg">
<g clip-path="url(#clip0)">
<path d="M773.376 0H26.6615C11.9367 0 0 11.9367 0 26.6615V473.339C0 488.063 11.9367 500 26.6615 500H773.376C788.101 500 800.038 488.063 800.038 473.339V26.6615C800.038 11.9367 788.101 0 773.376 0Z" fill="#F9F9F9"/>
<path d="M248.246 238.356V230.319L244.419 238.356H211.315L207.169 229.745V238.356H145.235L137.9 221.006H125.526L117.744 238.356H85.8525V186.053L109.389 132.793H154.42L160.798 147.91V132.921H215.907L228.026 158.435L239.89 132.921H413.892C419.208 132.944 424.424 134.375 429.008 137.067V132.921H472.828V138.725C478.63 134.931 485.413 132.914 492.345 132.921H569.715L576.476 148.293V132.921H626.036L635.03 148.293V132.921H682.421V238.547H633.754L622.337 220.177V238.483H561.806L553.323 219.348H541.459L533.486 238.483H496.874C488.372 238.158 480.112 235.559 472.955 230.957V238.483H399.796V213.799C399.796 210.227 397.053 210.482 397.053 210.482H394.374V238.483L248.246 238.356Z" fill="white"/>
<path d="M211.891 261.189H307.566L321.407 276.88L335.567 261.189H409.174C413.888 261.473 418.493 262.733 422.696 264.889V261.189H488.265C493.633 261.337 498.885 262.782 503.573 265.399V261.189H587.831V265.08C592.108 262.571 596.969 261.229 601.928 261.189H656.845V265.08C661.234 262.73 666.096 261.4 671.069 261.189H714.187V360.756C711.857 362.927 709.116 364.61 706.126 365.706C703.135 366.801 699.955 367.287 696.774 367.134H640.325V363.753C636.092 365.874 631.41 366.946 626.676 366.878H475.381V341.365C475.381 338.814 474.233 338.367 472 338.367H469.895V367.07H422.759V338.559C418.375 340.535 413.599 341.495 408.791 341.365H391.569V366.878H333.399L320.387 350.996L306.227 367.134H211.891V261.189Z" fill="white"/>
<path d="M513.779 277.135H573.863V293.272H532.149V307.304H572.715V321.528H532.149V336.262H573.863V352.017H513.779V277.135Z" fill="#0078A9"/>
<path d="M689.949 306.353C712.528 307.501 714.442 319.11 714.442 330.846C714.407 333.838 713.759 336.79 712.538 339.521C711.317 342.251 709.549 344.703 707.343 346.723C705.137 348.744 702.54 350.29 699.713 351.268C696.886 352.245 693.888 352.632 690.905 352.405H652.253V336.332H682.358C687.461 336.332 695.115 336.332 695.115 329.124C695.115 325.744 693.776 323.575 688.354 322.746C685.93 322.363 677.001 321.853 675.597 321.853C655.187 321.342 650.403 311.137 650.403 298.827C650.244 295.912 650.704 292.997 651.753 290.274C652.802 287.55 654.416 285.079 656.489 283.024C658.562 280.969 661.047 279.377 663.78 278.352C666.512 277.327 669.431 276.892 672.344 277.076H710.934V293.597H682.677C676.299 293.597 669.346 292.831 669.346 299.975C669.346 304.567 672.727 305.46 677.064 305.907L689.949 306.353Z" fill="#0078A9"/>
<path d="M620.742 306.353C643.322 307.501 645.235 319.11 645.235 330.846C645.201 333.843 644.551 336.801 643.326 339.536C642.101 342.272 640.327 344.727 638.115 346.748C635.902 348.769 633.297 350.314 630.462 351.288C627.628 352.261 624.623 352.641 621.635 352.405H582.919V336.332H613.024C618.127 336.332 625.781 336.332 625.781 329.124C625.781 325.744 624.442 323.575 619.02 322.746C616.596 322.363 607.667 321.853 606.263 321.853C585.853 321.342 581.069 311.137 581.069 298.827C580.91 295.912 581.37 292.997 582.419 290.274C583.468 287.55 585.082 285.079 587.155 283.024C589.228 280.969 591.713 279.377 594.446 278.352C597.178 277.327 600.097 276.892 603.01 277.076H641.6V293.597H613.343C606.965 293.597 599.949 292.831 599.949 299.975C599.949 304.567 603.393 305.46 607.73 305.907L620.742 306.353Z" fill="#0078A9"/>
<path d="M402.733 277.264H338.248L317.199 300.482L296.788 277.073H224.33V351.955H294.492L316.561 327.271L338.12 352.146H373.392V326.633H397.949C407.453 326.633 424.866 326.25 424.866 300.035C425.172 297.024 424.815 293.983 423.82 291.125C422.825 288.266 421.217 285.661 419.107 283.49C416.998 281.32 414.439 279.638 411.61 278.563C408.781 277.487 405.751 277.044 402.733 277.264V277.264ZM284.797 336.264H242.445V321.466H283.139V307.243H242.572V293.21H287.221L305.144 313.557L284.797 336.264ZM354.959 344.939L328.553 313.685L354.959 284.472V344.939ZM396.418 311.325H373.52V293.593H396.482C404.2 293.593 406.624 298.504 406.624 302.204C406.673 303.498 406.438 304.789 405.936 305.983C405.433 307.177 404.674 308.247 403.714 309.116C402.753 309.986 401.613 310.634 400.375 311.016C399.136 311.397 397.829 311.503 396.546 311.325H396.418Z" fill="#0078A9"/>
<path d="M491.581 318.023C495.652 316.396 499.09 313.502 501.388 309.768C503.685 306.035 504.72 301.661 504.338 297.294C504.338 281.284 491.581 277.266 482.269 277.266H434.495V352.148H452.865V325.486H476.911C483.29 325.486 485.777 331.864 485.968 338.243L486.415 351.956H504.338L503.637 336.584C503.573 324.721 500.001 319.108 491.581 318.023ZM475.699 310.306H452.801V293.594H475.763C483.481 293.594 485.905 298.505 485.905 302.205C485.905 306.925 483.226 310.306 475.699 310.306Z" fill="#0078A9"/>
<path d="M460.136 147.849H441.767V222.794H460.136V147.849Z" fill="#0078A9"/>
<path d="M291.303 147.911H351.323V164.048H309.672V178.144H350.175V192.304H309.672V207.102H351.323V222.793H291.303V147.911Z" fill="#0078A9"/>
<path d="M419.442 188.668C423.512 187.041 426.951 184.147 429.248 180.413C431.546 176.68 432.58 172.306 432.198 167.939C432.198 151.929 419.442 147.911 410.129 147.911H362.355V222.793H380.725V196.386H404.772C411.15 196.386 413.637 202.765 413.829 209.143L414.339 222.856H432.198L431.561 207.485C431.497 195.366 428.116 189.689 419.442 188.668ZM403.56 180.951H380.661V163.984H403.623C411.341 163.984 413.765 168.896 413.765 172.595C413.765 177.57 411.086 180.951 403.56 180.951V180.951Z" fill="#0078A9"/>
<path d="M248.885 147.91L226.305 197.917L203.79 147.655H174.704V219.795L142.813 147.655H118.575L85.79 222.537H104.925L112.133 205.826H149.191L156.462 222.537H193.521V166.982L218.077 222.537H234.789L259.919 167.875V222.537H278.353V147.91H248.885ZM119.34 189.944L130.311 163.729L141.728 189.944H119.34Z" fill="#0078A9"/>
<path d="M649.893 147.849V199.705L618.894 147.849H591.723V218.011L560.405 147.849H536.039L510.526 205.828C510.526 205.828 499.81 205.828 498.726 205.828C494.325 204.935 487.373 201.809 487.309 188.606V183.185C487.309 165.644 496.813 164.368 509.059 164.368H520.412V148.04H496.43C488.074 148.04 469.832 154.418 469.258 185.226C468.811 205.955 477.869 223.049 498.216 223.049H522.453L529.661 206.338H566.337L573.608 223.049H609.901V168.196L643.005 223.049H668.072V147.849H649.893ZM536.932 189.946L547.903 163.795L559.448 189.946H536.932Z" fill="#0078A9"/>
</g>
<defs>
<clipPath id="clip0">
<rect width="800.038" height="500" fill="white"/>
</clipPath>
</defs>
</svg>
