<svg width="801" height="500" viewBox="0 0 801 500" fill="none" xmlns="http://www.w3.org/2000/svg">
<g clip-path="url(#clip0)">
<path d="M773.449 0H26.7338C12.009 0 0.0722656 11.9367 0.0722656 26.6615V473.339C0.0722656 488.063 12.009 500 26.7338 500H773.449C788.174 500 800.111 488.063 800.111 473.339V26.6615C800.111 11.9367 788.174 0 773.449 0Z" fill="#F9F9F9"/>
<path d="M419.26 272.672C464.483 272.672 505.751 235.805 505.751 190.71C505.751 141.342 464.483 107.281 419.26 107.281H380.352C369.33 107.037 358.372 109.029 348.139 113.135C337.907 117.241 328.612 123.378 320.816 131.174C313.02 138.97 306.883 148.265 302.777 158.497C298.671 168.729 296.679 179.687 296.923 190.71C297.176 212.624 306.093 233.547 321.726 248.905C337.36 264.264 358.438 272.809 380.352 272.672H419.26Z" fill="#004A98"/>
<path d="M398.019 234.591V145.294C406.992 148.816 414.695 154.96 420.124 162.924C425.554 170.888 428.458 180.304 428.458 189.943C428.458 199.582 425.554 208.997 420.124 216.961C414.695 224.925 406.992 231.069 398.019 234.591V234.591ZM332.896 189.943C332.925 180.261 335.883 170.814 341.382 162.845C346.881 154.876 354.662 148.757 363.704 145.294V234.591C354.652 231.143 346.861 225.028 341.36 217.056C335.859 209.083 332.908 199.629 332.896 189.943ZM380.862 114.231C365.887 114.231 351.249 118.672 338.799 126.991C326.348 135.31 316.644 147.135 310.913 160.969C305.183 174.804 303.684 190.026 306.605 204.713C309.527 219.4 316.737 232.89 327.326 243.478C337.914 254.067 351.404 261.278 366.091 264.199C380.778 267.12 396.001 265.621 409.835 259.891C423.669 254.16 435.494 244.456 443.813 232.005C452.132 219.555 456.573 204.917 456.573 189.943C456.556 169.868 448.574 150.62 434.379 136.425C420.184 122.23 400.936 114.248 380.862 114.231Z" fill="white"/>
<path d="M212.347 329.246C212.347 335.624 217.194 336.772 221.468 336.772C240.603 336.772 246.535 322.485 246.535 309.473C246.799 305.776 246.279 302.066 245.008 298.584C243.737 295.103 241.744 291.93 239.159 289.274C236.575 286.617 233.458 284.538 230.014 283.171C226.569 281.804 222.874 281.182 219.172 281.344C215.6 281.344 213.941 281.344 212.347 281.344V329.246ZM203.8 288.233C203.8 280.387 199.718 280.898 195.763 280.77V278.219C199.144 278.219 202.652 278.219 206.096 278.219H221.213C243.856 278.219 256.166 293.335 256.166 308.835C256.166 317.446 251.127 339.26 220.192 339.26C215.727 339.26 211.581 339.26 207.435 339.26C203.289 339.26 199.654 339.26 195.699 339.26V336.963C200.929 336.453 203.481 336.262 203.736 330.585L203.8 288.233Z" fill="#004A98"/>
<path d="M268.604 286.006C267.47 286.006 266.383 285.556 265.582 284.754C264.781 283.953 264.33 282.866 264.33 281.732C264.33 280.599 264.781 279.512 265.582 278.711C266.383 277.909 267.47 277.459 268.604 277.459C269.715 277.458 270.783 277.891 271.581 278.665C272.379 279.439 272.844 280.494 272.877 281.605C272.878 282.75 272.432 283.851 271.634 284.673C270.836 285.494 269.749 285.973 268.604 286.006V286.006ZM259.228 337.033H260.886C263.374 337.033 265.096 337.033 265.096 334.163V310.435C265.096 306.608 263.82 306.098 260.567 304.057V302.653C264.649 301.442 269.561 299.783 269.879 299.528C270.356 299.226 270.91 299.07 271.474 299.082C271.921 299.082 272.112 299.592 272.112 300.293V333.908C272.112 336.778 274.025 336.778 276.449 336.778H277.98V339.074C274.982 339.074 271.92 339.074 268.795 339.074H259.228V337.033Z" fill="#004A98"/>
<path d="M286.269 311.073C286.269 307.883 285.312 306.991 281.166 305.332V303.738C285.088 302.545 288.942 301.14 292.711 299.528C292.711 299.528 293.222 299.528 293.222 300.421V306.098C297.456 302.38 302.784 300.142 308.402 299.719C315.801 299.719 318.416 305.141 318.416 311.966V334.545C318.416 337.415 320.33 337.415 322.817 337.415H324.412V339.712C321.286 339.712 318.033 339.712 315.099 339.712H305.659V337.415H307.254C309.678 337.415 311.4 337.415 311.4 334.545V311.902C311.489 310.854 311.339 309.801 310.962 308.819C310.585 307.838 309.991 306.955 309.224 306.237C308.456 305.518 307.536 304.983 306.532 304.672C305.528 304.361 304.466 304.281 303.427 304.439C299.743 305.025 296.247 306.467 293.222 308.649V334.545C293.222 337.415 295.199 337.415 297.623 337.415H299.217V339.712C296.156 339.712 292.839 339.712 289.905 339.712H280.465V337.415H282.059C284.483 337.415 286.269 337.415 286.269 334.545V311.073Z" fill="#004A98"/>
<path d="M346.482 312.47C348.714 312.47 348.969 311.386 348.969 310.302C349.05 309.258 348.911 308.209 348.56 307.223C348.209 306.237 347.655 305.336 346.933 304.578C346.211 303.82 345.338 303.222 344.37 302.824C343.402 302.425 342.361 302.235 341.315 302.265C336.021 302.265 332.322 306.219 331.301 312.47H346.482ZM331.046 315.277C330.833 316.971 330.833 318.685 331.046 320.379C330.889 324.04 332.113 327.626 334.476 330.426C336.839 333.226 340.168 335.036 343.803 335.496C346.067 335.38 348.283 334.799 350.313 333.79C352.343 332.78 354.144 331.363 355.603 329.628L356.815 330.84C355.117 333.677 352.755 336.059 349.933 337.781C347.111 339.503 343.913 340.514 340.614 340.726C326.709 340.726 323.902 327.268 323.902 321.591C323.902 304.497 335.447 299.395 341.57 299.395C343.451 299.273 345.337 299.537 347.112 300.169C348.887 300.802 350.514 301.791 351.894 303.075C353.273 304.359 354.376 305.911 355.134 307.636C355.893 309.362 356.291 311.224 356.304 313.108C356.338 313.639 356.338 314.172 356.304 314.703L355.539 315.213L331.046 315.277Z" fill="#004A98"/>
<path d="M358.474 337.156H360.834C363.321 337.156 365.043 337.156 365.043 334.286V309.729C365.043 306.987 361.79 306.476 360.515 305.775V304.435C366.893 301.756 370.337 299.46 371.167 299.46C371.996 299.46 371.932 299.46 371.932 300.608V308.454C374.101 305.073 377.8 299.46 383.094 299.46C383.733 299.426 384.372 299.52 384.974 299.737C385.575 299.954 386.128 300.289 386.597 300.723C387.067 301.158 387.445 301.682 387.709 302.264C387.973 302.847 388.117 303.477 388.133 304.116C388.159 304.683 388.071 305.249 387.876 305.781C387.681 306.314 387.381 306.802 386.996 307.217C386.61 307.633 386.145 307.967 385.628 308.202C385.112 308.436 384.554 308.565 383.987 308.581C381.308 308.581 381.308 306.476 378.247 306.476C376.482 306.708 374.863 307.574 373.689 308.912C372.516 310.249 371.868 311.968 371.868 313.748V334.286C371.868 337.156 373.59 337.156 376.014 337.156H380.926V339.452H368.679C365.107 339.452 361.471 339.452 358.282 339.452L358.474 337.156Z" fill="#004A98"/>
<path d="M392.152 327.273C392.354 330.096 393.593 332.745 395.63 334.711C397.666 336.677 400.358 337.822 403.186 337.924C408.353 337.924 410.203 334.799 410.203 331.546C410.203 321.213 391.068 324.53 391.068 310.498C391.168 308.854 391.604 307.248 392.35 305.78C393.095 304.311 394.133 303.011 395.4 301.959C396.667 300.907 398.136 300.126 399.717 299.664C401.297 299.202 402.956 299.068 404.59 299.272C408.079 299.343 411.505 300.216 414.604 301.823L415.178 310.753H413.2C413.16 309.549 412.879 308.365 412.372 307.272C411.866 306.179 411.145 305.199 410.253 304.39C409.361 303.581 408.315 302.96 407.178 302.562C406.04 302.165 404.835 302.001 403.633 302.078C401.971 301.954 400.326 302.485 399.05 303.557C397.775 304.63 396.97 306.16 396.808 307.819C396.808 318.088 417.091 314.899 417.091 328.676C417.091 334.416 412.499 340.54 402.038 340.54C398.304 340.426 394.652 339.42 391.386 337.606L390.43 327.528L392.152 327.273Z" fill="#004A98"/>
<path d="M496.183 294.232H494.014C493.739 292.058 493.037 289.961 491.946 288.06C490.856 286.16 489.4 284.494 487.662 283.16C485.925 281.825 483.94 280.849 481.822 280.286C479.705 279.723 477.497 279.585 475.326 279.881C465.248 279.881 450.642 286.578 450.642 307.626C450.642 325.294 463.398 337.924 476.665 337.924C480.926 337.939 485.051 336.421 488.283 333.645C491.516 330.869 493.641 327.021 494.27 322.807L496.311 323.317L494.27 336.074C488.272 338.905 481.762 340.489 475.134 340.73C470.709 341.065 466.263 340.45 462.095 338.925C457.927 337.401 454.133 335.003 450.967 331.892C447.802 328.781 445.339 325.029 443.742 320.888C442.146 316.747 441.454 312.312 441.712 307.882C441.852 303.676 442.822 299.54 444.567 295.711C446.313 291.882 448.799 288.437 451.882 285.573C454.965 282.709 458.584 280.484 462.531 279.025C466.478 277.566 470.675 276.903 474.879 277.074C481.96 277.451 488.926 279.025 495.481 281.73L496.183 294.232Z" fill="#004A98"/>
<path d="M499.372 337.155H501.03C503.454 337.155 505.176 337.156 505.176 334.285V285.555C505.176 279.878 503.901 279.686 500.584 278.73V277.326C503.699 276.375 506.712 275.114 509.577 273.563C510.178 273.175 510.82 272.854 511.491 272.606C512.001 272.606 512.192 273.181 512.192 273.818V334.285C512.192 337.156 514.106 337.155 516.594 337.155H518.061V339.452C515.063 339.452 512.001 339.452 508.876 339.452H499.372V337.155Z" fill="#004A98"/>
<path d="M555.503 334.609C555.503 336.204 556.46 336.267 557.927 336.267H561.435V338.117C557.122 338.693 552.858 339.589 548.678 340.796H548.296V333.716C544.217 337.998 538.693 340.612 532.796 341.051C531.456 341.085 530.124 340.834 528.888 340.312C527.653 339.791 526.542 339.013 525.631 338.03C524.72 337.046 524.028 335.879 523.603 334.608C523.178 333.336 523.029 331.988 523.165 330.654V308.266C523.165 305.97 522.846 303.802 517.935 303.355V301.697C521.06 301.697 528.076 301.123 529.224 301.123C530.373 301.123 530.181 301.697 530.181 303.61V326.189C530.181 328.805 530.181 336.331 537.771 336.331C541.756 335.681 545.449 333.835 548.36 331.037V307.501C548.36 305.715 544.15 304.758 541.024 303.929V302.334C548.87 301.824 553.781 301.123 554.674 301.123C555.567 301.123 555.376 301.697 555.376 302.653L555.503 334.609Z" fill="#004A98"/>
<path d="M572.85 329.567C572.975 331.906 573.964 334.115 575.626 335.766C577.288 337.416 579.504 338.389 581.844 338.497C591.22 338.497 595.175 329.248 595.175 321.467C595.384 317.371 594.075 313.341 591.497 310.152C588.919 306.962 585.255 304.836 581.206 304.181C578.016 304.523 575.052 305.993 572.85 308.327V329.567ZM572.85 305.776C576.277 302.292 580.765 300.048 585.607 299.397C587.896 299.493 590.141 300.05 592.21 301.033C594.279 302.017 596.128 303.408 597.646 305.123C599.165 306.838 600.322 308.842 601.048 311.015C601.774 313.187 602.054 315.484 601.872 317.767C602.081 323.564 600.006 329.211 596.093 333.494C592.181 337.776 586.743 340.352 580.951 340.666C576.72 340.666 572.555 339.613 568.832 337.604L566.153 339.645L564.367 338.688C565.156 333.538 565.561 328.336 565.579 323.125V285.493C565.579 279.816 564.24 279.625 560.923 278.668V277.265C564.039 276.313 567.051 275.052 569.916 273.501C570.53 273.095 571.195 272.774 571.894 272.544C572.404 272.544 572.531 273.119 572.531 273.756L572.85 305.776Z" fill="#004A98"/>
<path d="M195.634 390.287H196.336C198.058 390.287 199.844 390.287 199.844 387.545V362.605C199.844 360.181 198.058 359.926 196.336 359.926H195.634V358.459H202.714H210.176V359.926H209.475C207.817 359.926 205.967 359.926 205.967 362.605V387.545C205.967 390.032 207.817 390.287 209.475 390.287H210.176V391.69H202.65H195.634V390.287Z" fill="#004A98"/>
<path d="M209.987 391.504V390.483H209.541C207.819 390.483 205.777 390.164 205.777 387.549V362.61C205.777 359.995 207.819 359.676 209.541 359.676H209.987V358.719H202.716H195.891V359.676H196.337C198.06 359.676 200.037 359.995 200.037 362.61V387.549C200.037 390.164 198.06 390.483 196.337 390.483H195.891V391.504H202.652H209.987ZM209.987 391.887H202.461H195.444V390.037H196.337C198.06 390.037 199.654 390.037 199.654 387.549V362.61C199.654 360.314 198.06 360.186 196.337 360.122H195.444V358.272H202.524H209.987V360.122H209.158C207.436 360.122 205.841 360.122 205.841 362.61V387.549C205.841 389.909 207.436 390.037 209.158 390.037H209.987V391.887Z" fill="#004A98"/>
<path d="M242.834 382.314V364.455C242.91 363.878 242.858 363.291 242.681 362.737C242.505 362.182 242.207 361.674 241.811 361.247C241.415 360.821 240.93 360.487 240.39 360.27C239.85 360.052 239.269 359.957 238.688 359.99H237.668V358.523C239.9 358.523 242.069 358.523 244.046 358.523C246.023 358.523 247.937 358.523 249.914 358.523V359.99H249.213C247.172 359.99 244.939 360.373 244.939 365.986V387.672C244.912 389.273 245.018 390.873 245.258 392.456H243.408L219.426 365.093V384.674C219.426 388.82 220.255 390.287 223.891 390.287H224.72V391.69H218.341H211.963V390.287H212.665C215.918 390.287 216.938 388.055 216.938 384.228V364.2C216.947 363.631 216.84 363.066 216.625 362.539C216.409 362.012 216.089 361.535 215.683 361.135C215.278 360.736 214.796 360.423 214.266 360.215C213.736 360.007 213.17 359.909 212.601 359.926H211.963V358.459C213.813 358.459 215.662 358.459 217.448 358.459C219.234 358.459 220.255 358.459 221.658 358.459L242.834 382.314Z" fill="#004A98"/>
<path d="M243.727 392.142H245.322C245.191 390.614 245.191 389.077 245.322 387.549V365.863C245.322 360.186 247.746 359.484 249.787 359.484H250.297V358.528C248.383 358.528 246.534 358.528 244.62 358.528C242.707 358.528 240.347 358.528 238.242 358.528V359.484H238.561C239.17 359.461 239.777 359.571 240.339 359.806C240.902 360.04 241.407 360.394 241.819 360.843C242.232 361.291 242.542 361.825 242.728 362.405C242.914 362.986 242.972 363.599 242.898 364.204V382.191L221.722 358.272C220.319 358.272 218.979 358.272 217.512 358.272C216.045 358.272 214.004 358.272 212.218 358.272V359.229H212.665C213.866 359.229 215.018 359.706 215.867 360.556C216.716 361.405 217.193 362.557 217.193 363.758V383.786C217.193 387.613 216.173 390.164 212.728 390.164H212.218V391.185H218.596H224.528V390.164H223.891C220.191 390.164 219.234 388.506 219.234 384.36V364.268L243.727 392.142ZM245.577 392.524H243.6L219.426 365.608V384.743C219.426 388.889 220.127 390.101 223.699 390.101H224.72V391.95H218.341H211.963V390.101H212.856C215.981 390.101 216.874 388.06 216.938 384.296V364.268C216.938 363.727 216.83 363.191 216.621 362.691C216.412 362.192 216.106 361.739 215.72 361.359C215.334 360.979 214.877 360.68 214.374 360.478C213.871 360.277 213.334 360.178 212.792 360.186H211.963V358.336C213.813 358.336 215.662 358.336 217.448 358.336C219.234 358.336 220.255 358.336 221.849 358.336L242.771 381.872V364.396C242.847 363.844 242.8 363.282 242.633 362.751C242.466 362.219 242.183 361.732 241.805 361.323C241.427 360.914 240.962 360.594 240.445 360.387C239.928 360.179 239.372 360.089 238.816 360.122H237.54V358.272C239.773 358.272 241.941 358.272 243.919 358.272C245.896 358.272 247.809 358.272 249.787 358.272V360.122H248.894C246.916 360.122 244.875 360.122 244.812 365.927V387.613C244.784 389.214 244.891 390.814 245.13 392.397V392.397L245.577 392.524Z" fill="#004A98"/>
<path d="M257.696 361.142C254.124 361.142 253.932 361.971 253.231 365.415H251.317C251.317 364.14 251.764 362.8 251.891 361.397C251.987 360.059 251.987 358.716 251.891 357.378H253.039C253.422 358.782 254.634 358.718 255.91 358.718H280.467C281.742 358.718 282.954 358.718 283.018 357.251H284.166C284.166 358.527 283.783 359.866 283.656 361.142C283.528 362.417 283.656 363.693 283.656 364.969L282.252 365.479C282.252 363.757 281.933 360.95 278.744 360.95H270.899V386.464C270.899 390.099 272.621 390.546 274.854 390.546H275.81V391.949H268.029C265.158 391.949 261.65 391.949 259.992 391.949V390.546H260.885C263.5 390.546 264.839 390.546 264.839 386.528V361.014L257.696 361.142Z" fill="#004A98"/>
<path d="M276.193 391.887H268.411C265.541 391.887 262.033 391.887 260.375 391.887V390.037H261.459C264.074 390.037 265.158 390.037 265.222 386.274V361.143H257.696V360.696H265.669V386.21C265.669 390.037 264.138 390.42 261.523 390.42H260.821V391.44C262.735 391.44 265.924 391.44 268.667 391.44H276.193V390.42H275.491C273.195 390.42 271.346 389.846 271.346 386.146V360.633H279.382C282.571 360.633 282.954 363.375 283.082 365.161L284.102 364.779C284.039 363.525 284.039 362.269 284.102 361.016C284.102 359.804 284.102 358.592 284.549 357.38H283.847C283.847 358.783 282.316 358.847 281.104 358.847H256.293C255.208 358.847 253.933 358.847 253.55 357.444H252.721C252.82 358.717 252.82 359.997 252.721 361.271C252.721 362.61 252.338 363.886 252.21 365.098H253.231C253.805 361.781 254.251 360.76 257.823 360.76V361.143C254.251 361.143 254.315 361.781 253.55 365.289H251.317C251.317 363.949 251.7 362.61 251.891 361.271C251.987 359.933 251.987 358.59 251.891 357.252V357.252H253.422C253.741 358.464 254.634 358.464 255.846 358.464H280.658C281.934 358.464 282.954 358.464 283.018 357.188H284.294C284.294 358.464 283.911 359.74 283.783 361.016C283.656 362.291 283.783 363.567 283.783 364.842L282.125 365.48V365.161C282.125 363.439 281.806 360.824 278.808 360.824H271.218V385.955C271.218 389.527 272.685 389.782 274.917 389.782H276.065V391.632L276.193 391.887Z" fill="#004A98"/>
<path d="M286.208 390.287H286.846C288.568 390.287 290.354 390.287 290.354 387.545V362.605C290.354 360.181 288.568 359.926 286.846 359.926H286.208V358.459C289.078 358.459 294.053 358.459 298.008 358.459H310.191C310.191 360.5 310.191 363.689 310.191 365.794L308.724 366.177C308.724 363.052 307.958 360.564 302.983 360.564H296.605V373.321H302.345C305.152 373.321 305.789 371.662 306.045 369.111H307.512C307.512 370.961 307.512 372.81 307.512 374.66C307.512 376.51 307.512 378.296 307.512 380.082L306.045 380.401C306.045 377.53 305.662 375.681 302.345 375.681H296.668V386.651C296.668 389.713 299.411 389.713 302.473 389.713C308.15 389.713 310.701 389.33 312.104 383.909L313.444 384.228C312.806 386.779 312.232 389.33 311.849 391.818H299.092C294.819 391.818 289.142 391.818 286.336 391.818L286.208 390.287Z" fill="#004A98"/>
<path d="M311.465 391.503C311.848 389.079 312.422 386.655 312.996 384.295H312.039C310.636 389.653 307.893 390.099 302.281 390.036C299.283 390.036 296.285 390.036 296.285 386.783V375.493H302.344C305.661 375.493 306.044 377.47 306.235 380.149H307.256C307.256 378.363 307.256 376.641 307.256 374.855C307.256 373.069 307.256 371.283 307.256 369.497H306.235C306.235 371.985 305.215 373.707 302.344 373.707H296.476V360.95H303.301C308.212 360.95 309.042 363.438 309.233 366.436H310.317C310.317 365.096 310.317 363.374 310.317 361.78C310.317 360.185 310.317 360.185 310.317 359.547H298.326C294.435 359.547 289.651 359.547 286.717 359.547V360.504H287.164C288.886 360.504 290.927 360.823 290.927 363.438V388.377C290.927 390.992 288.886 391.311 287.164 391.311H286.717V392.332H299.155H311.912L311.465 391.503ZM311.912 392.715H299.155C294.882 392.715 289.205 392.715 286.398 392.715V390.865H287.228C288.95 390.865 290.544 390.865 290.544 388.377V363.438C290.544 361.142 288.95 361.014 287.228 360.95H286.398V359.101C289.269 359.101 294.244 359.101 298.198 359.101H310.381C310.381 359.802 310.381 360.631 310.381 361.524C310.381 362.417 310.381 364.969 310.381 366.308L308.659 366.755C308.659 363.629 307.957 361.397 303.11 361.397H296.731V373.388H302.344C305.087 373.388 305.533 371.985 305.852 369.434H307.638C307.638 371.283 307.638 373.133 307.638 374.983C307.638 376.833 307.638 378.618 307.638 380.404L306.044 380.787C306.044 377.853 306.044 376.322 302.536 376.258H297.05V386.655C297.05 389.525 299.538 389.526 302.663 389.526C308.404 389.526 310.7 389.207 312.103 383.849L313.634 384.231C313.06 386.719 312.486 389.27 312.039 391.822L311.912 392.715Z" fill="#004A98"/>
<path d="M325.755 374.533H327.86C332.58 374.533 335.195 372.747 335.195 367.134C335.284 366.199 335.165 365.255 334.847 364.372C334.529 363.488 334.019 362.685 333.355 362.021C332.691 361.357 331.888 360.847 331.005 360.529C330.121 360.211 329.178 360.093 328.242 360.181C326.775 360.181 326.201 360.181 325.5 360.181L325.755 374.533ZM319.695 363.498C319.695 360.054 317.782 359.926 316.315 359.926H315.422V358.459C316.953 358.459 319.887 358.459 322.821 358.459C325.755 358.459 327.987 358.459 330.475 358.459C336.471 358.459 341.828 360.117 341.828 366.878C341.776 368.764 341.132 370.586 339.987 372.085C338.842 373.585 337.255 374.686 335.45 375.234L343.55 387.417C344.008 388.261 344.678 388.97 345.495 389.474C346.313 389.977 347.247 390.258 348.207 390.287V391.69C346.612 391.69 345.081 391.69 343.55 391.69H339.086C335.41 386.785 332.085 381.627 329.136 376.255H326.01V386.651C326.01 390.287 327.732 390.479 329.901 390.479H330.794V391.882H322.566C320.333 391.882 318.101 391.882 315.677 391.882V390.479H316.57C318.292 390.479 319.951 389.649 319.951 387.863L319.695 363.498Z" fill="#004A98"/>
<path d="M327.859 374.341C332.579 374.341 334.939 372.683 334.939 367.134C334.991 366.264 334.865 365.394 334.568 364.575C334.27 363.757 333.809 363.007 333.211 362.374C332.614 361.741 331.893 361.236 331.093 360.892C330.293 360.548 329.431 360.371 328.56 360.373C327.711 360.316 326.858 360.316 326.009 360.373V374.15L327.859 374.341ZM325.499 374.788V360.181C326.412 360.118 327.328 360.118 328.241 360.181C329.209 360.056 330.193 360.155 331.117 360.469C332.04 360.784 332.88 361.307 333.57 361.997C334.26 362.687 334.782 363.526 335.097 364.45C335.412 365.374 335.51 366.357 335.385 367.325C335.385 373.002 332.642 374.979 327.859 374.979L325.499 374.788ZM325.499 376.063H328.752C331.707 381.35 334.965 386.461 338.511 391.371C339.914 391.371 341.445 391.371 342.975 391.371H347.376V390.287C346.434 390.255 345.518 389.972 344.722 389.468C343.926 388.963 343.279 388.255 342.848 387.417L334.556 374.979C336.351 374.476 337.938 373.413 339.086 371.944C340.233 370.475 340.881 368.678 340.934 366.815C340.934 360.436 335.832 358.65 329.836 358.65C327.348 358.65 325.052 358.65 322.182 358.65C319.312 358.65 316.569 358.65 315.038 358.65V359.607H315.676C317.143 359.607 319.248 359.607 319.248 363.434V387.608C319.248 389.522 317.462 390.415 315.676 390.415H315.038V391.435C317.271 391.435 319.439 391.435 321.416 391.435H329.453V390.415H328.752C326.583 390.415 324.669 390.415 324.669 386.396V375.999L325.499 376.063ZM347.695 391.882C346.101 391.882 344.57 391.882 343.039 391.882C341.508 391.882 340.041 391.882 338.383 391.882C334.764 387.009 331.482 381.894 328.56 376.574H325.69V386.651C325.69 390.223 327.221 390.223 329.389 390.223H330.474V392.073H322.246C320.013 392.073 317.781 392.073 315.357 392.073V390.223H316.441C318.163 390.223 319.567 389.522 319.631 387.863V363.689C319.631 360.373 317.908 360.373 316.441 360.309H315.102V358.459C316.697 358.459 319.567 358.459 322.501 358.459C325.435 358.459 327.603 358.459 330.155 358.459C336.15 358.459 341.7 360.117 341.7 367.07C341.651 368.964 341.009 370.795 339.865 372.306C338.721 373.816 337.132 374.929 335.321 375.489L343.294 387.481C343.716 388.303 344.355 388.994 345.142 389.478C345.93 389.962 346.835 390.22 347.759 390.223V390.223V392.009L347.695 391.882Z" fill="#004A98"/>
<path d="M380.225 382.319V364.46C380.301 363.883 380.249 363.296 380.072 362.742C379.895 362.187 379.598 361.679 379.202 361.252C378.806 360.826 378.321 360.492 377.781 360.275C377.241 360.057 376.66 359.962 376.079 359.995H374.995V358.528H381.373C383.287 358.528 385.264 358.528 387.241 358.528V359.995H386.476C384.498 359.995 382.266 360.378 382.266 365.991V387.677C382.166 389.27 382.166 390.868 382.266 392.461H380.48L355.987 365.161V384.743C355.987 388.889 356.816 390.356 360.452 390.356H361.281V391.759H354.903H348.524V390.356H349.162C352.479 390.356 353.5 388.124 353.5 384.296V364.268C353.5 363.702 353.387 363.141 353.168 362.618C352.949 362.095 352.629 361.621 352.226 361.224C351.822 360.826 351.343 360.513 350.817 360.302C350.291 360.091 349.729 359.986 349.162 359.995H348.524V358.528H354.01H358.22L380.225 382.319Z" fill="#004A98"/>
<path d="M381.052 392.142H382.647C382.515 390.614 382.515 389.077 382.647 387.549V365.863C382.647 360.186 385.007 359.484 387.048 359.484H387.558V358.528H381.945C379.713 358.528 377.608 358.528 375.567 358.528V359.484H376.396C377.005 359.461 377.612 359.571 378.175 359.806C378.738 360.04 379.243 360.394 379.655 360.843C380.067 361.291 380.377 361.825 380.564 362.405C380.75 362.986 380.808 363.599 380.734 364.204V382.191L359.557 358.272C358.154 358.272 356.815 358.272 355.348 358.272C353.881 358.272 351.776 358.272 350.054 358.272V359.229H350.5C351.701 359.229 352.853 359.706 353.702 360.556C354.552 361.405 355.029 362.557 355.029 363.758V383.786C355.029 387.613 353.944 390.164 350.5 390.164H350.054V391.185H356.432C358.473 391.185 360.45 391.185 362.428 391.185V390.164H361.79C358.027 390.164 357.133 388.506 357.07 384.36V364.268L381.052 392.142ZM382.838 392.524H380.925L356.751 365.608V384.743C356.751 388.889 357.453 390.101 361.024 390.101H362.045V391.95C359.94 391.95 357.899 391.95 355.666 391.95C353.434 391.95 351.393 391.95 349.288 391.95V390.101H350.117C353.306 390.101 354.2 388.06 354.2 384.296V364.268C354.208 363.73 354.109 363.195 353.906 362.696C353.704 362.197 353.404 361.743 353.023 361.363C352.642 360.982 352.189 360.681 351.69 360.479C351.191 360.277 350.656 360.177 350.117 360.186H349.288V358.336C351.138 358.336 352.988 358.336 354.774 358.336C356.56 358.336 357.516 358.336 359.111 358.336L380.032 381.872V364.396C380.032 360.633 377.481 360.122 376.141 360.122H374.865V358.272C377.162 358.272 379.33 358.272 381.244 358.272C383.157 358.272 385.135 358.272 387.112 358.272V360.122H386.155C384.242 360.122 382.201 360.122 382.137 365.927V387.613C382.11 389.214 382.216 390.814 382.456 392.397V392.397L382.838 392.524Z" fill="#004A98"/>
<path d="M402.229 363.818L397.827 377.276H406.693L402.229 363.818ZM395.34 384.866C394.852 386.059 394.489 387.298 394.256 388.566C394.256 390.033 396.233 390.288 397.827 390.288H398.338V391.691C396.424 391.691 394.511 391.691 392.597 391.691C390.684 391.691 388.961 391.691 387.431 391.691V390.288H387.75C388.685 390.284 389.595 389.977 390.342 389.414C391.089 388.851 391.634 388.061 391.896 387.162L399.486 365.348C400.226 363.418 400.823 361.435 401.272 359.417C402.784 358.888 404.238 358.204 405.609 357.375H405.928C405.928 357.375 405.928 357.375 406.311 357.375C406.431 357.789 406.58 358.194 406.757 358.587L415.495 383.463C416.069 385.121 416.644 386.844 417.218 388.311C417.466 388.935 417.912 389.461 418.488 389.807C419.065 390.153 419.739 390.299 420.407 390.224V391.627C418.238 391.627 416.133 391.627 414.029 391.627H406.885V390.224H407.459C408.479 390.224 410.393 390.224 410.393 388.821C410.202 387.641 409.881 386.486 409.436 385.376L407.586 379.891H396.743L395.34 384.866Z" fill="#004A98"/>
<path d="M398.019 377.089H406.375L402.229 364.332L398.019 377.089ZM397.445 377.472L401.973 363.631L406.502 377.472H397.445ZM407.204 391.504H414.092C416.325 391.504 418.366 391.504 420.471 391.504V390.484C419.763 390.551 419.052 390.388 418.444 390.021C417.835 389.653 417.36 389.1 417.09 388.442C416.516 387.039 415.878 385.253 415.368 383.595L406.566 358.719C406.566 358.337 406.566 357.89 406.183 357.571H405.737C404.419 358.383 403.005 359.025 401.527 359.485C401.079 361.503 400.482 363.486 399.741 365.417L392.151 387.231C391.867 388.163 391.293 388.981 390.513 389.565C389.734 390.15 388.788 390.472 387.813 390.484V390.484V391.504C389.408 391.504 391.067 391.504 392.725 391.504H398.274V390.484C396.743 390.484 394.575 390.484 394.511 388.634C394.727 387.328 395.068 386.046 395.531 384.807L397.126 379.768H408.224L410.138 385.381C410.593 386.509 410.914 387.686 411.094 388.889C411.094 390.356 408.99 390.42 407.905 390.484L407.204 391.504ZM420.662 391.887C418.493 391.887 416.389 391.887 414.284 391.887H407.14V390.037H407.842C408.99 390.037 410.584 390.037 410.584 388.889C410.407 387.734 410.107 386.601 409.691 385.508L407.842 380.151H397.381L395.85 384.934C395.406 386.137 395.065 387.374 394.83 388.634C394.83 389.782 396.616 390.037 398.21 390.037H398.976V391.887H393.235C391.513 391.887 389.791 391.887 388.133 391.887V390.037H388.643C389.531 390.045 390.399 389.763 391.112 389.233C391.826 388.704 392.347 387.956 392.597 387.103L400.188 365.289C400.93 363.304 401.569 361.281 402.101 359.23C403.588 358.689 405.02 358.006 406.375 357.188H406.821C406.934 357.196 407.045 357.228 407.144 357.283C407.243 357.338 407.329 357.415 407.395 357.507C407.516 357.921 407.665 358.326 407.842 358.719L416.58 383.595C417.154 385.253 417.728 386.975 418.302 388.379C418.536 388.964 418.957 389.457 419.498 389.779C420.04 390.102 420.673 390.238 421.3 390.165H421.746V392.014L420.662 391.887Z" fill="#004A98"/>
<path d="M422.767 361.142C419.195 361.142 419.068 361.971 418.302 365.415H417.154C417.154 364.14 417.601 362.8 417.728 361.397C417.823 360.059 417.823 358.716 417.728 357.378H418.876C419.259 358.782 420.471 358.718 421.747 358.718H446.303C447.579 358.718 448.791 358.718 448.855 357.251H450.003C450.003 358.527 449.62 359.866 449.493 361.142C449.365 362.417 449.493 363.693 449.493 364.969L448.089 365.479C448.089 363.757 447.77 360.95 444.581 360.95H436.8V386.464C436.8 390.099 438.458 390.546 440.754 390.546H441.647V391.949H433.866C431.059 391.949 427.487 391.949 425.829 391.949V390.546H426.722C429.337 390.546 430.676 390.546 430.676 386.528V361.014L422.767 361.142Z" fill="#004A98"/>
<path d="M441.52 391.887H433.738C430.931 391.887 427.36 391.887 425.701 391.887V390.037H426.786C429.401 390.037 430.485 390.037 430.549 386.274V361.143H422.959V360.696H430.931V386.21C430.931 390.037 429.401 390.42 426.786 390.42H426.084V391.44C427.997 391.44 431.187 391.44 433.929 391.44H441.456V390.42H440.754C438.522 390.42 436.672 389.846 436.608 386.146V360.633H444.645C447.834 360.633 448.281 363.375 448.344 365.161L449.365 364.779C449.301 363.525 449.301 362.269 449.365 361.016C449.365 359.804 449.365 358.592 449.811 357.38H449.11C449.11 358.783 447.579 358.847 446.367 358.847H421.555C420.471 358.847 419.259 358.847 418.813 357.444H418.047C418.042 358.726 417.935 360.005 417.728 361.271C417.728 362.61 417.409 363.886 417.218 365.098H418.239C418.876 361.781 419.259 360.76 422.831 360.76V361.143C419.323 361.143 419.387 361.781 418.621 365.289H416.771C416.771 363.949 417.218 362.61 417.346 361.271C417.441 359.933 417.441 358.59 417.346 357.252V357.252H418.876C419.259 358.464 420.088 358.464 421.3 358.464H446.112C447.451 358.464 448.408 358.464 448.472 357.188H449.811C449.811 358.464 449.493 359.74 449.301 361.016C449.11 362.291 449.301 363.567 449.301 364.842L447.579 365.48V365.161C447.579 363.439 447.26 360.824 444.262 360.824H436.672V385.955C436.672 389.527 438.139 389.782 440.372 389.782H441.52V391.632V391.887Z" fill="#004A98"/>
<path d="M451.79 390.287H452.428C454.15 390.287 455.936 390.287 455.936 387.545V362.605C455.936 360.181 454.15 359.926 452.428 359.926H451.79V358.459C453.64 358.459 456.446 358.459 458.806 358.459H466.269V359.926H465.631C463.909 359.926 462.059 359.926 462.059 362.605V387.545C462.059 390.032 463.909 390.287 465.631 390.287H466.269V391.69H458.742H451.79V390.287Z" fill="#004A98"/>
<path d="M466.076 391.504V390.483H465.629C463.907 390.483 461.866 390.164 461.866 387.549V362.61C461.866 359.995 463.907 359.676 465.629 359.676H466.076V358.719H458.804H451.979V359.676H452.426C454.148 359.676 456.189 359.995 456.189 362.61V387.549C456.189 390.164 454.148 390.483 452.426 390.483H451.979V391.504H458.74H466.076ZM466.076 391.887H458.549H451.597V390.037H452.49C454.212 390.037 455.806 390.037 455.806 387.549V362.61C455.806 360.314 454.212 360.186 452.49 360.122H451.597V358.272H458.613H466.076V360.122H465.246C463.524 360.122 461.93 360.122 461.93 362.61V387.549C461.93 389.909 463.524 390.037 465.246 390.037H466.076V391.887V391.887Z" fill="#004A98"/>
<path d="M485.977 390.287C495.226 390.287 496.82 382.187 496.82 375.234C496.82 368.282 493.057 359.863 485.148 359.863C477.239 359.863 474.56 367.517 474.56 373.895C474.56 382.442 478.451 390.542 486.169 390.542L485.977 390.287ZM485.467 358.013C487.762 357.801 490.077 358.068 492.263 358.797C494.45 359.526 496.462 360.701 498.171 362.248C499.88 363.795 501.249 365.68 502.191 367.784C503.133 369.888 503.629 372.164 503.645 374.469C503.752 376.863 503.363 379.253 502.503 381.49C501.644 383.726 500.332 385.762 498.649 387.468C496.967 389.174 494.95 390.515 492.726 391.406C490.502 392.298 488.117 392.72 485.722 392.647C483.405 392.788 481.083 392.449 478.904 391.65C476.724 390.851 474.733 389.61 473.056 388.004C471.379 386.399 470.051 384.464 469.158 382.322C468.264 380.179 467.823 377.875 467.863 375.553C467.837 373.237 468.275 370.94 469.151 368.796C470.028 366.652 471.325 364.705 472.965 363.07C474.606 361.435 476.558 360.146 478.705 359.277C480.852 358.409 483.151 357.979 485.467 358.013" fill="#004A98"/>
<path d="M474.177 373.899C474.177 367.52 476.665 359.93 485.148 359.93C493.631 359.93 497.012 368.477 497.012 375.493C497.012 382.509 495.353 390.738 485.977 390.738V390.355C495.034 390.355 496.565 382.446 496.629 375.493C496.693 368.541 492.929 360.313 485.148 360.313C477.366 360.313 474.56 367.52 474.56 373.899C474.56 382.382 478.451 390.355 485.977 390.355V390.738C478.068 390.738 474.177 382.509 474.177 373.899ZM467.48 375.557C467.463 373.218 467.912 370.9 468.801 368.736C469.69 366.573 471.001 364.609 472.658 362.958C474.315 361.307 476.284 360.003 478.45 359.122C480.616 358.24 482.937 357.8 485.275 357.825V358.208C482.985 358.174 480.71 358.599 478.586 359.458C476.462 360.316 474.532 361.592 472.909 363.209C471.286 364.826 470.004 366.752 469.137 368.872C468.27 370.993 467.837 373.266 467.863 375.557C467.824 377.847 468.258 380.121 469.138 382.236C470.018 384.351 471.325 386.262 472.978 387.848C474.63 389.435 476.592 390.663 478.741 391.457C480.89 392.25 483.18 392.592 485.467 392.46C487.893 392.548 490.311 392.122 492.562 391.21C494.812 390.298 496.844 388.921 498.525 387.168C500.205 385.415 501.496 383.327 502.313 381.04C503.129 378.753 503.453 376.319 503.262 373.899C503.228 371.627 502.725 369.387 501.785 367.319C500.845 365.25 499.489 363.398 497.8 361.877C496.112 360.357 494.129 359.201 491.974 358.482C489.819 357.762 487.538 357.495 485.275 357.697V357.315C487.592 357.113 489.925 357.39 492.13 358.128C494.335 358.866 496.364 360.049 498.093 361.604C499.822 363.159 501.212 365.053 502.178 367.168C503.144 369.283 503.665 371.574 503.709 373.899C503.806 376.329 503.402 378.754 502.523 381.021C501.643 383.289 500.306 385.352 498.595 387.081C496.884 388.81 494.835 390.168 492.577 391.072C490.318 391.975 487.898 392.404 485.467 392.332C483.129 392.464 480.79 392.112 478.595 391.3C476.4 390.487 474.395 389.23 472.707 387.608C471.019 385.986 469.684 384.033 468.785 381.872C467.885 379.711 467.441 377.387 467.48 375.047" fill="#004A98"/>
<path d="M535.538 382.319V364.46C535.615 363.877 535.562 363.285 535.381 362.725C535.201 362.166 534.898 361.654 534.495 361.226C534.092 360.798 533.598 360.466 533.05 360.253C532.503 360.04 531.914 359.952 531.328 359.995H530.307V358.528H537.005H542.809V359.995H542.107C540.13 359.995 537.898 360.378 537.898 365.991V387.677C537.798 389.27 537.798 390.868 537.898 392.461H536.112L511.619 365.161V384.743C511.619 388.889 512.448 390.356 516.084 390.356H516.913V391.759C514.872 391.759 512.831 391.759 510.535 391.759H504.156V390.356H504.794C508.111 390.356 509.131 388.124 509.131 384.296V364.268C509.131 363.702 509.019 363.141 508.8 362.618C508.581 362.095 508.261 361.621 507.857 361.224C507.454 360.826 506.975 360.513 506.449 360.302C505.923 360.091 505.36 359.986 504.794 359.995H504.156V358.528C505.942 358.528 507.792 358.528 509.642 358.528H513.851L535.538 382.319Z" fill="#004A98"/>
<path d="M536.366 392.142H538.343C538.245 390.612 538.245 389.079 538.343 387.549V365.863C538.343 360.186 540.703 359.484 542.744 359.484H543.254V358.528C541.405 358.528 539.491 358.528 537.578 358.528C535.664 358.528 533.304 358.528 531.199 358.528V359.484H531.965C532.576 359.463 533.185 359.573 533.751 359.807C534.316 360.041 534.824 360.393 535.242 360.841C535.659 361.288 535.975 361.82 536.169 362.4C536.363 362.981 536.43 363.596 536.366 364.204V382.191L515.19 358.272H510.98C509.194 358.272 507.408 358.272 505.686 358.272V359.229H506.133C507.334 359.229 508.485 359.706 509.335 360.556C510.184 361.405 510.661 362.557 510.661 363.758V383.786C510.661 387.613 509.577 390.164 506.133 390.164H505.686V391.185C507.791 391.185 509.896 391.185 512.064 391.185C514.233 391.185 516.019 391.185 517.996 391.185V390.164H517.422C513.659 390.164 512.766 388.506 512.766 384.36V364.268L536.366 392.142ZM538.152 392.524H536.175L512.064 365.608V384.743C512.064 388.889 512.766 390.101 516.338 390.101H517.358V391.95C515.253 391.95 513.212 391.95 510.98 391.95C508.748 391.95 506.706 391.95 504.602 391.95V390.101H505.431C508.62 390.101 509.513 388.06 509.513 384.296V364.268C509.522 363.73 509.422 363.195 509.22 362.696C509.018 362.197 508.717 361.743 508.337 361.363C507.956 360.982 507.502 360.681 507.003 360.479C506.504 360.277 505.969 360.177 505.431 360.186H504.602V358.336C506.451 358.336 508.301 358.336 510.087 358.336C511.873 358.336 512.83 358.336 514.488 358.336L535.345 381.872V364.396C535.422 363.844 535.375 363.282 535.208 362.751C535.041 362.219 534.758 361.732 534.38 361.323C534.002 360.914 533.537 360.594 533.02 360.387C532.503 360.179 531.947 360.089 531.391 360.122H530.179V358.272C532.411 358.272 534.644 358.272 536.557 358.272C538.471 358.272 540.448 358.272 542.425 358.272V360.122H541.469C539.555 360.122 537.514 360.122 537.45 365.927V387.613C537.35 389.206 537.35 390.804 537.45 392.397V392.397L538.152 392.524Z" fill="#004A98"/>
<path d="M557.479 363.818L553.015 377.276H561.944L557.479 363.818ZM550.527 384.866C550.083 386.068 549.742 387.306 549.507 388.566C549.507 390.033 551.484 390.288 553.078 390.288H553.589V391.691C551.675 391.691 549.762 391.691 547.848 391.691C545.935 391.691 544.212 391.691 542.682 391.691V390.288H543.001C543.939 390.294 544.853 389.992 545.603 389.427C546.352 388.862 546.895 388.066 547.147 387.162L554.737 365.348C555.486 363.426 556.062 361.441 556.459 359.417C557.991 358.887 559.466 358.203 560.86 357.375H561.243L561.625 358.587L570.428 383.463C571.002 385.121 571.576 386.844 572.15 388.311C572.395 388.924 572.831 389.442 573.394 389.786C573.958 390.131 574.618 390.285 575.275 390.224V390.224V391.627C573.107 391.627 571.002 391.627 568.897 391.627H561.753V390.224H562.263C563.348 390.224 565.261 390.224 565.261 388.821C565.07 387.641 564.749 386.486 564.304 385.376L562.455 379.891H551.611L550.527 384.866Z" fill="#004A98"/>
<path d="M553.462 377.089H561.754L557.608 364.332L553.462 377.089ZM552.888 377.472L557.48 363.631L561.945 377.472H552.888ZM562.583 391.504H569.535C571.768 391.504 573.809 391.504 575.914 391.504V390.484C575.216 390.537 574.52 390.368 573.924 390.001C573.329 389.634 572.864 389.089 572.597 388.442C571.959 387.039 571.449 385.253 570.875 383.595L562.073 358.719L561.69 357.571H561.244C559.926 358.383 558.512 359.025 557.034 359.485C556.585 361.503 555.988 363.486 555.248 365.417L547.658 387.231C547.373 388.163 546.8 388.981 546.02 389.565C545.24 390.15 544.295 390.472 543.32 390.484V390.484V391.504C544.915 391.504 546.573 391.504 548.232 391.504H553.781V390.484H553.462C551.931 390.484 549.762 390.483 549.699 388.57C549.924 387.287 550.265 386.028 550.719 384.807V384.807L552.314 379.768H563.412L565.326 385.381C565.781 386.509 566.102 387.686 566.282 388.889C566.282 390.356 564.178 390.42 563.093 390.484H562.774L562.583 391.504ZM576.105 391.887C573.937 391.887 571.832 391.887 569.727 391.887H562.583V390.037H563.285C564.433 390.037 566.027 390.037 566.027 388.889C565.85 387.727 565.529 386.591 565.071 385.508L563.285 380.151H552.76L551.293 384.934C550.859 386.118 550.518 387.333 550.273 388.57C550.273 389.782 552.059 390.037 553.653 390.037H554.355V391.887H548.614H543.448V390.037H543.958C544.847 390.045 545.714 389.763 546.428 389.233C547.141 388.704 547.663 387.956 547.913 387.103L555.503 365.289C556.253 363.312 556.871 361.288 557.353 359.23C558.865 358.701 560.319 358.017 561.69 357.188H562.137C562.137 357.188 562.519 357.188 562.711 357.188L563.093 358.4L571.895 383.276C572.47 384.934 573.043 386.657 573.618 388.124C573.851 388.692 574.264 389.169 574.794 389.48C575.324 389.791 575.941 389.919 576.552 389.846H577.062V391.695L576.105 391.887Z" fill="#004A98"/>
<path d="M587.968 387.037C587.968 388.951 589.308 389.525 590.838 389.716C592.96 389.913 595.095 389.913 597.217 389.716C599.022 389.499 600.671 388.583 601.809 387.165C602.495 386.111 602.992 384.946 603.276 383.721H604.616C604.105 386.463 603.467 389.142 602.893 391.821C598.684 391.821 594.538 391.821 590.137 391.821C585.736 391.821 581.781 391.821 577.38 391.821V390.418H578.018C579.74 390.418 581.59 390.418 581.59 387.229V362.736C581.59 360.312 579.74 360.057 578.018 360.057H577.38V358.59C579.867 358.59 582.355 358.59 584.906 358.59C587.458 358.59 589.69 358.59 592.114 358.59V360.057H590.966C589.116 360.057 587.713 360.057 587.713 362.608L587.968 387.037Z" fill="#004A98"/>
<path d="M602.572 391.501C603.146 388.885 603.72 386.398 604.23 383.783H603.274C602.988 384.987 602.492 386.132 601.807 387.163C601.231 387.889 600.518 388.494 599.708 388.943C598.898 389.391 598.007 389.675 597.087 389.778C595.875 389.842 594.662 389.842 593.451 389.778H590.772C589.241 389.778 587.71 388.949 587.71 386.908V362.351C587.71 359.672 589.433 359.545 591.219 359.545H592.175V358.588C589.815 358.588 587.519 358.588 585.159 358.588C582.799 358.588 580.248 358.588 577.824 358.588V359.545H578.27C579.993 359.545 582.097 359.864 582.097 362.479V386.972C582.097 390.033 579.993 390.352 578.27 390.352H577.824V391.373C581.97 391.373 586.052 391.373 590.198 391.373C594.344 391.373 598.426 391.373 602.572 391.373V391.501ZM602.572 391.756C598.362 391.756 594.153 391.756 589.815 391.756C585.478 391.756 581.46 391.756 577.059 391.756V389.906H577.888C579.61 389.906 581.268 389.906 581.268 386.972V362.479C581.268 360.183 579.61 360.055 577.888 359.991H577.059V358.142C579.546 358.142 582.034 358.142 584.585 358.142C587.136 358.142 589.369 358.142 591.793 358.142V359.991H590.453C588.603 359.991 587.455 359.991 587.392 362.351V386.908C587.392 388.694 588.54 389.141 590.07 389.332H592.685H596.321C597.186 389.239 598.022 388.97 598.779 388.543C599.536 388.115 600.197 387.537 600.722 386.844C601.367 385.814 601.861 384.697 602.189 383.528H603.975C603.401 386.27 602.763 388.885 602.189 391.628L602.572 391.756Z" fill="#004A98"/>
</g>
<defs>
<clipPath id="clip0">
<rect width="800.039" height="500" fill="white" transform="translate(0.0722656)"/>
</clipPath>
</defs>
</svg>
