<svg width="801" height="500" viewBox="0 0 801 500" fill="none" xmlns="http://www.w3.org/2000/svg">
<g clip-path="url(#clip0)">
<path d="M773.411 0H26.6995C11.9748 0 0.0380859 11.9367 0.0380859 26.6614V473.336C0.0380859 488.061 11.9748 499.998 26.6995 499.998H773.411C788.136 499.998 800.073 488.061 800.073 473.336V26.6614C800.073 11.9367 788.136 0 773.411 0Z" fill="#F9F9F9"/>
<path d="M219.963 500H773.411C780.482 500 787.263 497.191 792.263 492.191C797.263 487.191 800.072 480.41 800.072 473.339V286.134C747.005 319.812 546.725 435.898 219.963 500Z" fill="#F58220"/>
<path d="M409.848 211.058C399.487 210.87 389.473 214.789 381.992 221.959C374.511 229.13 370.171 238.969 369.92 249.328C369.602 257.27 371.665 265.126 375.845 271.887C380.025 278.647 386.13 284.004 393.377 287.269C400.624 290.534 408.681 291.558 416.514 290.21C424.347 288.862 431.598 285.202 437.337 279.703C443.075 274.203 447.038 267.113 448.717 259.344C450.396 251.575 449.715 243.482 446.76 236.103C443.805 228.724 438.712 222.397 432.135 217.935C425.557 213.472 417.796 211.077 409.848 211.058V211.058Z" fill="url(#paint0_radial)"/>
<path d="M183.224 212.466H161.984V287.347H183.352C193.025 287.849 202.542 284.76 210.077 278.673C214.295 275.152 217.695 270.755 220.041 265.788C222.388 260.82 223.623 255.401 223.663 249.907C223.408 228.093 206.633 212.466 183.224 212.466ZM200.254 268.659C194.651 273.213 187.475 275.368 180.29 274.655H176.336V225.159H180.29C183.849 224.795 187.444 225.137 190.87 226.166C194.296 227.195 197.485 228.89 200.254 231.154C202.808 233.539 204.844 236.422 206.238 239.626C207.631 242.83 208.352 246.285 208.355 249.779C208.387 253.316 207.683 256.82 206.289 260.071C204.894 263.321 202.839 266.245 200.254 268.659Z" fill="#001722"/>
<path d="M244.713 212.466H230.106V287.348H244.713V212.466Z" fill="#001722"/>
<path d="M280.431 241.163C271.629 237.91 269.077 235.806 269.077 231.723C269.077 227.641 273.67 223.432 279.984 223.432C282.308 223.52 284.581 224.141 286.627 225.247C288.673 226.353 290.437 227.914 291.784 229.81L299.374 219.86C293.343 214.42 285.491 211.439 277.369 211.504C274.416 211.323 271.457 211.739 268.669 212.728C265.881 213.717 263.321 215.257 261.142 217.258C258.962 219.259 257.209 221.678 255.986 224.372C254.763 227.065 254.096 229.978 254.024 232.935C254.024 243.268 258.744 248.562 272.458 253.474C275.936 254.599 279.308 256.029 282.535 257.747C283.884 258.548 284.999 259.687 285.771 261.052C286.543 262.417 286.945 263.96 286.937 265.529C286.922 266.978 286.613 268.409 286.026 269.734C285.44 271.059 284.589 272.251 283.527 273.236C282.464 274.221 281.211 274.979 279.845 275.464C278.479 275.948 277.029 276.148 275.583 276.053C272.249 276.109 268.969 275.2 266.14 273.435C263.31 271.669 261.052 269.123 259.637 266.103L250.197 275.16C252.857 279.64 256.667 283.327 261.231 285.839C265.796 288.351 270.949 289.597 276.157 289.447C279.504 289.669 282.861 289.193 286.014 288.05C289.168 286.907 292.05 285.122 294.478 282.808C296.906 280.494 298.827 277.701 300.12 274.606C301.413 271.511 302.05 268.181 301.989 264.827C302.308 252.644 297.014 247.223 280.431 241.163Z" fill="#001722"/>
<path d="M306.582 249.905C306.539 255.084 307.533 260.219 309.507 265.007C311.48 269.796 314.393 274.14 318.073 277.785C321.753 281.429 326.126 284.299 330.934 286.226C335.741 288.153 340.886 289.097 346.064 289.004C352.431 289.032 358.711 287.522 364.37 284.603V267.445C362.204 270.002 359.507 272.056 356.467 273.466C353.427 274.876 350.117 275.607 346.766 275.609C343.362 275.74 339.968 275.156 336.803 273.898C333.638 272.639 330.771 270.731 328.386 268.299C326.002 265.866 324.152 262.962 322.956 259.772C321.761 256.582 321.246 253.178 321.444 249.777C321.351 246.492 321.911 243.221 323.092 240.155C324.273 237.088 326.052 234.287 328.324 231.913C330.597 229.539 333.319 227.641 336.331 226.328C339.344 225.015 342.587 224.313 345.873 224.264C349.349 224.272 352.784 225.028 355.942 226.481C359.101 227.934 361.91 230.049 364.179 232.683V215.334C358.688 212.315 352.522 210.735 346.256 210.742C341.077 210.7 335.941 211.68 331.142 213.627C326.343 215.574 321.975 218.449 318.289 222.087C314.603 225.726 311.672 230.056 309.663 234.829C307.654 239.603 306.607 244.726 306.582 249.905V249.905Z" fill="#001722"/>
<path d="M482.686 262.791L462.722 212.466H446.776L478.541 289.261H486.45L518.788 212.466H502.906L482.686 262.791Z" fill="#001722"/>
<path d="M525.359 287.348H566.819V274.655H539.966V254.435H565.798V241.806H539.966V225.159H566.819V212.466H525.359V287.348Z" fill="#001722"/>
<path d="M624.605 234.466C624.605 220.434 614.974 212.397 598.135 212.397H576.576V287.279H591.183V257.173H593.096L613.315 287.279H631.239L607.639 255.706C612.633 254.977 617.164 252.378 620.314 248.435C623.464 244.491 624.998 239.498 624.605 234.466V234.466ZM595.328 247.223H591.055V224.516H595.52C604.641 224.516 609.616 228.343 609.616 235.614C609.616 242.886 604.641 247.223 595.328 247.223Z" fill="#001722"/>
<path d="M634.937 218.014C634.937 216.738 634.044 215.973 632.45 215.973H630.281V222.351H631.876V219.8L633.725 222.351H635.639L633.47 219.608C633.852 219.531 634.198 219.335 634.462 219.048C634.725 218.762 634.892 218.4 634.937 218.014ZM632.131 218.907V217.185H632.45C633.215 217.185 633.598 217.184 633.598 218.077C633.598 218.97 632.896 218.907 632.131 218.907Z" fill="#231F20"/>
<path d="M632.705 213.481C631.554 213.469 630.426 213.798 629.463 214.428C628.5 215.059 627.746 215.96 627.297 217.02C626.848 218.079 626.724 219.248 626.941 220.378C627.157 221.508 627.705 222.549 628.514 223.367C629.323 224.185 630.358 224.744 631.485 224.973C632.613 225.203 633.783 225.091 634.847 224.654C635.912 224.217 636.822 223.473 637.463 222.517C638.103 221.561 638.446 220.436 638.446 219.286C638.454 218.526 638.312 217.773 638.027 217.069C637.742 216.365 637.321 215.725 636.787 215.185C636.253 214.645 635.617 214.217 634.917 213.924C634.216 213.632 633.464 213.481 632.705 213.481V213.481ZM632.705 224.006C631.764 224.044 630.834 223.8 630.033 223.305C629.232 222.81 628.597 222.087 628.21 221.228C627.824 220.37 627.702 219.416 627.862 218.488C628.022 217.56 628.456 216.701 629.108 216.022C629.76 215.342 630.6 214.873 631.52 214.675C632.441 214.477 633.399 214.559 634.273 214.91C635.147 215.261 635.895 215.865 636.423 216.645C636.951 217.424 637.233 218.344 637.234 219.286C637.251 220.51 636.785 221.691 635.938 222.575C635.09 223.458 633.929 223.972 632.705 224.006V224.006Z" fill="#231F20"/>
</g>
<defs>
<radialGradient id="paint0_radial" cx="0" cy="0" r="1" gradientUnits="userSpaceOnUse" gradientTransform="translate(409.848 250.03) scale(39.4181 39.4182)">
<stop offset="0.01" stop-color="#FFEEE0"/>
<stop offset="0.11" stop-color="#FEE9D7"/>
<stop offset="0.28" stop-color="#FDDBBF"/>
<stop offset="0.49" stop-color="#FBC597"/>
<stop offset="0.74" stop-color="#F8A560"/>
<stop offset="1" stop-color="#F48120"/>
</radialGradient>
<clipPath id="clip0">
<rect width="800.034" height="500" fill="white" transform="translate(0.0380859)"/>
</clipPath>
</defs>
</svg>
