<svg width="801" height="500" viewBox="0 0 801 500" fill="none" xmlns="http://www.w3.org/2000/svg">
<g clip-path="url(#clip0)">
<path d="M773.564 0H26.849C12.1242 0 0.1875 11.9367 0.1875 26.6615V473.338C0.1875 488.063 12.1242 500 26.849 500H773.564C788.289 500 800.226 488.063 800.226 473.338V26.6615C800.226 11.9367 788.289 0 773.564 0Z" fill="#F9F9F9"/>
<path d="M539.799 266.934C540.756 296.083 541.712 326.189 540.245 355.848C539.538 361.918 537.444 367.744 534.126 372.875C530.808 378.007 526.355 382.307 521.11 385.444C512.16 390.132 502.116 392.334 492.025 391.822L453.372 391.375V144.15C454.379 136.07 457.721 128.459 462.989 122.251C468.257 116.042 475.223 111.505 483.031 109.197C501.756 107.534 520.557 106.874 539.352 107.219L540.309 119.976V260.3L539.863 260.747L539.799 266.934Z" fill="#00A551"/>
<path d="M259.724 257.749V141.153C261.204 134.436 264.301 128.183 268.748 122.936C273.194 117.689 278.855 113.608 285.238 111.047C304.373 105.243 326.059 108.623 345.449 108.113C346.47 127.248 345.449 150.848 345.959 167.368L346.916 319.428C344.493 342.709 353.295 374.282 324.082 387.421C305.648 396.606 280.9 390.802 259.979 392.779L259.533 389.335V257.749H259.724Z" fill="#0071BB"/>
<path d="M259.726 262.596C263.248 267.803 267.886 272.159 273.304 275.348C278.721 278.537 284.782 280.477 291.044 281.029C307.053 282.496 327.911 283.963 338.626 268.91C345.898 261.129 341.56 250.477 343.027 240.271L342.517 221.774C333.146 220.88 323.719 220.73 314.325 221.328C308.967 241.228 323.063 263.552 300.229 273.758C293.936 275.21 287.326 274.157 281.795 270.824C273.057 268.91 277.904 254.814 266.232 258.705L259.471 257.748L259.726 262.596Z" fill="white"/>
<path d="M442.784 124.185L443.295 360.695C441.565 366.829 438.484 372.499 434.279 377.289C430.075 382.079 424.852 385.867 418.993 388.377C400.56 394.755 377.725 391.757 357.314 391.757L356.357 142.619C357.153 136.761 359.294 131.167 362.614 126.276C365.934 121.384 370.342 117.328 375.493 114.426C383.213 109.869 392.041 107.529 401.006 107.665H442.274L442.784 124.185Z" fill="#EC1C24"/>
<path d="M438.955 221.713C439.37 224.606 439.519 227.531 439.402 230.451C424.859 226.561 406.872 222.223 393.732 232.875C390.837 235.684 388.688 239.17 387.481 243.019C386.274 246.868 386.047 250.957 386.819 254.916C387.592 258.876 389.341 262.579 391.907 265.691C394.473 268.804 397.775 271.227 401.514 272.74C414.271 276.631 427.028 273.186 438.955 270.316C439.66 272.841 439.66 275.51 438.955 278.034H383.081C378.307 277.258 373.804 275.298 369.983 272.335C366.161 269.371 363.143 265.498 361.203 261.068C359.328 256.146 358.789 250.815 359.64 245.617C360.491 240.419 362.703 235.539 366.05 231.472C368.874 228.066 372.456 225.368 376.51 223.596C380.564 221.824 384.977 221.026 389.395 221.267L438.955 221.713Z" fill="white"/>
<path d="M539.799 266.936C539.062 269.975 537.469 272.739 535.207 274.898C532.946 277.058 530.112 278.523 527.042 279.119H459.304L456.88 278.098C456.88 258.963 456.434 240.275 457.391 221.331H500.636C514.222 222.734 529.275 216.93 535.59 229.559C536.59 231.776 536.935 234.234 536.584 236.641C536.234 239.048 535.203 241.304 533.612 243.145C531.699 246.525 527.234 247.036 526.341 249.523C529.267 250.26 531.992 251.637 534.32 253.557C536.647 255.476 538.519 257.89 539.799 260.622V266.936ZM481.501 227.135C480.115 233.186 479.942 239.451 480.991 245.569C491.196 245.122 504.335 249.013 511.16 241.231C512.041 239.654 512.46 237.86 512.37 236.055C512.28 234.251 511.684 232.508 510.65 231.026C502.549 224.201 490.877 228.602 481.182 227.135H481.501ZM507.716 253.861C498.704 252.707 489.593 252.535 480.544 253.35C480.12 259.999 480.441 266.674 481.501 273.251C491.196 273.251 501.912 274.718 510.65 270.381C511.93 269.139 512.872 267.591 513.386 265.883C513.899 264.174 513.968 262.364 513.584 260.622C513.187 259.044 512.418 257.583 511.342 256.363C510.265 255.142 508.913 254.197 507.397 253.605L507.716 253.861Z" fill="white"/>
</g>
<defs>
<clipPath id="clip0">
<rect width="800.038" height="500" fill="white" transform="translate(0.1875)"/>
</clipPath>
</defs>
</svg>
