<svg width="801" height="500" viewBox="0 0 801 500" fill="none" xmlns="http://www.w3.org/2000/svg">
<g clip-path="url(#clip0)">
<path d="M773.526 0H26.8109C12.0862 0 0.149414 11.9368 0.149414 26.6616V473.338C0.149414 488.063 12.0862 500 26.8109 500H773.526C788.251 500 800.188 488.063 800.188 473.338V26.6616C800.188 11.9368 788.251 0 773.526 0Z" fill="#F9F9F9"/>
<path d="M495.363 393.607L502.762 393.416L510.097 392.841L517.241 391.949L524.321 390.673L531.337 389.078L538.162 387.101L544.796 384.869L551.365 382.253L557.744 379.383L563.931 376.194L569.99 372.75L575.795 368.986L581.407 364.968L586.893 360.758L592.123 356.23L597.098 351.446L601.818 346.407L606.347 341.177L610.62 335.755L614.639 330.142L618.402 324.274L621.846 318.278L625.036 312.091L627.906 305.713L630.457 299.143L632.753 292.51L634.667 285.685L636.261 278.733L637.537 271.589L638.43 264.445L639.004 257.11L639.196 249.711L639.004 242.376L638.43 235.105L637.537 227.961L636.261 220.881L634.667 213.992L632.753 207.167L630.457 200.534L627.906 194.028L625.036 187.713L621.846 181.526L618.402 175.531L614.639 169.663L610.62 164.05L606.347 158.628L601.818 153.461L597.098 148.423L592.123 143.703L586.893 139.174L581.407 134.964L575.795 130.946L569.99 127.183L563.931 123.738L557.744 120.549L551.365 117.679L544.796 115.128L538.162 112.831L531.337 110.918L524.321 109.323L517.241 108.048L510.097 107.155L502.762 106.581L495.363 106.389L487.964 106.581L480.629 107.155L473.486 108.048L466.405 109.323L459.389 110.918L452.628 112.831L445.931 115.128L439.425 117.679L433.047 120.549L426.86 123.738L420.864 127.183L414.996 130.946L409.383 134.964L403.961 139.174L398.795 143.703L393.82 148.423L389.036 153.461L384.507 158.628L380.298 164.05L376.279 169.663L372.516 175.531L369.072 181.526L365.946 187.713L363.076 194.028L360.525 200.534L358.228 207.167L356.379 213.992L354.72 220.881L353.445 227.961L352.552 235.105L351.978 242.376L351.85 249.711L351.978 257.11L352.552 264.445L353.445 271.589L354.72 278.733L356.379 285.685L358.228 292.51L360.525 299.143L363.076 305.713L365.946 312.091L369.072 318.278L372.516 324.274L376.279 330.142L380.298 335.755L384.507 341.177L389.036 346.407L393.82 351.446L398.795 356.23L403.961 360.758L409.383 364.968L414.996 368.986L420.864 372.75L426.86 376.194L433.047 379.383L439.425 382.253L445.931 384.869L452.628 387.101L459.389 389.078L466.405 390.673L473.486 391.949L480.629 392.841L487.964 393.416L495.363 393.607Z" fill="#EC1C2E"/>
<path d="M304.907 393.607L312.306 393.416L319.641 392.841L326.785 391.949L333.865 390.673L340.881 389.078L347.706 387.101L354.403 384.869L360.909 382.253L367.224 379.383L373.411 376.194L379.407 372.75L385.275 368.986L390.888 364.968L396.309 360.758L401.54 356.23L406.515 351.446L411.235 346.407L415.763 341.177L420.037 335.755L423.991 330.142L427.755 324.274L431.199 318.278L434.324 312.091L437.258 305.713L439.81 299.143L442.042 292.51L443.956 285.685L445.55 278.733L446.826 271.589L447.719 264.445L448.293 257.11L448.484 249.711L448.293 242.376L447.719 235.105L446.826 227.961L445.55 220.881L443.956 213.992L442.042 207.167L439.81 200.534L437.258 194.028L434.324 187.713L431.199 181.526L427.755 175.531L423.991 169.663L420.037 164.05L415.763 158.628L411.235 153.461L406.515 148.423L401.54 143.703L396.309 139.174L390.888 134.964L385.275 130.946L379.407 127.183L373.411 123.738L367.224 120.549L360.909 117.679L354.403 115.128L347.706 112.831L340.881 110.918L333.865 109.323L326.785 108.048L319.641 107.155L312.306 106.581L304.907 106.389L297.509 106.581L290.173 107.155L283.029 108.048L275.95 109.323L268.997 110.918L262.108 112.831L255.475 115.128L248.905 117.679L242.527 120.549L236.34 123.738L230.344 127.183L224.54 130.946L218.863 134.964L213.442 139.174L208.148 143.703L203.236 148.423L198.453 153.461L193.924 158.628L189.65 164.05L185.632 169.663L181.869 175.531L178.424 181.526L175.235 187.713L172.365 194.028L169.814 200.534L167.581 207.167L165.604 213.992L164.009 220.881L162.734 227.961L161.841 235.105L161.267 242.376L161.075 249.711L161.267 257.11L161.841 264.445L162.734 271.589L164.009 278.733L165.604 285.685L167.581 292.51L169.814 299.143L172.365 305.713L175.235 312.091L178.424 318.278L181.869 324.274L185.632 330.142L189.65 335.755L193.924 341.177L198.453 346.407L203.236 351.446L208.148 356.23L213.442 360.758L218.863 364.968L224.54 368.986L230.344 372.75L236.34 376.194L242.527 379.383L248.905 382.253L255.475 384.869L262.108 387.101L268.997 389.078L275.95 390.673L283.029 391.949L290.173 392.841L297.509 393.416L304.907 393.607Z" fill="#0084C4"/>
<path d="M382.468 161.054H455.245V153.081H389.484L382.468 161.054Z" fill="#EC1C2E"/>
<path d="M371.051 178.083H455.245V170.11H376.153L371.051 178.083Z" fill="#EC1C2E"/>
<path d="M362.501 195.37H455.243V187.333H366.392L362.501 195.37Z" fill="#EC1C2E"/>
<path d="M356.889 212.336H455.243V204.363H359.377L356.889 212.336Z" fill="#EC1C2E"/>
<path d="M353.255 229.367H455.245V221.331H354.722L353.255 229.367Z" fill="#EC1C2E"/>
<path d="M352.552 262.343H455.243V254.306H351.85L352.552 262.343Z" fill="#EC1C2E"/>
<path d="M354.977 280.332H455.245V272.295H353.51L354.977 280.332Z" fill="#EC1C2E"/>
<path d="M359.824 294.939H455.244V286.902H357.4L359.824 294.939Z" fill="#EC1C2E"/>
<path d="M367.095 312.666H455.243V304.629H363.268L367.095 312.666Z" fill="#EC1C2E"/>
<path d="M377.365 330.655H455.244V322.618H372.007L377.365 330.655Z" fill="#EC1C2E"/>
<path d="M390.185 347.876H454.543V339.903H383.169L390.185 347.876Z" fill="#EC1C2E"/>
<path d="M615.534 337.923L615.981 336.648L616.682 335.436L617.575 334.415L618.66 333.522L619.808 332.885L621.083 332.438L622.423 332.311L623.89 332.438L625.166 332.885L626.377 333.522L627.398 334.415L628.227 335.436L628.929 336.648L629.311 337.923H627.908L627.589 337.03L627.079 336.01L626.377 335.181L625.612 334.479L624.655 333.969L623.571 333.65L622.423 333.522L621.339 333.65L620.19 333.969L619.297 334.479L618.405 335.181L617.767 336.01L617.256 337.03L616.937 337.923H615.534Z" fill="#EC1C2E"/>
<path d="M619.997 337.925V336.203H622.676L623.314 336.267H623.824L624.27 336.458L624.653 336.65L624.972 336.841L625.164 337.16L625.291 337.479L625.355 337.925H624.143L624.079 337.67L624.015 337.479L623.888 337.287L623.696 337.16L623.441 337.032H623.186L622.995 336.968H622.676H621.209V337.925H619.997Z" fill="#EC1C2E"/>
<path d="M615.469 339.141L615.532 337.929H616.936V338.12L616.808 339.141H615.469Z" fill="#EC1C2E"/>
<path d="M619.997 339.141V337.929H621.209V338.886H622.421H622.867H623.25L623.505 338.822L623.76 338.758L623.888 338.63L624.015 338.439L624.143 338.248V337.929H625.355L625.291 338.311L625.227 338.694L625.1 339.013L624.972 339.141H619.997Z" fill="#EC1C2E"/>
<path d="M628.035 339.141L627.908 338.12V337.929H629.311L629.502 339.141H628.035Z" fill="#EC1C2E"/>
<path d="M615.47 339.137L615.406 339.329L615.534 340.796L615.98 342.071L616.682 343.219L617.575 344.24L618.659 345.069L619.807 345.707L621.083 346.026L622.422 346.217L623.889 346.026L625.165 345.707L626.377 345.069L627.398 344.24L628.227 343.219L628.928 342.071L629.311 340.796L629.502 339.329V339.137H628.035V339.329L627.908 340.604L627.589 341.689L627.079 342.709L626.377 343.538L625.612 344.24L624.655 344.814L623.571 345.133L622.422 345.197L621.338 345.133L620.19 344.814L619.297 344.24L618.404 343.538L617.766 342.709L617.256 341.689L616.937 340.604L616.809 339.329V339.137H615.47Z" fill="#EC1C2E"/>
<path d="M619.997 339.137V342.071H621.209V339.647H622.421L623.888 342.071H625.164L623.378 339.647L623.824 339.584L624.207 339.52L624.59 339.392L624.845 339.201L624.972 339.137H619.997Z" fill="#EC1C2E"/>
<path d="M464.237 237.593H463.344L462.387 237.466L461.558 237.338L460.665 237.274L459.835 237.083L459.006 236.955L458.113 236.828L457.157 236.7L456.136 236.573L455.116 236.509L453.904 236.381L452.628 236.318H451.225L449.694 236.381L447.908 236.509L446.058 236.636L444.655 236.828L443.379 237.083L442.231 237.466L441.211 237.912L440.254 238.422L439.425 238.996L438.659 239.634L438.149 240.336L437.703 241.101L437.448 241.867L437.256 242.696V243.525L437.448 244.418L437.766 245.311L438.277 246.204L438.978 247.097L440.318 248.373L441.912 249.329L443.826 250.159L445.867 250.86L447.972 251.562L450.204 252.327L452.5 253.093L454.669 254.049L456.646 255.197L458.624 256.537L460.282 258.323L461.685 260.364L462.833 262.915L463.535 265.913L463.726 269.549L463.535 273.758L462.961 276.948L462.132 279.754L461.047 282.306L459.708 284.538L458.113 286.579L456.327 288.237L454.414 289.704L452.309 290.98L450.14 292.001L447.908 292.894L445.612 293.595L443.252 294.105L440.956 294.488L438.659 294.743L436.554 294.871L434.386 294.935H431.452L428.837 294.871L426.413 294.807L424.244 294.743L422.203 294.68L420.353 294.552L418.695 294.424L417.164 294.233L415.761 294.042L414.422 293.787L413.21 293.595L411.998 293.276L410.85 292.894L409.702 292.575L408.617 292.192L407.405 291.745L410.339 276.948L410.977 277.075L411.806 277.33L412.763 277.522L413.847 277.841L415.123 278.032L416.59 278.415L418.057 278.67L419.652 278.925L421.374 279.18L423.16 279.435L425.01 279.627L426.923 279.818L428.901 279.882L430.878 279.946H432.855L434.896 279.882L436.746 279.499L438.277 278.989L439.488 278.223L440.445 277.394L441.147 276.374L441.657 275.353L442.104 274.333L442.359 273.312L442.486 272.228V271.271L442.231 270.378L441.849 269.613L441.338 268.847L440.7 268.209L439.871 267.571L438.978 266.997L437.958 266.487L436.873 265.977L435.725 265.467L434.513 265.02L433.238 264.51L431.962 264L430.623 263.489L429.283 262.915L427.944 262.341L426.604 261.703L425.265 261.002L423.989 260.3L422.777 259.471L421.629 258.578L420.609 257.557L419.588 256.473L418.695 255.197L417.866 253.922L417.228 252.455L416.654 250.86L416.271 249.138L416.016 247.225V245.183L416.144 242.951L416.271 241.612L416.463 240.272L416.654 238.996L416.909 237.785L417.228 236.573L417.547 235.425L417.993 234.34L418.376 233.256L418.95 232.235L419.46 231.279L420.035 230.322L420.736 229.429L421.438 228.6L422.203 227.834L422.968 227.069L423.862 226.367L424.818 225.666L425.839 225.092L426.923 224.518L428.007 223.943L429.219 223.433L430.495 222.987L431.835 222.604L433.238 222.221L434.705 221.902L436.299 221.647L437.894 221.392L439.616 221.201L441.402 221.073L443.252 220.946L445.229 220.882H447.206H449.758L451.99 220.946H454.031L455.881 221.073L457.539 221.137L459.07 221.265L460.473 221.392L461.621 221.456L462.706 221.647L463.662 221.775L464.556 221.839L465.321 222.03L465.959 222.094L466.596 222.158L467.171 222.285L467.681 222.349L464.237 237.593Z" fill="white"/>
<path d="M464.237 237.593H463.344L462.387 237.466L461.558 237.338L460.665 237.274L459.835 237.083L459.006 236.955L458.113 236.828L457.157 236.7L456.136 236.573L455.116 236.509L453.904 236.381L452.628 236.318H451.225L449.694 236.381L447.908 236.509L446.058 236.636L444.655 236.828L443.379 237.083L442.231 237.466L441.211 237.912L440.254 238.422L439.425 238.996L438.659 239.634L438.149 240.336L437.703 241.101L437.448 241.867L437.256 242.696V243.525L437.448 244.418L437.766 245.311L438.277 246.204L438.978 247.097L440.318 248.373L441.912 249.329L443.826 250.159L445.867 250.86L447.972 251.562L450.204 252.327L452.5 253.093L454.669 254.049L456.646 255.197L458.624 256.537L460.282 258.323L461.685 260.364L462.833 262.915L463.535 265.913L463.726 269.549L463.535 273.758L462.961 276.948L462.132 279.754L461.047 282.306L459.708 284.538L458.113 286.579L456.327 288.237L454.414 289.704L452.309 290.98L450.14 292.001L447.908 292.894L445.612 293.595L443.252 294.105L440.956 294.488L438.659 294.743L436.554 294.871L434.386 294.935H431.452L428.837 294.871L426.413 294.807L424.244 294.743L422.203 294.68L420.353 294.552L418.695 294.424L417.164 294.233L415.761 294.042L414.422 293.787L413.21 293.595L411.998 293.276L410.85 292.894L409.702 292.575L408.617 292.192L407.405 291.745L410.339 276.948L410.977 277.075L411.806 277.33L412.763 277.522L413.847 277.841L415.123 278.032L416.59 278.415L418.057 278.67L419.652 278.925L421.374 279.18L423.16 279.435L425.01 279.627L426.923 279.818L428.901 279.882L430.878 279.946H432.855L434.896 279.882L436.746 279.499L438.277 278.989L439.488 278.223L440.445 277.394L441.147 276.374L441.657 275.353L442.104 274.333L442.359 273.312L442.486 272.228V271.271L442.231 270.378L441.849 269.613L441.338 268.847L440.7 268.209L439.871 267.571L438.978 266.997L437.958 266.487L436.873 265.977L435.725 265.467L434.513 265.02L433.238 264.51L431.962 264L430.623 263.489L429.283 262.915L427.944 262.341L426.604 261.703L425.265 261.002L423.989 260.3L422.777 259.471L421.629 258.578L420.609 257.557L419.588 256.473L418.695 255.197L417.866 253.922L417.228 252.455L416.654 250.86L416.271 249.138L416.016 247.225V245.183L416.144 242.951L416.271 241.612L416.463 240.272L416.654 238.996L416.909 237.785L417.228 236.573L417.547 235.425L417.993 234.34L418.376 233.256L418.95 232.235L419.46 231.279L420.035 230.322L420.736 229.429L421.438 228.6L422.203 227.834L422.968 227.069L423.862 226.367L424.818 225.666L425.839 225.092L426.923 224.518L428.007 223.943L429.219 223.433L430.495 222.987L431.835 222.604L433.238 222.221L434.705 221.902L436.299 221.647L437.894 221.392L439.616 221.201L441.402 221.073L443.252 220.946L445.229 220.882H447.206H449.758L451.99 220.946H454.031L455.881 221.073L457.539 221.137L459.07 221.265L460.473 221.392L461.621 221.456L462.706 221.647L463.662 221.775L464.556 221.839L465.321 222.03L465.959 222.094L466.596 222.158L467.171 222.285L467.681 222.349L464.237 237.593Z" stroke="white" stroke-width="0.215"/>
<path d="M479.8 206.082H498.744L495.81 222.538H507.483L504.867 237.591L492.94 237.4L486.625 274.968L486.562 275.798V276.499L486.625 277.137L486.817 277.711L487.136 278.158L487.455 278.604L487.837 278.987L488.347 279.306L488.922 279.561L489.496 279.816L490.133 280.007L490.771 280.071L491.537 280.262H492.302L493.131 280.326H493.897H495.428L496.767 280.262L497.979 280.071L498.999 279.816L499.829 279.561L500.403 279.306L500.785 279.114H500.913L498.999 291.999L498.553 292.254L497.979 292.509L497.469 292.764L496.958 292.955L496.448 293.147L495.874 293.338L495.3 293.529L494.662 293.721L493.96 293.912L493.259 294.04L492.494 294.167L491.664 294.359L490.771 294.486L489.815 294.614L488.73 294.741L487.582 294.933H482.479L479.8 294.741L477.377 294.422L475.272 294.04L473.422 293.529L471.828 292.955L470.552 292.254L469.468 291.488L468.575 290.595L467.873 289.575L467.299 288.491L466.98 287.279L466.852 286.003L466.789 284.6L466.852 283.133L466.98 281.538L467.171 279.88L479.8 206.082Z" fill="white"/>
<path d="M479.8 206.082H498.744L495.81 222.538H507.483L504.867 237.591L492.94 237.4L486.625 274.968L486.562 275.798V276.499L486.625 277.137L486.817 277.711L487.136 278.158L487.455 278.604L487.837 278.987L488.347 279.306L488.922 279.561L489.496 279.816L490.133 280.007L490.771 280.071L491.537 280.262H492.302L493.131 280.326H493.897H495.428L496.767 280.262L497.979 280.071L498.999 279.816L499.829 279.561L500.403 279.306L500.785 279.114H500.913L498.999 291.999L498.553 292.254L497.979 292.509L497.469 292.764L496.958 292.955L496.448 293.147L495.874 293.338L495.3 293.529L494.662 293.721L493.96 293.912L493.259 294.04L492.494 294.167L491.664 294.359L490.771 294.486L489.815 294.614L488.73 294.741L487.582 294.933H482.479L479.8 294.741L477.377 294.422L475.272 294.04L473.422 293.529L471.828 292.955L470.552 292.254L469.468 291.488L468.575 290.595L467.873 289.575L467.299 288.491L466.98 287.279L466.852 286.003L466.789 284.6L466.852 283.133L466.98 281.538L467.171 279.88L479.8 206.082Z" stroke="white" stroke-width="0.215"/>
<path d="M364.482 263.362L364.227 264.51L364.163 265.722L364.29 266.998L364.545 268.21L364.928 269.485L365.502 270.761L366.14 271.973L366.969 273.185L367.862 274.269L368.883 275.353L369.967 276.31L371.179 277.203L372.455 277.968L373.73 278.606L375.197 279.053L376.601 279.372L378.323 279.627L379.981 279.882L381.703 280.073L383.489 280.137L385.275 280.201H386.997L388.847 280.073L390.633 279.946L392.483 279.691L394.396 279.308L396.246 278.861L398.16 278.224L400.073 277.522L402.05 276.693L403.964 275.672L405.941 274.524L403.007 291.299L401.923 291.809L400.838 292.384L399.882 292.766L398.797 293.149L397.777 293.532L396.756 293.787L395.672 294.042L394.46 294.297L393.248 294.425L391.909 294.552L390.442 294.744H388.911L387.189 294.871H385.339L383.234 294.935H381.002H379.343L377.621 294.807L375.963 294.744L374.304 294.552L372.518 294.297L370.86 293.978L369.138 293.659L367.48 293.277L365.757 292.766L364.163 292.192L362.504 291.618L360.91 290.917L359.379 290.087L357.848 289.258L356.445 288.301L355.042 287.281L353.702 286.133L352.427 284.921L351.215 283.581L350.13 282.178L349.11 280.584L348.153 278.989L347.324 277.267L346.559 275.417L345.857 273.44L345.347 271.335L344.9 269.166L344.645 266.806L344.454 264.383V261.831L344.581 259.089L344.773 256.282L344.9 255.261L345.091 254.113L345.283 253.029L345.474 251.753L345.729 250.478L346.048 249.202L346.431 247.799L346.814 246.396L347.324 244.929L347.834 243.525L348.408 242.058L349.11 240.591L349.811 239.124L350.641 237.657L351.534 236.19L352.49 234.787L353.575 233.447L354.723 232.044L355.935 230.705L357.274 229.493L358.677 228.281L360.272 227.133L361.93 226.112L363.716 225.092L365.63 224.263L367.607 223.433L369.712 222.732L372.008 222.158L374.432 221.711L376.983 221.392L379.598 221.201L382.469 221.137H383.808L385.084 221.201L386.487 221.265L387.827 221.456L389.166 221.647L390.633 221.903L391.973 222.222L393.376 222.604L394.715 223.051L396.055 223.561L397.394 224.135L398.67 224.773L399.945 225.538L401.157 226.367L402.242 227.324L403.39 228.281L404.41 229.365L405.431 230.513L406.324 231.853L407.153 233.256L407.918 234.723L408.556 236.318L409.13 238.104L409.513 239.953L409.896 241.931L410.151 243.972L410.278 246.204V248.564L410.087 251.052L409.896 253.731L409.449 256.473L408.875 259.407L408.11 263.553H359.124L361.994 250.478H391.398L391.526 248.692V247.033L391.462 245.439L391.207 244.036L390.824 242.76L390.314 241.612L389.74 240.527L388.975 239.571L388.209 238.742L387.316 238.04L386.36 237.466L385.403 237.019L384.318 236.637L383.17 236.318L381.958 236.19H380.747H379.407L378.195 236.318L376.983 236.573L375.835 236.956L374.751 237.466L373.73 238.104L372.71 238.805L371.817 239.571L370.988 240.527L370.222 241.548L369.521 242.632L368.883 243.78L368.309 245.056L367.798 246.332L367.48 247.799L367.097 249.266L364.482 263.362Z" fill="white"/>
<path d="M364.482 263.362L364.227 264.51L364.163 265.722L364.29 266.998L364.545 268.21L364.928 269.485L365.502 270.761L366.14 271.973L366.969 273.185L367.862 274.269L368.883 275.353L369.967 276.31L371.179 277.203L372.455 277.968L373.73 278.606L375.197 279.053L376.601 279.372L378.323 279.627L379.981 279.882L381.703 280.073L383.489 280.137L385.275 280.201H386.997L388.847 280.073L390.633 279.946L392.483 279.691L394.396 279.308L396.246 278.861L398.16 278.224L400.073 277.522L402.05 276.693L403.964 275.672L405.941 274.524L403.007 291.299L401.923 291.809L400.838 292.384L399.882 292.766L398.797 293.149L397.777 293.532L396.756 293.787L395.672 294.042L394.46 294.297L393.248 294.425L391.909 294.552L390.442 294.744H388.911L387.189 294.871H385.339L383.234 294.935H381.002H379.343L377.621 294.807L375.963 294.744L374.304 294.552L372.518 294.297L370.86 293.978L369.138 293.659L367.48 293.277L365.757 292.766L364.163 292.192L362.504 291.618L360.91 290.917L359.379 290.087L357.848 289.258L356.445 288.301L355.042 287.281L353.702 286.133L352.427 284.921L351.215 283.581L350.13 282.178L349.11 280.584L348.153 278.989L347.324 277.267L346.559 275.417L345.857 273.44L345.347 271.335L344.9 269.166L344.645 266.806L344.454 264.383V261.831L344.581 259.089L344.773 256.282L344.9 255.261L345.091 254.113L345.283 253.029L345.474 251.753L345.729 250.478L346.048 249.202L346.431 247.799L346.814 246.396L347.324 244.929L347.834 243.525L348.408 242.058L349.11 240.591L349.811 239.124L350.641 237.657L351.534 236.19L352.49 234.787L353.575 233.447L354.723 232.044L355.935 230.705L357.274 229.493L358.677 228.281L360.272 227.133L361.93 226.112L363.716 225.092L365.63 224.263L367.607 223.433L369.712 222.732L372.008 222.158L374.432 221.711L376.983 221.392L379.598 221.201L382.469 221.137H383.808L385.084 221.201L386.487 221.265L387.827 221.456L389.166 221.647L390.633 221.903L391.973 222.222L393.376 222.604L394.715 223.051L396.055 223.561L397.394 224.135L398.67 224.773L399.945 225.538L401.157 226.367L402.242 227.324L403.39 228.281L404.41 229.365L405.431 230.513L406.324 231.853L407.153 233.256L407.918 234.723L408.556 236.318L409.13 238.104L409.513 239.953L409.896 241.931L410.151 243.972L410.278 246.204V248.564L410.087 251.052L409.896 253.731L409.449 256.473L408.875 259.407L408.11 263.553H359.124L361.994 250.478H391.398L391.526 248.692V247.033L391.462 245.439L391.207 244.036L390.824 242.76L390.314 241.612L389.74 240.527L388.975 239.571L388.209 238.742L387.316 238.04L386.36 237.466L385.403 237.019L384.318 236.637L383.17 236.318L381.958 236.19H380.747H379.407L378.195 236.318L376.983 236.573L375.835 236.956L374.751 237.466L373.73 238.104L372.71 238.805L371.817 239.571L370.988 240.527L370.222 241.548L369.521 242.632L368.883 243.78L368.309 245.056L367.798 246.332L367.48 247.799L367.097 249.266L364.482 263.362Z" stroke="white" stroke-width="0.215"/>
<path d="M338.266 279.881L335.523 294.934H318.493L318.684 293.467L318.875 292.064L319.067 290.788L319.258 289.64L319.449 288.619L319.577 287.79L319.768 287.216L319.96 286.897L319.067 287.918L317.919 288.938L316.643 289.959L315.24 290.915L313.645 291.808L311.923 292.638L310.137 293.403L308.287 294.105L306.374 294.742L304.396 295.253L302.419 295.635L300.442 295.891L298.465 296.018L296.487 296.082L294.638 295.954L292.788 295.635L290.364 295.125L288.259 294.36L286.346 293.467L284.623 292.446L283.093 291.362L281.817 290.15L280.733 288.874L279.776 287.471L278.947 286.068L278.309 284.537L277.799 283.07L277.352 281.539L277.097 280.008L276.906 278.414L276.778 276.947L276.714 275.48L276.97 272.801L277.352 270.313L277.99 267.89L278.883 265.657L279.967 263.552L281.179 261.575L282.646 259.725L284.177 257.939L285.963 256.408L287.813 255.005L289.79 253.793L291.831 252.645L294 251.752L296.232 250.987L298.528 250.413L300.825 249.966H300.888H301.207L301.781 249.903L302.483 249.775L303.248 249.711L304.205 249.584L305.289 249.456L306.374 249.392L307.522 249.265L308.67 249.137L309.818 249.01L310.966 248.946L311.987 248.882L313.007 248.818L313.9 248.754H314.666H315.431H316.26H317.026L317.919 248.818H318.684L319.449 248.882H320.215H320.98H321.618H322.256L322.766 248.946H323.213L323.595 249.01H323.914H324.106L324.297 248.499L324.616 247.415L324.871 246.076V244.864L324.743 244.034L324.616 243.269L324.361 242.504L324.042 241.802L323.659 241.1L323.213 240.526L322.702 239.952L322.128 239.378L321.554 238.868L320.916 238.485L320.215 238.166L319.513 237.784L318.748 237.592L317.919 237.401L317.153 237.273L316.324 237.146L314.411 237.082L312.369 237.146L310.265 237.21L308.096 237.337L305.927 237.465L303.759 237.656L301.59 237.911L299.421 238.166L297.444 238.485L295.467 238.74L293.745 239.059L292.086 239.442L290.619 239.825L289.407 240.207L288.387 240.59L287.685 241.037L292.533 224.963L293.936 224.325L295.467 223.687L296.998 223.177L298.592 222.731L300.251 222.412L301.973 222.157L303.759 221.902L305.544 221.71L307.458 221.646L309.435 221.519L311.413 221.455H313.454H315.622H317.791L320.087 221.519L322.447 221.583L324.361 221.774L326.402 222.029L328.507 222.539L330.612 223.177L332.78 224.006L334.885 224.963L336.862 226.111L338.776 227.451L340.498 228.918L342.029 230.576L343.368 232.426L344.389 234.467L345.154 236.699L345.601 239.059L345.664 241.611L345.282 244.417L338.266 279.881Z" fill="white"/>
<path d="M338.266 279.881L335.523 294.934H318.493L318.684 293.467L318.875 292.064L319.067 290.788L319.258 289.64L319.449 288.619L319.577 287.79L319.768 287.216L319.96 286.897L319.067 287.918L317.919 288.938L316.643 289.959L315.24 290.915L313.645 291.808L311.923 292.638L310.137 293.403L308.287 294.105L306.374 294.742L304.396 295.253L302.419 295.635L300.442 295.891L298.465 296.018L296.487 296.082L294.638 295.954L292.788 295.635L290.364 295.125L288.259 294.36L286.346 293.467L284.623 292.446L283.093 291.362L281.817 290.15L280.733 288.874L279.776 287.471L278.947 286.068L278.309 284.537L277.799 283.07L277.352 281.539L277.097 280.008L276.906 278.414L276.778 276.947L276.714 275.48L276.97 272.801L277.352 270.313L277.99 267.89L278.883 265.657L279.967 263.552L281.179 261.575L282.646 259.725L284.177 257.939L285.963 256.408L287.813 255.005L289.79 253.793L291.831 252.645L294 251.752L296.232 250.987L298.528 250.413L300.825 249.966H300.888H301.207L301.781 249.903L302.483 249.775L303.248 249.711L304.205 249.584L305.289 249.456L306.374 249.392L307.522 249.265L308.67 249.137L309.818 249.01L310.966 248.946L311.987 248.882L313.007 248.818L313.9 248.754H314.666H315.431H316.26H317.026L317.919 248.818H318.684L319.449 248.882H320.215H320.98H321.618H322.256L322.766 248.946H323.213L323.595 249.01H323.914H324.106L324.297 248.499L324.616 247.415L324.871 246.076V244.864L324.743 244.034L324.616 243.269L324.361 242.504L324.042 241.802L323.659 241.1L323.213 240.526L322.702 239.952L322.128 239.378L321.554 238.868L320.916 238.485L320.215 238.166L319.513 237.784L318.748 237.592L317.919 237.401L317.153 237.273L316.324 237.146L314.411 237.082L312.369 237.146L310.265 237.21L308.096 237.337L305.927 237.465L303.759 237.656L301.59 237.911L299.421 238.166L297.444 238.485L295.467 238.74L293.745 239.059L292.086 239.442L290.619 239.825L289.407 240.207L288.387 240.59L287.685 241.037L292.533 224.963L293.936 224.325L295.467 223.687L296.998 223.177L298.592 222.731L300.251 222.412L301.973 222.157L303.759 221.902L305.544 221.71L307.458 221.646L309.435 221.519L311.413 221.455H313.454H315.622H317.791L320.087 221.519L322.447 221.583L324.361 221.774L326.402 222.029L328.507 222.539L330.612 223.177L332.78 224.006L334.885 224.963L336.862 226.111L338.776 227.451L340.498 228.918L342.029 230.576L343.368 232.426L344.389 234.467L345.154 236.699L345.601 239.059L345.664 241.611L345.282 244.417L338.266 279.881Z" stroke="white" stroke-width="0.215"/>
<path d="M321.937 262.088L321.874 261.705L321.619 261.45L321.172 261.195L320.534 261.067L319.769 261.004L318.876 260.94H317.919H316.835L315.75 261.004L314.666 261.195L313.582 261.323L312.498 261.514L311.413 261.705L310.456 261.897L309.563 262.088L308.862 262.343L308.415 262.471L307.841 262.598L307.14 262.853L306.374 263.172L305.545 263.555L304.652 263.938L303.759 264.448L302.866 265.022L301.973 265.66L301.144 266.362L300.315 267.127L299.613 267.956L298.975 268.849L298.529 269.87L298.146 270.954L297.891 272.102L297.827 274.398L298.146 276.184L298.656 277.587L299.549 278.608L300.57 279.31L301.654 279.82L302.866 280.075H303.95H306.055L307.905 279.884L309.627 279.501L311.222 279.118L312.625 278.608L313.901 278.034L314.985 277.396L316.006 276.694L316.898 275.993L317.664 275.164L318.302 274.462L318.876 273.633L319.386 272.804L319.769 272.102L320.024 271.337L320.279 270.635L320.47 269.551L320.725 268.466L320.981 267.382L321.236 266.17L321.363 265.022L321.555 264.002L321.746 262.981L321.937 262.088Z" fill="#0084C4"/>
<path d="M195.836 294.933H177.339L192.902 206.082H224.985L228.111 258.959L249.988 206.082H283.283L267.72 294.933H249.287L260.959 228.343H260.258L232.767 294.933H212.101L211.909 292.126L211.463 284.727L210.889 274.267L210.187 262.212L209.486 250.093L208.848 239.377L208.401 231.595L208.21 228.343H208.146H208.019H207.827H207.572H207.381H207.317H207.445L195.836 294.933Z" fill="white"/>
<path d="M195.836 294.933H177.339L192.902 206.082H224.985L228.111 258.959L249.988 206.082H283.283L267.72 294.933H249.287L260.959 228.343H260.258L232.767 294.933H212.101L211.909 292.126L211.463 284.727L210.889 274.267L210.187 262.212L209.486 250.093L208.848 239.377L208.401 231.595L208.21 228.343H208.146H208.019H207.827H207.572H207.381H207.317H207.445L195.836 294.933Z" stroke="white" stroke-width="0.215"/>
<path d="M504.103 294.937H523.301L529.871 256.539L530.126 255.009L530.509 253.542L530.828 252.138L531.338 250.735L531.848 249.396L532.486 248.12L533.316 246.844L534.208 245.696L535.293 244.676L536.505 243.719L537.972 242.89L539.566 242.124L541.48 241.486L543.585 241.04L545.945 240.721L548.624 240.53H548.815L549.134 240.593L549.516 240.657H549.836H550.218L550.473 240.721L550.665 240.785H550.792V240.53L550.984 239.701L551.239 238.489L551.621 236.894L552.068 235.172L552.578 233.258L553.216 231.409L553.918 229.623L554.428 228.283L555.066 227.008L555.703 225.732L556.341 224.584L556.915 223.563L557.362 222.734L557.681 222.224L557.808 222.032H557.681L557.489 221.969L557.107 221.905L556.66 221.841L556.214 221.714L555.64 221.65L555.129 221.586H554.619L552.578 221.714L550.665 221.969L548.942 222.351L547.348 222.734L545.817 223.308L544.478 223.946L543.138 224.711L541.926 225.477L540.778 226.434L539.694 227.39L538.673 228.411L537.653 229.559L536.632 230.707L535.739 231.983L534.719 233.322L533.762 234.725L535.931 222.543L516.732 222.351L504.103 294.937Z" fill="white"/>
<path d="M504.103 294.937H523.301L529.871 256.539L530.126 255.009L530.509 253.542L530.828 252.138L531.338 250.735L531.848 249.396L532.486 248.12L533.316 246.844L534.208 245.696L535.293 244.676L536.505 243.719L537.972 242.89L539.566 242.124L541.48 241.486L543.585 241.04L545.945 240.721L548.624 240.53H548.815L549.134 240.593L549.516 240.657H549.836H550.218L550.473 240.721L550.665 240.785H550.792V240.53L550.984 239.701L551.239 238.489L551.621 236.894L552.068 235.172L552.578 233.258L553.216 231.409L553.918 229.623L554.428 228.283L555.066 227.008L555.703 225.732L556.341 224.584L556.915 223.563L557.362 222.734L557.681 222.224L557.808 222.032H557.681L557.489 221.969L557.107 221.905L556.66 221.841L556.214 221.714L555.64 221.65L555.129 221.586H554.619L552.578 221.714L550.665 221.969L548.942 222.351L547.348 222.734L545.817 223.308L544.478 223.946L543.138 224.711L541.926 225.477L540.778 226.434L539.694 227.39L538.673 228.411L537.653 229.559L536.632 230.707L535.739 231.983L534.719 233.322L533.762 234.725L535.931 222.543L516.732 222.351L504.103 294.937Z" stroke="white" stroke-width="0.215"/>
<path d="M587.212 221.586L589.317 221.65L591.358 221.777L593.399 221.969L595.376 222.224L597.29 222.606L599.139 223.117L600.862 223.627L602.584 224.201L604.242 224.903L605.837 225.668L607.368 226.497L608.835 227.39L610.238 228.347L611.514 229.431L612.789 230.516L613.937 231.664L615.085 232.939L616.106 234.215L617.063 235.555L617.956 236.958L618.785 238.425L619.55 239.956L620.188 241.55L620.762 243.209L621.336 244.867L621.719 246.589L622.102 248.375L622.421 250.225L622.612 252.075L622.676 253.988L622.739 255.965L622.676 257.943L622.548 260.366L622.229 262.663L621.91 264.895L621.528 267.064L621.017 269.169L620.38 271.146L619.742 273.059L619.04 274.909L618.211 276.631L617.318 278.353L616.361 279.948L615.341 281.479L614.256 282.946L613.108 284.285L611.896 285.561L610.621 286.773L609.281 287.921L607.942 289.005L606.475 290.026L605.008 290.919L603.413 291.748L601.818 292.513L600.224 293.215L598.502 293.789L596.843 294.363L594.994 294.873L593.208 295.256L591.422 295.575L589.572 295.83L587.658 296.021L585.745 296.085L583.768 296.149L581.854 296.085L579.941 296.021L578.091 295.83L576.241 295.511L574.455 295.192L572.669 294.81L570.947 294.363L569.289 293.789L567.631 293.151L566.1 292.45L564.569 291.684L563.102 290.855L561.698 289.962L560.423 288.942L559.083 287.921L557.872 286.773L556.723 285.625L555.575 284.349L554.555 283.01L553.598 281.606L552.769 280.139L551.876 278.609L551.174 276.95L550.536 275.356L549.962 273.57L549.452 271.72L549.006 269.87L548.687 267.893L548.432 265.916L548.304 263.811L548.24 261.642L548.304 259.41L548.432 257.177L548.687 255.009L549.006 252.84L549.452 250.863L549.899 248.885L550.473 246.908L551.11 245.058L551.812 243.272L552.577 241.55L553.407 239.892L554.363 238.297L555.32 236.766L556.405 235.363L557.489 233.96L558.701 232.684L559.913 231.409L561.252 230.197L562.592 229.112L563.995 228.092L565.462 227.135L567.056 226.306L568.651 225.477L570.309 224.711L571.968 224.073L573.69 223.499L575.476 222.989L577.326 222.543L579.239 222.16L581.153 221.969L583.13 221.714L585.171 221.65L587.212 221.586Z" fill="white"/>
<path d="M587.212 221.586L589.317 221.65L591.358 221.777L593.399 221.969L595.376 222.224L597.29 222.606L599.139 223.117L600.862 223.627L602.584 224.201L604.242 224.903L605.837 225.668L607.368 226.497L608.835 227.39L610.238 228.347L611.514 229.431L612.789 230.516L613.937 231.664L615.085 232.939L616.106 234.215L617.063 235.555L617.956 236.958L618.785 238.425L619.55 239.956L620.188 241.55L620.762 243.209L621.336 244.867L621.719 246.589L622.102 248.375L622.421 250.225L622.612 252.075L622.676 253.988L622.739 255.965L622.676 257.943L622.548 260.366L622.229 262.663L621.91 264.895L621.528 267.064L621.017 269.169L620.38 271.146L619.742 273.059L619.04 274.909L618.211 276.631L617.318 278.353L616.361 279.948L615.341 281.479L614.256 282.946L613.108 284.285L611.896 285.561L610.621 286.773L609.281 287.921L607.942 289.005L606.475 290.026L605.008 290.919L603.413 291.748L601.818 292.513L600.224 293.215L598.502 293.789L596.843 294.363L594.994 294.873L593.208 295.256L591.422 295.575L589.572 295.83L587.658 296.021L585.745 296.085L583.768 296.149L581.854 296.085L579.941 296.021L578.091 295.83L576.241 295.511L574.455 295.192L572.669 294.81L570.947 294.363L569.289 293.789L567.631 293.151L566.1 292.45L564.569 291.684L563.102 290.855L561.698 289.962L560.423 288.942L559.083 287.921L557.872 286.773L556.723 285.625L555.575 284.349L554.555 283.01L553.598 281.606L552.769 280.139L551.876 278.609L551.174 276.95L550.536 275.356L549.962 273.57L549.452 271.72L549.006 269.87L548.687 267.893L548.432 265.916L548.304 263.811L548.24 261.642L548.304 259.41L548.432 257.177L548.687 255.009L549.006 252.84L549.452 250.863L549.899 248.885L550.473 246.908L551.11 245.058L551.812 243.272L552.577 241.55L553.407 239.892L554.363 238.297L555.32 236.766L556.405 235.363L557.489 233.96L558.701 232.684L559.913 231.409L561.252 230.197L562.592 229.112L563.995 228.092L565.462 227.135L567.056 226.306L568.651 225.477L570.309 224.711L571.968 224.073L573.69 223.499L575.476 222.989L577.326 222.543L579.239 222.16L581.153 221.969L583.13 221.714L585.171 221.65L587.212 221.586Z" stroke="white" stroke-width="0.215"/>
<path d="M615.406 291.299H621.019V292.001H618.787V296.593H617.575V292.001H615.406V291.299Z" fill="white"/>
<path d="M615.406 291.299H621.019V292.001H618.787V296.593H617.575V292.001H615.406V291.299Z" stroke="white" stroke-width="0.215"/>
<path d="M621.657 291.299H623.379L625.356 295.381L627.27 291.299H628.992V296.593H627.78V292.511L625.866 296.593H624.846L622.932 292.511V296.593H621.657V291.299Z" fill="white"/>
<path d="M621.657 291.299H623.379L625.356 295.381L627.27 291.299H628.992V296.593H627.78V292.511L625.866 296.593H624.846L622.932 292.511V296.593H621.657V291.299Z" stroke="white" stroke-width="0.215"/>
<path d="M572.16 256.283L571.841 258.898L571.714 261.386V263.554L571.841 265.659L572.16 267.509L572.543 269.167L573.117 270.698L573.755 272.101L574.52 273.249L575.413 274.27L576.434 275.099L577.518 275.737L578.666 276.247L580.006 276.63L581.409 276.821L582.876 276.949L584.471 276.885L586.001 276.694L587.468 276.375L588.872 275.864L590.211 275.163L591.487 274.334L592.699 273.313L593.783 272.165L594.804 270.826L595.76 269.295L596.653 267.636L597.355 265.787L598.12 263.746L598.694 261.577L599.205 259.153L599.587 256.538L599.842 254.497L599.97 252.583V250.67L599.842 248.884L599.587 247.226L599.205 245.631L598.694 244.164L598.12 242.824L597.355 241.613L596.462 240.528L595.505 239.572L594.421 238.87L593.209 238.232L591.87 237.849L590.466 237.594H588.872L586.958 237.786L585.172 238.105L583.514 238.679L581.983 239.38L580.516 240.337L579.24 241.357L578.028 242.506L577.008 243.845L575.987 245.248L575.158 246.779L574.393 248.31L573.819 249.904L573.245 251.499L572.734 253.094L572.416 254.688L572.16 256.283Z" fill="#EC1C2E"/>
</g>
<defs>
<clipPath id="clip0">
<rect width="800.038" height="500" fill="white" transform="translate(0.149414)"/>
</clipPath>
</defs>
</svg>
