<svg width="801" height="500" viewBox="0 0 801 500" fill="none" xmlns="http://www.w3.org/2000/svg">
<g clip-path="url(#clip0)">
<path d="M773.488 0H26.7728C12.0481 0 0.111328 11.9368 0.111328 26.6616V473.338C0.111328 488.063 12.0481 500 26.7728 500H773.488C788.213 500 800.15 488.063 800.15 473.338V26.6616C800.15 11.9368 788.213 0 773.488 0Z" fill="#F9F9F9"/>
<path fill-rule="evenodd" clip-rule="evenodd" d="M496.157 393.548L503.556 393.356L510.891 392.782L518.035 391.889L525.179 390.614L532.067 389.019L538.956 387.106L545.589 384.809L552.159 382.258L558.537 379.324L564.724 376.199L570.72 372.69L576.588 368.991L582.201 364.973L587.623 360.699L592.853 356.17L597.828 351.387L602.612 346.412L607.141 341.181L611.414 335.76L615.432 330.147L619.132 324.279L622.64 318.283L625.765 312.096L628.699 305.718L631.251 299.148L633.547 292.451L635.46 285.626L637.055 278.737L638.331 271.593L639.224 264.45L639.798 257.114L639.989 249.716L639.798 242.38L639.224 235.109L638.331 227.965L637.055 220.949L635.46 213.997L633.547 207.236L631.251 200.538L628.699 194.032L625.765 187.718L622.64 181.531L619.132 175.535L615.432 169.731L611.414 164.054L607.141 158.696L602.612 153.466L597.828 148.491L592.853 143.771L587.623 139.242L582.201 134.969L576.588 130.95L570.72 127.251L564.724 123.807L558.537 120.681L552.159 117.747L545.589 115.196L538.956 112.9L532.067 110.986L525.179 109.392L518.035 108.116L510.891 107.223L503.556 106.649L496.157 106.458L488.822 106.649L481.487 107.223L474.343 108.116L467.263 109.392L460.374 110.986L453.55 112.9L446.852 115.196L440.346 117.747L433.968 120.681L427.845 123.807L421.849 127.251L416.045 130.95L410.432 134.969L405.01 139.242L399.844 143.771L394.805 148.491L390.085 153.466L385.556 158.696L381.346 164.054L377.328 169.731L373.629 175.535L370.184 181.531L366.995 187.718L364.125 194.032L361.574 200.538L359.341 207.236L357.428 213.997L355.833 220.949L354.557 227.965L353.664 235.109L353.09 242.38L352.899 249.716L353.09 257.114L353.664 264.45L354.557 271.593L355.833 278.737L357.428 285.626L359.341 292.451L361.574 299.148L364.125 305.718L366.995 312.096L370.184 318.283L373.629 324.279L377.328 330.147L381.346 335.76L385.556 341.181L390.085 346.412L394.805 351.387L399.844 356.17L405.01 360.699L410.432 364.973L416.045 368.991L421.849 372.69L427.845 376.199L433.968 379.324L440.346 382.258L446.852 384.809L453.55 387.106L460.374 389.019L467.263 390.614L474.343 391.889L481.487 392.782L488.822 393.356L496.157 393.548Z" fill="#FBB231"/>
<path fill-rule="evenodd" clip-rule="evenodd" d="M304.169 393.548L311.504 393.356L318.839 392.782L325.983 391.889L333.063 390.614L339.951 389.019L346.776 387.106L353.41 384.809L359.979 382.258L366.294 379.324L372.481 376.199L378.476 372.69L384.281 368.991L389.894 364.973L395.315 360.699L400.482 356.17L405.457 351.387L410.241 346.412L414.769 341.181L418.979 335.76L422.934 330.147L426.697 324.279L430.141 318.283L433.33 312.096L436.201 305.718L438.752 299.148L440.984 292.451L442.898 285.626L444.493 278.737L445.768 271.593L446.661 264.45L447.235 257.114L447.427 249.716L447.235 242.38L446.661 235.109L445.768 227.965L444.493 220.949L442.898 213.997L440.984 207.236L438.752 200.538L436.201 194.032L433.33 187.718L430.141 181.531L426.697 175.535L422.934 169.731L418.979 164.054L414.769 158.696L410.241 153.466L405.457 148.491L400.482 143.771L395.315 139.242L389.894 134.969L384.281 130.95L378.476 127.251L372.481 123.807L366.294 120.681L359.979 117.747L353.41 115.196L346.776 112.9L339.951 110.986L333.063 109.392L325.983 108.116L318.839 107.223L311.504 106.649L304.169 106.458L296.77 106.649L289.435 107.223L282.291 108.116L275.147 109.392L268.195 110.986L261.37 112.9L254.736 115.196L248.167 117.747L241.788 120.681L235.601 123.807L229.605 127.251L223.737 130.95L218.124 134.969L212.703 139.242L207.473 143.771L202.497 148.491L197.714 153.466L193.185 158.696L188.911 164.054L184.893 169.731L181.194 175.535L177.686 181.531L174.56 187.718L171.626 194.032L169.075 200.538L166.779 207.236L164.865 213.997L163.271 220.949L161.995 227.965L161.102 235.109L160.528 242.38L160.336 249.716L160.528 257.114L161.102 264.45L161.995 271.593L163.271 278.737L164.865 285.626L166.779 292.451L169.075 299.148L171.626 305.718L174.56 312.096L177.686 318.283L181.194 324.279L184.893 330.147L188.911 335.76L193.185 341.181L197.714 346.412L202.497 351.387L207.473 356.17L212.703 360.699L218.124 364.973L223.737 368.991L229.605 372.69L235.601 376.199L241.788 379.324L248.167 382.258L254.736 384.809L261.37 387.106L268.195 389.019L275.147 390.614L282.291 391.889L289.435 392.782L296.77 393.356L304.169 393.548Z" fill="#EC1C2E"/>
<path fill-rule="evenodd" clip-rule="evenodd" d="M383.389 161.498H459.611V153.716H389.959L383.389 161.498Z" fill="#FBB231"/>
<path fill-rule="evenodd" clip-rule="evenodd" d="M371.906 178.851H459.609V171.07H376.499L371.906 178.851Z" fill="#FBB231"/>
<path fill-rule="evenodd" clip-rule="evenodd" d="M363.423 196.137H459.609V188.355H366.803L363.423 196.137Z" fill="#FBB231"/>
<path fill-rule="evenodd" clip-rule="evenodd" d="M357.555 213.484H459.609V205.702H359.979L357.555 213.484Z" fill="#FBB231"/>
<path fill-rule="evenodd" clip-rule="evenodd" d="M360.938 297.231H459.866V289.449H358.514L360.938 297.231Z" fill="#FBB231"/>
<path fill-rule="evenodd" clip-rule="evenodd" d="M368.273 314.58H459.866V306.734H364.637L368.273 314.58Z" fill="#FBB231"/>
<path fill-rule="evenodd" clip-rule="evenodd" d="M378.54 331.865H459.864V324.02H373.629L378.54 331.865Z" fill="#FBB231"/>
<path fill-rule="evenodd" clip-rule="evenodd" d="M392.637 349.15H459.865V341.305H385.812L392.637 349.15Z" fill="#FBB231"/>
<path fill-rule="evenodd" clip-rule="evenodd" d="M354.11 230.771H459.608V222.925H355.641L354.11 230.771Z" fill="#FBB231"/>
<path fill-rule="evenodd" clip-rule="evenodd" d="M418.405 279.946H458.652V272.164H419.872L418.405 279.946Z" fill="#FBB231"/>
<path fill-rule="evenodd" clip-rule="evenodd" d="M421.594 262.662H458.653V254.817H423.061L421.594 262.662Z" fill="#FBB231"/>
<path fill-rule="evenodd" clip-rule="evenodd" d="M351.432 254.817H361.893V262.662H351.942L351.432 254.817Z" fill="#FBB231"/>
<path fill-rule="evenodd" clip-rule="evenodd" d="M331.916 245.373L331.279 245.309L330.577 245.246L329.939 245.118L329.301 245.054L328.727 244.927L328.089 244.863L327.515 244.735L326.814 244.608L326.112 244.544L325.347 244.48L324.517 244.416H323.561H322.54H321.456L320.18 244.544L318.777 244.608L317.82 244.799L316.863 244.927L316.034 245.246L315.333 245.501L314.631 245.82L314.057 246.266L313.547 246.713L313.1 247.159L312.845 247.669L312.59 248.243L312.462 248.817V249.391L312.59 250.029L312.845 250.667L313.228 251.241L313.674 251.879L314.631 252.836L315.843 253.537L317.182 254.175L318.649 254.686L320.18 255.196L321.775 255.706L323.369 256.344L324.9 256.918L326.367 257.747L327.707 258.768L328.919 259.98L329.939 261.51L330.704 263.296L331.215 265.529L331.406 268.144L331.215 271.205L330.896 273.438L330.322 275.415L329.493 277.265L328.536 278.86L327.451 280.263L326.176 281.475L324.836 282.559L323.306 283.452L321.775 284.217L320.18 284.855L318.522 285.302L316.863 285.684L315.205 286.003L313.61 286.131L312.016 286.258H310.485H308.38H306.467H304.744L303.15 286.195L301.747 286.131L300.407 286.003L299.259 285.94L298.175 285.812L297.154 285.684L296.198 285.493L295.305 285.365L294.475 285.11L293.646 284.919L292.881 284.6L292.115 284.345L291.286 284.026L293.455 273.374L293.901 273.438L294.412 273.565L295.113 273.757L295.942 274.012L296.772 274.14L297.792 274.395L298.813 274.586L299.961 274.777L301.173 274.969L302.448 275.16L303.788 275.351L305.127 275.479L306.53 275.543H307.934H309.337H310.74L312.143 275.224L313.228 274.841L314.121 274.331L314.822 273.629L315.269 272.991L315.652 272.162L315.907 271.397L316.098 270.695L316.226 269.292L315.779 268.08L314.95 267.123L313.738 266.294L312.271 265.529L310.613 264.827L308.699 264.126L306.786 263.36L304.872 262.531L303.022 261.51L301.364 260.235L299.769 258.704L298.557 256.918L297.728 254.686L297.282 252.07L297.346 249.009L297.601 247.095L297.92 245.309L298.366 243.651L298.94 242.12L299.769 240.653L300.599 239.377L301.619 238.166L302.831 237.145L304.234 236.188L305.829 235.423L307.551 234.721L309.465 234.211L311.633 233.765L314.057 233.382L316.672 233.19H319.478H321.264H322.923L324.454 233.254L325.793 233.318L327.005 233.382L328.089 233.509L329.11 233.573L329.939 233.701L330.768 233.765L331.47 233.956L332.108 234.02L332.682 234.147L333.128 234.211L333.575 234.275L334.021 234.402H334.404L331.916 245.373Z" fill="white"/>
<path d="M331.916 245.373L331.279 245.309L330.577 245.246L329.939 245.118L329.301 245.054L328.727 244.927L328.089 244.863L327.515 244.735L326.814 244.608L326.112 244.544L325.347 244.48L324.517 244.416H323.561H322.54H321.456L320.18 244.544L318.777 244.608L317.82 244.799L316.863 244.927L316.034 245.246L315.333 245.501L314.631 245.82L314.057 246.266L313.547 246.713L313.1 247.159L312.845 247.669L312.59 248.243L312.462 248.817V249.391L312.59 250.029L312.845 250.667L313.228 251.241L313.674 251.879L314.631 252.836L315.843 253.537L317.182 254.175L318.649 254.686L320.18 255.196L321.775 255.706L323.369 256.344L324.9 256.918L326.367 257.747L327.707 258.768L328.919 259.98L329.939 261.51L330.704 263.296L331.215 265.529L331.406 268.144L331.215 271.205L330.896 273.438L330.322 275.415L329.493 277.265L328.536 278.86L327.451 280.263L326.176 281.475L324.836 282.559L323.306 283.452L321.775 284.217L320.18 284.855L318.522 285.302L316.863 285.684L315.205 286.003L313.61 286.131L312.016 286.258H310.485H308.38H306.467H304.744L303.15 286.195L301.747 286.131L300.407 286.003L299.259 285.94L298.175 285.812L297.154 285.684L296.198 285.493L295.305 285.365L294.475 285.11L293.646 284.919L292.881 284.6L292.115 284.345L291.286 284.026L293.455 273.374L293.901 273.438L294.412 273.565L295.113 273.757L295.942 274.012L296.772 274.14L297.792 274.395L298.813 274.586L299.961 274.777L301.173 274.969L302.448 275.16L303.788 275.351L305.127 275.479L306.53 275.543H307.934H309.337H310.74L312.143 275.224L313.228 274.841L314.121 274.331L314.822 273.629L315.269 272.991L315.652 272.162L315.907 271.397L316.098 270.695L316.226 269.292L315.779 268.08L314.95 267.123L313.738 266.294L312.271 265.529L310.613 264.827L308.699 264.126L306.786 263.36L304.872 262.531L303.022 261.51L301.364 260.235L299.769 258.704L298.557 256.918L297.728 254.686L297.282 252.07L297.346 249.009L297.601 247.095L297.92 245.309L298.366 243.651L298.94 242.12L299.769 240.653L300.599 239.377L301.619 238.166L302.831 237.145L304.234 236.188L305.829 235.423L307.551 234.721L309.465 234.211L311.633 233.765L314.057 233.382L316.672 233.19H319.478H321.264H322.923L324.454 233.254L325.793 233.318L327.005 233.382L328.089 233.509L329.11 233.573L329.939 233.701L330.768 233.765L331.47 233.956L332.108 234.02L332.682 234.147L333.128 234.211L333.575 234.275L334.021 234.402H334.404L331.916 245.373Z" stroke="white" stroke-width="0.216" stroke-miterlimit="2.6131"/>
<path fill-rule="evenodd" clip-rule="evenodd" d="M343.395 222.477H356.854L354.813 234.213H362.913L361.191 245.12L352.644 244.865L347.988 271.909V272.866L348.179 273.695L348.689 274.333L349.327 274.843L350.22 275.162L351.177 275.481L352.197 275.672L353.409 275.8L354.43 275.736L355.387 275.608L356.28 275.481L357.045 275.289L357.683 275.098L358.129 274.971L358.448 274.843L358.512 274.779L356.854 283.836L356.471 284.028L356.152 284.219L355.833 284.41L355.45 284.602L355.132 284.793L354.749 284.921L354.302 285.048L353.856 285.24L353.409 285.367L352.899 285.431L352.325 285.559L351.751 285.622L351.113 285.75L350.412 285.814L349.582 285.941L348.817 286.005H345.117L343.14 285.878L341.482 285.686L339.951 285.431L338.612 285.048L337.527 284.602L336.571 284.155L335.741 283.581L335.104 282.943L334.657 282.242L334.274 281.413L334.083 280.583L333.892 279.691V278.67V277.586L334.019 276.501L334.147 275.289L343.395 222.477Z" fill="white"/>
<path d="M343.395 222.477H356.854L354.813 234.213H362.913L361.191 245.12L352.644 244.865L347.988 271.909V272.866L348.179 273.695L348.689 274.333L349.327 274.843L350.22 275.162L351.177 275.481L352.197 275.672L353.409 275.8L354.43 275.736L355.387 275.608L356.28 275.481L357.045 275.289L357.683 275.098L358.129 274.971L358.448 274.843L358.512 274.779L356.854 283.836L356.471 284.028L356.152 284.219L355.833 284.41L355.45 284.602L355.132 284.793L354.749 284.921L354.302 285.048L353.856 285.24L353.409 285.367L352.899 285.431L352.325 285.559L351.751 285.622L351.113 285.75L350.412 285.814L349.582 285.941L348.817 286.005H345.117L343.14 285.878L341.482 285.686L339.951 285.431L338.612 285.048L337.527 284.602L336.571 284.155L335.741 283.581L335.104 282.943L334.657 282.242L334.274 281.413L334.083 280.583L333.892 279.691V278.67V277.586L334.019 276.501L334.147 275.289L343.395 222.477Z" stroke="white" stroke-width="0.216" stroke-miterlimit="2.6131"/>
<path d="M373.631 263.36L373.503 264.189L373.439 265.082L373.503 265.975L373.758 266.932L374.077 267.825L374.46 268.718L374.97 269.611L375.544 270.44L376.246 271.269L376.947 271.971L377.713 272.736L378.606 273.31L379.499 273.821L380.455 274.267L381.412 274.586L382.369 274.777L383.645 274.969L384.857 275.16L386.132 275.288L387.408 275.351L388.62 275.415H389.959L391.235 275.351L392.511 275.288L393.85 275.096L395.126 274.841L396.465 274.586L397.805 274.14L399.144 273.565L400.547 272.991L401.887 272.226L403.29 271.397L401.377 283.324L400.611 283.707L399.846 284.09L399.017 284.409L398.315 284.664L397.613 284.919L396.848 285.174L396.019 285.365L395.253 285.493L394.36 285.621L393.404 285.748L392.383 285.812L391.235 285.94L390.023 286.003H388.684H387.217H385.558H383.198L380.774 285.748L378.351 285.429L375.927 284.855L373.567 284.09L371.334 283.197L369.102 281.985L367.125 280.582L365.211 278.923L363.553 276.946L362.15 274.714L361.002 272.162L360.172 269.292L359.662 266.039L359.471 262.467L359.726 258.513L359.917 256.918L360.236 255.132L360.619 253.282L361.129 251.241L361.895 249.136L362.724 247.032L363.872 244.927L365.211 242.886L366.742 240.972L368.656 239.122L370.76 237.464L373.184 235.997L375.991 234.785L379.18 233.956L382.624 233.382L386.579 233.19H388.428L390.406 233.382L392.447 233.765L394.424 234.211L396.338 234.976L398.251 235.806L399.973 237.017L401.568 238.357L403.035 240.015L404.247 241.929L405.204 244.161L405.841 246.713L406.288 249.647V252.9L405.969 256.599L405.267 260.681L405.012 263.615H369.74L371.908 254.048H393.148L393.276 252.836L393.212 251.688L393.085 250.667L392.893 249.647L392.574 248.754L392.255 247.924L391.745 247.223L391.235 246.521L390.661 245.947L390.023 245.437L389.321 245.054L388.62 244.608L387.791 244.353L387.025 244.161L386.196 244.034L385.367 243.906L384.41 243.97L383.581 244.097L382.752 244.289L381.923 244.608L381.093 244.99L380.392 245.437L379.626 245.947L378.988 246.521L378.351 247.223L377.777 247.924L377.266 248.69L376.82 249.519L376.373 250.412L376.054 251.369L375.736 252.326L375.544 253.346L373.631 263.36Z" stroke="white" stroke-width="0.216" stroke-miterlimit="2.6131"/>
<path fill-rule="evenodd" clip-rule="evenodd" d="M489.08 237.084L488.505 236.765L487.868 236.446L487.166 236.127L486.464 235.809L485.699 235.49L484.87 235.171L484.041 234.916L483.211 234.597L482.255 234.405L481.362 234.214L480.341 234.023L479.321 233.831L478.236 233.767L477.088 233.64H475.94H474.728H473.516L472.241 233.767L470.965 233.895L469.625 234.15L468.222 234.533L466.883 235.043L465.543 235.745L464.14 236.574L462.864 237.658L461.589 238.934L460.377 240.465L459.229 242.251L458.144 244.419L457.124 246.843L456.231 249.522L455.466 252.647L455.147 254.37L454.955 256.028L454.891 257.75L454.955 259.408L455.083 261.067L455.402 262.598L455.848 264.065L456.358 265.532L457.124 266.807L457.953 268.083L458.974 269.167L460.185 270.188L461.461 271.081L462.928 271.782L464.587 272.42L466.436 272.867L467.074 272.994L467.84 273.186L468.669 273.249L469.625 273.377L470.71 273.441H471.794H473.006L474.218 273.377L475.494 273.186L476.769 272.994L477.981 272.612L479.193 272.229L480.405 271.719L481.489 271.081L482.51 270.315L483.467 269.422L481.298 282.371L481.043 282.626L480.724 282.881L480.341 283.264L479.895 283.519L479.384 283.901L478.683 284.22L477.917 284.603L477.024 284.858L475.94 285.241L474.664 285.432L473.197 285.624L471.539 285.815L469.625 285.942L467.457 286.006L465.033 285.942L462.29 285.815L460.058 285.56L457.825 285.049L455.593 284.348L453.361 283.391L451.256 282.243L449.215 280.776L447.301 279.054L445.451 277.14L443.857 274.972L442.517 272.548L441.369 269.805L440.476 266.871L439.902 263.618L439.711 260.174L439.839 256.411L440.349 252.392L440.731 250.415L441.178 248.438L441.688 246.588L442.135 244.802L442.645 243.08L443.283 241.421L443.921 239.827L444.622 238.296L445.324 236.829L446.089 235.426L446.855 234.023L447.748 232.811L448.641 231.599L449.597 230.387L450.554 229.366L451.575 228.346L452.659 227.325L453.807 226.432L454.955 225.603L456.167 224.838L457.507 224.136L458.782 223.498L460.185 222.924L461.589 222.35L463.056 221.904L464.523 221.521L466.117 221.138L467.776 220.883L469.37 220.628L471.156 220.437L472.878 220.373L474.728 220.309L476.259 220.373L477.79 220.437L479.193 220.564L480.66 220.756L482.063 220.947L483.339 221.266L484.615 221.521L485.763 221.776L486.911 222.095L487.868 222.35L488.761 222.669L489.526 222.924L490.228 223.179L490.802 223.371L491.248 223.562L491.503 223.69L489.08 237.084Z" fill="white"/>
<path d="M489.08 237.084L488.505 236.765L487.868 236.446L487.166 236.127L486.464 235.809L485.699 235.49L484.87 235.171L484.041 234.916L483.211 234.597L482.255 234.405L481.362 234.214L480.341 234.023L479.321 233.831L478.236 233.767L477.088 233.64H475.94H474.728H473.516L472.241 233.767L470.965 233.895L469.625 234.15L468.222 234.533L466.883 235.043L465.543 235.745L464.14 236.574L462.864 237.658L461.589 238.934L460.377 240.465L459.229 242.251L458.144 244.419L457.124 246.843L456.231 249.522L455.466 252.647L455.147 254.37L454.955 256.028L454.891 257.75L454.955 259.408L455.083 261.067L455.402 262.598L455.848 264.065L456.358 265.532L457.124 266.807L457.953 268.083L458.974 269.167L460.185 270.188L461.461 271.081L462.928 271.782L464.587 272.42L466.436 272.867L467.074 272.994L467.84 273.186L468.669 273.249L469.625 273.377L470.71 273.441H471.794H473.006L474.218 273.377L475.494 273.186L476.769 272.994L477.981 272.612L479.193 272.229L480.405 271.719L481.489 271.081L482.51 270.315L483.467 269.422L481.298 282.371L481.043 282.626L480.724 282.881L480.341 283.264L479.895 283.519L479.384 283.901L478.683 284.22L477.917 284.603L477.024 284.858L475.94 285.241L474.664 285.432L473.197 285.624L471.539 285.815L469.625 285.942L467.457 286.006L465.033 285.942L462.29 285.815L460.058 285.56L457.825 285.049L455.593 284.348L453.361 283.391L451.256 282.243L449.215 280.776L447.301 279.054L445.451 277.14L443.857 274.972L442.517 272.548L441.369 269.805L440.476 266.871L439.902 263.618L439.711 260.174L439.839 256.411L440.349 252.392L440.731 250.415L441.178 248.438L441.688 246.588L442.135 244.802L442.645 243.08L443.283 241.421L443.921 239.827L444.622 238.296L445.324 236.829L446.089 235.426L446.855 234.023L447.748 232.811L448.641 231.599L449.597 230.387L450.554 229.366L451.575 228.346L452.659 227.325L453.807 226.432L454.955 225.603L456.167 224.838L457.507 224.136L458.782 223.498L460.185 222.924L461.589 222.35L463.056 221.904L464.523 221.521L466.117 221.138L467.776 220.883L469.37 220.628L471.156 220.437L472.878 220.373L474.728 220.309L476.259 220.373L477.79 220.437L479.193 220.564L480.66 220.756L482.063 220.947L483.339 221.266L484.615 221.521L485.763 221.776L486.911 222.095L487.868 222.35L488.761 222.669L489.526 222.924L490.228 223.179L490.802 223.371L491.248 223.562L491.503 223.69L489.08 237.084Z" stroke="white" stroke-width="0.216" stroke-miterlimit="2.6131"/>
<path fill-rule="evenodd" clip-rule="evenodd" d="M608.291 286.005H594.897L595.853 280.647V280.201L595.088 281.158L594.259 281.987L593.43 282.816L592.6 283.454L591.707 284.092L590.814 284.602L589.985 285.049L589.028 285.495L588.135 285.814L587.179 286.069L586.286 286.324L585.329 286.452L584.372 286.643L583.415 286.707L582.459 286.771H581.502L578.951 286.579L576.654 286.005L574.486 285.24L572.572 284.092L570.85 282.689L569.255 281.03L567.916 279.244L566.768 277.203L565.811 275.035L565.046 272.802L564.472 270.378L564.089 267.955L563.961 265.467L564.025 262.916L564.217 260.492L564.663 258.004L565.428 255.134L566.258 252.455L567.278 249.968L568.49 247.671L569.766 245.439L571.233 243.525L572.7 241.803L574.294 240.209L576.017 238.805L577.802 237.594L579.652 236.509L581.502 235.68L583.415 234.978L585.329 234.596L587.306 234.277L589.284 234.213H590.687L592.026 234.404L593.302 234.596L594.45 234.978L595.598 235.361L596.555 235.808L597.512 236.318L598.405 236.828L599.17 237.402L599.872 238.04L600.509 238.678L601.083 239.316L601.594 239.954L602.04 240.591L602.423 241.165L602.678 241.739L606.059 222.732H619.262L608.291 286.005Z" fill="white"/>
<path d="M608.291 286.005H594.897L595.853 280.647V280.201L595.088 281.158L594.259 281.987L593.43 282.816L592.6 283.454L591.707 284.092L590.814 284.602L589.985 285.049L589.028 285.495L588.135 285.814L587.179 286.069L586.286 286.324L585.329 286.452L584.372 286.643L583.415 286.707L582.459 286.771H581.502L578.951 286.579L576.654 286.005L574.486 285.24L572.572 284.092L570.85 282.689L569.255 281.03L567.916 279.244L566.768 277.203L565.811 275.035L565.046 272.802L564.472 270.378L564.089 267.955L563.961 265.467L564.025 262.916L564.217 260.492L564.663 258.004L565.428 255.134L566.258 252.455L567.278 249.968L568.49 247.671L569.766 245.439L571.233 243.525L572.7 241.803L574.294 240.209L576.017 238.805L577.802 237.594L579.652 236.509L581.502 235.68L583.415 234.978L585.329 234.596L587.306 234.277L589.284 234.213H590.687L592.026 234.404L593.302 234.596L594.45 234.978L595.598 235.361L596.555 235.808L597.512 236.318L598.405 236.828L599.17 237.402L599.872 238.04L600.509 238.678L601.083 239.316L601.594 239.954L602.04 240.591L602.423 241.165L602.678 241.739L606.059 222.732H619.262L608.291 286.005Z" stroke="white" stroke-width="0.216" stroke-miterlimit="2.6131"/>
<path fill-rule="evenodd" clip-rule="evenodd" d="M586.349 274.334L587.752 274.206L588.964 273.951L590.176 273.568L591.26 273.058L592.281 272.484L593.237 271.782L594.194 270.953L594.96 270.06L595.725 269.103L596.363 268.019L597.001 266.935L597.575 265.787L598.021 264.511L598.404 263.299L598.787 261.96L598.978 260.684L599.233 259.344L599.424 257.941V256.602L599.361 255.262L599.233 253.987L598.978 252.775L598.659 251.627L598.276 250.478L597.766 249.522L597.192 248.629L596.618 247.863L595.853 247.162L595.023 246.588L594.194 246.205L593.237 245.95L592.217 245.822L590.941 245.95L589.729 246.141L588.581 246.524L587.497 247.034L586.54 247.672L585.52 248.437L584.754 249.267L583.925 250.16L583.16 251.244L582.522 252.328L581.884 253.476L581.31 254.752L580.863 256.028L580.481 257.367L580.098 258.77L579.779 260.174L579.524 262.342L579.652 264.638L579.97 266.998L580.608 269.295L581.565 271.272L582.841 272.867L584.435 273.951L586.349 274.334Z" fill="#FBB231"/>
<path fill-rule="evenodd" clip-rule="evenodd" d="M289.054 275.291L287.077 286.007H274.894L275.277 284.029L275.468 282.244L275.659 280.904L275.851 280.202L275.213 280.968L274.447 281.733L273.491 282.435L272.47 283.137L271.322 283.838L270.11 284.412L268.834 284.986L267.559 285.433L266.155 285.879L264.752 286.262L263.349 286.517L261.882 286.708L260.479 286.836H259.076L257.736 286.708L256.397 286.517L254.738 286.071L253.144 285.624L251.804 284.986L250.592 284.221L249.572 283.455L248.551 282.626L247.786 281.67L247.148 280.713L246.574 279.692L246.064 278.608L245.681 277.587L245.362 276.503L245.171 275.355L245.043 274.271L244.916 273.186V272.166L245.107 270.252L245.362 268.466L245.872 266.744L246.51 265.086L247.276 263.555L248.105 262.152L249.125 260.812L250.337 259.6L251.549 258.516L252.888 257.496L254.292 256.539L255.759 255.773L257.29 255.136L258.884 254.561L260.543 254.115L262.201 253.86H262.329L262.584 253.796L262.903 253.732L263.413 253.668L263.987 253.605L264.688 253.541L265.39 253.477L266.219 253.35L267.048 253.286L267.878 253.158L268.771 253.094L269.536 253.031L270.301 252.967L271.003 252.903L271.705 252.839H272.215H273.363L274.511 252.903L275.596 252.967H276.68L277.509 253.031H278.211L278.657 253.094H278.848L278.912 252.776L279.231 251.883L279.423 250.862L279.55 249.969L279.359 248.885L278.912 247.928L278.338 247.035L277.573 246.333L276.68 245.696L275.659 245.249L274.447 244.994L273.235 244.866H271.832L270.429 244.803H268.898L267.367 244.866L265.773 244.93L264.178 245.058L262.647 245.249L261.18 245.44L259.713 245.632L258.31 245.823L257.034 246.078L255.886 246.333L254.802 246.652L253.909 246.907L253.271 247.29L252.761 247.545L256.142 235.873L257.226 235.426L258.31 235.044L259.458 234.725L260.606 234.47L261.818 234.214L263.03 234.023L264.306 233.832L265.645 233.768L266.985 233.64L268.388 233.577H269.855H271.322H272.853H274.447H276.17L277.892 233.64L279.231 233.768L280.698 234.023L282.165 234.342L283.696 234.789L285.227 235.363L286.694 236L288.097 236.83L289.5 237.786L290.648 238.807L291.733 240.019L292.753 241.294L293.455 242.761L293.965 244.292L294.22 245.951V247.8L293.965 249.714L289.054 275.291Z" fill="white"/>
<path d="M289.054 275.291L287.077 286.007H274.894L275.277 284.029L275.468 282.244L275.659 280.904L275.851 280.202L275.213 280.968L274.447 281.733L273.491 282.435L272.47 283.137L271.322 283.838L270.11 284.412L268.834 284.986L267.559 285.433L266.155 285.879L264.752 286.262L263.349 286.517L261.882 286.708L260.479 286.836H259.076L257.736 286.708L256.397 286.517L254.738 286.071L253.144 285.624L251.804 284.986L250.592 284.221L249.572 283.455L248.551 282.626L247.786 281.67L247.148 280.713L246.574 279.692L246.064 278.608L245.681 277.587L245.362 276.503L245.171 275.355L245.043 274.271L244.916 273.186V272.166L245.107 270.252L245.362 268.466L245.872 266.744L246.51 265.086L247.276 263.555L248.105 262.152L249.125 260.812L250.337 259.6L251.549 258.516L252.888 257.496L254.292 256.539L255.759 255.773L257.29 255.136L258.884 254.561L260.543 254.115L262.201 253.86H262.329L262.584 253.796L262.903 253.732L263.413 253.668L263.987 253.605L264.688 253.541L265.39 253.477L266.219 253.35L267.048 253.286L267.878 253.158L268.771 253.094L269.536 253.031L270.301 252.967L271.003 252.903L271.705 252.839H272.215H273.363L274.511 252.903L275.596 252.967H276.68L277.509 253.031H278.211L278.657 253.094H278.848L278.912 252.776L279.231 251.883L279.423 250.862L279.55 249.969L279.359 248.885L278.912 247.928L278.338 247.035L277.573 246.333L276.68 245.696L275.659 245.249L274.447 244.994L273.235 244.866H271.832L270.429 244.803H268.898L267.367 244.866L265.773 244.93L264.178 245.058L262.647 245.249L261.18 245.44L259.713 245.632L258.31 245.823L257.034 246.078L255.886 246.333L254.802 246.652L253.909 246.907L253.271 247.29L252.761 247.545L256.142 235.873L257.226 235.426L258.31 235.044L259.458 234.725L260.606 234.47L261.818 234.214L263.03 234.023L264.306 233.832L265.645 233.768L266.985 233.64L268.388 233.577H269.855H271.322H272.853H274.447H276.17L277.892 233.64L279.231 233.768L280.698 234.023L282.165 234.342L283.696 234.789L285.227 235.363L286.694 236L288.097 236.83L289.5 237.786L290.648 238.807L291.733 240.019L292.753 241.294L293.455 242.761L293.965 244.292L294.22 245.951V247.8L293.965 249.714L289.054 275.291Z" stroke="white" stroke-width="0.216" stroke-miterlimit="2.6131"/>
<path fill-rule="evenodd" clip-rule="evenodd" d="M277.38 262.662L277.316 262.406L277.125 262.151L276.87 262.024L276.36 261.896L275.849 261.832L275.212 261.769H274.446H273.745L272.979 261.832L272.15 261.896L271.385 262.024L270.619 262.151L269.854 262.215L269.216 262.343L268.642 262.534L268.068 262.662L267.749 262.725L267.366 262.917L266.856 263.108L266.282 263.299L265.644 263.618L265.006 263.937L264.368 264.32L263.731 264.703L263.029 265.149L262.391 265.659L261.817 266.233L261.307 266.807L260.797 267.445L260.478 268.147L260.222 268.912L260.031 269.678L259.967 271.336L260.222 272.612L260.733 273.569L261.371 274.334L262.072 274.78L262.901 275.099L263.667 275.227L264.432 275.291L265.899 275.227L267.239 275.099L268.451 274.908L269.599 274.589L270.555 274.27L271.448 273.824L272.278 273.377L273.043 272.867L273.681 272.357L274.255 271.783L274.701 271.272L275.084 270.698L275.467 270.124L275.722 269.55L275.977 268.976L276.105 268.466L276.487 267.063L276.87 265.468L277.125 263.937L277.38 262.662Z" fill="#EC1C2E"/>
<path fill-rule="evenodd" clip-rule="evenodd" d="M187.191 286.005H173.987L185.022 222.477H207.92L210.089 260.173L225.907 222.477H249.826L238.6 286.005H225.397L233.753 238.55H233.242L213.533 286.005H198.672L198.544 284.028L198.225 278.798L197.779 271.271L197.268 262.66L196.822 253.986L196.375 246.395L196.056 240.846L195.929 238.55H195.801H195.482H195.227L187.191 286.005Z" fill="white"/>
<path d="M187.191 286.005H173.987L185.022 222.477H207.92L210.089 260.173L225.907 222.477H249.826L238.6 286.005H225.397L233.753 238.55H233.242L213.533 286.005H198.672L198.544 284.028L198.225 278.798L197.779 271.271L197.268 262.66L196.822 253.986L196.375 246.395L196.056 240.846L195.929 238.55H195.801H195.482H195.227L187.191 286.005Z" stroke="white" stroke-width="0.216" stroke-miterlimit="2.6131"/>
<path fill-rule="evenodd" clip-rule="evenodd" d="M529.327 275.291L527.349 286.007H515.23L515.294 284.029L515.358 282.307V281.032L515.422 280.458L514.848 281.159L514.082 281.861L513.253 282.563L512.232 283.264L511.212 283.838L510.064 284.412L508.852 285.05L507.64 285.497L506.364 285.879L504.961 286.262L503.622 286.517L502.282 286.708L500.879 286.836H499.54L498.2 286.708L496.924 286.517L495.139 286.071L493.608 285.624L492.268 284.986L490.993 284.221L489.908 283.455L489.015 282.626L488.25 281.67L487.548 280.713L486.974 279.692L486.528 278.608L486.145 277.587L485.89 276.503L485.698 275.355L485.571 274.271L485.443 273.186V272.166L485.571 270.252L485.89 268.466L486.273 266.744L486.91 265.086L487.676 263.555L488.569 262.152L489.589 260.812L490.674 259.6L491.949 258.516L493.289 257.496L494.692 256.539L496.159 255.773L497.69 255.136L499.284 254.561L500.879 254.115L502.537 253.86H502.601L502.856 253.796L503.175 253.732L503.685 253.668L504.323 253.605L504.961 253.541L505.727 253.477L506.492 253.35L507.321 253.286L508.214 253.158L508.98 253.094L509.809 253.031L510.574 252.967L511.276 252.903L511.977 252.839H512.488H513.636L514.848 252.903L515.932 252.967H517.016L517.909 253.031H518.675L519.121 253.094H519.312L519.44 252.776L519.568 251.883L519.695 250.862L519.823 249.969L519.631 248.885L519.249 247.928L518.611 247.035L517.845 246.333L517.016 245.696L515.996 245.249L514.911 244.994L513.763 244.866H512.36L510.957 244.803H509.426L507.895 244.866L506.301 244.93L504.706 245.058L503.175 245.249L501.708 245.44L500.241 245.632L498.838 245.823L497.562 246.078L496.414 246.333L495.33 246.652L494.501 246.907L493.799 247.29L493.289 247.545L496.669 235.873L497.69 235.426L498.838 235.044L499.922 234.725L501.134 234.47L502.346 234.214L503.558 234.023L504.77 233.832L506.109 233.768L507.449 233.64L508.852 233.577H510.255H511.786H513.253H514.848H516.442L518.101 233.64L519.44 233.768L520.907 234.023L522.438 234.342L523.969 234.789L525.436 235.363L526.966 236L528.434 236.83L529.773 237.786L530.985 238.807L532.069 240.019L533.026 241.294L533.791 242.761L534.302 244.292L534.684 245.951V247.8L534.429 249.714L529.327 275.291Z" fill="white"/>
<path fill-rule="evenodd" clip-rule="evenodd" d="M527.349 286.391L527.668 286.072L529.645 275.357L529.071 275.229L527.03 286.008L527.349 285.69V286.391L527.604 286.327L527.668 286.072L527.349 286.391Z" fill="white"/>
<path fill-rule="evenodd" clip-rule="evenodd" d="M514.91 286.006L515.229 286.389H527.348V285.687H515.229L515.485 286.006H514.91L514.847 286.389H515.229L514.91 286.006Z" fill="white"/>
<path fill-rule="evenodd" clip-rule="evenodd" d="M515.674 280.582L515.228 280.2L515.036 281.029L514.973 282.305V284.027L514.909 286.004H515.483L515.61 284.027L515.674 282.305L515.61 281.029V280.582L515.228 280.2L515.674 280.582Z" fill="white"/>
<path fill-rule="evenodd" clip-rule="evenodd" d="M496.861 286.833L498.2 287.025L499.54 287.152L500.879 287.088L502.282 287.025L503.686 286.833L505.025 286.578L506.365 286.195L507.768 285.813L508.98 285.302L510.192 284.728L511.404 284.154L512.36 283.453L513.381 282.815L514.274 282.113L515.039 281.348L515.677 280.582L515.231 280.2L514.593 280.965L513.891 281.603L512.998 282.305L512.105 283.006L511.085 283.58L509.937 284.154L508.788 284.728L507.577 285.239L506.301 285.621L504.961 286.004L503.558 286.259L502.282 286.451L500.879 286.514L499.54 286.578L498.2 286.451L496.925 286.259L496.861 286.833Z" fill="white"/>
<path fill-rule="evenodd" clip-rule="evenodd" d="M485.123 272.164L485.186 273.185L485.25 274.269L485.441 275.417L485.633 276.565L485.888 277.586L486.271 278.734L486.653 279.818L487.291 280.839L487.993 281.859L488.758 282.816L489.715 283.709L490.863 284.474L492.139 285.24L493.542 285.878L495.137 286.388L496.859 286.834L496.923 286.26L495.2 285.814L493.733 285.304L492.394 284.666L491.118 284.028L490.098 283.262L489.269 282.433L488.503 281.476L487.801 280.584L487.291 279.563L486.845 278.542L486.462 277.522L486.207 276.438L486.016 275.353L485.888 274.269L485.76 273.185L485.824 272.164H485.123Z" fill="white"/>
<path fill-rule="evenodd" clip-rule="evenodd" d="M502.536 253.54L500.813 253.859L499.155 254.305L497.56 254.816L496.03 255.517L494.499 256.283L493.096 257.24L491.756 258.26L490.48 259.408L489.332 260.62L488.312 261.959L487.355 263.427L486.653 265.021L486.016 266.679L485.569 268.402L485.25 270.251L485.123 272.165H485.824L485.888 270.251L486.143 268.529L486.59 266.871L487.227 265.212L487.929 263.682L488.822 262.342L489.843 261.003L490.863 259.791L492.139 258.706L493.478 257.686L494.818 256.857L496.349 256.028L497.752 255.39L499.346 254.879L500.941 254.433L502.536 254.114V253.54Z" fill="white"/>
<path fill-rule="evenodd" clip-rule="evenodd" d="M512.485 252.519H511.975L511.273 252.646L510.572 252.71H509.806L508.977 252.837H508.212L507.319 252.965L506.49 253.029L505.724 253.156L504.959 253.284H504.321L503.683 253.412L503.173 253.475H502.79L502.599 253.539H502.535V254.113H502.599L502.918 254.049H503.173L503.683 253.986L504.321 253.922L504.959 253.858L505.724 253.73L506.49 253.667L507.319 253.539L508.212 253.475L508.977 253.412L509.806 253.284H510.572L511.273 253.22H511.975H512.485V252.519Z" fill="white"/>
<path fill-rule="evenodd" clip-rule="evenodd" d="M519.056 253.029L519.311 252.837H519.119L518.673 252.774L517.907 252.71L517.014 252.646H515.93H514.846L513.634 252.519H512.486V253.22H513.634H514.846L515.93 253.284H517.014H517.907L518.673 253.348L519.119 253.412H519.311L519.63 253.156L519.311 253.412L519.566 253.475L519.63 253.156L519.056 253.029Z" fill="white"/>
<path fill-rule="evenodd" clip-rule="evenodd" d="M519.504 249.971H519.44V250.864L519.248 251.884L519.121 252.713L519.057 253.032L519.631 253.16L519.695 252.841L519.823 251.948L520.014 250.864L520.141 249.971H520.078H519.504Z" fill="white"/>
<path fill-rule="evenodd" clip-rule="evenodd" d="M513.763 245.183V245.247H514.847L515.868 245.566L516.824 246.012L517.654 246.587L518.355 247.288L518.929 248.054L519.312 248.946L519.503 249.967H520.077L519.886 248.883L519.503 247.798L518.802 246.842L518.036 246.076L517.143 245.438L516.059 244.992L514.975 244.673L513.763 244.545V244.609V245.183Z" fill="white"/>
<path fill-rule="evenodd" clip-rule="evenodd" d="M492.968 247.483L493.478 247.801L493.924 247.546L494.562 247.227L495.391 246.908L496.476 246.653L497.624 246.398L498.9 246.143L500.303 245.888L501.706 245.697L503.173 245.505L504.704 245.378L506.299 245.25L507.893 245.123H509.424H510.955H512.358L513.761 245.186V244.612L512.358 244.548L510.955 244.421H509.424L507.893 244.548L506.299 244.612L504.704 244.804L503.173 244.931L501.706 245.123L500.175 245.314L498.772 245.569L497.496 245.824L496.348 246.079L495.328 246.334L494.371 246.653L493.669 246.972L493.095 247.291L493.542 247.61L492.968 247.483Z" fill="white"/>
<path fill-rule="evenodd" clip-rule="evenodd" d="M496.54 235.62L496.348 235.811L492.968 247.483L493.542 247.611L496.922 235.939L496.731 236.194L496.54 235.62H496.412L496.348 235.811L496.54 235.62Z" fill="white"/>
<path fill-rule="evenodd" clip-rule="evenodd" d="M518.099 233.382L516.441 233.254L514.846 233.19H513.251H511.784H510.253L508.85 233.318L507.447 233.382L506.108 233.446L504.768 233.573L503.492 233.765L502.281 233.956L501.069 234.211L499.921 234.402L498.709 234.785L497.624 235.168L496.54 235.614L496.731 236.188L497.816 235.742L498.9 235.359L499.984 234.976L501.132 234.785L502.344 234.53L503.556 234.339L504.768 234.147L506.108 234.02L507.447 233.956L508.85 233.892H510.253H511.784H513.251H514.846L516.441 233.956H518.099V233.382Z" fill="white"/>
<path fill-rule="evenodd" clip-rule="evenodd" d="M534.746 249.776L534.937 247.798V245.949L534.618 244.227L534.108 242.632L533.279 241.165L532.322 239.825L531.174 238.614L529.962 237.529L528.559 236.572L527.092 235.743L525.561 235.042L524.03 234.468L522.435 234.021L520.968 233.702L519.438 233.447L518.098 233.383V233.957L519.438 234.021L520.841 234.276L522.372 234.595L523.839 235.042L525.369 235.616L526.837 236.317L528.24 237.083L529.579 237.976L530.791 239.06L531.875 240.208L532.832 241.42L533.47 242.887L534.044 244.354L534.363 245.949V247.798L534.108 249.648L534.746 249.776Z" fill="white"/>
<path fill-rule="evenodd" clip-rule="evenodd" d="M529.644 275.352L534.747 249.775L534.109 249.647L529.07 275.224L529.644 275.352Z" fill="white"/>
<path fill-rule="evenodd" clip-rule="evenodd" d="M517.652 262.663L517.524 262.344L517.333 262.153L517.014 261.961L516.504 261.834L515.993 261.77L515.355 261.706H514.59L513.888 261.77L513.123 261.897L512.358 261.961L511.592 262.089L510.827 262.153L510.125 262.344L509.487 262.408L508.85 262.535L508.403 262.663L508.02 262.727L507.638 262.854L507.191 262.982L506.617 263.173L505.979 263.492L505.405 263.747L504.704 264.13L504.13 264.513L503.492 264.959L502.854 265.533L502.344 266.043L501.77 266.681L501.323 267.383L501.004 268.084L500.749 268.85L500.558 269.679V271.337L500.749 272.613L501.132 273.57L501.706 274.335L502.471 274.782L503.3 275.101L504.13 275.228L504.959 275.292L506.362 275.228L507.765 275.101L508.977 274.845L510.125 274.527L511.209 274.144L512.103 273.697L512.996 273.187L513.761 272.613L514.463 272.103L514.973 271.465L515.547 270.891L515.993 270.253L516.312 269.679L516.567 269.105L516.759 268.531L516.886 267.957L517.078 266.617L517.333 265.214L517.524 263.875L517.652 262.663Z" fill="#FBB231"/>
<path fill-rule="evenodd" clip-rule="evenodd" d="M617.346 279.438L617.473 278.29L617.856 276.95L618.494 275.802L619.323 274.782L620.344 274.016L621.555 273.378L622.767 272.996L624.107 272.868L625.51 272.996L626.722 273.378L627.934 274.016L628.954 274.782L629.783 275.802L630.421 276.95L630.804 278.29L630.932 279.438H629.465L629.401 278.545L629.146 277.461L628.635 276.504L627.997 275.675L627.232 274.973L626.339 274.527L625.255 274.144L624.107 274.08L623.022 274.144L621.938 274.527L621.045 274.973L620.28 275.675L619.642 276.504L619.132 277.461L618.876 278.545L618.749 279.438H617.346Z" fill="white"/>
<path fill-rule="evenodd" clip-rule="evenodd" d="M621.684 279.434V276.5H624.363L624.937 276.563L625.511 276.627L625.894 276.755L626.213 276.946L626.468 277.265L626.659 277.584L626.723 277.903L626.787 278.222L626.723 278.668L626.659 278.987L626.532 279.306L626.404 279.434H624.363L624.554 279.37L624.937 279.306L625.192 279.242L625.447 279.115L625.639 278.987L625.766 278.796L625.83 278.604V278.222L625.766 277.967L625.702 277.775L625.575 277.711L625.383 277.584H625.128L624.937 277.52H624.682H624.363H622.896V279.434H621.684Z" fill="white"/>
<path fill-rule="evenodd" clip-rule="evenodd" d="M617.348 279.434L617.284 279.689L617.475 281.092L617.858 282.431L618.496 283.58L619.325 284.536L620.345 285.365L621.557 286.003L622.769 286.386L624.109 286.514L625.512 286.386L626.724 286.003L627.936 285.365L628.956 284.536L629.785 283.58L630.423 282.431L630.806 281.092L630.933 279.689V279.434H629.466L629.53 279.689L629.403 280.837L629.148 281.921L628.637 282.814L627.999 283.643L627.234 284.345L626.341 284.855L625.257 285.238L624.109 285.302L623.024 285.238L621.94 284.855L621.047 284.345L620.282 283.643L619.644 282.814L619.133 281.921L618.878 280.837L618.751 279.689V279.434H617.348Z" fill="white"/>
<path fill-rule="evenodd" clip-rule="evenodd" d="M621.684 279.434V282.368H622.896V279.944H624.108L625.575 282.368H626.532L625.128 279.944H625.447L625.766 279.816L626.085 279.753L626.34 279.561L626.404 279.434H624.363H624.108H622.896H621.684Z" fill="white"/>
<path d="M617.284 279.69V278.287L617.666 276.947L618.304 275.799L619.133 274.779L620.154 273.949L621.302 273.375L622.578 272.993H623.917H625.32L626.532 273.375L627.744 273.949L628.765 274.779L629.53 275.799L630.232 276.947L630.614 278.287V279.69V281.093L630.232 282.369L629.53 283.517L628.765 284.474L627.744 285.303L626.532 285.941L625.32 286.323H623.917H622.578L621.302 285.941L620.154 285.303L619.133 284.474L618.304 283.517L617.666 282.369L617.284 281.093V279.69ZM622.897 282.305H621.685V276.501H624.938H625.512H625.895V276.82V277.521V278.287V278.606H625.576H624.938L626.341 281.029H625.384L623.917 278.606H622.705V281.029L622.897 282.305ZM623.917 278.159H624.364H624.683H625.001V277.713H622.386V279.626H623.598L623.917 278.159ZM623.598 285.494H624.746L625.831 285.175L626.724 284.601L627.489 283.963L628.127 283.134L628.574 282.241V281.157V280.009V278.797V277.776L628.127 276.82L627.489 275.927L626.724 275.289L625.831 274.779L624.746 274.46H623.598H622.514L621.43 274.779L620.537 275.289L619.771 275.927L619.133 276.82L618.623 277.776V278.797V280.009V281.157V282.241L619.133 283.134L619.771 283.963L620.537 284.601L621.43 285.175L622.514 285.494H623.598Z" stroke="white" stroke-width="0.216" stroke-miterlimit="2.6131"/>
<path fill-rule="evenodd" clip-rule="evenodd" d="M532.96 286.005H546.61L551.521 258.514L551.712 257.43L551.968 256.346L552.286 255.325L552.669 254.241L553.179 253.157L553.753 252.136L554.391 251.179L555.157 250.222L556.05 249.457L557.006 248.628L558.091 247.926L559.366 247.352L560.77 246.842L562.3 246.459L564.023 246.204L565.872 246.077H566.574H566.957H567.084L569.253 233.639L567.913 233.766L566.638 233.894L565.426 234.149L564.214 234.468L563.193 234.851L562.173 235.361L561.216 235.871L560.259 236.445L559.43 237.147L558.601 237.785L557.836 238.614L557.006 239.379L556.305 240.208L555.603 241.101L554.838 241.994L554.2 242.951L555.603 234.213H542.017L532.96 286.005Z" fill="white"/>
<path d="M532.96 286.005H546.61L551.521 258.514L551.712 257.43L551.968 256.346L552.286 255.325L552.669 254.241L553.179 253.157L553.753 252.136L554.391 251.179L555.157 250.222L556.05 249.457L557.006 248.628L558.091 247.926L559.366 247.352L560.77 246.842L562.3 246.459L564.023 246.204L565.872 246.077H566.574H566.957H567.084L569.253 233.639L567.913 233.766L566.638 233.894L565.426 234.149L564.214 234.468L563.193 234.851L562.173 235.361L561.216 235.871L560.259 236.445L559.43 237.147L558.601 237.785L557.836 238.614L557.006 239.379L556.305 240.208L555.603 241.101L554.838 241.994L554.2 242.951L555.603 234.213H542.017L532.96 286.005Z" stroke="white" stroke-width="0.216" stroke-miterlimit="2.6131"/>
<path fill-rule="evenodd" clip-rule="evenodd" d="M404.757 286.005H418.407H418.662L423.318 258.514L423.51 257.43L423.765 256.409L423.956 255.389L424.339 254.432L424.722 253.475L425.168 252.519L425.742 251.689L426.444 250.86L427.209 250.095L428.102 249.393L429.186 248.819L430.335 248.245L431.674 247.862L433.205 247.48L434.863 247.225L436.713 247.033H436.84L437.032 247.097L437.287 247.161H437.542L437.797 247.225L437.989 247.288H438.116H438.18L438.244 247.097L438.371 246.523L438.563 245.694L438.818 244.609L439.137 243.334L439.456 241.994L439.902 240.591L440.349 239.252L440.731 238.359L441.242 237.402L441.688 236.509L442.198 235.68L442.645 234.978L442.964 234.404L443.219 234.021L443.283 233.894L443.091 233.83L442.836 233.766H442.453H442.135L441.752 233.702L441.433 233.639H441.05L439.583 233.766L438.244 233.894L436.968 234.149L435.82 234.404L434.672 234.787L433.651 235.297L432.758 235.807L431.865 236.381L431.036 237.019L430.271 237.721L429.569 238.422L428.804 239.252L428.102 240.081L427.4 241.038L426.699 241.994L425.933 242.951L427.719 234.213H413.815L404.757 286.005Z" fill="white"/>
<path d="M404.757 286.005H418.407H418.662L423.318 258.514L423.51 257.43L423.765 256.409L423.956 255.389L424.339 254.432L424.722 253.475L425.168 252.519L425.742 251.689L426.444 250.86L427.209 250.095L428.102 249.393L429.186 248.819L430.335 248.245L431.674 247.862L433.205 247.48L434.863 247.225L436.713 247.033H436.84L437.032 247.097L437.287 247.161H437.542L437.797 247.225L437.989 247.288H438.116H438.18L438.244 247.097L438.371 246.523L438.563 245.694L438.818 244.609L439.137 243.334L439.456 241.994L439.902 240.591L440.349 239.252L440.731 238.359L441.242 237.402L441.688 236.509L442.198 235.68L442.645 234.978L442.964 234.404L443.219 234.021L443.283 233.894L443.091 233.83L442.836 233.766H442.453H442.135L441.752 233.702L441.433 233.639H441.05L439.583 233.766L438.244 233.894L436.968 234.149L435.82 234.404L434.672 234.787L433.651 235.297L432.758 235.807L431.865 236.381L431.036 237.019L430.271 237.721L429.569 238.422L428.804 239.252L428.102 240.081L427.4 241.038L426.699 241.994L425.933 242.951L427.719 234.213H413.815L404.757 286.005Z" stroke="white" stroke-width="0.216" stroke-miterlimit="2.6131"/>
<path fill-rule="evenodd" clip-rule="evenodd" d="M617.474 336.971V336.779L617.856 335.504L618.494 334.419L619.323 333.462L620.344 332.697L621.556 332.059L622.768 331.74L624.107 331.613L625.51 331.74L626.722 332.059L627.934 332.697L628.955 333.462L629.784 334.419L630.422 335.504L630.804 336.779V336.971H629.401L629.146 335.95L628.636 335.057L627.998 334.228L627.233 333.526L626.34 333.016L625.255 332.697L624.107 332.57L623.023 332.697L621.939 333.016L621.046 333.526L620.28 334.228L619.642 335.057L619.132 335.95L618.877 336.971H617.474Z" fill="#FBB231"/>
<path fill-rule="evenodd" clip-rule="evenodd" d="M621.684 336.971V335.312H624.363H624.937L625.511 335.376L625.894 335.44L626.213 335.631L626.468 335.887L626.659 336.205L626.723 336.524L626.787 336.971H625.83V336.716L625.766 336.461L625.702 336.269L625.575 336.205L625.383 336.078H625.128L624.937 336.014H624.682H624.363H622.896V336.971H621.684Z" fill="#FBB231"/>
<path fill-rule="evenodd" clip-rule="evenodd" d="M617.284 338.054L617.475 336.97H618.878V337.033L618.751 338.054H617.284Z" fill="#FBB231"/>
<path fill-rule="evenodd" clip-rule="evenodd" d="M621.684 338.054V336.97H622.896V337.926H624.108L624.554 337.863L624.937 337.799L625.192 337.671L625.447 337.608L625.639 337.48L625.766 337.289L625.83 337.097V336.97H626.787L626.723 337.289L626.659 337.608L626.532 337.863L626.34 338.054H621.684Z" fill="#FBB231"/>
<path fill-rule="evenodd" clip-rule="evenodd" d="M629.53 338.054L629.402 337.033V336.97H630.805L630.933 338.054H629.53Z" fill="#FBB231"/>
<path fill-rule="evenodd" clip-rule="evenodd" d="M617.284 338.053V338.181L617.475 339.584L617.858 340.86L618.496 342.072L619.325 343.092L620.345 343.921L621.557 344.495L622.769 344.878L624.109 345.006L625.512 344.878L626.724 344.495L627.936 343.921L628.956 343.092L629.785 342.072L630.423 340.86L630.806 339.584L630.933 338.181V338.053H629.53V338.181L629.403 339.329L629.148 340.413L628.637 341.306L627.999 342.135L627.234 342.837L626.341 343.347L625.257 343.73L624.109 343.794L623.024 343.73L621.94 343.347L621.047 342.837L620.282 342.135L619.644 341.306L619.133 340.413L618.878 339.329L618.751 338.181V338.053H617.284Z" fill="#FBB231"/>
<path fill-rule="evenodd" clip-rule="evenodd" d="M621.684 338.053V340.86H622.896V338.436H624.108L625.575 340.86H626.532L625.128 338.436H625.447L625.766 338.308L626.085 338.245L626.34 338.053H621.684Z" fill="#FBB231"/>
<path fill-rule="evenodd" clip-rule="evenodd" d="M406.287 249.583L405.84 246.713L405.202 244.098L404.246 241.929L403.034 239.952L401.567 238.294L399.972 236.954L398.25 235.806L396.337 234.913L394.423 234.211L392.382 233.701H390.405H388.427H386.578H382.623L379.115 234.275L375.99 235.168L373.183 236.38L370.759 237.847L368.655 239.442L366.741 241.291L365.21 243.269L363.807 245.31L362.723 247.415L361.83 249.52L361.128 251.561L360.618 253.602L360.235 255.515L359.916 257.301V258.832V262.787V266.358L360.426 269.611L361.256 272.482L362.404 275.033L363.807 277.265L365.465 279.243L367.315 280.901L369.356 282.304L371.589 283.516L373.821 284.473L376.181 285.175L378.605 285.749L381.028 286.131H383.452H393.658H394.614H395.444H396.273H397.038H397.867H398.569L399.271 285.812H400.1L400.865 285.43L401.631 285.047L403.544 273.12L402.141 273.949L400.801 274.714L399.398 275.288L398.059 275.798L396.719 276.245L395.38 276.564H394.04H392.765H391.425H387.598H386.386H385.111H383.899H382.623H381.666H380.71L379.753 276.117L378.86 275.543L377.967 274.969L377.202 274.268L376.5 273.566L375.798 272.737L375.224 271.908L374.714 270.951L374.331 270.122L373.948 269.165V268.272V266.486V265.912H405.394V262.914L406.096 258.832L406.414 255.196L406.287 249.583ZM393.147 254.048H375.416V253.41V252.39L375.734 251.433L376.053 250.413L376.5 249.583L376.946 248.754L377.457 247.989L378.031 247.223L378.668 246.585L379.306 246.011L380.008 245.437L380.773 244.991L381.603 244.608H382.432H383.197H384.09H385.876H386.705H387.471H388.236L389.001 244.991L389.703 245.437L390.341 245.948L390.915 246.522L391.425 247.16L391.872 247.925L392.254 248.754L392.573 249.647V250.604V254.048H393.147Z" fill="white"/>
</g>
<defs>
<clipPath id="clip0">
<rect width="800.038" height="500" fill="white" transform="translate(0.111328)"/>
</clipPath>
</defs>
</svg>
