<svg width="801" height="500" viewBox="0 0 801 500" fill="none" xmlns="http://www.w3.org/2000/svg">
<g clip-path="url(#clip0)">
<path d="M773.603 0H26.8876C12.1629 0 0.226074 11.9368 0.226074 26.6616V473.338C0.226074 488.063 12.1629 500 26.8876 500H773.603C788.328 500 800.264 488.063 800.264 473.338V26.6616C800.264 11.9368 788.328 0 773.603 0Z" fill="#F9F9F9"/>
<path d="M368.385 325.103H329.285L353.714 174.957H392.814L368.385 325.103Z" fill="#0066B2"/>
<path d="M296.437 174.961L259.187 278.227L254.722 255.967L241.583 188.483C240.817 184.29 238.472 180.55 235.031 178.034C231.589 175.518 227.314 174.418 223.086 174.961H161.471L160.769 177.513C175.194 181.109 188.983 186.896 201.654 194.67L235.587 325.044H276.281L338.47 174.961H296.437Z" fill="#0066B2"/>
<path d="M603.811 325.04H639.721L608.403 174.957H577.021C573.216 174.653 569.413 175.572 566.166 177.579C562.92 179.587 560.399 182.579 558.971 186.12L500.672 325.04H541.43L549.595 302.78H599.218L603.811 325.04ZM560.82 271.972L581.359 215.779L592.904 271.972H560.82Z" fill="#0066B2"/>
<path d="M503.734 211.062L509.283 178.788C497.981 174.811 486.118 172.658 474.139 172.409C455.004 172.409 408.697 180.892 408.697 222.097C408.697 260.877 462.785 261.387 462.785 281.734C462.785 302.081 414.31 298.446 398.3 285.625L392.496 319.303C406.441 325.154 421.45 328.043 436.57 327.786C463.232 327.786 503.479 313.945 503.479 276.377C503.479 237.341 448.944 233.705 448.944 216.739C448.944 199.772 487.023 201.814 503.734 211.062Z" fill="#0066B2"/>
<path d="M254.722 255.967L241.583 188.483C240.817 184.29 238.472 180.55 235.031 178.034C231.589 175.518 227.314 174.418 223.086 174.961H161.471L160.769 177.513C181.97 182.904 201.751 192.827 218.748 206.598C234.907 219.571 247.323 236.61 254.722 255.967V255.967Z" fill="#F9A533"/>
</g>
<defs>
<clipPath id="clip0">
<rect width="800.038" height="500" fill="white" transform="translate(0.226074)"/>
</clipPath>
</defs>
</svg>
